<svg width="140" height="123" viewBox="0 0 140 123" fill="none" xmlns="http://www.w3.org/2000/svg">
<path fill-rule="evenodd" clip-rule="evenodd" d="M43.9211 30.8276C45.9548 35.5671 50.0937 37.2273 53.6632 36.415C56.468 35.7765 60.1192 29.8895 59.9902 27.1707C59.6047 19.0155 50.6388 3.47932 45.7594 2.44739C41.8172 5.48735 40.7001 23.3184 43.9211 30.8276Z" fill="#FEDEA6"/>
<path d="M51.9117 36.8186C50.6018 36.8186 49.2984 36.5025 48.1188 35.8869C46.2178 34.8944 44.6999 33.1732 43.7284 30.9088C42.2232 27.3992 41.5389 21.2837 41.9449 14.9474C42.2641 9.95271 43.4003 4.00226 45.6306 2.28109L45.7072 2.22144L45.8016 2.24174C50.7933 3.2978 59.8077 18.9 60.1984 27.1593C60.3337 30.0177 56.6046 35.9568 53.7092 36.6168C53.1181 36.7526 52.5143 36.8186 51.9117 36.8186ZM45.8119 2.67204C44.0756 4.11522 42.7581 8.80654 42.3636 14.974C41.9628 21.2494 42.633 27.2925 44.1139 30.745C45.8348 34.756 49.0482 36.3959 51.9513 36.3959C52.5232 36.3959 53.0824 36.3325 53.6173 36.2106C56.3046 35.5988 59.9086 29.8438 59.7822 27.1783C59.606 23.4402 57.5353 17.717 54.3794 12.24C51.2848 6.86959 48.0154 3.22291 45.8119 2.67204Z" fill="#F5C371"/>
<path d="M45.895 2.37786L45.487 2.47168L53.3932 36.4401L53.8012 36.3463L45.895 2.37786Z" fill="#F9CF88"/>
<path d="M48.8682 15.4818L48.5298 15.2355C48.5554 15.2013 51.0857 11.7615 52.7875 9.49072L53.1232 9.73951C51.4227 12.009 48.8937 15.4475 48.8682 15.4818Z" fill="#F9CF88"/>
<path d="M53.9235 11.2816L48.97 17.0675L49.2888 17.3374L54.2424 11.5515L53.9235 11.2816Z" fill="#F9CF88"/>
<path d="M42.088 19.513L41.8831 19.8761L50.7599 24.8289L50.9648 24.4658L42.088 19.513Z" fill="#F9CF88"/>
<path d="M59.1353 23.1928L52.0704 30.3484L52.3692 30.64L59.4341 23.4844L59.1353 23.1928Z" fill="#F9CF88"/>
<path d="M42.5262 25.2343L42.3794 25.6241L51.785 29.1261L51.9319 28.7362L42.5262 25.2343Z" fill="#F9CF88"/>
<path d="M47.7562 12.061C47.0285 11.4009 45.111 9.65184 43.0314 7.6527L43.3224 7.35315C45.3983 9.34721 47.3132 11.0938 48.0397 11.7525L47.7562 12.061Z" fill="#F9CF88"/>
<path fill-rule="evenodd" clip-rule="evenodd" d="M44.4076 26.328C43.6403 25.555 42.8054 24.7794 41.9181 24.0102C33.6837 16.8717 20.9824 10.298 16.306 11.7806C13.851 17.6701 23.8663 38.4231 32.2692 44.7683C37.5737 48.7729 43.2573 48.0062 46.7221 44.8406C47.303 44.3101 47.8213 43.7109 48.2656 43.0573C50.4704 39.8079 50.8368 35.1711 47.8673 30.5166C47.0094 29.1686 45.8234 27.7534 44.4076 26.328Z" fill="#FEDEA6"/>
<path d="M39.8218 47.7079C37.1996 47.7079 34.5531 46.7534 32.1428 44.9345C28.235 41.9834 23.5918 35.5696 20.0274 28.1938C17.2265 22.3994 14.7268 15.0248 16.1119 11.7005L16.149 11.6117L16.2422 11.5825C18.4878 10.8704 22.6177 11.8985 27.8699 14.4765C32.8028 16.8983 37.9732 20.3165 42.0547 23.854C42.956 24.6359 43.7973 25.4191 44.5556 26.1819C46.0314 27.667 47.2047 29.0873 48.0447 30.4036C50.7933 34.7129 50.9402 39.4854 48.4392 43.1727C47.9885 43.8378 47.4575 44.4509 46.8638 44.9929C45.0459 46.6531 42.6777 47.6152 40.1921 47.7015C40.0695 47.7054 39.9457 47.7079 39.8218 47.7079ZM16.463 11.9506C15.4174 14.672 16.9201 20.8052 20.404 28.0135C23.9416 35.3323 28.5375 41.6889 32.3956 44.6019C37.7958 48.6789 43.4105 47.5822 46.5804 44.687C47.1511 44.1653 47.6592 43.5776 48.092 42.9404C50.4972 39.3953 50.3465 34.7928 47.6911 30.627C46.8677 29.3361 45.7123 27.9386 44.2582 26.4751C43.5075 25.7199 42.6739 24.9431 41.7802 24.1688C33.925 17.3578 21.2198 10.5848 16.463 11.9506Z" fill="#F5C371"/>
<path d="M16.4607 11.6396L16.1517 11.9207L46.5702 44.9821L46.8792 44.7011L16.4607 11.6396Z" fill="#F5C371"/>
<path d="M18.6793 24.8745L18.6639 24.4582C22.3203 24.3198 27.8264 24.1612 27.8813 24.1599L27.8928 24.5762C27.8379 24.5788 22.3343 24.7374 18.6793 24.8745Z" fill="#F5C371"/>
<path d="M29.518 25.9587L19.7488 26.9606L19.7917 27.3747L29.5609 26.3728L29.518 25.9587Z" fill="#F5C371"/>
<path d="M37.1911 20.44L36.0007 33.3918L36.4178 33.4297L37.6081 20.4779L37.1911 20.44Z" fill="#F5C371"/>
<path d="M41.4055 38.8982L28.6394 41.1249L28.7118 41.535L41.4779 39.3083L41.4055 38.8982Z" fill="#F5C371"/>
<path d="M42.9572 25.0729L39.8389 37.5256L40.2453 37.6262L43.3636 25.1735L42.9572 25.0729Z" fill="#F5C371"/>
<path d="M24.5902 21.0388C24.4179 19.7923 23.9506 16.4998 23.3404 12.8683L23.754 12.7998C24.3655 16.4363 24.8341 19.734 25.0064 20.9829L24.5902 21.0388Z" fill="#F5C371"/>
<path fill-rule="evenodd" clip-rule="evenodd" d="M111.674 93.8867C106.591 92.8788 102.877 95.34 101.536 98.7277C100.483 101.389 103.31 107.709 105.64 109.139C112.627 113.426 130.587 114.839 134.198 111.416C133.899 106.465 119.727 95.4822 111.674 93.8867Z" fill="#FEDEA6"/>
<path d="M125.089 113.54C118.338 113.54 109.87 111.98 105.53 109.316C103.081 107.813 100.255 101.4 101.342 98.6516C102.05 96.8645 103.386 95.3806 105.105 94.4756C107.002 93.4754 109.287 93.2025 111.716 93.6836C115.48 94.4287 120.943 97.3214 125.974 101.231C129.94 104.313 134.239 108.604 134.409 111.407L134.415 111.503L134.345 111.571C132.914 112.921 129.342 113.54 125.089 113.54ZM109.446 93.8689C105.485 93.8689 102.768 96.1816 101.73 98.8039C100.722 101.355 103.464 107.561 105.748 108.962C108.951 110.927 114.871 112.459 121.201 112.962C127.408 113.454 132.281 112.83 133.981 111.332C133.763 109.092 130.612 105.362 125.715 101.557C120.732 97.6857 115.336 94.8247 111.633 94.091C110.869 93.9387 110.138 93.8689 109.446 93.8689Z" fill="#F5C371"/>
<path d="M101.673 98.495L101.521 98.8828L134.182 111.574L134.335 111.186L101.673 98.495Z" fill="#F5C371"/>
<path d="M123.986 113.342C123.063 110.665 121.636 106.649 121.622 106.609L122.016 106.47C122.03 106.511 123.458 110.528 124.382 113.208L123.986 113.342Z" fill="#F5C371"/>
<path d="M120.244 105.792L119.84 105.902L121.847 113.233L122.251 113.124L120.244 105.792Z" fill="#F5C371"/>
<path d="M121.916 98.4004L112.793 102.889L112.979 103.262L122.102 98.7735L121.916 98.4004Z" fill="#F5C371"/>
<path d="M107.473 100.845L107.062 100.925L109.014 110.763L109.425 110.682L107.473 100.845Z" fill="#F5C371"/>
<path d="M116.868 95.5538L108.651 101.297L108.892 101.637L117.109 95.8944L116.868 95.5538Z" fill="#F5C371"/>
<path d="M125.185 108.032L125.089 107.627C126.05 107.401 128.591 106.814 131.416 106.237L131.5 106.644C128.682 107.221 126.145 107.807 125.185 108.032Z" fill="#F5C371"/>
<path fill-rule="evenodd" clip-rule="evenodd" d="M110.782 87.7547C106.407 90.5179 105.432 94.8475 106.817 98.2187C107.906 100.866 114.34 103.495 117.017 102.928C125.049 101.228 139.014 89.9125 139.247 84.9572C135.591 81.5821 117.713 83.3769 110.782 87.7547Z" fill="#FEDEA6"/>
<path d="M116.168 103.215C113.061 103.215 107.641 100.771 106.624 98.2975C105.894 96.5192 105.829 94.5289 106.441 92.6935C107.118 90.6677 108.58 88.8996 110.671 87.5795C113.91 85.5334 119.869 83.8719 126.223 83.2423C131.233 82.7461 137.322 82.8958 139.392 84.8049L139.463 84.8709L139.458 84.9673C139.218 90.0356 125.195 101.41 117.062 103.131C116.794 103.188 116.494 103.215 116.168 103.215ZM131.021 83.4061C129.559 83.4061 127.96 83.4886 126.264 83.6561C119.971 84.2794 114.082 85.918 110.896 87.9311C106.464 90.7299 105.752 95.076 107.012 98.1401C108.055 100.677 114.35 103.279 116.975 102.724C120.655 101.944 126.001 98.9854 130.926 95.0011C135.756 91.0942 138.845 87.2952 139.034 85.0447C137.788 83.9785 134.884 83.4061 131.021 83.4061Z" fill="#F5C371"/>
<path d="M139.176 84.6909L106.746 97.9536L106.905 98.3386L139.335 85.076L139.176 84.6909Z" fill="#F5C371"/>
<path d="M133.204 93.3637C130.676 92.0626 126.854 90.1396 126.815 90.1193L127.004 89.7474C127.043 89.7665 130.866 91.6907 133.395 92.993L133.204 93.3637Z" fill="#F5C371"/>
<path d="M125.256 90.4811L125.04 90.8376L131.585 94.7605L131.801 94.4039L125.256 90.4811Z" fill="#F5C371"/>
<path d="M121.316 83.9751L117.838 93.486L118.232 93.6282L121.71 84.1174L121.316 83.9751Z" fill="#F5C371"/>
<path d="M112.575 95.6715L112.334 96.012L120.581 101.784L120.822 101.443L112.575 95.6715Z" fill="#F5C371"/>
<path d="M115.694 85.4004L113.742 95.1952L114.153 95.2761L116.104 85.4813L115.694 85.4004Z" fill="#F5C371"/>
<path d="M130.38 88.7004L130.029 88.4732C130.566 87.6507 131.995 85.4814 133.638 83.1218L133.982 83.3592C132.343 85.715 130.917 87.8791 130.38 88.7004Z" fill="#F5C371"/>
<path fill-rule="evenodd" clip-rule="evenodd" d="M59.1022 43C23.1022 30.0001 5.06353 38.0285 0.86901 64.4616C-3.32551 90.8947 21.9485 116.323 59.1024 121.5C88.8634 125.647 119.102 107 124.102 63.0001C129.102 19.0001 95.1022 56 59.1022 43Z" fill="#F5C371"/>
<path fill-rule="evenodd" clip-rule="evenodd" d="M54.5741 42.7314C54.2447 42.7885 53.9166 42.852 53.5885 42.918C52.7472 43.0855 51.9084 43.2683 51.0735 43.4638C49.9028 43.738 48.7385 44.0375 47.5832 44.3675C46.2657 44.7432 44.9584 45.1583 43.6715 45.6292C42.2953 46.1331 40.9254 46.7043 39.6271 47.3846C39.6003 47.3986 39.5684 47.3885 39.5543 47.3618C39.5403 47.3351 39.5505 47.3034 39.5773 47.2894C40.8795 46.6053 42.2532 46.0328 43.6345 45.5277C44.9226 45.0568 46.2337 44.6404 47.5525 44.2635C48.7092 43.9334 49.876 43.6326 51.048 43.3584C51.8842 43.163 52.7242 42.9789 53.5668 42.8126C53.8949 42.7479 54.2243 42.6832 54.5549 42.6261C54.5843 42.621 54.6124 42.64 54.6175 42.6692C54.6239 42.6984 54.6034 42.7263 54.5741 42.7314Z" fill="white"/>
<path d="M39.6024 47.4185C39.573 47.4185 39.545 47.4033 39.5296 47.3753C39.5194 47.3563 39.5169 47.3347 39.5233 47.3131C39.5296 47.2928 39.5437 47.2751 39.5628 47.2649C40.7373 46.648 42.0651 46.0718 43.6238 45.5018C44.8418 45.0563 46.1248 44.6425 47.5444 44.2376C48.6653 43.9178 49.8424 43.6131 51.0412 43.3326C51.9003 43.1321 52.748 42.948 53.5613 42.7868C53.8587 42.7272 54.206 42.6599 54.5494 42.6002C54.5711 42.5964 54.5928 42.6015 54.6107 42.6142C54.6285 42.6269 54.64 42.6459 54.6439 42.6662C54.6477 42.6878 54.6426 42.7094 54.6298 42.7272C54.617 42.7449 54.5979 42.7564 54.5775 42.7602C54.2392 42.8186 53.8919 42.8871 53.5932 42.9455C52.7812 43.1067 51.9361 43.2895 51.0795 43.4913C49.8845 43.7705 48.71 44.0752 47.5904 44.395C46.1733 44.7999 44.8954 45.2124 43.6813 45.6554C42.1302 46.2228 40.8088 46.7965 39.6407 47.4096C39.6292 47.4147 39.6152 47.4185 39.6024 47.4185ZM54.5647 42.6523C54.5634 42.6523 54.5621 42.6523 54.5596 42.6523C54.2162 42.7119 53.8702 42.7792 53.5728 42.8389C52.7608 43.0001 51.9144 43.1841 51.0552 43.3847C49.8577 43.6652 48.6819 43.9698 47.561 44.2897C46.1427 44.6946 44.8609 45.1084 43.6443 45.5526C42.088 46.1225 40.7616 46.6975 39.5896 47.3131C39.5833 47.3157 39.5794 47.322 39.5769 47.3284C39.5743 47.3347 39.5756 47.3423 39.5782 47.3487C39.5845 47.3614 39.6011 47.3664 39.6139 47.3588C40.7846 46.7445 42.1085 46.1695 43.6621 45.6009C44.8775 45.1566 46.1567 44.7441 47.5751 44.3392C48.696 44.0193 49.8705 43.7147 51.0667 43.4354C51.9246 43.2349 52.771 43.0508 53.583 42.8896C53.8817 42.83 54.2289 42.7627 54.5685 42.703C54.5749 42.7018 54.5813 42.698 54.5851 42.6929C54.589 42.6878 54.5902 42.6802 54.589 42.6739C54.5877 42.6675 54.5839 42.6612 54.5787 42.6574C54.5749 42.6535 54.5698 42.6523 54.5647 42.6523Z" fill="white"/>
<path fill-rule="evenodd" clip-rule="evenodd" d="M86.9788 30.9709C89.8015 26.093 91.7037 20.9791 92.2897 19.315C92.4786 17.4123 89.2781 11.3426 89.2781 11.3426C86.4771 11.4898 76.7465 11.9277 72.5336 11.1864C72.5336 11.1864 69.9062 9.67218 67.8508 11.3756C65.7954 13.079 69.3356 15.4259 69.3356 15.4259L54.5648 42.6777C62.9396 52.3674 70.0964 47.0681 70.0964 47.0681L72.2284 40.709C77.1091 42.7792 81.5161 39.0716 84.9643 34.1455C85.5732 33.1846 86.2729 32.0663 86.9788 30.9709Z" fill="#FDBCA0"/>
<path fill-rule="evenodd" clip-rule="evenodd" d="M76.8537 111.155L72.8373 116.599L90.9581 116.675C86.9239 113.42 76.8537 111.155 76.8537 111.155Z" fill="#FDBCA0"/>
<path fill-rule="evenodd" clip-rule="evenodd" d="M86.9788 30.9709C86.3519 32.0549 85.6791 33.1262 84.9655 34.1467C82.905 37.4037 82.2794 39.6123 82.2794 40.5211C82.2794 41.4299 82.7403 44.3684 82.7403 44.3684L88.1418 44.2541C88.1418 44.2541 88.1418 41.3538 88.5975 39.9157C89.0546 38.4776 91.9475 26.1387 91.0334 25.9864C90.8215 25.9509 90.4921 26.1971 90.0848 26.635C90.0989 26.6439 89.7555 27.0133 89.5525 27.2595C88.7993 28.2051 87.8826 29.5696 86.9788 30.9709Z" fill="#FDBCA0"/>
<path fill-rule="evenodd" clip-rule="evenodd" d="M68.7266 2.06528C58.8287 7.66667 39.6024 47.3359 39.6024 47.3359C45.4878 44.2465 54.5647 42.6776 54.5647 42.6776L69.3355 15.4259C69.3355 15.4259 65.7954 13.0789 67.8508 11.3756C69.9062 9.67216 72.5335 11.1864 72.5335 11.1864C76.7465 11.9277 86.4771 11.4885 89.278 11.3426C89.278 11.3426 92.4786 17.4123 92.2897 19.315C91.7024 20.979 89.8015 26.0943 86.9788 30.9709C88.664 28.3575 90.3913 25.8798 91.0347 25.9864C91.9488 26.1375 89.0546 38.4775 88.5989 39.9156C88.1418 41.3538 88.1431 44.2541 88.1431 44.2541L89.2844 44.23C89.2844 44.23 89.8461 49.4163 90.5189 56.8328C90.8343 60.3005 91.1726 64.2569 91.4905 68.3974C92.5756 67.0024 94.954 63.706 95.0715 61.4899C95.2234 58.6136 97.9643 34.9946 96.7464 18.9469C95.5272 2.89793 88.5989 4.03395 88.5989 4.03395C88.5989 4.03395 78.6244 -3.53612 68.7266 2.06528Z" fill="#3F4553"/>
<path fill-rule="evenodd" clip-rule="evenodd" d="M84.9654 34.1467C81.5172 39.0729 77.1102 42.7805 72.2295 40.7103L70.0975 47.0694C70.0975 47.0694 78.8643 50.2883 80.8393 54.5265C81.5223 48.4047 82.1274 44.3823 82.1274 44.3823L82.7415 44.3696C82.7415 44.3696 82.2806 41.4299 82.2806 40.5224C82.2793 39.6123 82.9036 37.4037 84.9654 34.1467Z" fill="#3F4553"/>
<path fill-rule="evenodd" clip-rule="evenodd" d="M35.9473 97.0986C34.4281 96.9641 32.8694 96.8549 31.2735 96.7724C32.291 95.677 33.7311 92.8846 35.2605 89.4727C35.4635 91.7905 35.7788 95.2556 35.9473 97.0986ZM36.901 49.0749C31.7229 53.3143 8.27219 89.6504 16.4951 107.516C16.4951 107.516 22.8911 113.875 72.8373 116.6L76.8537 111.156L77.8635 109.788C77.8635 109.788 74.4919 107.441 68.0154 104.728C68.0154 104.728 69.6662 101.124 71.5888 96.8029C71.5888 96.8029 78.4737 109.486 84.7166 112.967C76.4235 104.945 78.9346 71.5871 80.8394 54.5278C78.8657 50.2896 70.0977 47.0707 70.0977 47.0707C70.0977 47.0707 62.9408 52.37 54.566 42.6802C54.566 42.6802 45.489 44.249 39.6037 47.3385C38.5849 47.8703 37.6632 48.4504 36.901 49.0749Z" fill="#63A6DC"/>
<path fill-rule="evenodd" clip-rule="evenodd" d="M80.8381 54.5264C78.9333 71.5858 76.4222 104.944 84.7153 112.966C84.7153 112.966 90.9581 118.113 92.4811 102.974C93.233 95.4967 92.4619 81.0788 91.4891 68.3986C91.1713 64.2581 90.8329 60.3017 90.5176 56.834C89.8448 49.4175 89.2831 44.2312 89.2831 44.2312L88.1418 44.2553L82.7403 44.3696L82.1262 44.3822C82.1262 44.3822 81.5211 48.4046 80.8381 54.5264Z" fill="#63A6DC"/>
<path fill-rule="evenodd" clip-rule="evenodd" d="M73.0416 65.1086C73.302 66.0149 73.5599 66.9212 73.8165 67.8287C74.3744 69.8025 74.9259 71.7788 75.4634 73.7589C75.9587 75.5777 76.4464 77.4017 76.8971 79.232C77.0605 79.8984 77.2214 80.5699 77.3605 81.2426C77.4078 81.4736 77.4537 81.7059 77.4895 81.9382C77.5112 82.0803 77.5354 82.239 77.5354 82.3837C77.5354 82.5373 77.4754 82.7505 77.4346 82.899C77.3529 83.191 77.2533 83.4804 77.1524 83.766C76.8422 84.643 76.4937 85.5125 76.1439 86.3744C75.6766 87.5231 75.1953 88.6654 74.7076 89.8053C74.1599 91.0873 73.6033 92.3654 73.0441 93.6411C72.5781 94.7035 72.1083 95.7646 71.636 96.8245C71.6245 96.8511 71.5926 96.8638 71.5645 96.8524C71.5377 96.841 71.5249 96.8092 71.5364 96.7813C72.0075 95.7214 72.4773 94.6603 72.9433 93.5979C73.5037 92.3223 74.0591 91.0441 74.6068 89.7621C75.0932 88.6223 75.5757 87.4812 76.0417 86.3325C76.3915 85.4719 76.7388 84.6037 77.049 83.7292C77.1499 83.4461 77.2482 83.158 77.3286 82.8698C77.3669 82.734 77.4256 82.5259 77.4256 82.3837C77.4256 82.2454 77.4026 82.0918 77.3809 81.9547C77.3452 81.7237 77.2992 81.4927 77.252 81.2642C77.1141 80.5927 76.9533 79.9238 76.7899 79.2574C76.3405 77.4284 75.8515 75.6044 75.3574 73.7868C74.8187 71.8079 74.2684 69.8317 73.7105 67.8579C73.4539 66.9504 73.1973 66.0441 72.9356 65.1378C72.928 65.1099 72.9445 65.0794 72.9726 65.0718C73.0046 65.0642 73.0339 65.0807 73.0416 65.1086Z" fill="#A7D1F3"/>
<path d="M71.5875 96.8829C71.576 96.8829 71.5658 96.8803 71.5543 96.8753C71.5135 96.8575 71.4943 96.8093 71.5122 96.7674C72.0126 95.6441 72.4722 94.6032 72.9191 93.584C73.5395 92.1687 74.0846 90.9147 74.5825 89.7494C75.1557 88.4078 75.6128 87.3175 76.0175 86.3211C76.3366 85.5354 76.7043 84.6215 77.0235 83.719C77.1192 83.4474 77.2201 83.1554 77.303 82.861C77.3413 82.7239 77.3988 82.5195 77.3988 82.3824C77.3988 82.2441 77.3745 82.0854 77.3541 81.9572C77.3158 81.7123 77.2686 81.4711 77.2264 81.268C77.086 80.5902 76.9213 79.9035 76.7643 79.2625C76.3098 77.4132 75.8068 75.5397 75.3319 73.7918C74.8391 71.978 74.3004 70.0385 73.685 67.863C73.4425 67.0049 73.1808 66.0809 72.9101 65.1441C72.9037 65.1238 72.9063 65.101 72.9178 65.0819C72.928 65.0629 72.9459 65.0489 72.9663 65.0426C72.9867 65.0362 73.0097 65.0388 73.0288 65.0502C73.048 65.0604 73.062 65.0781 73.0684 65.0984C73.3442 66.0542 73.6148 67.01 73.8433 67.8185C74.4574 69.9916 74.9962 71.9311 75.4902 73.7487C75.9664 75.4978 76.4694 77.3725 76.9239 79.2232C77.0822 79.8654 77.2469 80.5547 77.3873 81.2337C77.4294 81.4394 77.4779 81.6831 77.5162 81.9306C77.5354 82.0562 77.5622 82.2289 77.5622 82.3799C77.5622 82.5386 77.5009 82.7569 77.4601 82.9016C77.3758 83.2011 77.275 83.4956 77.1779 83.7698C76.8575 84.6761 76.4885 85.5925 76.1694 86.3795C75.7647 87.3771 75.3077 88.4674 74.7332 89.8104C74.2327 90.9794 73.6889 92.2347 73.0684 93.6474C72.6216 94.6642 72.162 95.7062 71.6603 96.8308C71.6488 96.8651 71.6194 96.8829 71.5875 96.8829ZM72.9905 65.0972C72.988 65.0972 72.9854 65.0972 72.9829 65.0984C72.9765 65.101 72.9701 65.1048 72.9676 65.1111C72.9637 65.1175 72.9637 65.1238 72.965 65.1302C73.2357 66.0682 73.4974 66.991 73.7399 67.8503C74.3553 70.0258 74.894 71.9653 75.3868 73.7792C75.8617 75.527 76.3647 77.4005 76.8192 79.2511C76.9762 79.8921 77.1422 80.5788 77.2813 81.2578C77.3235 81.4622 77.372 81.7034 77.4103 81.9496C77.4307 82.0791 77.455 82.239 77.455 82.3824C77.455 82.5271 77.3962 82.7353 77.3579 82.8737C77.2737 83.1719 77.1728 83.4651 77.0771 83.738C76.7566 84.6418 76.389 85.557 76.0698 86.3426C75.6651 87.3403 75.2081 88.4294 74.6349 89.7723C74.1357 90.9388 73.5918 92.1928 72.9714 93.6081C72.5246 94.6273 72.0637 95.6682 71.5645 96.7915C71.5582 96.8042 71.5645 96.8194 71.5773 96.8258C71.5901 96.8308 71.6054 96.8258 71.6118 96.8131C72.1122 95.6885 72.5731 94.6464 73.0186 93.6297C73.6378 92.2182 74.1829 90.9629 74.6821 89.7939C75.2566 88.4509 75.7123 87.3606 76.1183 86.363C76.4375 85.576 76.8064 84.6608 77.1269 83.7558C77.2239 83.4829 77.3247 83.1884 77.409 82.8914C77.4486 82.7493 77.5086 82.536 77.5086 82.3837C77.5086 82.2365 77.4818 82.0664 77.4626 81.9433C77.4243 81.697 77.3758 81.4533 77.3337 81.249C77.1932 80.5699 77.0286 79.8819 76.8703 79.2397C76.4158 77.389 75.9128 75.5155 75.4366 73.7665C74.9425 71.9501 74.4038 70.0106 73.7897 67.8376C73.5612 67.029 73.2906 66.0733 73.0148 65.1175C73.0135 65.1111 73.0084 65.1061 73.002 65.1022C72.9995 65.0984 72.9944 65.0972 72.9905 65.0972Z" fill="#A7D1F3"/>
<path fill-rule="evenodd" clip-rule="evenodd" d="M31.391 96.7243C37.1091 97.02 42.8093 97.6953 48.4266 98.7945C53.8957 99.8645 59.3062 101.339 64.5302 103.275C66.472 103.995 68.3921 104.779 70.2764 105.636C71.6858 106.277 73.0774 106.96 74.4408 107.694C75.3038 108.158 76.1579 108.643 76.9916 109.158C77.2941 109.346 77.6018 109.539 77.8942 109.742C77.9069 109.751 77.9146 109.762 77.9159 109.778C77.9184 109.793 77.9146 109.806 77.9056 109.818L72.8808 116.632C72.8629 116.656 72.8297 116.661 72.8054 116.643C72.7812 116.626 72.7761 116.593 72.7939 116.568L77.7869 109.799C77.5099 109.609 77.2201 109.426 76.9341 109.25C76.103 108.736 75.2502 108.251 74.3898 107.787C73.0289 107.055 71.6386 106.373 70.2317 105.734C68.3499 104.877 66.4324 104.094 64.4932 103.375C59.2742 101.442 53.8689 99.9699 48.4061 98.8999C42.7595 97.7943 37.0299 97.1178 31.2812 96.8258C31.2748 96.8271 31.2684 96.8258 31.262 96.8246C29.6394 96.7421 28.0168 96.69 26.3929 96.6685C26.3636 96.6685 26.3393 96.6431 26.3393 96.6139C26.3393 96.5847 26.3648 96.5606 26.3942 96.5606C28.0143 96.5821 29.633 96.6342 31.2518 96.7167C31.4752 96.473 31.677 96.1975 31.8633 95.9259C32.1161 95.5553 32.351 95.1694 32.5757 94.781C33.1566 93.7745 33.6826 92.7248 34.1843 91.6776C34.7971 90.3981 35.378 89.1022 35.941 87.7999C36.555 86.3808 37.1499 84.9529 37.7321 83.5198C39.0636 80.2438 40.3352 76.9398 41.5697 73.6257C42.1365 72.1013 42.7008 70.5743 43.2459 69.0423C43.2562 69.0143 43.2868 68.9991 43.3149 69.0093C43.343 69.0194 43.3583 69.0499 43.3481 69.0778C42.8029 70.6098 42.2399 72.1381 41.6718 73.6625C40.4373 76.9779 39.1658 80.2819 37.8342 83.5604C37.2521 84.9935 36.6572 86.4227 36.0418 87.8418C35.4775 89.1441 34.8967 90.4413 34.2839 91.722C33.7809 92.7717 33.2536 93.824 32.6715 94.833C32.4455 95.224 32.2106 95.6124 31.9553 95.9856C31.7804 96.2382 31.594 96.4933 31.391 96.7243Z" fill="#A7D1F3"/>
<path fill-rule="evenodd" clip-rule="evenodd" d="M72.5219 11.2397C72.5168 11.2384 72.5116 11.2371 72.5065 11.2333C72.3687 11.1534 72.2091 11.0836 72.0635 11.0226C71.7061 10.8741 71.3282 10.7612 70.9478 10.6926C69.8371 10.4921 68.7685 10.6875 67.8864 11.4187C67.5149 11.7271 67.2557 12.1168 67.2621 12.6118C67.2685 13.1094 67.5417 13.593 67.8391 13.9776C68.1238 14.3469 68.4723 14.6833 68.8324 14.979C69.0009 15.1186 69.1834 15.2608 69.366 15.3814C69.3902 15.3979 69.3979 15.4309 69.3813 15.4563C69.3647 15.4804 69.3315 15.488 69.306 15.4715C69.1196 15.3484 68.9345 15.2037 68.7634 15.0615C68.397 14.7594 68.0434 14.418 67.7536 14.0423C67.054 13.1373 66.837 12.1485 67.8174 11.3349C68.7238 10.5835 69.8256 10.3804 70.9669 10.586C71.355 10.6558 71.7406 10.7713 72.1057 10.9224C72.2538 10.9833 72.4133 11.0544 72.5538 11.1343C73.0746 11.2257 73.6019 11.2879 74.1279 11.3374C74.756 11.3971 75.3867 11.4377 76.016 11.4682C77.4421 11.5367 78.8732 11.5557 80.3005 11.5519C82.5244 11.5469 84.7521 11.4872 86.9748 11.3958C87.7382 11.3641 88.5029 11.3311 89.2664 11.2905C89.274 11.2892 89.2804 11.2879 89.2881 11.2892C89.5408 11.2752 89.7923 11.2613 90.0438 11.246C90.0732 11.2448 90.0987 11.2663 90.1013 11.2968C90.1026 11.326 90.0809 11.3514 90.0502 11.3539C89.823 11.3679 89.5945 11.3806 89.3672 11.3933C89.5715 11.7829 89.7681 12.1777 89.9621 12.5724C90.4102 13.4851 90.8392 14.4091 91.2324 15.3459C91.5401 16.0795 91.835 16.8347 92.0622 17.5963C92.1797 17.9911 92.3239 18.5229 92.3507 18.9849C92.3788 18.9037 92.4069 18.8212 92.4337 18.7399C92.4427 18.712 92.4733 18.6968 92.5014 18.7057C92.5295 18.7146 92.5448 18.745 92.5359 18.7729C92.4746 18.9595 92.4095 19.1461 92.3431 19.3314C92.3431 19.3327 92.3431 19.3327 92.3418 19.334C92.338 19.3441 92.3303 19.353 92.3214 19.3594C92.3112 19.3657 92.2997 19.3695 92.2869 19.3682C92.2818 19.3682 92.2767 19.367 92.2729 19.3644C92.2626 19.3606 92.2537 19.353 92.2473 19.3441C92.2409 19.334 92.2371 19.3226 92.2384 19.3099C92.2614 19.0738 92.2307 18.8123 92.1912 18.5787C92.1363 18.2589 92.052 17.939 91.9588 17.628C91.7316 16.8703 91.4392 16.1176 91.1328 15.3877C90.7409 14.4523 90.3119 13.5295 89.8651 12.6194C89.6647 12.2107 89.4604 11.802 89.2498 11.3996C88.494 11.4402 87.7357 11.4732 86.9799 11.5037C84.756 11.5951 82.5269 11.6547 80.3017 11.6598C78.8732 11.6636 77.4395 11.6446 76.0122 11.576C75.3803 11.5456 74.7483 11.505 74.1189 11.4453C73.5866 11.3945 73.0529 11.3323 72.527 11.2397C72.5231 11.2397 72.5231 11.2397 72.5219 11.2397Z" fill="white"/>
<path d="M92.2896 19.3962C92.287 19.3962 92.2844 19.3962 92.2806 19.3962C92.273 19.395 92.2653 19.3937 92.2589 19.3912C92.2436 19.3848 92.2296 19.3747 92.2206 19.3594C92.2104 19.3442 92.2053 19.3252 92.2078 19.3074C92.227 19.1132 92.2117 18.8822 92.1606 18.5839C92.1121 18.3046 92.0393 18.0038 91.9295 17.637C91.7355 16.9871 91.4814 16.2979 91.1048 15.4005C90.7448 14.5437 90.3312 13.6387 89.8384 12.6334C89.675 12.3009 89.4592 11.8655 89.2307 11.4301C88.5796 11.4644 87.8838 11.4961 86.9787 11.5342C84.5275 11.6345 82.3419 11.6853 80.2993 11.6903C78.6384 11.6942 77.2749 11.6675 76.0085 11.6066C75.3063 11.5723 74.6871 11.5304 74.1139 11.4758C73.4922 11.4175 72.9854 11.3514 72.5194 11.2702H72.5156C72.5079 11.2689 72.499 11.2651 72.4926 11.2613C72.3432 11.175 72.1696 11.1001 72.0521 11.0519C71.6883 10.9008 71.3142 10.7904 70.9415 10.7231C69.7759 10.5124 68.7252 10.7612 67.903 11.4428C67.4894 11.7855 67.2826 12.179 67.289 12.6144C67.2941 13.0269 67.4869 13.4801 67.8596 13.9637C68.1162 14.2962 68.4494 14.6313 68.849 14.9613C69.0546 15.1301 69.2231 15.2583 69.3801 15.3624C69.398 15.3738 69.4108 15.3929 69.4146 15.4145C69.4184 15.436 69.4146 15.4576 69.4031 15.4754C69.3776 15.5122 69.3265 15.5223 69.2895 15.4982C69.1273 15.3903 68.9537 15.2596 68.7444 15.087C68.3346 14.7493 67.9937 14.4054 67.7294 14.0627C66.9009 12.9901 66.9239 12.0407 67.7971 11.3172C68.6575 10.6038 69.7542 10.3436 70.9695 10.5619C71.3538 10.6318 71.7394 10.7447 72.1134 10.9008C72.2998 10.9783 72.4428 11.0455 72.5603 11.1128C73.0173 11.1928 73.5165 11.2575 74.128 11.3146C74.6961 11.3679 75.314 11.4111 76.0149 11.4441C77.2775 11.505 78.6384 11.5304 80.2967 11.5279C82.3368 11.5228 84.5199 11.472 86.9698 11.3718C87.889 11.3337 88.5949 11.3019 89.2613 11.2664C89.2664 11.2639 89.2779 11.2639 89.2882 11.2651C89.5345 11.2512 89.786 11.2372 90.0388 11.222C90.0605 11.2207 90.0822 11.2283 90.0976 11.2423C90.1141 11.2563 90.1244 11.2766 90.1256 11.2981C90.1282 11.3426 90.0937 11.3819 90.049 11.3844C89.8358 11.3971 89.6226 11.4098 89.4082 11.4213C89.578 11.7462 89.7567 12.1016 89.9826 12.5636C90.4767 13.5702 90.8916 14.4777 91.2529 15.3396C91.6321 16.2433 91.8887 16.9389 92.084 17.5926C92.1849 17.9289 92.3176 18.4113 92.3623 18.853C92.3751 18.8136 92.3891 18.7743 92.4019 18.7349C92.4083 18.7146 92.4236 18.6981 92.4428 18.688C92.4619 18.6778 92.4849 18.6765 92.5053 18.6829C92.5257 18.6892 92.5423 18.7045 92.5525 18.7235C92.5628 18.7426 92.564 18.7654 92.5576 18.7857C92.4951 18.9748 92.4287 19.1652 92.3649 19.3442C92.3572 19.3632 92.347 19.3759 92.3317 19.3861C92.3215 19.3912 92.3061 19.3962 92.2896 19.3962ZM89.2639 11.3705L89.2728 11.387C89.5052 11.8287 89.7235 12.2717 89.8895 12.608C90.3822 13.6133 90.7972 14.5196 91.1572 15.3777C91.5351 16.2776 91.7891 16.9693 91.9844 17.6205C92.0942 17.9899 92.1683 18.2932 92.2168 18.575C92.2691 18.8796 92.2844 19.1132 92.2653 19.3137C92.2653 19.3201 92.2666 19.3252 92.2691 19.3302C92.2717 19.3353 92.2768 19.3378 92.2819 19.3404L92.2896 19.3417C92.2972 19.3417 92.3023 19.3404 92.3061 19.3379C92.3113 19.3353 92.3138 19.3302 92.3164 19.3252C92.3802 19.1449 92.4466 18.9558 92.5091 18.7654C92.5117 18.7591 92.5104 18.7514 92.5079 18.7451C92.5053 18.7387 92.4989 18.7337 92.4925 18.7324C92.4862 18.7299 92.4785 18.7311 92.4721 18.7337C92.4657 18.7362 92.4606 18.7426 92.4593 18.7489C92.4325 18.8314 92.4044 18.9126 92.3764 18.9951L92.3304 19.1284L92.3227 18.9875C92.2959 18.5179 92.1453 17.9734 92.0355 17.6053C91.8402 16.9528 91.5848 16.2598 91.207 15.3573C90.8457 14.4968 90.4308 13.5905 89.938 12.5852C89.7031 12.1054 89.5192 11.7411 89.3443 11.406L89.3239 11.3679L89.3673 11.3654C89.5945 11.3527 89.8231 11.34 90.0503 11.3261C90.0644 11.3248 90.0758 11.3134 90.0746 11.2981C90.0746 11.2918 90.0707 11.2854 90.0656 11.2804C90.0605 11.2753 90.0541 11.2728 90.0465 11.274C89.795 11.2893 89.5422 11.3032 89.2907 11.3172C89.2818 11.3159 89.2779 11.3159 89.2754 11.3172C88.6039 11.354 87.8979 11.3857 86.9774 11.4238C84.5263 11.5241 82.3432 11.5748 80.3018 11.5799C78.6422 11.5837 77.28 11.5571 76.0161 11.4961C75.314 11.4619 74.6961 11.42 74.1267 11.3654C73.5114 11.307 73.0109 11.2423 72.55 11.1623L72.5411 11.1585C72.4249 11.0925 72.2832 11.0252 72.0968 10.9478C71.7253 10.7942 71.3449 10.6813 70.9644 10.6127C69.7657 10.3957 68.6844 10.6533 67.8379 11.3553C66.7694 12.2412 67.2162 13.2947 67.7779 14.0233C68.0396 14.3622 68.378 14.7037 68.7839 15.0387C68.992 15.2101 69.1644 15.3408 69.3239 15.4462C69.3354 15.4538 69.352 15.4513 69.3597 15.4386C69.3635 15.4322 69.3648 15.4259 69.3635 15.4195C69.3622 15.4132 69.3584 15.4068 69.352 15.403C69.1937 15.2977 69.0227 15.1695 68.8158 14.9981C68.4124 14.6656 68.0767 14.3267 67.8175 13.9916C67.4358 13.4978 67.2405 13.0333 67.2354 12.6093C67.229 12.1574 67.4435 11.7487 67.8699 11.3946C68.7048 10.7028 69.7708 10.4502 70.9542 10.6635C71.3308 10.7308 71.7087 10.8437 72.0764 10.996C72.1951 11.0455 72.3713 11.1204 72.5232 11.2093C72.5258 11.2106 72.5283 11.2118 72.5309 11.2118C72.9969 11.2943 73.5011 11.3591 74.1216 11.4175C74.6935 11.4708 75.3127 11.5139 76.0136 11.5482C77.2787 11.6091 78.6422 11.6358 80.3018 11.632C82.3445 11.6269 84.5288 11.5761 86.9787 11.4758C87.8915 11.439 88.5911 11.406 89.2473 11.3718L89.2639 11.3705Z" fill="#F0A38B"/>
<path fill-rule="evenodd" clip-rule="evenodd" d="M80.8014 54.329C81.0593 52.0341 81.3389 49.7418 81.644 47.4532C81.7806 46.4264 81.9198 45.3982 82.0742 44.3739C82.0781 44.3473 82.0998 44.3282 82.1266 44.3282L82.6781 44.3168C82.5747 43.6568 82.4802 42.9929 82.3947 42.3304C82.3513 41.9876 82.3091 41.6437 82.2759 41.301C82.2504 41.0458 82.2249 40.778 82.2249 40.5216C82.2249 40.2157 82.2862 39.8844 82.3564 39.5887C82.4674 39.1165 82.6245 38.6494 82.7981 38.1963C83.0394 37.5718 83.3215 36.9612 83.6266 36.3659C84.0211 35.598 84.4565 34.8491 84.9186 34.1193C84.9339 34.0939 84.9684 34.0863 84.9926 34.1028C85.0182 34.118 85.0258 34.1523 85.0092 34.1764C84.5496 34.9037 84.1156 35.6488 83.7224 36.4142C83.4185 37.0069 83.1377 37.6137 82.8977 38.2343C82.7253 38.6824 82.5696 39.1457 82.4598 39.6128C82.3921 39.9009 82.3308 40.2246 82.3308 40.5216C82.3308 40.7742 82.3564 41.0382 82.3806 41.2895C82.4138 41.6322 82.4559 41.975 82.4994 42.3164C82.5849 42.9828 82.6794 43.6504 82.784 44.3143L89.2796 44.1772C89.3077 44.1772 89.332 44.1975 89.3345 44.2254C89.4622 45.4046 89.5822 46.585 89.7009 47.7655C90.006 50.7851 90.2946 53.8073 90.569 56.8295C90.9188 60.6818 91.2444 64.5379 91.5406 68.3941C91.5431 68.4233 91.5201 68.4499 91.4908 68.4512C91.4614 68.4537 91.4346 68.4309 91.4333 68.4017C91.1371 64.5456 90.8116 60.6907 90.4618 56.8384C90.1873 53.8162 89.8988 50.794 89.5937 47.7744C89.4762 46.6104 89.3575 45.4465 89.2324 44.2838L82.17 44.4336C82.0181 45.4427 81.8815 46.4556 81.7474 47.4659C81.4359 49.8103 81.1499 52.1585 80.8869 54.5092C80.8921 54.5245 80.8895 54.5397 80.8818 54.5524C80.8499 54.8342 80.8193 55.1172 80.7886 55.399C80.3814 59.1181 80.029 62.8447 79.7418 66.5752C79.4137 70.8375 79.1711 75.1099 79.0511 79.3836C78.9528 82.9123 78.9388 86.4485 79.0613 89.9772C79.1201 91.6526 79.2107 93.3294 79.3448 95.001C79.4711 96.5699 79.6346 98.1362 79.8541 99.6936C80.0546 101.119 80.3022 102.541 80.6201 103.944C80.9023 105.192 81.2419 106.435 81.6721 107.642C82.3372 109.51 83.3036 111.529 84.7501 112.929C84.7718 112.949 84.7718 112.983 84.7514 113.005C84.7309 113.026 84.6965 113.026 84.6748 113.006C83.2155 111.595 82.2415 109.564 81.5699 107.679C81.1384 106.468 80.7976 105.221 80.5142 103.969C80.1963 102.561 79.9486 101.137 79.7469 99.7088C79.5273 98.1489 79.3626 96.58 79.2375 95.0099C79.1035 93.337 79.0128 91.659 78.9541 89.9822C78.8303 86.4523 78.8456 82.9135 78.9439 79.3824C79.0626 75.1074 79.3065 70.8336 79.6346 66.5688C79.9218 62.8371 80.2729 59.1092 80.6814 55.3889C80.7133 55.102 80.7452 54.8151 80.7772 54.5283C80.0073 52.8947 78.2698 51.4959 76.7927 50.5122C75.3757 49.5679 73.836 48.7555 72.2875 48.0473C71.7653 47.8086 71.2368 47.5802 70.7044 47.3644C70.4963 47.2806 70.2869 47.1968 70.0763 47.1194C70.0482 47.1093 70.0342 47.0788 70.0444 47.0509L72.1662 40.7222C71.9785 40.4988 71.7998 40.2538 71.6313 40.0177C71.1704 39.3716 70.7478 38.6926 70.361 37.9983C69.1048 35.7427 68.2047 33.2676 67.7579 30.7265C67.7528 30.6973 67.7719 30.6693 67.8013 30.6643C67.8307 30.6592 67.8588 30.6782 67.8639 30.7074C68.3094 33.2359 69.2056 35.7008 70.4555 37.9449C70.8397 38.6342 71.2597 39.3107 71.7193 39.9542C71.8917 40.1954 72.0755 40.448 72.2683 40.6739C72.2747 40.6815 72.2785 40.6892 72.2798 40.698C72.2811 40.7069 72.2811 40.7158 72.2785 40.726L70.1631 47.0356C70.3584 47.108 70.5525 47.1854 70.7453 47.2641C71.2789 47.4799 71.8087 47.7096 72.3334 47.9483C73.8884 48.6591 75.4331 49.474 76.854 50.4208C78.3043 51.3881 79.9895 52.7411 80.8014 54.329Z" fill="#F0A38B"/>
<path d="M84.7153 113.047C84.6936 113.047 84.6731 113.04 84.6578 113.025C83.4156 111.822 82.3981 110.077 81.5466 107.687C81.1483 106.568 80.8023 105.353 80.4908 103.974C80.1934 102.658 79.9419 101.263 79.7236 99.7121C79.5155 98.2347 79.3482 96.6976 79.2129 95.0107C79.084 93.4101 78.992 91.7651 78.9295 89.9817C78.8146 86.7082 78.8108 83.2405 78.9193 79.3806C79.0316 75.3404 79.2576 71.1492 79.6099 66.5658C79.8883 62.9457 80.2406 59.1836 80.6568 55.3858C80.6874 55.1015 80.7194 54.8172 80.7513 54.5329C80.1308 53.223 78.7955 51.8788 76.7809 50.5346C75.4813 49.6677 74.008 48.8629 72.2794 48.0722C71.7445 47.8272 71.2122 47.5974 70.6977 47.3905C70.5087 47.3144 70.2879 47.2255 70.0708 47.1456C70.0287 47.1303 70.007 47.0834 70.0223 47.0415L72.139 40.7267C71.9539 40.5059 71.7764 40.2622 71.6118 40.0324C71.1713 39.4156 70.7436 38.7352 70.3402 38.0105C69.0546 35.7029 68.1789 33.2531 67.7346 30.7298C67.7308 30.7082 67.7359 30.6866 67.7486 30.6689C67.7614 30.6511 67.7805 30.6397 67.801 30.6359C67.8456 30.6282 67.8878 30.6574 67.8954 30.7019C68.3359 33.2062 69.2066 35.6394 70.4832 37.9305C70.8841 38.6502 71.3079 39.3242 71.7458 39.9372C71.9169 40.1771 72.102 40.4297 72.2935 40.6557C72.3024 40.6658 72.3088 40.6785 72.3114 40.6925C72.3139 40.7064 72.3139 40.7217 72.3088 40.7344L70.2023 47.0186C70.3785 47.0846 70.5534 47.1545 70.7602 47.237C71.276 47.4451 71.8109 47.6761 72.3484 47.9224C74.0846 48.7157 75.5655 49.5255 76.8728 50.3975C78.7967 51.6795 80.1129 52.9691 80.7857 54.2333C81.0462 51.9181 81.327 49.6359 81.6181 47.4489C81.7419 46.5173 81.8875 45.4358 82.0483 44.3696C82.0547 44.3303 82.0879 44.3011 82.1275 44.2998L82.6471 44.2884C82.5462 43.6436 82.453 42.9861 82.3688 42.3324C82.3152 41.9199 82.2794 41.6026 82.2501 41.3017C82.2271 41.072 82.199 40.7851 82.199 40.5198C82.199 40.2609 82.2411 39.9626 82.3305 39.5806C82.4301 39.1554 82.5756 38.6997 82.7735 38.1843C82.9982 37.6017 83.2701 37.0014 83.6033 36.3515C83.9774 35.6204 84.4012 34.8855 84.8965 34.1023C84.908 34.0845 84.9259 34.0718 84.9476 34.0668C84.9693 34.0617 84.991 34.0655 85.0089 34.0769C85.028 34.0883 85.0408 34.1061 85.0446 34.1277C85.0497 34.1493 85.0459 34.1708 85.0344 34.1886C84.5416 34.9667 84.1216 35.6978 83.7488 36.4251C83.4182 37.0712 83.1488 37.6652 82.9254 38.2427C82.7301 38.7505 82.5871 39.1998 82.4888 39.6174C82.402 39.988 82.3611 40.2749 82.3611 40.5198C82.3611 40.7775 82.3879 41.0479 82.4109 41.2852C82.4403 41.5822 82.4773 41.8983 82.5296 42.3108C82.6139 42.9696 82.7084 43.6334 82.8105 44.2846L89.2818 44.1475C89.324 44.1462 89.361 44.178 89.3648 44.2198C89.4976 45.4511 89.624 46.6924 89.7312 47.7599C90.0274 50.6971 90.3197 53.7472 90.5993 56.8252C90.9606 60.8095 91.2874 64.6999 91.5709 68.391C91.5721 68.4126 91.5657 68.4342 91.5517 68.4507C91.5377 68.4672 91.5172 68.4773 91.4955 68.4786C91.4738 68.4799 91.4521 68.4735 91.4355 68.4596C91.4189 68.4456 91.4087 68.4253 91.4074 68.4037C91.124 64.7113 90.7972 60.8209 90.4359 56.8404C90.1563 53.7599 89.864 50.711 89.5678 47.7777C89.4631 46.7343 89.3393 45.5209 89.2091 44.3138L82.1964 44.4623C82.0407 45.5031 81.8977 46.5604 81.7777 47.4718C81.4764 49.7362 81.1866 52.1034 80.9172 54.5087C80.9211 54.5265 80.9198 54.5456 80.9109 54.5621C80.8789 54.8426 80.8483 55.1231 80.8177 55.4036C80.4015 59.2013 80.0491 62.961 79.7708 66.5785C79.4185 71.1594 79.1938 75.348 79.0814 79.3857C78.9742 83.2418 78.978 86.7069 79.0916 89.9767C79.1542 91.7575 79.2461 93.4012 79.375 94.9993C79.5104 96.6823 79.6763 98.2169 79.8844 99.6906C80.1027 101.237 80.353 102.626 80.6491 103.939C80.9594 105.311 81.3041 106.519 81.6998 107.633C82.5309 109.966 83.5637 111.74 84.7714 112.908C84.7868 112.923 84.7957 112.943 84.7957 112.965C84.7957 112.986 84.788 113.007 84.7727 113.023C84.7587 113.038 84.7382 113.047 84.7153 113.047C84.7165 113.047 84.7165 113.047 84.7153 113.047ZM67.8125 30.6917C67.8112 30.6917 67.8099 30.6917 67.8074 30.6917C67.801 30.693 67.7946 30.6968 67.7908 30.7019C67.7869 30.7082 67.7856 30.7145 67.7869 30.7209C68.2299 33.2379 69.1044 35.6813 70.3875 37.9838C70.7896 38.706 71.2173 39.3851 71.6564 40.0007C71.8224 40.2343 72.0024 40.4805 72.1901 40.7039L72.2003 40.7153L72.1952 40.7306L70.0734 47.0593C70.0683 47.0732 70.076 47.0872 70.0887 47.0923C70.307 47.1722 70.5279 47.2611 70.7168 47.3372C71.2313 47.5454 71.765 47.7751 72.3011 48.0201C74.0336 48.8109 75.5081 49.6182 76.8115 50.4864C78.8389 51.8382 80.1819 53.1925 80.8049 54.5138L80.8087 54.5214L80.8074 54.5291C80.7755 54.8159 80.7436 55.1028 80.7117 55.3896C80.2955 59.1874 79.9432 62.9483 79.6648 66.5683C79.3125 71.1505 79.0865 75.3417 78.9742 79.3806C78.8669 83.2392 78.8708 86.7057 78.9844 89.9779C79.0469 91.7613 79.1401 93.405 79.2678 95.0056C79.4031 96.6899 79.5691 98.2271 79.7772 99.7033C79.9955 101.253 80.2457 102.645 80.5445 103.96C80.856 105.336 81.2007 106.55 81.599 107.667C82.4467 110.048 83.4603 111.787 84.6961 112.983C84.7012 112.988 84.7063 112.993 84.7153 112.99C84.7216 112.99 84.7293 112.988 84.7331 112.983C84.7382 112.978 84.7408 112.971 84.7408 112.964C84.7408 112.957 84.7382 112.95 84.7331 112.946C83.5024 111.755 82.4939 110.023 81.6488 107.649C81.2517 106.533 80.907 105.322 80.5955 103.949C80.2981 102.635 80.0478 101.244 79.8295 99.6956C79.6214 98.2207 79.4555 96.6849 79.3201 95.0005C79.1925 93.4012 79.0993 91.7575 79.0367 89.9754C78.9218 86.7044 78.918 83.238 79.0265 79.3806C79.1389 75.343 79.3648 71.153 79.7172 66.5709C79.9955 62.9521 80.3478 59.1924 80.764 55.3934C80.7947 55.1117 80.8266 54.8286 80.8572 54.5468L80.8611 54.5354C80.8649 54.5291 80.8662 54.5214 80.8636 54.5151L80.8623 54.51L80.8636 54.5037C81.133 52.0958 81.4228 49.726 81.7241 47.4604C81.8466 46.5427 81.9896 45.4752 82.1466 44.4267L82.1505 44.4039H82.1735L89.2614 44.2541L89.264 44.2795C89.3954 45.4968 89.5193 46.7191 89.6252 47.7701C89.9214 50.7034 90.2138 53.7535 90.4934 56.8341C90.8547 60.8146 91.1815 64.7063 91.4649 68.3986C91.4649 68.405 91.4687 68.4113 91.4738 68.4164C91.4789 68.4215 91.4853 68.4228 91.493 68.4228C91.4994 68.4228 91.5057 68.4189 91.5109 68.4139C91.516 68.4088 91.5172 68.4025 91.5172 68.3948C91.2338 64.705 90.907 60.8133 90.5457 56.8303C90.2661 53.7522 89.9738 50.7034 89.6776 47.7663C89.5703 46.6988 89.444 45.4574 89.3112 44.2262C89.3099 44.2122 89.2984 44.2046 89.2844 44.2033L82.7633 44.3417L82.7594 44.3176C82.656 43.6588 82.5603 42.9861 82.4747 42.3184C82.4211 41.9059 82.3854 41.5886 82.356 41.2916C82.333 41.0517 82.3062 40.7801 82.3062 40.5198C82.3062 40.2698 82.3471 39.9791 82.4352 39.6047C82.5335 39.1845 82.6777 38.7327 82.8743 38.2224C83.0977 37.6436 83.3684 37.0471 83.7003 36.3997C84.0731 35.6724 84.4944 34.9388 84.9885 34.1594C84.9923 34.1531 84.9936 34.1467 84.9923 34.1404C84.991 34.134 84.9872 34.1277 84.9808 34.1239C84.9744 34.1201 84.968 34.1188 84.9616 34.1201C84.9553 34.1213 84.9489 34.1251 84.9451 34.1315C84.451 34.9134 84.0284 35.647 83.6544 36.3756C83.3212 37.0242 83.0505 37.622 82.8271 38.2034C82.6292 38.7149 82.485 39.1693 82.3854 39.592C82.296 39.9702 82.2552 40.2647 82.2552 40.5186C82.2552 40.7813 82.2832 41.0656 82.3062 41.2954C82.3356 41.5949 82.3726 41.9123 82.425 42.3248C82.5105 42.9886 82.605 43.6563 82.7071 44.3112L82.7122 44.343L82.1288 44.3557C82.116 44.3557 82.1058 44.3645 82.1032 44.3772C81.9424 45.4434 81.7968 46.5249 81.673 47.4565C81.3781 49.6715 81.0947 51.9841 80.8304 54.331L80.8202 54.4237L80.7781 54.3412C80.1219 53.0605 78.798 51.7493 76.8409 50.4457C75.5362 49.575 74.0578 48.7677 72.3241 47.9757C71.7867 47.7307 71.253 47.4997 70.7373 47.2915C70.5215 47.204 70.3402 47.1316 70.1564 47.0643L70.1308 47.0554L70.1398 47.0301L72.2539 40.7179C72.2552 40.7141 72.2552 40.709 72.2552 40.7052C72.2539 40.7014 72.2526 40.6976 72.2501 40.6937C72.0573 40.4665 71.8709 40.2127 71.6998 39.9715C71.262 39.3572 70.8356 38.6806 70.4347 37.9597C69.1555 35.6623 68.2823 33.2239 67.8405 30.7133C67.8367 30.7006 67.8252 30.6917 67.8125 30.6917Z" fill="#A7D1F3"/>
<path fill-rule="evenodd" clip-rule="evenodd" d="M87.3171 18.6626C87.3924 18.8606 87.483 19.0599 87.5724 19.2516C87.7665 19.6653 87.9873 20.0779 88.2427 20.4587C88.3946 20.6859 88.5618 20.908 88.752 21.1047C88.7725 21.1263 88.7712 21.1606 88.7508 21.1809C88.7291 21.2012 88.6946 21.2012 88.6742 21.1796C88.4801 20.9778 88.3078 20.7506 88.1533 20.5183C87.8954 20.1324 87.672 19.7161 87.4754 19.2972C87.3847 19.103 87.2941 18.9012 87.2162 18.7007C87.206 18.6728 87.2201 18.6423 87.2469 18.6309C87.275 18.6207 87.3056 18.6347 87.3171 18.6626Z" fill="#3F4553"/>
<path d="M88.7124 21.2989C88.7112 21.2989 88.7099 21.2989 88.7086 21.2989C88.6665 21.2977 88.6269 21.2812 88.5975 21.2507C88.4188 21.0641 88.2439 20.8445 88.0652 20.5754C87.8252 20.2162 87.6005 19.8126 87.3796 19.3404C87.2647 19.0967 87.1843 18.9101 87.1179 18.7362C87.1026 18.6969 87.1039 18.6537 87.1217 18.6156C87.1396 18.5776 87.1703 18.5484 87.2098 18.5331C87.2494 18.5179 87.2928 18.5192 87.3311 18.5369C87.3694 18.5547 87.3988 18.5852 87.4141 18.6245C87.4779 18.7908 87.5558 18.971 87.6669 19.2071C87.8813 19.6653 88.0984 20.055 88.3294 20.4003C88.4992 20.6529 88.6614 20.8598 88.8273 21.0324C88.8873 21.0958 88.8861 21.1961 88.8222 21.2558C88.7929 21.2837 88.7546 21.2989 88.7124 21.2989Z" fill="#3F4553"/>
<path fill-rule="evenodd" clip-rule="evenodd" d="M80.5764 16.4338C80.7679 16.4732 80.9607 16.5087 81.1535 16.543C81.5709 16.6179 81.9922 16.6852 82.4122 16.7385C82.6867 16.7727 82.9637 16.8019 83.2408 16.8184C83.4578 16.8311 83.6927 16.8375 83.9085 16.8121C83.9378 16.8083 83.9646 16.8299 83.9685 16.8591C83.9723 16.8882 83.9506 16.9149 83.9212 16.9187C83.6991 16.9454 83.4578 16.9377 83.2344 16.9251C82.9548 16.9098 82.6752 16.8794 82.3982 16.8451C81.9756 16.7918 81.553 16.7245 81.133 16.6496C80.9403 16.6153 80.7462 16.5798 80.5534 16.5405C80.5241 16.5341 80.5049 16.5062 80.5113 16.477C80.519 16.4465 80.5483 16.4275 80.5764 16.4338Z" fill="#3F4553"/>
<path d="M83.5803 17.0405C83.459 17.0405 83.339 17.0354 83.2305 17.0291C82.9803 17.0151 82.7122 16.9885 82.3867 16.9479C81.9973 16.8984 81.5824 16.8349 81.1164 16.7511C80.9556 16.7219 80.7449 16.6838 80.5343 16.6407C80.4487 16.6229 80.3938 16.5391 80.4104 16.4541C80.4194 16.4122 80.4436 16.3767 80.4794 16.3538C80.5151 16.331 80.5572 16.3234 80.5981 16.331C80.7972 16.3716 81.0002 16.4084 81.1726 16.4401C81.6322 16.5226 82.042 16.5861 82.4262 16.6343C82.7454 16.675 83.0058 16.7003 83.2484 16.713C83.4501 16.7245 83.685 16.7333 83.8982 16.708C83.9403 16.7029 83.9812 16.7143 84.0157 16.741C84.0489 16.7676 84.0706 16.8044 84.0757 16.8463C84.0859 16.9326 84.0233 17.0113 83.9365 17.0215C83.8178 17.0354 83.6978 17.0405 83.5803 17.0405Z" fill="#3F4553"/>
<path fill-rule="evenodd" clip-rule="evenodd" d="M86.5586 24.0926C86.5624 24.2449 86.579 24.4049 86.5981 24.5546C86.639 24.877 86.7079 25.2058 86.819 25.5117C86.916 25.777 87.0565 26.0549 87.2646 26.2504C87.2863 26.2707 87.2875 26.305 87.2671 26.3266C87.2467 26.3482 87.2122 26.3494 87.1905 26.3291C86.9684 26.1209 86.8203 25.8315 86.7169 25.5485C86.6033 25.2363 86.533 24.8986 86.4909 24.5686C86.4705 24.415 86.4539 24.2513 86.4501 24.0952C86.4488 24.066 86.473 24.0406 86.5024 24.0406C86.533 24.0393 86.5573 24.0634 86.5586 24.0926Z" fill="#3F4553"/>
<path d="M87.2276 26.4472C87.188 26.4472 87.1497 26.4332 87.1191 26.404C86.9161 26.2136 86.7476 25.9369 86.6187 25.584C86.5127 25.2934 86.4348 24.9557 86.3863 24.5826C86.3621 24.3909 86.348 24.2373 86.3455 24.099C86.3442 24.0571 86.3595 24.0165 86.3889 23.986C86.4182 23.9555 86.4578 23.9378 86.4999 23.9378C86.5421 23.9352 86.5829 23.9517 86.6136 23.9809C86.6442 24.0101 86.6621 24.0495 86.6633 24.0913C86.6659 24.2183 86.6787 24.3617 86.7016 24.5432C86.7463 24.8948 86.8191 25.2083 86.9174 25.4774C87.0285 25.7846 87.1702 26.0194 87.3361 26.1755C87.4 26.2352 87.4025 26.3355 87.3425 26.3989C87.3119 26.4307 87.2697 26.4472 87.2276 26.4472Z" fill="#3F4553"/>
<path fill-rule="evenodd" clip-rule="evenodd" d="M77.7816 20.418C77.8863 20.4967 78.0051 20.5716 78.1174 20.6402C78.4059 20.8153 78.7111 20.9702 79.0226 21.1009C79.9596 21.4969 80.9886 21.695 82.0074 21.5807C82.0368 21.5769 82.0636 21.5985 82.0674 21.6277C82.0712 21.6569 82.0495 21.6835 82.0202 21.6873C80.9835 21.8041 79.9366 21.6036 78.9817 21.1999C78.6651 21.0667 78.3561 20.9093 78.0625 20.7316C77.9476 20.6618 77.8251 20.5843 77.7178 20.5031C77.6936 20.4853 77.6897 20.451 77.7076 20.4282C77.7242 20.4041 77.7574 20.4003 77.7816 20.418Z" fill="#3F4553"/>
<path d="M81.4317 21.8232C80.6146 21.8232 79.7644 21.6442 78.9397 21.2952C78.6128 21.1568 78.3001 20.9969 78.0077 20.8192C77.8979 20.7519 77.769 20.6719 77.6541 20.5856C77.5839 20.5323 77.5711 20.4333 77.6234 20.3648C77.649 20.3318 77.686 20.3102 77.7281 20.3038C77.7703 20.2975 77.8124 20.3089 77.8456 20.3343C77.949 20.413 78.069 20.4879 78.1724 20.5501C78.4507 20.7189 78.7507 20.8725 79.0635 21.0045C80.0427 21.4183 81.0563 21.582 81.9947 21.4767C82.0368 21.4716 82.0777 21.4843 82.1108 21.5097C82.144 21.5363 82.1645 21.5731 82.1696 21.615C82.1798 21.7013 82.1172 21.78 82.0304 21.7902C81.8338 21.813 81.6334 21.8232 81.4317 21.8232Z" fill="#3F4553"/>
<path fill-rule="evenodd" clip-rule="evenodd" d="M76.4018 32.6375C76.6252 32.7416 76.8856 32.9878 77.0427 33.1693C77.5367 33.7392 77.8163 34.4818 77.9542 35.2129C77.9593 35.2421 77.9401 35.27 77.9108 35.2751C77.8814 35.2802 77.8533 35.2611 77.8482 35.2319C77.7129 34.5199 77.4422 33.7938 76.9609 33.2391C76.8358 33.0944 76.6929 32.9586 76.5371 32.8469C76.4835 32.8088 76.4171 32.7631 76.3571 32.7352C76.3303 32.7225 76.3188 32.6908 76.3316 32.6641C76.3418 32.6362 76.375 32.6248 76.4018 32.6375Z" fill="#3F4553"/>
<path d="M77.9017 35.3792C77.8264 35.3792 77.76 35.3258 77.746 35.251C77.5953 34.4576 77.2966 33.7849 76.8817 33.3064C76.7515 33.1566 76.6149 33.0297 76.4757 32.9294C76.4323 32.8977 76.3672 32.8532 76.3123 32.8279C76.274 32.8101 76.2446 32.7784 76.2306 32.739C76.2166 32.6997 76.2178 32.6565 76.2357 32.6184C76.2536 32.5803 76.2855 32.5512 76.3251 32.5372C76.3647 32.5232 76.4081 32.5245 76.4464 32.5423C76.6838 32.6527 76.9506 32.9027 77.1217 33.0995C77.5787 33.6275 77.8941 34.3307 78.0575 35.1913C78.0651 35.2332 78.0562 35.2751 78.0332 35.3093C78.009 35.3436 77.9732 35.3677 77.9311 35.3753C77.9209 35.3792 77.9107 35.3792 77.9017 35.3792ZM76.3991 32.64C76.3991 32.64 76.4004 32.64 76.3991 32.64C76.3991 32.64 76.4004 32.64 76.3991 32.64Z" fill="#3F4553"/>
<path fill-rule="evenodd" clip-rule="evenodd" d="M84.1956 26.2288C83.9403 27.0463 83.6722 27.8637 83.3914 28.6735C83.2037 29.2155 83.0084 29.7638 82.7888 30.2931C82.7135 30.4746 82.633 30.6625 82.5386 30.8338C82.5003 30.9037 82.4135 31.0623 82.3228 31.0725C82.0649 31.1004 81.8007 30.9976 81.5849 30.8656C81.1687 30.6117 80.8049 30.189 80.5228 29.8006C80.5049 29.7765 80.5113 29.7435 80.5342 29.7258C80.5585 29.708 80.5917 29.7143 80.6096 29.7372C80.8828 30.1129 81.2389 30.5279 81.6411 30.7729C81.8364 30.891 82.0777 30.99 82.31 30.9646C82.3483 30.9519 82.4364 30.7945 82.4556 30.759C82.5475 30.5889 82.6254 30.4048 82.6994 30.2259C82.9152 29.7054 83.1054 29.1673 83.2905 28.6354C83.5714 27.8269 83.8382 27.0107 84.0935 26.1946C84.1024 26.1666 84.1331 26.1501 84.1612 26.159C84.1893 26.1705 84.2046 26.2009 84.1956 26.2288Z" fill="#3F4553"/>
<path d="M82.2373 31.1829C82.0177 31.1829 81.7751 31.1055 81.53 30.957C81.1713 30.7387 80.8138 30.3807 80.4372 29.8641C80.413 29.8298 80.4028 29.788 80.4091 29.7473C80.4155 29.7055 80.4385 29.6686 80.473 29.6445C80.5445 29.5938 80.6428 29.609 80.6951 29.6801C81.0411 30.1548 81.3781 30.4937 81.696 30.6879C81.8428 30.7767 82.0586 30.8783 82.2667 30.8669C82.2896 30.8377 82.3305 30.7742 82.3624 30.7133C82.4543 30.5432 82.5335 30.3541 82.6024 30.1903C82.8246 29.6521 83.0224 29.0898 83.1909 28.6062C83.4641 27.818 83.7348 26.998 83.9927 26.1679C84.0054 26.1273 84.0323 26.0943 84.0706 26.0753C84.1076 26.055 84.151 26.0511 84.1918 26.0638C84.2314 26.0765 84.2646 26.1032 84.285 26.1413C84.3055 26.1781 84.3093 26.2212 84.2965 26.2619C84.0374 27.0945 83.7654 27.9183 83.491 28.7091C83.3186 29.2079 83.1144 29.7854 82.8858 30.335C82.8105 30.5153 82.7288 30.7069 82.6305 30.8859C82.5501 31.0306 82.4607 31.1639 82.3356 31.1778C82.3024 31.1804 82.2705 31.1829 82.2373 31.1829Z" fill="#3F4553"/>
</svg>
