<svg width="177" height="97" viewBox="0 0 177 97" fill="none" xmlns="http://www.w3.org/2000/svg">
<path fill-rule="evenodd" clip-rule="evenodd" d="M0.697464 48.7978C5.19873 57.4866 12.2028 71.0066 36.6023 66.8157C56.2455 63.4418 62.0428 73.9292 67.4788 83.7629C68.3537 85.3457 69.2193 86.9115 70.1317 88.3999C71.5735 90.7518 74.2125 92 76.9712 92H88.1023H99.2334C101.992 92 104.631 90.7518 106.073 88.3999C106.985 86.9115 107.851 85.3457 108.726 83.7629C114.162 73.9292 119.959 63.4418 139.602 66.8157C164.002 71.0066 171.006 57.4866 175.507 48.7978C175.897 48.0456 176.102 47.2111 176.102 46.364V7.47645C176.102 1.06048 169.581 -3.29492 163.654 -0.836805L91.5504 29.0699C89.3428 29.9855 86.8617 29.9855 84.6542 29.0699L12.5504 -0.836805C6.624 -3.29492 0.102295 1.06048 0.102295 7.47645V46.364C0.102295 47.2111 0.307792 48.0456 0.697464 48.7978Z" fill="#F4A17C"/>
<path d="M104.354 10.2928C104.354 10.2928 105.416 10.4108 106.325 11.2242C107.234 12.0376 108.073 9.96435 106.568 9.54098C105.066 9.1176 104.354 10.2928 104.354 10.2928Z" fill="#F5E2D5"/>
<path d="M103.344 10.1978C103.344 10.1978 104.038 9.39214 105.227 9.1022C106.415 8.81225 105.152 6.96224 103.955 7.95781C102.762 8.95594 103.344 10.1978 103.344 10.1978Z" fill="#F5E2D5"/>
<path d="M89.4821 15.0139C89.4821 15.0139 88.7441 15.7786 88.5732 16.982C88.4022 18.1828 86.416 17.1257 87.2965 15.8453C88.1744 14.5649 89.4821 15.0139 89.4821 15.0139Z" fill="#F5E2D5"/>
<path d="M90.1973 14.3006C90.1973 14.3006 89.1434 14.1235 88.0428 14.6572C86.9422 15.1909 86.7144 12.9689 88.2785 12.9714C89.84 12.974 90.1973 14.3006 90.1973 14.3006Z" fill="#F5E2D5"/>
<path d="M105.506 21.318C107.81 17.558 106.601 12.6592 102.807 10.3763C99.0119 8.09341 94.068 9.29082 91.764 13.0508C89.46 16.8108 90.6685 21.7096 94.4632 23.9925C98.2579 26.2754 103.202 25.078 105.506 21.318Z" fill="#F5E2D5"/>
<path d="M92.4058 15.8273C92.2686 15.8632 92.121 15.8042 92.0511 15.6759C91.9708 15.527 92.0252 15.3397 92.178 15.2602L94.1797 14.1902L92.8383 14.144C92.6674 14.1389 92.5327 13.9952 92.5379 13.8259C92.5431 13.6565 92.6881 13.5231 92.859 13.5282L95.345 13.6129C95.4848 13.618 95.6039 13.7155 95.6376 13.8515C95.6687 13.9875 95.6065 14.1261 95.4822 14.1928L92.4706 15.8016C92.4499 15.8119 92.4292 15.8196 92.4058 15.8273Z" fill="#3F4553"/>
<path d="M103.122 12.9072C103.098 12.9123 103.075 12.9174 103.049 12.9174L99.7785 13.0201C99.6386 13.0252 99.5117 12.9354 99.4703 12.802C99.4289 12.6685 99.4833 12.5249 99.6024 12.4504L101.811 11.0854C101.956 10.9956 102.148 11.0392 102.239 11.1829C102.329 11.3266 102.285 11.5165 102.14 11.6063L100.91 12.3658L103.028 12.2991C103.199 12.2939 103.344 12.4273 103.349 12.5967C103.352 12.7455 103.256 12.8687 103.122 12.9072Z" fill="#3F4553"/>
<path d="M92.271 17.213C93.9749 20.3254 96.9995 22.0985 99.7859 21.3389C102.57 20.5794 104.256 17.5209 104.113 13.9851L103.038 14.0954C99.5969 14.447 96.2486 15.3681 93.1178 16.8204L92.271 17.213Z" fill="#3F4553"/>
<path d="M103.194 17.9802C101.987 17.5876 100.462 17.5542 98.9058 17.9802C97.3184 18.4138 96.0054 19.2375 95.1742 20.2125C96.5855 21.1182 98.1807 21.4672 99.7059 21.0515C101.249 20.6282 102.451 19.5017 103.194 17.9802Z" fill="#4E5567"/>
<path d="M49.7771 48.2889C51.0081 44.0626 48.5484 39.6477 44.2831 38.428C40.0178 37.2082 35.5622 39.6455 34.3312 43.8717C33.1002 48.098 35.56 52.5129 39.8252 53.7326C44.0905 54.9524 48.5461 52.5151 49.7771 48.2889Z" fill="#F5E2D5"/>
<path d="M37.947 41.245C37.8149 41.1911 37.7347 41.0551 37.758 40.9114C37.7865 40.7447 37.9444 40.6292 38.1153 40.6574L40.3605 41.0166L39.3247 40.1725C39.1926 40.0647 39.1745 39.8697 39.2832 39.7388C39.392 39.608 39.5888 39.59 39.7209 39.6978L41.6423 41.2655C41.7511 41.3528 41.7848 41.5042 41.7278 41.6299C41.6708 41.7556 41.5336 41.83 41.3963 41.8069L38.0169 41.2681C37.991 41.2604 37.9677 41.2553 37.947 41.245Z" fill="#3F4553"/>
<path d="M48.2433 45.3889C48.22 45.3787 48.1993 45.3684 48.1786 45.353L45.5217 43.462C45.4078 43.3799 45.3637 43.2336 45.4129 43.1027C45.4621 42.9719 45.5942 42.8923 45.734 42.9052L48.3236 43.154C48.4945 43.1694 48.6188 43.3208 48.6033 43.4902C48.5877 43.6595 48.435 43.7827 48.264 43.7673L46.8217 43.6287L48.5437 44.8527C48.6836 44.9527 48.7146 45.1426 48.6136 45.2812C48.5256 45.4018 48.3728 45.4428 48.2433 45.3889Z" fill="#3F4553"/>
<path d="M43.0668 49.4275C41.8938 49.4275 40.8476 49.1658 39.9361 48.6449C37.5355 47.2722 36.9814 44.6088 36.9581 44.4959C36.9166 44.2881 37.0539 44.0854 37.2636 44.0443C37.4734 44.0032 37.678 44.1392 37.7194 44.3471C37.7246 44.3702 38.2347 46.7872 40.3323 47.9829C41.8601 48.8553 43.8593 48.8836 46.2753 48.0676C46.4799 47.9983 46.7 48.1061 46.7673 48.3088C46.8373 48.509 46.7285 48.7296 46.5239 48.7963C45.2732 49.2146 44.1182 49.4275 43.0668 49.4275Z" fill="#3F4553"/>
<path d="M90.5493 70.8078C94.0008 67.3879 94.0008 61.8431 90.5493 58.4231C87.0978 55.0032 81.5019 55.0032 78.0504 58.4231C74.5989 61.8431 74.5989 67.3879 78.0504 70.8078C81.5019 74.2278 87.0978 74.2278 90.5493 70.8078Z" fill="#F5E2D5"/>
<path d="M79.3209 67.4808C79.3209 67.4808 85.005 64.2657 90.4819 63.4883C90.4819 63.4883 92.0538 68.6201 86.8177 70.6061C82.2782 72.3278 79.3209 67.4808 79.3209 67.4808Z" fill="#3F4553"/>
<path d="M80.4424 65.0075C80.2559 65.0075 80.0747 64.9074 79.9814 64.7303L78.6918 62.262C78.5598 62.0105 78.6608 61.7 78.9145 61.5692C79.1683 61.4383 79.4817 61.5384 79.6137 61.7898L80.9033 64.2582C81.0354 64.5097 80.9344 64.8201 80.6806 64.951C80.6029 64.9895 80.5227 65.0075 80.4424 65.0075Z" fill="#3F4553"/>
<path d="M87.3149 62.5364C87.0767 62.5364 86.8618 62.3722 86.81 62.131L86.2092 59.3214C86.1496 59.0442 86.3283 58.7723 86.608 58.7133C86.8877 58.6542 87.1622 58.8313 87.2217 59.1084L87.8225 61.918C87.8821 62.1952 87.7034 62.4671 87.4237 62.5262C87.3849 62.5338 87.3486 62.5364 87.3149 62.5364Z" fill="#3F4553"/>
<path d="M88.2082 69.5824C87.7318 68.42 86.0667 67.9453 84.4404 68.5252C83.5393 68.8485 82.8401 69.4284 82.4594 70.0827C83.6377 70.6703 85.1034 70.9346 86.7866 70.2957C87.333 70.0904 87.7991 69.8492 88.2082 69.5824Z" fill="#4E5567"/>
<path d="M135.431 41.9172C139.916 40.0082 141.989 34.8582 140.063 30.4143C138.136 25.9705 132.939 23.9156 128.454 25.8246C123.969 27.7336 121.895 32.8836 123.822 37.3274C125.748 41.7713 130.946 43.8262 135.431 41.9172Z" fill="#F5E2D5"/>
<path d="M133.07 35.8207C130.016 35.8207 127.699 34.0605 127.665 34.0348C127.554 33.9476 127.533 33.7859 127.621 33.6756C127.709 33.5653 127.872 33.5447 127.984 33.632C128.17 33.7757 132.601 37.1293 137.215 33.9989C137.335 33.9194 137.495 33.9502 137.575 34.0656C137.656 34.1836 137.627 34.3427 137.508 34.4223C135.975 35.4615 134.447 35.8207 133.07 35.8207Z" fill="#3F4553"/>
<path d="M135.589 31.1713C135.589 31.7102 135.377 32.1489 135.113 32.1489C134.849 32.1489 134.636 31.7127 134.636 31.1713C134.636 30.6299 134.849 30.1937 135.113 30.1937C135.377 30.1937 135.589 30.6325 135.589 31.1713Z" fill="#3F4553"/>
<path d="M131.014 30.9841C131.014 31.5229 130.801 31.9617 130.537 31.9617C130.273 31.9617 130.061 31.5255 130.061 30.9841C130.061 30.4452 130.273 30.0065 130.537 30.0065C130.801 30.0065 131.014 30.4427 131.014 30.9841Z" fill="#3F4553"/>
<path d="M109.592 94.8773C121.503 94.8773 131.159 92.7152 131.159 90.0482C131.159 87.3813 121.503 85.2192 109.592 85.2192C97.6804 85.2192 88.0244 87.3813 88.0244 90.0482C88.0244 92.7152 97.6804 94.8773 109.592 94.8773Z" fill="#F4A17C"/>
<path opacity="0.5" d="M109.592 94.8773C121.503 94.8773 131.159 92.7152 131.159 90.0482C131.159 87.3813 121.503 85.2192 109.592 85.2192C97.6804 85.2192 88.0244 87.3813 88.0244 90.0482C88.0244 92.7152 97.6804 94.8773 109.592 94.8773Z" fill="#F4A17C"/>
<path d="M107.922 26.2114C107.922 26.2114 106.27 26.0625 106.12 24.5743C105.97 23.0861 109.877 21.2233 112.356 21.1489C114.836 21.0744 117.24 23.7558 117.24 25.9137C117.24 28.0716 117.615 31.125 119.493 31.7203C121.37 32.3156 122.649 35.9643 121.52 37.3037C120.394 38.6431 120.469 38.6431 121.595 39.8362C122.722 41.0268 121.745 43.1129 120.994 43.5593C120.243 44.0058 117.988 44.6755 112.954 44.229C107.92 43.7826 104.913 39.2409 104.688 37.3781C104.463 35.5178 106.19 34.2503 106.791 33.4318C107.391 32.6133 106.34 31.9436 106.415 31.0481C106.49 30.1551 107.617 29.411 107.917 28.6643C108.223 27.9228 107.922 26.2114 107.922 26.2114Z" fill="#3F4553"/>
<path d="M116.03 44.5036C115.147 44.5036 114.127 44.46 112.946 44.3548C107.668 43.8852 104.773 39.1229 104.563 37.3935C104.38 35.8848 105.415 34.7712 106.169 33.9578C106.381 33.7294 106.563 33.5318 106.692 33.3574C106.995 32.9417 106.811 32.5696 106.599 32.136C106.43 31.7973 106.26 31.4483 106.293 31.0404C106.34 30.4733 106.759 29.9858 107.166 29.5162C107.435 29.2032 107.689 28.9081 107.806 28.6207C108.052 28.0126 107.868 26.6861 107.813 26.3243C107.435 26.2601 106.13 25.9394 105.993 24.5846C105.957 24.2331 106.115 23.8584 106.456 23.471C107.541 22.2471 110.351 21.077 112.353 21.018C113.484 20.9872 114.694 21.5132 115.688 22.4703C116.727 23.4684 117.371 24.7873 117.371 25.9137C117.371 27.7817 117.654 31.0019 119.536 31.5997C120.523 31.9128 121.437 33.0597 121.867 34.5197C122.219 35.718 122.128 36.7905 121.626 37.3884C120.606 38.5995 120.606 38.5995 121.598 39.6438L121.699 39.749C122.26 40.3417 122.289 41.0858 122.216 41.6041C122.084 42.5484 121.528 43.3951 121.069 43.6697C120.681 43.8955 119.345 44.5036 116.03 44.5036ZM112.454 21.2746C112.423 21.2746 112.392 21.2746 112.358 21.2772C110.449 21.3336 107.673 22.4831 106.648 23.6429C106.353 23.9739 106.218 24.2844 106.247 24.5615C106.384 25.9291 107.917 26.0831 107.932 26.0856C107.992 26.0908 108.039 26.1344 108.049 26.1908C108.062 26.2627 108.352 27.9485 108.041 28.7182C107.909 29.0441 107.642 29.3546 107.36 29.683C106.982 30.1243 106.588 30.5785 106.55 31.0635C106.521 31.4022 106.679 31.7178 106.829 32.0257C107.06 32.4901 107.295 32.9699 106.902 33.5113C106.765 33.6986 106.578 33.9013 106.361 34.1348C105.641 34.9123 104.654 35.9771 104.822 37.3679C105.024 39.0434 107.839 43.6492 112.972 44.1059C118.513 44.5985 120.466 43.7313 120.935 43.4542C121.333 43.2181 121.838 42.4304 121.96 41.5734C122.025 41.1089 121.999 40.4469 121.51 39.9286L121.411 39.8234C120.344 38.6996 120.292 38.5815 121.432 37.2267C121.88 36.693 121.952 35.7103 121.623 34.5941C121.292 33.4626 120.494 32.1745 119.464 31.8486C117.423 31.202 117.12 27.8561 117.12 25.9189C117.12 24.8591 116.506 23.6121 115.517 22.6602C114.59 21.7749 113.482 21.2746 112.454 21.2746Z" fill="#3F4553"/>
<path d="M119.907 38.1788C119.86 38.1788 119.831 38.1737 119.824 38.1711C119.754 38.1557 119.71 38.0864 119.725 38.0171C119.741 37.9479 119.811 37.9042 119.881 37.9196C119.883 37.9196 120.008 37.9402 120.163 37.8273C120.362 37.6836 120.626 37.3218 120.759 36.4006C120.929 35.2152 119.034 33.6603 117.03 32.0155C116.139 31.2843 115.217 30.5273 114.409 29.7524C111.731 27.184 111.353 24.1459 111.348 24.1152C111.34 24.0459 111.392 23.9817 111.462 23.974C111.527 23.9663 111.597 24.0177 111.604 24.0869C111.607 24.1152 111.977 27.0685 114.588 29.5677C115.388 30.3349 116.304 31.0892 117.193 31.8154C119.345 33.5807 121.204 35.1074 121.012 36.434C120.893 37.2576 120.652 37.799 120.295 38.0428C120.137 38.1583 119.992 38.1788 119.907 38.1788Z" fill="#AC9B8F"/>
<path d="M107.135 24.9926C106.296 24.9926 106.029 24.6693 106.016 24.6513C105.972 24.5949 105.983 24.5153 106.04 24.4717C106.094 24.4281 106.177 24.4384 106.221 24.4948C106.223 24.4974 106.656 24.9772 108.254 24.5795C109.932 24.1638 111.641 22.8218 111.656 22.8065C111.713 22.7628 111.794 22.7705 111.838 22.827C111.882 22.8834 111.874 22.963 111.817 23.0066C111.744 23.063 110.048 24.3973 108.316 24.8258C107.834 24.949 107.446 24.9926 107.135 24.9926Z" fill="#AC9B8F"/>
<path d="M100.032 87.4388C100.032 87.4388 101.151 88.8936 102.401 89.5787C103.652 90.2638 105.897 89.7917 105.25 88.1675C104.602 86.5433 103.567 85.6863 102.79 85.3886C102.013 85.0884 99.993 85.8556 100.032 87.4388Z" fill="#E49621"/>
<path d="M103.673 90.0123C103.212 90.0123 102.735 89.9071 102.339 89.6915C101.078 89.0013 99.9749 87.5772 99.9283 87.5182C99.9127 87.4977 99.9024 87.4695 99.9024 87.4438C99.8868 86.769 100.223 86.1557 100.855 85.7144C101.492 85.2705 102.344 85.0781 102.836 85.2679C103.225 85.4168 104.551 86.0634 105.369 88.1212C105.599 88.6985 105.504 89.2117 105.1 89.5632C104.76 89.8609 104.227 90.0123 103.673 90.0123ZM100.161 87.3951C100.335 87.6132 101.355 88.8602 102.463 89.4683C103.235 89.8891 104.388 89.8429 104.931 89.3708C105.252 89.0911 105.32 88.6934 105.131 88.2161C104.351 86.2558 103.106 85.6477 102.743 85.5091C102.383 85.3706 101.635 85.4886 101.006 85.9274C100.687 86.1455 100.161 86.6279 100.161 87.3951Z" fill="#3F4553"/>
<path d="M101.624 89.0218L101.637 89.0602C101.881 89.2527 102.137 89.4323 102.401 89.576C103.652 90.2611 105.897 89.789 105.25 88.1648C103.222 86.928 101.624 89.0218 101.624 89.0218Z" fill="#F1BD54"/>
<path d="M103.673 90.0123C103.212 90.0123 102.735 89.9071 102.339 89.6915C102.091 89.5555 101.829 89.3785 101.557 89.163C101.536 89.1476 101.521 89.1245 101.513 89.0988L101.5 89.0578C101.487 89.0193 101.495 88.9757 101.521 88.9423C101.539 88.9218 103.212 86.769 105.317 88.0545C105.34 88.0699 105.359 88.0904 105.369 88.1161C105.599 88.6934 105.504 89.2066 105.1 89.5581C104.76 89.8609 104.227 90.0123 103.673 90.0123ZM101.793 89.0218C102.026 89.2015 102.251 89.3503 102.463 89.4683C103.235 89.8891 104.387 89.8429 104.931 89.3708C105.242 89.0988 105.317 88.7165 105.146 88.2572C103.455 87.2539 102.101 88.6575 101.793 89.0218Z" fill="#3F4553"/>
<path d="M102.401 89.5788C103.574 90.2203 105.62 89.8482 105.338 88.4601C104.918 88.904 104.082 89.448 102.919 89.022C101.671 88.5679 100.601 87.3234 100.159 86.7512C100.076 86.9591 100.024 87.1874 100.032 87.4389C100.032 87.4389 101.15 88.8937 102.401 89.5788Z" fill="#F1BD54"/>
<path d="M103.673 90.0098C103.209 90.0098 102.73 89.9046 102.339 89.6891C101.078 88.9988 99.9747 87.5748 99.928 87.5158C99.9125 87.4952 99.9021 87.467 99.9021 87.4413C99.897 87.1925 99.941 86.9436 100.039 86.7024C100.058 86.6587 100.096 86.628 100.143 86.6228C100.187 86.6151 100.234 86.6357 100.262 86.6716C100.666 87.1925 101.736 88.4523 102.963 88.9013C104.157 89.3375 104.954 88.6755 105.242 88.3702C105.276 88.3343 105.325 88.3214 105.371 88.3343C105.418 88.3471 105.454 88.3856 105.462 88.4318C105.56 88.9193 105.397 89.3478 105.001 89.6352C104.664 89.8866 104.178 90.0098 103.673 90.0098ZM100.161 87.3952C100.335 87.6133 101.355 88.8603 102.463 89.4684C103.186 89.8635 104.281 89.8481 104.851 89.4325C105.099 89.2529 105.229 89.0194 105.234 88.7371C104.812 89.0963 103.999 89.5556 102.872 89.1451C101.715 88.7217 100.702 87.6312 100.205 87.0205C100.177 87.1437 100.161 87.2669 100.161 87.3952Z" fill="#3F4553"/>
<path d="M118.791 87.3848C118.791 87.3848 117.672 88.8397 116.421 89.5248C115.17 90.2098 112.925 89.7377 113.573 88.1135C114.22 86.4893 115.256 85.6323 116.033 85.3347C116.81 85.0345 118.83 85.8017 118.791 87.3848Z" fill="#E49621"/>
<path d="M115.15 89.9584C114.596 89.9584 114.062 89.8045 113.721 89.5068C113.317 89.1553 113.221 88.6447 113.451 88.0648C114.27 86.0095 115.598 85.3629 115.984 85.2115C116.476 85.0217 117.328 85.2141 117.965 85.658C118.597 86.0968 118.936 86.7126 118.918 87.3874C118.918 87.4131 118.908 87.4413 118.892 87.4618C118.845 87.5234 117.742 88.9475 116.481 89.6351C116.087 89.8507 115.611 89.9584 115.15 89.9584ZM116.432 85.3963C116.292 85.3963 116.173 85.4142 116.077 85.4502C115.715 85.5887 114.472 86.1994 113.69 88.1572C113.5 88.6344 113.568 89.0322 113.889 89.3118C114.433 89.7865 115.585 89.8301 116.357 89.4093C117.465 88.8038 118.485 87.5568 118.659 87.3387C118.659 86.5715 118.133 86.0891 117.815 85.8684C117.351 85.5451 116.823 85.3963 116.432 85.3963Z" fill="#3F4553"/>
<path d="M117.198 88.9678L117.185 89.0062C116.941 89.1987 116.685 89.3783 116.421 89.522C115.17 90.2071 112.925 89.735 113.572 88.1108C115.6 86.8714 117.198 88.9678 117.198 88.9678Z" fill="#F1BD54"/>
<path d="M115.15 89.9584C114.596 89.9584 114.062 89.8045 113.72 89.5068C113.316 89.1553 113.22 88.6447 113.451 88.0648C113.461 88.0391 113.479 88.016 113.503 88.0032C115.608 86.7177 117.283 88.8679 117.299 88.891C117.325 88.9243 117.333 88.968 117.32 89.0065L117.307 89.0449C117.299 89.0706 117.283 89.0911 117.263 89.1065C116.991 89.3221 116.727 89.4991 116.481 89.6351C116.087 89.8506 115.611 89.9584 115.15 89.9584ZM113.676 88.1982C113.505 88.6575 113.58 89.0424 113.891 89.3118C114.435 89.7865 115.587 89.8301 116.359 89.4093C116.571 89.2938 116.797 89.145 117.03 88.9628C116.719 88.601 115.365 87.2001 113.676 88.1982Z" fill="#3F4553"/>
<path d="M116.421 89.5247C115.248 90.1662 113.202 89.7942 113.485 88.406C113.904 88.8499 114.741 89.3939 115.903 88.968C117.152 88.5138 118.221 87.2693 118.664 86.6971C118.747 86.905 118.798 87.1333 118.791 87.3848C118.791 87.3848 117.672 88.8397 116.421 89.5247Z" fill="#F1BD54"/>
<path d="M115.15 89.956C114.645 89.956 114.158 89.8302 113.816 89.5839C113.42 89.2965 113.257 88.868 113.355 88.3805C113.366 88.3343 113.399 88.2958 113.446 88.283C113.492 88.2702 113.544 88.283 113.575 88.3189C113.863 88.6243 114.66 89.2837 115.854 88.8501C117.082 88.401 118.154 87.1412 118.555 86.6203C118.584 86.5844 118.63 86.5664 118.674 86.5715C118.721 86.5767 118.76 86.6075 118.778 86.6511C118.874 86.8923 118.92 87.1412 118.915 87.3901C118.915 87.4183 118.905 87.4439 118.889 87.4645C118.843 87.5261 117.739 88.9501 116.478 89.6378C116.092 89.8508 115.613 89.956 115.15 89.956ZM113.586 88.6807C113.593 88.963 113.72 89.1965 113.969 89.3761C114.539 89.7917 115.634 89.8071 116.357 89.412C117.465 88.8064 118.485 87.5594 118.659 87.3413C118.659 87.2156 118.643 87.0898 118.612 86.9667C118.115 87.5748 117.102 88.6679 115.945 89.0912C114.821 89.4992 114.008 89.0399 113.586 88.6807Z" fill="#3F4553"/>
<path d="M110.025 31.6178C110.025 31.6178 109.725 34.0759 109.499 34.5968C109.274 35.1177 106.493 35.2665 105.291 35.713C104.09 36.1594 101.534 38.3199 99.9568 39.8081C98.3798 41.2963 96.9503 45.2427 96.9503 45.7636C96.9503 46.2844 98.5274 44.2753 99.9568 42.859C101.384 41.4452 104.54 39.6567 104.54 39.6567C104.54 39.6567 105.669 45.1965 105.82 45.7943C105.97 46.3896 105.817 47.3826 105.817 47.6059C105.817 47.8291 102.66 53.2637 102.135 57.8053C101.609 62.3469 102.585 70.9837 102.585 70.9837C102.585 70.9837 100.858 74.3348 100.708 78.0579C100.558 81.781 99.7315 86.1738 99.8066 86.4714C99.8817 86.7691 99.6564 87.3643 100.032 87.4388C100.407 87.5132 100.708 86.4714 101.609 86.2482C102.51 86.025 103.712 86.6202 103.864 86.025C104.015 85.4297 103.864 84.2391 104.015 82.6739C104.165 81.1113 106.646 74.7068 106.796 72.5489C106.946 70.391 108.748 59.8169 109.126 59.2961C109.502 58.7752 109.502 58.7752 109.502 58.7752C109.502 58.7752 109.877 57.8823 110.103 58.8496C110.328 59.8169 110.103 69.4211 110.553 70.8374C111.004 72.2513 114.554 81.7502 115.005 82.8663C115.455 83.9825 114.479 85.3245 114.779 85.9198C115.08 86.515 115.906 86.2918 116.657 86.2918C117.408 86.2918 118.19 87.3849 118.791 87.3849C119.391 87.3849 119.588 86.515 119.588 85.5477C119.588 84.5804 116.939 75.1558 116.789 72.8465C116.639 70.5372 116.113 68.7514 116.113 68.7514C116.113 68.7514 117.089 58.1055 116.864 55.7962C116.639 53.4869 114.686 47.6059 114.686 47.6059L116.038 40.2546C116.038 40.2546 120.171 42.5639 121.598 44.4242C123.025 46.2844 124.003 46.21 123.851 44.7218C123.701 43.2336 120.168 38.8408 118.291 36.9035C116.413 34.9688 113.858 35.3409 113.107 34.82C112.356 34.2991 112.806 29.1622 112.806 29.1622L110.025 31.6178Z" fill="#FED9CE"/>
<path d="M100.073 87.5721C100.053 87.5721 100.029 87.5696 100.009 87.5644C99.6461 87.4926 99.6694 87.1077 99.6875 86.828C99.6953 86.7074 99.703 86.5817 99.6823 86.5021C99.6513 86.3815 99.703 85.9813 99.874 84.7702C100.117 83.0433 100.485 80.4338 100.581 78.0527C100.723 74.5477 102.272 71.33 102.456 70.9605C102.386 70.3319 101.505 62.1416 102.008 57.7924C102.43 54.1463 104.561 49.8792 105.364 48.2729C105.532 47.9368 105.677 47.6469 105.69 47.5904C105.688 47.5519 105.698 47.4518 105.708 47.321C105.744 46.9233 105.804 46.2613 105.695 45.8276C105.561 45.2888 104.647 40.8242 104.45 39.8619C103.8 40.2417 101.267 41.7453 100.047 42.9538C99.5503 43.4465 99.0324 44.0161 98.574 44.519C97.4372 45.7661 97.1497 46.0483 96.94 45.9688C96.896 45.9508 96.8209 45.9046 96.8209 45.7686C96.8209 45.1836 98.2632 41.2321 99.8662 39.7182C101.151 38.5071 103.927 36.0849 105.245 35.5974C105.752 35.4101 106.521 35.2741 107.267 35.1433C108.161 34.9867 109.274 34.7917 109.378 34.5505C109.593 34.0528 109.89 31.6331 109.893 31.6075C109.896 31.5767 109.911 31.5485 109.934 31.5279L112.716 29.0698C112.754 29.0339 112.814 29.0287 112.861 29.0518C112.907 29.0749 112.936 29.1263 112.931 29.1776C112.76 31.1353 112.674 34.3709 113.177 34.7199C113.402 34.8764 113.85 34.9508 114.37 35.0381C115.52 35.2305 117.092 35.4948 118.379 36.8214C120.249 38.7483 123.817 43.1565 123.975 44.714C124.063 45.5941 123.757 45.8507 123.566 45.9251C123.076 46.1176 122.338 45.6121 121.489 44.5062C120.251 42.8923 116.895 40.9037 116.126 40.4624L114.813 47.6032C114.984 48.1164 116.771 53.5561 116.988 55.791C117.208 58.0515 116.302 68.0508 116.24 68.7462C116.302 68.9668 116.773 70.6911 116.913 72.8439C116.999 74.1474 117.913 77.8474 118.648 80.8213C119.241 83.2229 119.713 85.1217 119.713 85.5528C119.713 86.8203 119.384 87.5182 118.786 87.5182C118.459 87.5182 118.117 87.2616 117.757 86.9922C117.387 86.7151 117.004 86.4252 116.652 86.4252C116.491 86.4252 116.325 86.4354 116.165 86.4457C115.559 86.4842 114.932 86.5227 114.658 85.9813C114.502 85.6759 114.624 85.25 114.764 84.7573C114.93 84.1697 115.116 83.5052 114.88 82.9202C114.425 81.7912 110.885 72.3179 110.426 70.881C110.157 70.0317 110.126 66.4497 110.098 63.2885C110.079 61.2204 110.064 59.2703 109.973 58.8829C109.898 58.5647 109.826 58.5314 109.826 58.5314C109.784 58.5391 109.678 58.6879 109.618 58.829C109.616 58.8393 109.611 58.847 109.606 58.8547L109.23 59.3755C108.899 59.8348 107.091 70.1856 106.925 72.5617C106.84 73.7728 106.032 76.3078 105.317 78.5453C104.748 80.326 104.211 82.0093 104.144 82.6918C104.069 83.4667 104.069 84.1595 104.069 84.7188C104.069 85.2936 104.069 85.7503 103.991 86.0634C103.877 86.5175 103.354 86.4534 102.8 86.3867C102.425 86.3405 102 86.2892 101.643 86.379C101.179 86.4944 100.881 86.8537 100.64 87.1436C100.449 87.3694 100.283 87.5721 100.073 87.5721ZM104.54 39.5309C104.558 39.5309 104.577 39.5335 104.595 39.5412C104.634 39.5592 104.659 39.5925 104.667 39.6336C104.678 39.69 105.799 45.1785 105.946 45.7635C106.066 46.2382 106.003 46.9284 105.967 47.3415C105.957 47.4621 105.946 47.5545 105.946 47.6058C105.946 47.6751 105.897 47.7777 105.594 48.3858C104.797 49.9818 102.681 54.2181 102.264 57.8206C101.746 62.2955 102.704 70.8836 102.715 70.9708C102.717 70.9965 102.712 71.0221 102.702 71.0426C102.684 71.076 100.985 74.4117 100.837 78.0629C100.741 80.4569 100.374 83.0741 100.13 84.8061C100.014 85.6272 99.9154 86.3354 99.9335 86.4431C99.962 86.5586 99.9542 86.7048 99.9439 86.8434C99.9257 87.1539 99.9361 87.2899 100.058 87.313C100.148 87.3284 100.296 87.1487 100.441 86.9743C100.69 86.6715 101.031 86.2584 101.58 86.1224C101.987 86.0223 102.435 86.0762 102.831 86.125C103.36 86.1891 103.683 86.2148 103.74 85.9941C103.813 85.7118 103.813 85.2705 103.813 84.7137C103.813 84.1518 103.813 83.4513 103.888 82.6636C103.955 81.9528 104.473 80.3363 105.071 78.4632C105.781 76.2411 106.586 73.7214 106.669 72.5411C106.798 70.6732 108.588 59.8246 109.023 59.2216L109.391 58.711C109.445 58.5852 109.611 58.2542 109.854 58.2696C110.082 58.2876 110.178 58.5929 110.23 58.8187C110.325 59.2318 110.341 61.0177 110.362 63.2783C110.388 66.265 110.419 69.9829 110.678 70.7938C111.136 72.2281 114.671 81.6885 115.126 82.815C115.396 83.4821 115.186 84.2211 115.02 84.8163C114.901 85.2397 114.787 85.64 114.899 85.8581C115.095 86.2481 115.587 86.2173 116.157 86.1814C116.325 86.1711 116.494 86.1609 116.662 86.1609C117.102 86.1609 117.519 86.4765 117.923 86.7793C118.247 87.023 118.555 87.2539 118.793 87.2539C119.397 87.2539 119.461 86.0582 119.461 85.5451C119.461 85.1448 118.949 83.069 118.405 80.8751C117.628 77.7371 116.75 74.1807 116.662 72.8542C116.514 70.5885 115.997 68.8052 115.991 68.7872C115.986 68.7718 115.986 68.7564 115.986 68.741C115.997 68.6333 116.96 58.0798 116.737 55.809C116.517 53.5407 114.583 47.7059 114.565 47.6469C114.557 47.6263 114.557 47.6058 114.559 47.5827L115.911 40.2314C115.919 40.1904 115.945 40.157 115.984 40.1391C116.022 40.1211 116.067 40.1237 116.103 40.1442C116.274 40.2391 120.275 42.4868 121.704 44.3471C122.587 45.4992 123.211 45.7866 123.478 45.6814C123.688 45.5993 123.778 45.2554 123.726 44.7346C123.576 43.2566 119.997 38.8458 118.203 36.9933C116.975 35.7283 115.45 35.4717 114.337 35.2844C113.762 35.1869 113.309 35.1125 113.037 34.9226C112.335 34.4351 112.563 30.6735 112.656 29.4675L110.155 31.6793C110.111 32.036 109.841 34.1477 109.626 34.6455C109.473 34.997 108.65 35.1587 107.322 35.3896C106.589 35.5179 105.827 35.6513 105.343 35.8309C104.232 36.244 101.821 38.23 100.053 39.8979C98.5481 41.3168 97.2274 44.9219 97.0979 45.666C97.3414 45.4864 97.8929 44.8834 98.3875 44.3394C98.8485 43.8339 99.369 43.2617 99.8714 42.7665C101.296 41.3553 104.354 39.6182 104.483 39.5438C104.496 39.5361 104.52 39.5309 104.54 39.5309Z" fill="#3F4553"/>
<path d="M114.776 85.9198C115.077 86.5151 115.903 86.2919 116.654 86.2919C117.405 86.2919 118.187 87.3849 118.788 87.3849C119.388 87.3849 119.585 86.5151 119.585 85.5478C119.585 84.5804 116.936 75.1559 116.786 72.8466C116.636 70.5373 116.11 68.7515 116.11 68.7515C116.11 68.7515 117.086 58.1056 116.861 55.7963C116.825 55.4294 116.744 54.9701 116.636 54.462L103.328 53.1791C102.779 54.6699 102.31 56.2889 102.134 57.8079C101.608 62.3496 102.585 70.9863 102.585 70.9863C102.585 70.9863 100.857 74.3374 100.707 78.0605C100.557 81.7836 99.731 86.1764 99.8061 86.4741C99.8812 86.7717 99.6559 87.367 100.031 87.4414C100.407 87.5158 100.707 86.4741 101.608 86.2508C102.51 86.0276 103.711 86.6229 103.864 86.0276C104.014 85.4323 103.864 84.2417 104.014 82.6765C104.164 81.1139 106.645 74.7095 106.795 72.5515C106.946 70.3936 108.748 59.8196 109.126 59.2987C109.501 58.7779 109.501 58.7779 109.501 58.7779C109.501 58.7779 109.877 57.8849 110.102 58.8523C110.327 59.8196 110.102 69.4237 110.553 70.8401C111.003 72.2539 114.554 81.7528 115.004 82.869C115.455 83.9826 114.476 85.3245 114.776 85.9198Z" fill="#3F4553"/>
<path d="M100.073 87.5722C100.052 87.5722 100.029 87.5696 100.008 87.5645C99.6458 87.4926 99.6691 87.1077 99.6873 86.8281C99.695 86.7075 99.7028 86.5817 99.6821 86.5022C99.651 86.3816 99.7028 85.9813 99.8737 84.7702C100.117 83.0434 100.485 80.4339 100.581 78.0527C100.723 74.5477 102.272 71.3301 102.456 70.9606C102.386 70.3319 101.505 62.1416 102.008 57.7924C102.163 56.4453 102.567 54.8776 103.209 53.1328C103.23 53.0789 103.282 53.0455 103.344 53.0481L116.651 54.3311C116.708 54.3362 116.755 54.3772 116.765 54.4311C116.882 54.9751 116.957 55.4293 116.993 55.7808C117.213 58.0413 116.307 68.0406 116.245 68.736C116.307 68.9566 116.778 70.6809 116.918 72.8337C117.004 74.1372 117.918 77.8372 118.653 80.8111C119.246 83.2127 119.718 85.1115 119.718 85.5426C119.718 86.8101 119.389 87.508 118.79 87.508C118.464 87.508 118.122 87.2514 117.762 86.982C117.392 86.7049 117.009 86.415 116.657 86.415C116.496 86.415 116.33 86.4252 116.17 86.4355C115.564 86.474 114.937 86.5125 114.663 85.9711C114.507 85.6657 114.629 85.2398 114.769 84.7471C114.935 84.1595 115.121 83.495 114.885 82.9099C114.43 81.781 110.89 72.3077 110.431 70.8708C110.162 70.0215 110.131 66.4395 110.102 63.2783C110.084 61.2102 110.069 59.2601 109.978 58.8727C109.903 58.5545 109.831 58.5212 109.831 58.5212C109.789 58.5289 109.683 58.6777 109.623 58.8188C109.621 58.8291 109.616 58.8368 109.61 58.8445L109.235 59.3653C108.904 59.8246 107.096 70.1754 106.93 72.5514C106.845 73.7625 106.037 76.2976 105.322 78.5351C104.752 80.3158 104.216 81.9991 104.149 82.6816C104.074 83.4565 104.074 84.1493 104.074 84.7086C104.074 85.2834 104.074 85.7376 103.996 86.0532C103.882 86.5073 103.359 86.4432 102.805 86.3765C102.43 86.3303 102.005 86.279 101.648 86.3688C101.184 86.4842 100.886 86.8435 100.645 87.1334C100.449 87.3695 100.283 87.5722 100.073 87.5722ZM103.419 53.315C102.805 55.0033 102.417 56.5198 102.264 57.8207C101.746 62.2956 102.704 70.8836 102.714 70.9709C102.717 70.9965 102.712 71.0222 102.702 71.0427C102.683 71.0761 100.985 74.4117 100.837 78.063C100.741 80.457 100.374 83.0742 100.13 84.8061C100.014 85.6272 99.9152 86.3354 99.9333 86.4432C99.9618 86.5586 99.954 86.7049 99.9436 86.8435C99.9255 87.1539 99.9359 87.2899 100.058 87.313C100.148 87.3284 100.296 87.1488 100.441 86.9743C100.689 86.6715 101.031 86.2584 101.58 86.1224C101.987 86.0224 102.435 86.0763 102.831 86.125C103.359 86.1892 103.683 86.2148 103.74 85.9942C103.812 85.7119 103.812 85.2706 103.812 84.7138C103.812 84.1518 103.812 83.4514 103.888 82.6636C103.955 81.9529 104.473 80.3364 105.071 78.4633C105.781 76.2412 106.586 73.7215 106.669 72.5412C106.798 70.6732 108.588 59.8246 109.023 59.2216L109.39 58.711C109.445 58.5853 109.61 58.2543 109.854 58.2697C110.082 58.2877 110.178 58.593 110.229 58.8188C110.325 59.2319 110.341 61.0178 110.361 63.2783C110.387 66.265 110.418 69.983 110.677 70.7938C111.136 72.2281 114.67 81.6886 115.126 82.815C115.396 83.4821 115.186 84.2211 115.02 84.8164C114.901 85.2398 114.787 85.6401 114.898 85.8582C115.095 86.2482 115.587 86.2174 116.157 86.1815C116.325 86.1712 116.494 86.1609 116.662 86.1609C117.102 86.1609 117.519 86.4765 117.923 86.7793C118.247 87.0231 118.555 87.254 118.793 87.254C119.396 87.254 119.461 86.0583 119.461 85.5451C119.461 85.1448 118.948 83.069 118.405 80.8752C117.628 77.7371 116.75 74.1808 116.662 72.8542C116.514 70.586 115.996 68.8052 115.991 68.7873C115.986 68.7719 115.986 68.7565 115.986 68.7411C115.996 68.6333 116.96 58.0798 116.737 55.809C116.706 55.4857 116.639 55.0726 116.535 54.5799L103.419 53.315Z" fill="#3F4553"/>
<path d="M118.291 36.9061C116.413 34.9714 113.857 35.3435 113.107 34.8226C112.558 34.4429 112.651 31.6076 112.739 30.1014L112.255 29.6498L110.025 31.6204C110.025 31.6204 109.725 34.0785 109.499 34.5994C109.274 35.1203 106.493 35.2691 105.291 35.7155C104.108 36.1543 101.619 38.2506 100.037 39.7337L101.593 41.535C103.005 40.5292 104.54 39.6619 104.54 39.6619C104.54 39.6619 105.669 45.2016 105.819 45.7995C105.97 46.3948 105.817 47.3878 105.817 47.611C105.817 47.7752 104.095 50.785 102.984 54.1746C105.138 55.1573 109.38 56.2735 116.81 55.3857C116.426 52.8608 114.684 47.6084 114.684 47.6084L116.035 40.2572C116.035 40.2572 117.335 40.9833 118.728 41.9481L120.878 39.8903C119.961 38.7356 119.006 37.6425 118.291 36.9061Z" fill="#9776A5"/>
<path d="M111.69 55.8373C107.391 55.8373 104.623 55.0598 102.932 54.2875C102.873 54.2593 102.844 54.1926 102.862 54.131C103.673 51.66 104.815 49.3712 105.364 48.273C105.532 47.9369 105.677 47.6444 105.69 47.588C105.687 47.5495 105.698 47.4494 105.708 47.3185C105.744 46.9208 105.804 46.2588 105.695 45.8252C105.56 45.2863 104.646 40.8217 104.45 39.8595C104.025 40.1058 102.803 40.832 101.671 41.6351C101.617 41.6736 101.541 41.6659 101.497 41.6146L99.9411 39.8159C99.8971 39.7645 99.8997 39.6876 99.9515 39.6388C101.314 38.361 103.96 36.0697 105.25 35.5924C105.757 35.4051 106.526 35.2691 107.272 35.1382C108.166 34.9817 109.279 34.7867 109.383 34.5455C109.598 34.0477 109.895 31.6255 109.898 31.6024C109.901 31.5717 109.916 31.5434 109.939 31.5229L112.169 29.5523C112.218 29.5087 112.296 29.5087 112.345 29.5549L112.829 30.0065C112.858 30.0321 112.873 30.0706 112.871 30.1065C112.684 33.2164 112.91 34.5276 113.184 34.7149C113.409 34.8714 113.857 34.9458 114.378 35.033C115.528 35.2255 117.1 35.4898 118.387 36.8163C119.135 37.5861 120.103 38.7048 120.981 39.8107C121.023 39.862 121.018 39.9365 120.971 39.9826L118.822 42.0405C118.778 42.0841 118.708 42.0892 118.659 42.0533C117.566 41.2964 116.522 40.6831 116.134 40.4599L114.821 47.6008C114.966 48.0395 116.579 52.9609 116.942 55.3677C116.947 55.4011 116.939 55.437 116.916 55.4652C116.892 55.4935 116.864 55.5114 116.828 55.514C114.911 55.7398 113.205 55.8373 111.69 55.8373ZM103.144 54.1027C105.41 55.1086 109.572 56.1016 116.662 55.2728C116.248 52.7403 114.58 47.6983 114.562 47.647C114.554 47.6264 114.554 47.6059 114.557 47.5828L115.908 40.2315C115.916 40.1905 115.942 40.1571 115.981 40.1392C116.02 40.1212 116.064 40.1238 116.1 40.1443C116.113 40.152 117.366 40.8525 118.715 41.7813L120.704 39.8774C119.852 38.81 118.92 37.7375 118.198 36.9934C116.97 35.7284 115.445 35.4718 114.331 35.2845C113.756 35.187 113.303 35.1126 113.031 34.9227C112.583 34.6122 112.438 33.006 112.607 30.1476L112.255 29.8166L110.149 31.6769C110.105 32.0335 109.836 34.1452 109.621 34.643C109.468 34.9946 108.645 35.1562 107.316 35.3871C106.583 35.5154 105.822 35.6489 105.338 35.8285C104.268 36.2262 101.956 38.1147 100.216 39.7363L101.617 41.3554C102.992 40.3855 104.463 39.5516 104.475 39.5439C104.512 39.5234 104.556 39.5208 104.595 39.5387C104.633 39.5567 104.659 39.5901 104.667 39.6311C104.677 39.6876 105.799 45.176 105.946 45.761C106.065 46.2357 106.003 46.926 105.967 47.3391C105.957 47.4597 105.946 47.552 105.946 47.6033C105.946 47.6726 105.897 47.7753 105.594 48.3834C105.058 49.4662 103.947 51.6908 103.144 54.1027Z" fill="#3F4553"/>
<path d="M114.632 35.2074C113.951 35.0893 113.397 35.0201 113.107 34.8199C112.558 34.4402 112.651 31.6049 112.739 30.0987L112.255 29.6471L110.025 31.6177C110.025 31.6177 109.725 34.0758 109.499 34.5967C109.411 34.7968 108.943 34.9431 108.334 35.0714C108.834 36.5596 109.932 39.223 111.374 39.223C112.778 39.2256 114.016 36.7161 114.632 35.2074Z" fill="#FED9CE"/>
<path d="M111.374 39.354C109.859 39.354 108.743 36.6983 108.21 35.1126C108.199 35.0767 108.202 35.0407 108.22 35.0074C108.238 34.9766 108.269 34.9535 108.306 34.9458C109.127 34.7739 109.341 34.6328 109.38 34.5455C109.595 34.0477 109.893 31.6255 109.896 31.6024C109.898 31.5717 109.914 31.5434 109.937 31.5229L112.167 29.5523C112.216 29.5087 112.294 29.5087 112.343 29.5549L112.827 30.0065C112.856 30.0321 112.871 30.0706 112.868 30.1065C112.682 33.2164 112.907 34.5276 113.182 34.7149C113.407 34.8714 113.858 34.9458 114.378 35.033L114.653 35.0792C114.692 35.0869 114.725 35.11 114.743 35.1434C114.761 35.1767 114.764 35.2178 114.751 35.2537C113.987 37.1242 112.78 39.354 111.374 39.354ZM108.502 35.1665C108.945 36.4494 110.023 39.0948 111.374 39.0948C112.656 39.0948 113.829 36.7855 114.451 35.305L114.337 35.2845C113.762 35.187 113.306 35.1126 113.034 34.9227C112.586 34.6122 112.441 33.006 112.61 30.1476L112.257 29.8166L110.152 31.6769C110.108 32.0335 109.839 34.1452 109.624 34.643C109.528 34.856 109.202 35.0099 108.502 35.1665Z" fill="#3F4553"/>
<path d="M112.723 30.3706C112.446 30.3886 112.141 30.4578 111.926 30.5117C111.615 30.5887 111.014 30.9146 110.442 31.2507L110.027 31.6176C110.027 31.6176 109.906 32.6183 109.758 33.4779C110.276 33.2932 111.781 32.7107 112.677 31.864C112.679 31.3354 112.7 30.8145 112.723 30.3706Z" fill="#C6FF00"/>
<path d="M112.723 30.3706C112.446 30.3886 112.141 30.4578 111.926 30.5117C111.615 30.5887 111.014 30.9146 110.442 31.2507L110.027 31.6176C110.027 31.6176 109.906 32.6183 109.758 33.4779C110.276 33.2932 111.781 32.7107 112.677 31.864C112.679 31.3354 112.7 30.8145 112.723 30.3706Z" fill="#BFB2AA"/>
<path d="M109.797 68.5717C118.022 68.5717 124.69 61.965 124.69 53.8153C124.69 45.6655 118.022 39.0588 109.797 39.0588C101.572 39.0588 94.9046 45.6655 94.9046 53.8153C94.9046 61.965 101.572 68.5717 109.797 68.5717Z" fill="#FA6E5A"/>
<path d="M114.694 66.0828C106.469 66.0828 99.8012 59.4757 99.8012 51.3264C99.8012 46.5821 102.064 42.3637 105.576 39.6644C99.4076 41.4682 94.9043 47.1183 94.9043 53.8153C94.9043 61.9646 101.572 68.5717 109.797 68.5717C113.233 68.5717 116.395 67.4145 118.915 65.4798C117.576 65.8699 116.159 66.0828 114.694 66.0828Z" fill="#E3604D"/>
<path d="M99.3479 48.3552C99.0864 48.3552 98.8481 48.1755 98.7886 47.9138C98.7161 47.6059 98.9103 47.3006 99.221 47.2313L103.328 46.2947L100.956 45.5609C100.653 45.466 100.485 45.1478 100.578 44.8476C100.671 44.5474 100.995 44.3806 101.298 44.473L105.698 45.8355C105.946 45.9124 106.112 46.1434 106.101 46.4025C106.091 46.6591 105.91 46.8772 105.656 46.9362L99.4774 48.3449C99.4334 48.3526 99.3893 48.3552 99.3479 48.3552Z" fill="#3F4553"/>
<path d="M119.935 48.3552C119.891 48.3552 119.844 48.3501 119.8 48.3398L113.909 46.9312C113.655 46.8696 113.477 46.6489 113.469 46.3923C113.461 46.1357 113.629 45.9048 113.881 45.8304L118.503 44.4679C118.809 44.3781 119.127 44.55 119.218 44.8528C119.308 45.1556 119.135 45.4712 118.832 45.561L116.258 46.3205L120.072 47.2314C120.38 47.3058 120.572 47.6137 120.497 47.919C120.43 48.1808 120.194 48.3552 119.935 48.3552Z" fill="#3F4553"/>
<path d="M98.4209 50.7672C99.9228 57.1563 104.447 61.798 109.797 61.798C115.147 61.798 119.673 57.1563 121.173 50.7672L119.197 50.4413C112.876 49.3944 106.438 49.4073 100.122 50.4798L98.4209 50.7672Z" fill="#3F4553"/>
<path d="M117.553 57.4537C115.59 56.1631 112.884 55.3651 109.89 55.3651C106.84 55.3651 104.087 56.199 102.116 57.5333C104.191 59.84 106.868 61.2384 109.797 61.2384C112.762 61.2384 115.468 59.8092 117.553 57.4537Z" fill="#4E5567"/>
<path d="M107.847 25.3903C107.847 25.3903 107.322 26.953 106.871 27.8484C106.42 28.7414 107.096 31.4971 107.622 32.3157C108.148 33.1342 109.124 32.9854 109.499 32.911C109.875 32.8365 111.527 31.7948 112.13 31.1995C112.731 30.6042 113.032 30.3066 113.032 30.3066C113.032 30.3066 113.332 30.3066 113.632 29.7113C113.933 29.116 112.731 27.7766 111.68 26.137C110.628 24.5 110.178 24.5744 110.178 24.5744L107.847 25.3903Z" fill="#FED9CE"/>
<path d="M108.935 33.0982C108.155 33.0982 107.736 32.7288 107.513 32.3824C106.972 31.5382 106.275 28.7414 106.755 27.7894C107.197 26.9144 107.72 25.3646 107.726 25.3492C107.739 25.3108 107.767 25.2825 107.806 25.2697L110.137 24.4512C110.245 24.4332 110.748 24.4409 111.791 26.0677C112.071 26.5039 112.358 26.9119 112.635 27.307C113.433 28.4437 114.008 29.2648 113.752 29.7677C113.493 30.2809 113.218 30.3989 113.096 30.4271L112.224 31.2919C111.607 31.9025 109.929 32.9597 109.528 33.0392C109.308 33.0803 109.111 33.0982 108.935 33.0982ZM107.951 25.4904C107.85 25.788 107.392 27.1018 106.988 27.9049C106.558 28.7542 107.241 31.4843 107.733 32.2464C108.067 32.7672 108.655 32.9469 109.479 32.7852C109.802 32.7211 111.439 31.705 112.042 31.1071L112.944 30.2142C112.967 30.1911 113.001 30.1757 113.034 30.1757C113.032 30.1757 113.267 30.15 113.518 29.6522C113.705 29.2853 113.109 28.436 112.42 27.4533C112.143 27.0556 111.856 26.645 111.571 26.2063C110.701 24.8515 110.269 24.7155 110.199 24.7026L107.951 25.4904Z" fill="#3F4553"/>
<path d="M108.375 29.1032C108.36 29.1032 108.344 29.1007 108.329 29.0955C107.544 28.7953 107.614 28.5926 107.635 28.5285C107.686 28.3719 108.29 27.4893 108.474 27.2224C108.515 27.1634 108.595 27.148 108.652 27.1891C108.712 27.2301 108.727 27.3097 108.686 27.3661C108.342 27.8665 107.971 28.4258 107.891 28.5798C107.956 28.6465 108.186 28.7671 108.419 28.8569C108.487 28.8826 108.52 28.957 108.494 29.0237C108.476 29.0699 108.427 29.1032 108.375 29.1032Z" fill="#3F4553"/>
<path d="M110.999 27.9305C110.949 27.9305 110.903 27.9023 110.882 27.8561C110.763 27.6046 110.608 27.4456 110.418 27.3814C110.165 27.2967 109.929 27.4071 109.926 27.4071C109.862 27.4379 109.784 27.4122 109.753 27.3506C109.722 27.2865 109.748 27.2095 109.81 27.1787C109.823 27.171 110.144 27.0171 110.504 27.1402C110.76 27.2275 110.967 27.4327 111.118 27.7483C111.149 27.8125 111.12 27.8895 111.056 27.9202C111.035 27.9254 111.017 27.9305 110.999 27.9305Z" fill="#3F4553"/>
<path d="M108.22 27.2173C108.179 27.2173 108.14 27.1993 108.114 27.1634C108.111 27.1582 107.99 26.9966 107.808 26.9761C107.692 26.9632 107.562 27.0171 107.43 27.1326C107.376 27.1788 107.296 27.1762 107.246 27.1223C107.2 27.0684 107.202 26.9889 107.257 26.9401C107.446 26.7708 107.64 26.699 107.839 26.7195C108.137 26.7528 108.318 27.0017 108.324 27.012C108.365 27.071 108.349 27.1505 108.293 27.1916C108.272 27.2096 108.246 27.2173 108.22 27.2173Z" fill="#3F4553"/>
<path d="M111.411 27.1146C111.356 27.1146 111.307 27.0812 111.289 27.0273C110.926 25.9907 110.287 26.1344 110.261 26.1421C110.191 26.1575 110.121 26.119 110.103 26.0497C110.085 25.9804 110.126 25.9112 110.194 25.8932C110.201 25.8906 111.087 25.6725 111.532 26.9427C111.556 27.0094 111.519 27.0838 111.452 27.1069C111.439 27.112 111.424 27.1146 111.411 27.1146Z" fill="#3F4553"/>
<path d="M107.603 26.6039C107.583 26.6039 107.565 26.5987 107.546 26.5911C107.482 26.5603 107.456 26.4833 107.49 26.4191C107.635 26.1292 107.829 25.9573 108.067 25.9034C108.43 25.8213 108.751 26.0599 108.764 26.0702C108.821 26.1138 108.831 26.1933 108.787 26.2498C108.743 26.3062 108.663 26.3165 108.606 26.2729C108.603 26.2703 108.365 26.0958 108.121 26.1523C107.963 26.1882 107.829 26.3165 107.72 26.532C107.697 26.5782 107.65 26.6039 107.603 26.6039Z" fill="#3F4553"/>
<path d="M107.912 29.6882C107.912 29.6882 108.836 30.0448 110.02 29.3828C110.02 29.3828 109.404 30.2988 108.684 30.4015C107.964 30.5015 107.912 29.6882 107.912 29.6882Z" fill="#3F4553"/>
<path d="M99.5451 40.2827C99.5451 40.2827 96.29 42.9897 95.7695 44.732C95.249 46.4742 95.6401 50.4719 95.5753 51.6958C95.5106 52.9197 96.3574 54.2745 96.7458 54.5337C97.1368 54.7928 97.2016 54.3412 97.1368 53.8896C97.0721 53.438 97.0721 51.1159 97.0721 51.1159C97.0721 51.1159 97.6573 52.7914 97.7221 52.4707C97.7868 52.1474 97.7868 51.5675 97.5279 50.6643C97.2689 49.7611 96.6163 48.473 96.6811 48.2139C96.7458 47.9547 98.8278 44.0879 99.1541 42.8614" fill="#FED9CE"/>
<path d="M96.9451 54.7365C96.8726 54.7365 96.782 54.7109 96.6732 54.639C96.264 54.3696 95.3758 52.9738 95.4432 51.6882C95.4613 51.3239 95.4406 50.7004 95.4147 49.9768C95.3551 48.2705 95.2722 45.9329 95.6426 44.6962C96.1682 42.9386 99.3223 40.2957 99.457 40.1854C99.5114 40.1392 99.5942 40.1469 99.6383 40.2008C99.6849 40.2546 99.6771 40.3367 99.6227 40.3804C99.5917 40.406 96.3935 43.0848 95.8886 44.768C95.5312 45.9663 95.6115 48.2782 95.671 49.9691C95.6969 50.6978 95.7177 51.329 95.6995 51.7036C95.6374 52.8788 96.4531 54.19 96.813 54.4286C96.8881 54.4774 96.9399 54.4876 96.9555 54.4799C97.0047 54.4491 97.0539 54.2516 97.0047 53.9103C96.9399 53.4561 96.9373 51.2161 96.9373 51.1186C96.9373 51.057 96.984 51.0031 97.0461 50.9929C97.1083 50.9826 97.1704 51.0185 97.1911 51.0776C97.3284 51.4727 97.5019 51.9166 97.6236 52.1783C97.6365 51.8781 97.6003 51.4009 97.4009 50.7029C97.2895 50.3129 97.0979 49.8408 96.9296 49.4251C96.6499 48.7323 96.5075 48.3628 96.5515 48.1858C96.5748 48.0934 96.7431 47.7573 97.1212 47.0081C97.7531 45.7533 98.807 43.6544 99.0271 42.8334C99.0453 42.7641 99.1178 42.723 99.1851 42.741C99.255 42.7589 99.2964 42.8282 99.2783 42.8975C99.053 43.7442 98.0301 45.7764 97.3543 47.121C97.0824 47.6624 96.826 48.1704 96.8053 48.2474C96.782 48.3603 96.9995 48.8966 97.173 49.3276C97.3439 49.751 97.5355 50.2282 97.6521 50.6311C97.9447 51.6498 97.9033 52.2373 97.8489 52.4965C97.823 52.6222 97.7323 52.6376 97.7039 52.6402C97.6262 52.6453 97.52 52.653 97.2041 51.8499C97.2092 52.5683 97.2248 53.5921 97.2636 53.8692C97.2999 54.1156 97.3258 54.5518 97.0953 54.6929C97.0616 54.7186 97.0098 54.7365 96.9451 54.7365Z" fill="#3F4553"/>
<path d="M96.9218 54.6389C96.87 54.6389 96.8182 54.6055 96.8001 54.5542C96.7949 54.544 96.3806 53.4021 96.176 51.9755C96.1656 51.9062 96.2148 51.8395 96.2848 51.8292C96.3547 51.819 96.422 51.8677 96.4324 51.937C96.6343 53.3354 97.0409 54.4516 97.0435 54.4644C97.0668 54.5311 97.0331 54.6055 96.9658 54.6286C96.9503 54.6363 96.9347 54.6389 96.9218 54.6389Z" fill="#3F4553"/>
<path d="M96.4583 54.3311C96.4117 54.3311 96.3651 54.3055 96.3418 54.2593C96.3236 54.2259 95.9197 53.4126 95.6607 52.0809C95.6478 52.0116 95.6944 51.9449 95.7643 51.9295C95.8342 51.9166 95.9016 51.9603 95.9171 52.0321C96.1683 53.3279 96.5722 54.1361 96.5748 54.1438C96.6059 54.208 96.58 54.2849 96.5179 54.3157C96.4971 54.3286 96.4764 54.3311 96.4583 54.3311Z" fill="#3F4553"/>
<path d="M121.005 40.2827C121.005 40.2827 124.26 42.9897 124.781 44.732C125.301 46.4742 124.91 50.4719 124.975 51.6958C125.039 52.9197 124.193 54.2745 123.804 54.5337C123.416 54.7928 123.348 54.3412 123.413 53.8896C123.478 53.438 123.478 51.1159 123.478 51.1159C123.478 51.1159 122.893 52.7914 122.828 52.4707C122.763 52.15 122.763 51.5675 123.022 50.6643C123.284 49.7611 123.934 48.473 123.869 48.2139C123.804 47.9547 121.722 44.0879 121.396 42.8614" fill="#FED9CE"/>
<path d="M123.605 54.7365C123.54 54.7365 123.491 54.716 123.452 54.6929C123.224 54.5518 123.25 54.1156 123.284 53.8692C123.323 53.5921 123.338 52.5658 123.343 51.8499C123.027 52.6504 122.927 52.6453 122.844 52.6402C122.815 52.6376 122.725 52.6222 122.699 52.4965C122.647 52.2373 122.603 51.6498 122.895 50.6311C123.012 50.2282 123.204 49.751 123.374 49.3276C123.548 48.8966 123.763 48.3603 123.74 48.2474C123.719 48.173 123.463 47.6598 123.191 47.1184C122.515 45.7739 121.492 43.7417 121.269 42.8975C121.251 42.8282 121.292 42.7589 121.362 42.741C121.43 42.723 121.502 42.7641 121.52 42.8334C121.738 43.6519 122.794 45.7533 123.424 47.0055C123.802 47.7573 123.97 48.0934 123.993 48.1858C124.037 48.3628 123.895 48.7323 123.615 49.4251C123.447 49.8408 123.258 50.3129 123.144 50.7029C122.942 51.4009 122.906 51.8781 122.921 52.1783C123.043 51.914 123.214 51.4727 123.354 51.0776C123.374 51.0185 123.434 50.9826 123.499 50.9929C123.561 51.0031 123.608 51.057 123.608 51.1186C123.608 51.2135 123.608 53.4536 123.54 53.9103C123.491 54.2516 123.54 54.4491 123.589 54.4799C123.605 54.4902 123.657 54.4799 123.732 54.4286C124.092 54.19 124.908 52.8788 124.845 51.7036C124.825 51.329 124.848 50.6978 124.874 49.9691C124.933 48.2807 125.014 45.9663 124.656 44.768C124.151 43.0848 120.956 40.4086 120.922 40.3804C120.868 40.3342 120.86 40.2546 120.907 40.2008C120.953 40.1469 121.034 40.1392 121.088 40.1854C121.223 40.2957 124.377 42.9386 124.902 44.6962C125.273 45.9329 125.19 48.2705 125.13 49.9768C125.104 50.7004 125.084 51.3264 125.102 51.6882C125.169 52.9738 124.281 54.3696 123.872 54.639C123.766 54.7134 123.677 54.7365 123.605 54.7365Z" fill="#3F4553"/>
<path d="M123.61 54.5363C123.599 54.5363 123.589 54.5363 123.576 54.5312C123.506 54.5132 123.465 54.4439 123.483 54.3746C123.488 54.3592 123.892 52.7941 123.892 51.7523C123.892 51.6805 123.949 51.624 124.022 51.624C124.094 51.624 124.151 51.6805 124.151 51.7523C124.151 52.8274 123.752 54.3746 123.734 54.4388C123.721 54.4978 123.667 54.5363 123.61 54.5363Z" fill="#3F4553"/>
<path d="M124.073 54.485C124.058 54.485 124.045 54.4824 124.029 54.4773C123.962 54.4542 123.928 54.3798 123.952 54.3131C123.957 54.2977 124.563 52.6427 124.563 52.0089C124.563 51.9371 124.62 51.8806 124.692 51.8806C124.765 51.8806 124.822 51.9371 124.822 52.0089C124.822 52.6863 124.221 54.331 124.195 54.4003C124.177 54.4542 124.125 54.485 124.073 54.485Z" fill="#3F4553"/>
<path d="M64.3213 94.9976C76.0488 94.9976 85.5558 92.7816 85.5558 90.048C85.5558 87.3144 76.0488 85.0984 64.3213 85.0984C52.5939 85.0984 43.0869 87.3144 43.0869 90.048C43.0869 92.7816 52.5939 94.9976 64.3213 94.9976Z" fill="#F4A17C"/>
<path d="M65.5459 94.9993C77.9604 94.9993 88.0243 92.7902 88.0243 90.065C88.0243 87.3399 77.9604 85.1307 65.5459 85.1307C53.1313 85.1307 43.0674 87.3399 43.0674 90.065C43.0674 92.7902 53.1313 94.9993 65.5459 94.9993Z" fill="#F4A17C"/>
<path d="M55.3983 86.6073C55.3983 86.6073 52.2494 88.2469 51.6564 89.0962C51.0634 89.9455 51.8532 90.6203 53.0366 90.7024C54.2201 90.7845 59.091 89.1603 59.5313 88.9499C59.9741 88.7395 59.653 87.4643 59.3319 86.8074C59.0134 86.148 55.3983 86.6073 55.3983 86.6073Z" fill="#E49621"/>
<path d="M53.1273 90.8332C53.0911 90.8332 53.0574 90.8332 53.0263 90.8307C52.2417 90.7768 51.6228 90.4663 51.4079 90.025C51.3043 89.8094 51.2421 89.4605 51.5477 89.0243C52.1537 88.1596 55.2068 86.5636 55.3362 86.4943C55.3492 86.4866 55.3647 86.4815 55.3803 86.4815C55.9992 86.402 59.1041 86.0479 59.4459 86.7509C59.6246 87.1178 59.7799 87.6182 59.8421 88.0262C59.9275 88.5932 59.8421 88.9422 59.5831 89.0653C59.1481 89.2732 54.4972 90.8332 53.1273 90.8332ZM55.4372 86.7304C55.1653 86.8741 52.3064 88.3879 51.7601 89.168C51.571 89.4374 51.5322 89.6888 51.6409 89.9121C51.8144 90.2713 52.3531 90.5253 53.0445 90.5741C54.2098 90.6587 59.0367 89.0422 59.4744 88.8344C59.609 88.7703 59.653 88.4829 59.5883 88.0646C59.5313 87.6798 59.3837 87.2076 59.2154 86.8612C59.0238 86.4661 56.9003 86.5482 55.4372 86.7304Z" fill="#3F4553"/>
<path d="M59.6941 87.9081C58.4459 88.4495 55.0018 89.9095 53.8132 90.0609C52.8447 90.184 51.9539 89.8222 51.4618 89.5631C51.3816 90.1815 52.0807 90.6356 53.0363 90.7023C54.2197 90.7844 59.0907 89.1602 59.5309 88.9498C59.7743 88.8318 59.7847 88.3905 59.6941 87.9081Z" fill="#F1BD54"/>
<path d="M53.127 90.8333C53.0908 90.8333 53.0571 90.8333 53.026 90.8307C52.3631 90.7845 51.8193 90.5613 51.5344 90.2175C51.3713 90.0199 51.3014 89.789 51.3299 89.5478C51.335 89.5067 51.3609 89.4682 51.3998 89.4503C51.436 89.4297 51.4827 89.4297 51.5189 89.4503C51.9617 89.6838 52.8474 90.0558 53.7951 89.9352C54.9812 89.7838 58.5677 88.2571 59.6398 87.7927C59.676 87.7773 59.7175 87.7773 59.7511 87.7978C59.7848 87.8158 59.8107 87.8492 59.8185 87.8876C59.9402 88.5266 59.8599 88.9345 59.5854 89.0654C59.1478 89.2732 54.4969 90.8333 53.127 90.8333ZM51.594 89.7736C51.6147 89.8736 51.6613 89.966 51.7338 90.0558C51.9695 90.3406 52.4589 90.5331 53.0416 90.5741C54.2069 90.6588 59.0338 89.0423 59.4715 88.8345C59.6035 88.7703 59.645 88.4932 59.5906 88.0929C58.1275 88.7241 54.9708 90.043 53.8262 90.1893C52.938 90.2996 52.1042 90.0122 51.594 89.7736Z" fill="#3F4553"/>
<path d="M70.6486 86.6073C70.6486 86.6073 73.7975 88.2469 74.3905 89.0962C74.9835 89.9455 74.1937 90.6203 73.0103 90.7024C71.8269 90.7846 66.9559 89.1604 66.5157 88.95C66.0729 88.7395 66.394 87.4643 66.7151 86.8074C67.0362 86.148 70.6486 86.6073 70.6486 86.6073Z" fill="#E49621"/>
<path d="M72.9222 90.8333C71.5498 90.8333 66.9015 89.2732 66.4613 89.0654C66.2049 88.9422 66.1168 88.5933 66.2023 88.0262C66.2644 87.6182 66.4198 87.1179 66.5985 86.7509C66.9403 86.0453 70.0452 86.402 70.6641 86.4815C70.6797 86.4841 70.6952 86.4892 70.7081 86.4944C70.8376 86.5611 73.8933 88.1571 74.4967 89.0243C74.8022 89.4605 74.7427 89.8095 74.6365 90.025C74.4216 90.4689 73.8027 90.7768 73.018 90.8307C72.9896 90.8307 72.9559 90.8333 72.9222 90.8333ZM68.3413 86.579C67.5566 86.579 66.9326 86.656 66.8316 86.8613C66.6632 87.2077 66.5156 87.6798 66.4587 88.0647C66.3939 88.4829 66.438 88.7703 66.5726 88.8344C66.9999 89.0397 71.6119 90.5793 72.9119 90.5793C72.9455 90.5793 72.974 90.5792 73.0025 90.5767C73.6939 90.5279 74.23 90.2739 74.406 89.9147C74.5148 89.6915 74.4734 89.44 74.2869 89.1706C73.7431 88.3905 70.8816 86.8767 70.6097 86.733C69.9106 86.6432 69.0586 86.579 68.3413 86.579Z" fill="#3F4553"/>
<path d="M66.3546 87.9082C67.6028 88.4496 71.0469 89.9096 72.2355 90.061C73.204 90.1841 74.0948 89.8224 74.5868 89.5632C74.6671 90.1816 73.9679 90.6357 73.0124 90.7025C71.829 90.7846 66.958 89.1604 66.5178 88.95C66.2717 88.8319 66.2614 88.3906 66.3546 87.9082Z" fill="#F1BD54"/>
<path d="M72.9218 90.8333C71.5494 90.8333 66.9011 89.2732 66.4609 89.0654C66.1864 88.9345 66.1061 88.5265 66.2278 87.8876C66.2356 87.8491 66.2589 87.8158 66.2952 87.7978C66.3314 87.7799 66.3703 87.7773 66.4065 87.7927C67.4786 88.2571 71.0677 89.7838 72.2511 89.9352C73.1989 90.0558 74.0846 89.6838 74.5274 89.4503C74.5662 89.4297 74.6102 89.4297 74.6465 89.4503C74.6853 89.4708 74.7112 89.5067 74.7164 89.5478C74.7475 89.789 74.6776 90.0199 74.5118 90.2175C74.227 90.5613 73.6832 90.7845 73.0202 90.8307C72.9892 90.8307 72.9555 90.8333 72.9218 90.8333ZM66.4557 88.0929C66.3987 88.4932 66.4428 88.7703 66.5748 88.8344C67.0021 89.0397 71.6141 90.5767 72.9141 90.5793C72.9477 90.5793 72.9762 90.5793 73.0047 90.5767C73.5874 90.5356 74.0768 90.3406 74.3124 90.0584C74.3849 89.9711 74.4316 89.8762 74.4523 89.7761C73.9447 90.0148 73.1135 90.3047 72.2175 90.1918C71.0729 90.043 67.9188 88.7241 66.4557 88.0929Z" fill="#3F4553"/>
<path d="M56.957 54.5001C56.957 54.5001 54.0904 66.7908 53.6916 68.5458C53.2928 70.3009 53.0002 72.2741 53.4663 73.4544C53.9324 74.6347 55.4266 86.2171 55.4266 86.2171L59.7201 87.3769C59.7201 87.3769 59.7745 79.9358 59.6321 77.0107C59.4896 74.0856 59.3239 70.3881 59.3239 70.3881L63.8867 59.1213L64.6403 60.1092L68.0559 70.2085L66.0464 87.1357L70.1302 86.076C70.1302 86.076 73.639 75.3095 74.2113 73.0695C74.781 70.8295 75.0555 69.3233 74.6101 68.2944C74.1647 67.2654 71.2748 55.7831 71.2748 55.7831L56.957 54.5001Z" fill="#3F4553"/>
<path d="M59.7175 87.5027C59.7072 87.5027 59.6942 87.5001 59.6839 87.4975L55.3904 86.3377C55.3412 86.3249 55.3023 86.2813 55.2971 86.23C55.2816 86.1145 53.7978 74.6501 53.3446 73.498C52.9562 72.5102 53.0261 70.8808 53.5647 68.5151C53.9583 66.7805 56.8017 54.5925 56.8302 54.4694C56.8457 54.4078 56.9027 54.3642 56.9674 54.3693L71.2799 55.6523C71.3343 55.6574 71.3809 55.6959 71.3939 55.7498C71.4224 55.8652 74.2864 67.2347 74.7241 68.2405C75.1721 69.272 74.9312 70.7423 74.3305 73.0977C73.7659 75.3172 70.283 86.0042 70.2493 86.1119C70.2364 86.153 70.2027 86.1864 70.1587 86.1966L66.0749 87.2563C66.0335 87.2666 65.9895 87.2563 65.9558 87.2281C65.9221 87.1999 65.9066 87.1588 65.9118 87.1152L67.9187 70.2188L64.5186 60.1657L63.9152 59.3754L59.4534 70.4087C59.4689 70.7525 59.6243 74.2242 59.7616 77.003C59.904 79.8974 59.8496 87.3025 59.8496 87.3769C59.8496 87.418 59.8315 87.4539 59.7978 87.477C59.7745 87.495 59.746 87.5027 59.7175 87.5027ZM55.5432 86.1145L59.5906 87.2076C59.5984 86.0889 59.6321 79.6587 59.5026 77.0133C59.3602 74.0882 59.1944 70.3907 59.1944 70.3907C59.1944 70.3728 59.197 70.3548 59.2048 70.3368L63.7676 59.07C63.7857 59.0264 63.8246 58.9956 63.8712 58.9905C63.9204 58.9853 63.9644 59.0033 63.9929 59.0418L64.7465 60.0297C64.7542 60.0399 64.762 60.0528 64.7646 60.0656L68.1802 70.1649C68.1854 70.1829 68.188 70.2009 68.1854 70.2214L66.1966 86.9613L70.0292 85.9657C70.327 85.0522 73.5458 75.153 74.0844 73.0336C74.6697 70.7346 74.9079 69.3028 74.491 68.3406C74.0611 67.3527 71.4612 57.0481 71.1712 55.8986L57.0606 54.6336C56.7758 55.8575 54.194 66.9242 53.8211 68.569C53.2954 70.8834 53.2203 72.464 53.5906 73.4031C54.036 74.5475 55.3956 84.9778 55.5432 86.1145Z" fill="#3F4553"/>
<path d="M67.4211 84.5647C67.4159 84.5647 67.4108 84.5647 67.4056 84.5647C67.3357 84.557 67.2839 84.4928 67.2916 84.421C67.3072 84.2978 68.7858 72.0791 68.8635 71.3965C68.9049 71.0476 68.9153 70.9424 69.1561 70.9295C69.2701 70.9244 69.5109 70.9116 70.0392 70.56C70.1661 70.4754 70.2489 70.4138 70.3007 70.3727C70.2308 70.3727 70.1427 70.3753 70.0676 70.3779C69.7465 70.3881 69.3063 70.4035 68.993 70.2675C68.2653 69.9519 66.3438 63.5885 65.9658 62.3133C65.9451 62.2466 65.9839 62.1747 66.0538 62.1542C66.1211 62.1337 66.1937 62.1722 66.2144 62.2414C67.2942 65.8799 68.6719 69.8467 69.0966 70.0315C69.3581 70.1444 69.7647 70.1315 70.0599 70.1213C70.3991 70.111 70.5882 70.1033 70.6399 70.2573C70.684 70.3907 70.5778 70.5113 70.1868 70.773C69.5989 71.1656 69.3115 71.181 69.1717 71.1861C69.1665 71.1861 69.1613 71.1861 69.1561 71.1861C69.1458 71.2323 69.1354 71.3221 69.125 71.4247C69.0474 72.1098 67.5661 84.3286 67.5506 84.4518C67.5428 84.5159 67.4858 84.5647 67.4211 84.5647Z" fill="#4E5567"/>
<path d="M59.4686 81.8809C59.4039 81.8809 59.3469 81.8322 59.3391 81.768L59.2304 80.852C59.2226 80.7827 59.2744 80.7185 59.3443 80.7108C59.4142 80.7032 59.479 80.7545 59.4867 80.8237L59.5955 81.7398C59.6033 81.8091 59.5515 81.8732 59.4816 81.8809C59.479 81.8809 59.4738 81.8809 59.4686 81.8809Z" fill="#4E5567"/>
<path d="M59.202 79.5973C59.1373 79.5973 59.0803 79.5485 59.0725 79.4844L58.1066 71.2658C57.9357 71.2299 57.5395 71.1427 57.019 70.999C56.9258 70.9733 56.729 70.9195 56.7212 70.7655C56.7108 70.5936 56.9154 70.5115 57.366 70.3319C57.7156 70.1933 58.1532 70.0188 58.552 69.7699C59.0285 69.4749 60.1601 67.0219 61.6543 63.0422C61.6802 62.9755 61.7527 62.9421 61.8201 62.9678C61.8874 62.9934 61.921 63.0653 61.8952 63.132C60.8075 66.0263 59.3677 69.5647 58.6867 69.988C58.2672 70.2472 57.801 70.4345 57.4592 70.5705C57.3116 70.6295 57.1511 70.6937 57.0501 70.7424C57.0604 70.745 57.0708 70.7475 57.0837 70.7527C57.7752 70.9425 58.2413 71.0323 58.2465 71.0349C58.3008 71.0452 58.3449 71.0914 58.35 71.1452L59.3263 79.4562C59.3341 79.5254 59.2823 79.5896 59.2124 79.5973C59.2124 79.5973 59.2072 79.5973 59.202 79.5973Z" fill="#4E5567"/>
<path d="M62.2706 61.8744C62.2551 61.8744 62.2421 61.8719 62.2266 61.8667C62.1593 61.8436 62.1256 61.7692 62.1489 61.7025C62.325 61.2201 62.4286 60.925 62.4286 60.925C62.4519 60.8583 62.527 60.8224 62.5943 60.8455C62.6617 60.8686 62.6979 60.943 62.6746 61.0097C62.6746 61.0097 62.571 61.3048 62.3949 61.7898C62.3742 61.8411 62.325 61.8744 62.2706 61.8744Z" fill="#4E5567"/>
<path d="M65.6293 34.5016C65.6293 34.5016 58.6815 33.37 55.8822 32.8722C53.0828 32.3745 50.6771 31.9049 50.6771 31.9049L49.4575 35.7768C49.4575 35.7768 55.0121 37.6294 56.4752 38.063C57.9383 38.4967 58.5158 38.7327 58.5158 38.7327C58.5158 38.7327 58.7074 48.0803 58.1066 50.0919C57.5058 52.1036 56.1541 56.1474 56.1541 56.1474L63.3116 60.1194L64.7488 57.923L64.8602 59.9988C64.8602 59.9988 67.1105 59.868 69.1382 59.2239C71.1658 58.5799 72.3932 57.805 72.3932 57.805L70.7851 50.8053L72.9785 41.7759C72.9785 41.7759 84.0307 39.6 84.0955 38.8944C84.1602 38.1888 82.5754 35.6024 82.5754 35.6024L67.6 34.635L65.6293 34.5016Z" fill="#FFF9F1"/>
<path d="M63.3122 60.2504C63.2915 60.2504 63.2682 60.2452 63.2501 60.235L56.0925 56.263C56.0381 56.2322 56.0122 56.168 56.0329 56.1116C56.0459 56.0705 57.3925 52.0472 57.9855 50.0586C58.5422 48.1907 58.4076 39.7669 58.3894 38.8226C58.1875 38.7456 57.5841 38.525 56.4395 38.1863C54.9919 37.7578 49.4736 35.918 49.4192 35.9001C49.3519 35.877 49.3156 35.8077 49.3363 35.741L50.556 31.8691C50.5767 31.8075 50.6389 31.7664 50.7036 31.7818C50.7269 31.7869 53.1404 32.2565 55.906 32.7466C58.638 33.2315 65.4072 34.3349 65.6454 34.3759L67.6109 34.5119L82.5863 35.4793C82.6278 35.4818 82.6666 35.5049 82.6899 35.5408C82.8531 35.8103 84.2954 38.1863 84.2281 38.9124C84.21 39.0997 84.1789 39.4461 78.544 40.7316C76.0658 41.2961 73.5643 41.799 73.0878 41.894L70.9203 50.8156L72.5207 57.7845C72.5336 57.8384 72.5103 57.8923 72.4637 57.9205C72.4508 57.9282 71.1974 58.7134 69.1776 59.3549C67.1577 59.9963 64.8918 60.1349 64.8685 60.1349C64.8349 60.1375 64.8012 60.1246 64.7753 60.1015C64.7494 60.0784 64.7339 60.0477 64.7313 60.0117L64.6407 58.3285L63.421 60.1939C63.3951 60.2298 63.3536 60.2504 63.3122 60.2504ZM56.31 56.0911L63.2682 59.9527L64.6381 57.859C64.6691 57.8128 64.7261 57.7922 64.7805 57.8051C64.8349 57.8205 64.8737 57.8667 64.8763 57.9231L64.9825 59.868C65.49 59.8296 67.3856 59.6525 69.0973 59.1085C70.8012 58.5671 71.9458 57.9257 72.2462 57.7486L70.6588 50.8412C70.6536 50.8207 70.6536 50.8028 70.6588 50.7822L72.8522 41.7529C72.8651 41.7041 72.904 41.6682 72.9532 41.6579C78.1116 40.6418 83.7257 39.323 83.9718 38.8765C84.0158 38.3608 82.9566 36.4851 82.5009 35.7333L67.5928 34.7711L65.6195 34.6351C65.6143 34.6351 65.6117 34.6351 65.6066 34.6325C65.5366 34.6223 58.6277 33.4933 55.8594 33.0032C53.4304 32.5721 51.2759 32.1564 50.7658 32.0589L49.6186 35.7025C50.4369 35.9745 55.1861 37.5525 56.512 37.9476C57.9648 38.3787 58.5422 38.6122 58.5655 38.6225C58.6121 38.643 58.6432 38.6866 58.6458 38.7379C58.6536 39.1203 58.8297 48.1291 58.2315 50.1356C57.6903 51.9446 56.525 55.4522 56.31 56.0911Z" fill="#3F4553"/>
<path d="M63.1977 34.0193L62.8947 38.4506L66.5641 37.0265L70.464 40.0081L70.3397 34.1835L63.1977 34.0193Z" fill="white"/>
<path d="M70.4643 40.1364C70.4358 40.1364 70.4073 40.1261 70.384 40.1107L66.5437 37.1753L62.9416 38.5737C62.9002 38.5891 62.8535 38.584 62.8173 38.5583C62.781 38.5327 62.7629 38.4891 62.7655 38.4454L63.0685 34.0142C63.0737 33.9449 63.1384 33.8961 63.2005 33.8936L70.34 34.0578C70.4099 34.0603 70.4643 34.1142 70.4669 34.1835L70.5912 40.0081C70.5912 40.0568 70.5653 40.103 70.5212 40.1261C70.5031 40.1312 70.485 40.1364 70.4643 40.1364ZM66.5644 36.8982C66.5929 36.8982 66.6214 36.9085 66.6447 36.9239L70.3296 39.7412L70.2131 34.3092L63.3197 34.1501L63.0374 38.2581L66.5178 36.9085C66.5333 36.9008 66.5489 36.8982 66.5644 36.8982Z" fill="#3F4553"/>
<path d="M64.8914 57.6306C64.8888 57.6306 64.8837 57.6306 64.8811 57.6306C64.8086 57.6254 64.7568 57.5639 64.762 57.492L66.2017 40.5212C66.2069 40.4494 66.2717 40.4006 66.3416 40.4032C66.4141 40.4083 66.4659 40.4699 66.4607 40.5417L65.0209 57.5125C65.0131 57.5818 64.9562 57.6306 64.8914 57.6306Z" fill="#3F4553"/>
<path d="M72.9789 41.9066C72.953 41.9066 72.9271 41.8989 72.9064 41.8835C72.8546 41.8476 72.8339 41.7809 72.8624 41.7219L74.5948 38.0988C74.6259 38.0347 74.7036 38.009 74.7683 38.0372C74.8331 38.068 74.8615 38.145 74.8305 38.2092L73.4528 41.0881L76.5966 37.755C76.6458 37.7037 76.726 37.7011 76.7804 37.7499C76.8322 37.7986 76.8348 37.8782 76.7856 37.932L73.0747 41.8681C73.0488 41.8938 73.0126 41.9066 72.9789 41.9066Z" fill="#3F4553"/>
<path d="M58.5162 38.8636C58.4773 38.8636 58.4385 38.8456 58.4126 38.8123L55.5693 35.1123C55.5252 35.0558 55.5356 34.9763 55.5926 34.9327C55.6495 34.889 55.7298 34.8993 55.7738 34.9557L58.0216 37.8783L57.2369 35.9847C57.211 35.9205 57.2421 35.8435 57.3069 35.8179C57.3716 35.7922 57.4493 35.823 57.4752 35.8872L58.6327 38.684C58.656 38.743 58.6327 38.8123 58.5783 38.8431C58.5602 38.8559 58.5369 38.8636 58.5162 38.8636Z" fill="#3F4553"/>
<path d="M64.8812 34.3784L66.3287 40.5314L68.9235 34.7248L67.5976 34.6401L65.627 34.5041C65.6296 34.5016 65.3473 34.4554 64.8812 34.3784Z" fill="white"/>
<path d="M66.329 40.6597C66.3238 40.6597 66.3212 40.6597 66.316 40.6597C66.2616 40.6546 66.215 40.6161 66.2021 40.5622L64.7545 34.4092C64.7442 34.3681 64.7571 34.3245 64.7856 34.2911C64.8141 34.2578 64.8581 34.245 64.9021 34.2527L65.6505 34.3758L68.9341 34.5965C68.9755 34.599 69.0143 34.6221 69.0376 34.6581C69.0584 34.694 69.0635 34.7376 69.0454 34.7761L66.4507 40.5827C66.4274 40.6289 66.3808 40.6597 66.329 40.6597ZM65.0523 34.5375L66.3678 40.1286L68.7321 34.8402L65.6194 34.6298L65.0523 34.5375Z" fill="#3F4553"/>
<path d="M64.8812 34.3784L66.3287 40.5314L68.9235 34.7248L67.5976 34.6401L65.627 34.5041C65.6296 34.5016 65.3473 34.4554 64.8812 34.3784Z" fill="#C6FF00"/>
<path d="M64.8812 34.3784L66.3287 40.5314L68.9235 34.7248L67.5976 34.6401L65.627 34.5041C65.6296 34.5016 65.3473 34.4554 64.8812 34.3784Z" fill="#FED9CE"/>
<path d="M86.8361 37.4908C86.8361 37.4908 86.9629 38.5146 86.3881 38.9636C85.8158 39.4127 83.3945 40.1901 82.7161 39.7873C82.0376 39.3844 81.0769 37.2522 81.4524 35.7511C81.8278 34.2527 84.0963 34.8095 84.0963 34.8095C84.0963 34.8095 86.313 35.5125 86.8361 37.4908Z" fill="white"/>
<path d="M83.2828 40.026C83.0212 40.026 82.8011 39.9875 82.6509 39.8977C81.8947 39.4487 80.9547 37.2138 81.3276 35.7205C81.496 35.0482 82.0398 34.6582 82.9047 34.5889C83.5339 34.5401 84.1036 34.6761 84.127 34.6838C84.2279 34.7146 86.4265 35.4331 86.9599 37.455C86.9625 37.4601 86.9625 37.4653 86.9625 37.473C86.9677 37.5166 87.0894 38.5737 86.4679 39.0613C86.0173 39.4179 84.3263 40.026 83.2828 40.026ZM83.1869 34.8378C82.5525 34.8378 81.7704 35.0046 81.5762 35.782C81.2111 37.2395 82.1744 39.3153 82.783 39.6771C83.3967 40.0414 85.7428 39.305 86.3074 38.8637C86.7916 38.4839 86.7165 37.6064 86.7087 37.514C86.2064 35.6358 84.0777 34.9404 84.057 34.9327C84.0493 34.9302 83.6582 34.8378 83.1869 34.8378Z" fill="#575C69"/>
<path d="M84.7848 38.5763C83.7231 38.6354 82.7882 37.881 82.5189 36.8623C81.843 34.2862 80.1961 28.223 79.5694 27.8073C78.7718 27.2813 78.1607 27.1479 78.171 26.6604C78.1814 26.1754 78.2228 24.2305 78.2228 24.2305C78.2228 24.2305 78.5776 23.7019 78.8132 24.1945C79.0489 24.6846 78.9919 25.0721 78.9919 25.0721C78.9919 25.0721 79.3829 23.9867 79.3415 23.6454C79.3001 23.3042 79.2198 22.3805 79.225 22.1367C79.2302 21.8929 79.5539 21.6825 80.0329 22.1778C80.512 22.673 81.4468 23.7378 81.2656 24.2433C81.0843 24.7488 80.7606 27.2454 80.7606 27.2454C80.7606 27.2454 86.758 35.9694 86.6441 36.7443C86.5612 37.3011 86.077 38.5045 84.7848 38.5763Z" fill="#FED9CE"/>
<path d="M84.6682 38.7071C83.6194 38.7071 82.6742 37.9605 82.3946 36.893C81.0117 31.6201 79.9008 28.1793 79.4994 27.9124C79.269 27.761 79.054 27.643 78.865 27.5378C78.3833 27.271 78.0338 27.0785 78.0441 26.6577L78.0959 24.2278C78.0959 24.2047 78.1037 24.1791 78.1166 24.1585C78.1373 24.1252 78.3367 23.8378 78.5931 23.8558C78.7329 23.866 78.8469 23.961 78.9323 24.138C78.9867 24.2509 79.0256 24.3612 79.0566 24.4613C79.1524 24.1303 79.2301 23.7993 79.2146 23.6608C79.1732 23.3298 79.0929 22.3932 79.0981 22.134C79.1007 21.975 79.1991 21.8338 79.3467 21.7774C79.4761 21.7261 79.7532 21.7004 80.1287 22.0904C80.6881 22.6678 81.5944 23.7198 81.3898 24.2894C81.2267 24.7384 80.9444 26.8681 80.8978 27.2171C81.9647 28.7694 86.8901 35.9899 86.7761 36.7673C86.6829 37.4037 86.1469 38.6302 84.7977 38.7046C84.7485 38.7071 84.7071 38.7071 84.6682 38.7071ZM78.3497 24.274L78.3005 26.6628C78.2953 26.9169 78.5206 27.0529 78.9893 27.3146C79.1835 27.4223 79.4036 27.5429 79.6419 27.6995C80.2504 28.0997 81.6099 32.8851 82.6458 36.8289C82.9047 37.8219 83.8007 38.5019 84.777 38.448C85.9604 38.3813 86.4317 37.2959 86.5146 36.7288C86.5923 36.2003 82.9591 30.6785 80.6518 27.3197C80.6337 27.2941 80.6259 27.2633 80.6311 27.2325C80.644 27.1298 80.9574 24.7179 81.1412 24.2022C81.25 23.8968 80.7787 23.1373 79.9371 22.2675C79.7066 22.0288 79.5279 21.9801 79.4347 22.016C79.3751 22.0391 79.3518 22.0956 79.3518 22.1392C79.3467 22.3701 79.4218 23.2733 79.4658 23.63C79.5098 23.9918 79.1524 25.0001 79.111 25.1156C79.0877 25.1772 79.023 25.2131 78.9582 25.1977C78.8935 25.1823 78.8521 25.1207 78.8624 25.054C78.8624 25.0515 78.909 24.6948 78.6967 24.2483C78.6578 24.1662 78.6112 24.1149 78.5724 24.1123C78.518 24.1047 78.4118 24.197 78.3497 24.274Z" fill="#3F4553"/>
<path d="M80.2763 25.1619C80.2633 25.1619 80.2504 25.1593 80.24 25.1568C80.1727 25.1362 80.1312 25.0644 80.1546 24.9977L80.4342 24.0714C80.3747 23.938 80.2089 23.5479 80.1908 23.1913C80.1804 22.9937 80.2607 22.9039 80.3281 22.8629C80.5016 22.7577 80.745 22.8911 80.7916 22.9167C80.8537 22.9527 80.8719 23.0322 80.8356 23.0912C80.7994 23.1528 80.7191 23.1733 80.6595 23.1374C80.5818 23.0912 80.4834 23.0681 80.4601 23.081C80.4601 23.081 80.442 23.1015 80.4472 23.1785C80.4679 23.5582 80.6854 24.0021 80.688 24.0072C80.7035 24.0355 80.7061 24.0688 80.6958 24.0996L80.4006 25.0747C80.3824 25.126 80.3306 25.1619 80.2763 25.1619Z" fill="#263238"/>
<path d="M79.8334 25.0463C79.823 25.0463 79.8127 25.0463 79.8023 25.0437C79.7324 25.0258 79.691 24.9565 79.7065 24.8898L79.924 24.0097C79.8593 23.8711 79.6884 23.4324 79.7894 22.9705C79.836 22.7627 79.9292 22.6241 80.069 22.5625C80.2607 22.4753 80.4497 22.5754 80.4704 22.5856C80.5326 22.619 80.5559 22.6985 80.5222 22.7601C80.4886 22.8217 80.4109 22.8448 80.3461 22.8114C80.3435 22.8089 80.2477 22.7627 80.1752 22.796C80.1001 22.8294 80.0613 22.9397 80.0431 23.0244C79.9421 23.4811 80.1726 23.9301 80.1752 23.9353C80.1908 23.9635 80.1933 23.9943 80.1856 24.0251L79.9577 24.9514C79.9447 25.0078 79.8904 25.0463 79.8334 25.0463Z" fill="#263238"/>
<path d="M79.4632 25.0206C79.4554 25.0206 79.4477 25.0206 79.4399 25.0181C79.37 25.0052 79.3234 24.9385 79.3337 24.8692L79.5435 23.6966C79.5098 23.5632 79.37 22.9833 79.3493 22.5676C79.3389 22.3726 79.4192 22.2572 79.4891 22.193C79.6859 22.0108 80.0096 22.0468 80.0458 22.0519C80.1158 22.0622 80.1675 22.1237 80.1572 22.1956C80.1494 22.2649 80.0847 22.3162 80.0122 22.3059C79.9448 22.2982 79.7558 22.2957 79.6626 22.3803C79.6212 22.4188 79.603 22.4753 79.6056 22.5548C79.6289 22.991 79.7972 23.6556 79.7998 23.6607C79.805 23.6787 79.805 23.6966 79.8024 23.7146L79.5875 24.9129C79.5797 24.977 79.5253 25.0206 79.4632 25.0206Z" fill="#263238"/>
<path d="M68.6848 35.823C77.5534 35.823 84.7427 28.6994 84.7427 19.9119C84.7427 11.1245 77.5534 4.00085 68.6848 4.00085C59.8163 4.00085 52.627 11.1245 52.627 19.9119C52.627 28.6994 59.8163 35.823 68.6848 35.823Z" fill="#FA6E5A"/>
<path opacity="0.3" d="M57.6019 19.2654C57.923 11.5369 63.7599 5.32748 71.1945 4.19849C70.5886 4.10355 69.9723 4.03941 69.3456 4.01375C60.4841 3.65196 53.0054 10.4747 52.6377 19.2526C52.2726 28.0331 59.1582 35.4433 68.0171 35.8077C69.0789 35.8513 70.1173 35.7897 71.1298 35.6358C63.185 34.399 57.2627 27.4249 57.6019 19.2654Z" fill="#AC3E2F"/>
<path d="M58.9537 21.3412C58.9537 21.3412 70.7388 19.8042 80.4911 22.2239C80.4911 22.2239 79.577 31.9229 69.3949 31.6997C60.567 31.5073 58.9537 21.3412 58.9537 21.3412Z" fill="#3F4553"/>
<path d="M69.8841 16.302C69.4983 16.302 69.1642 16.0197 69.115 15.6297C68.869 13.7335 67.1288 12.3043 65.065 12.3043C63.2264 12.3043 61.6079 13.4538 61.1288 15.096C61.0097 15.504 60.5772 15.74 60.1655 15.622C59.7538 15.504 59.5155 15.078 59.6346 14.6675C60.3053 12.3685 62.5375 10.7648 65.065 10.7648C67.9057 10.7648 70.3088 12.7713 70.6558 15.4347C70.7102 15.8555 70.4098 16.2429 69.9851 16.2968C69.9515 16.2994 69.9178 16.302 69.8841 16.302Z" fill="#3F4553"/>
<path d="M81.1982 18.1287C80.7787 18.1287 80.4343 17.7977 80.4213 17.3795C80.3747 15.6886 78.9686 14.2773 77.1507 14.0977C75.5322 13.9386 74.0018 14.8059 73.4321 16.2094C73.2715 16.6046 72.8183 16.7945 72.4221 16.6379C72.0234 16.4789 71.8317 16.0324 71.9897 15.6372C72.8158 13.5999 74.9988 12.3375 77.3035 12.5659C79.8956 12.8225 81.9025 14.8752 81.9725 17.3359C81.9854 17.7618 81.6462 18.1159 81.2163 18.1262C81.2137 18.1287 81.2059 18.1287 81.1982 18.1287Z" fill="#3F4553"/>
<path d="M60.4869 21.6389C60.5827 22.0238 61.2948 24.1304 65.4537 24.3023C70.032 24.4897 74.6052 24.8463 76.985 24.7745C78.4093 24.7309 79.0903 23.5172 79.4088 22.5473C72.1995 20.9128 64.0864 21.3285 60.4869 21.6389Z" fill="white"/>
<path d="M72.4403 30.9223C72.4429 28.6412 69.9724 26.7117 66.8364 26.5834C65.0989 26.5115 63.5218 27.0119 62.4238 27.856C63.9983 29.6445 66.2797 31.0891 69.5529 31.1609C70.6146 31.184 71.5728 31.0942 72.4403 30.9223Z" fill="#4E5567"/>
<path d="M54.937 86.6636L60.067 88.2596L60.1084 86.1633L54.7299 85.0651L54.937 86.6636Z" fill="#4E5567"/>
<path d="M60.0673 88.3878C60.0543 88.3878 60.0414 88.3853 60.0284 88.3827L54.8985 86.7867C54.8493 86.7713 54.8156 86.7303 54.8079 86.6815L54.6007 85.0804C54.5955 85.0394 54.6111 84.9983 54.6421 84.9701C54.6732 84.9419 54.7147 84.929 54.7561 84.9393L60.1346 86.0375C60.1968 86.0503 60.2382 86.1042 60.2382 86.1658L60.1968 88.2621C60.1968 88.3032 60.1761 88.3391 60.1424 88.3647C60.1217 88.3801 60.0958 88.3878 60.0673 88.3878ZM55.0539 86.5661L59.9404 88.0851L59.9767 86.2659L54.8804 85.2241L55.0539 86.5661Z" fill="#3F4553"/>
<path d="M65.4741 86.9741L66.106 88.8318L71.1582 86.7945L70.7776 85.0625L65.4741 86.9741Z" fill="#4E5567"/>
<path d="M66.106 88.9576C66.0878 88.9576 66.0697 88.9525 66.0516 88.9448C66.0179 88.9294 65.9946 88.9037 65.9817 88.8704L65.3498 87.0152C65.3265 86.9485 65.3628 86.8767 65.4275 86.8536L70.7309 84.942C70.7672 84.9291 70.806 84.9317 70.8371 84.9497C70.8708 84.9676 70.8941 84.9984 70.9018 85.0343L71.2825 86.7663C71.2954 86.8279 71.2618 86.8895 71.2048 86.9126L66.1526 88.9473C66.1396 88.955 66.1215 88.9576 66.106 88.9576ZM65.6372 87.0511L66.1836 88.66L71.008 86.7176L70.6817 85.2345L65.6372 87.0511Z" fill="#3F4553"/>
<path d="M46.6434 33.3474C46.6434 33.3474 46.299 34.3199 46.7625 34.8818C47.226 35.4437 49.422 36.7138 50.1704 36.4624C50.9188 36.2135 52.3171 34.3301 52.2757 32.788C52.2317 31.2434 49.8959 31.3075 49.8959 31.3075C49.8959 31.3075 47.5808 31.5256 46.6434 33.3474Z" fill="white"/>
<path d="M49.9498 36.6211C48.9813 36.6211 47.0754 35.4613 46.6611 34.961C46.1587 34.3529 46.5031 33.347 46.5187 33.3034C46.5212 33.2983 46.5238 33.2931 46.5264 33.288C47.4846 31.4226 49.7867 31.1891 49.8825 31.1788C50.7474 31.1609 52.3659 31.4611 52.4047 32.7825C52.4488 34.3195 51.0478 36.3029 50.2114 36.5826C50.1363 36.6083 50.0482 36.6211 49.9498 36.6211ZM46.7621 33.3958C46.7336 33.4856 46.472 34.3246 46.8631 34.7993C47.3188 35.351 49.4526 36.5646 50.1311 36.3414C50.8044 36.1156 52.1898 34.2938 52.1484 32.7928C52.1095 31.3944 49.9239 31.438 49.9006 31.438C49.8851 31.438 47.6581 31.6689 46.7621 33.3958Z" fill="#3F4553"/>
<path d="M47.8782 34.6967C48.9037 34.979 49.9783 34.4402 50.46 33.501C51.6745 31.1276 54.5904 25.5519 55.2921 25.2799C56.1855 24.9335 56.8096 24.9335 56.9054 24.4563C57.0012 23.979 57.3793 22.0726 57.3793 22.0726C57.3793 22.0726 57.1463 21.4824 56.8122 21.9135C56.4781 22.342 56.4497 22.7346 56.4497 22.7346C56.4497 22.7346 56.3021 21.5928 56.416 21.2669C56.5299 20.9436 56.807 20.0558 56.8536 19.8172C56.9002 19.5785 56.6309 19.304 56.056 19.6863C55.4812 20.0686 54.3392 20.9102 54.4065 21.4439C54.4764 21.9776 54.2511 24.4845 54.2511 24.4845C54.2511 24.4845 46.5109 31.7383 46.4565 32.5209C46.4177 33.0777 46.63 34.3529 47.8782 34.6967Z" fill="#FED9CE"/>
<path d="M48.4349 34.902C48.2381 34.902 48.0413 34.8764 47.8445 34.8225C46.5419 34.4633 46.283 33.1547 46.327 32.5106C46.3814 31.7255 52.7491 25.7136 54.1268 24.4229C54.1578 24.0714 54.3391 21.9314 54.277 21.4593C54.1993 20.8615 55.3128 20.025 55.9809 19.5785C56.4341 19.2783 56.6956 19.363 56.8121 19.44C56.9442 19.5272 57.009 19.6837 56.9779 19.8428C56.9287 20.0968 56.6464 20.9949 56.5351 21.3105C56.4884 21.4439 56.4936 21.7826 56.5169 22.1265C56.5661 22.0341 56.6283 21.9366 56.706 21.8365C56.8251 21.6826 56.9572 21.6133 57.097 21.6338C57.3482 21.6697 57.4828 21.993 57.4958 22.029C57.5036 22.052 57.5061 22.0751 57.501 22.1008L57.0323 24.4794C56.9494 24.8925 56.5687 25.0054 56.0405 25.1645C55.8333 25.2261 55.5976 25.2979 55.3387 25.398C54.8881 25.5724 53.0625 28.7003 50.5765 33.5575C50.1492 34.394 49.305 34.902 48.4349 34.902ZM47.9144 34.5736C48.8544 34.8327 49.8773 34.3581 50.346 33.442C52.2053 29.8087 54.5644 25.4211 55.2455 25.1593C55.5122 25.0567 55.753 24.9849 55.9654 24.9207C56.4807 24.7668 56.7293 24.6821 56.7785 24.4306L57.2446 22.0854C57.2032 21.9982 57.1255 21.8904 57.0633 21.8827C57.0219 21.875 56.9701 21.9161 56.9131 21.9879C56.6076 22.3779 56.5765 22.7371 56.5765 22.7397C56.5713 22.8064 56.5169 22.8577 56.4496 22.8577C56.3745 22.8603 56.3253 22.8116 56.3175 22.7448C56.302 22.6242 56.1699 21.562 56.2916 21.2181C56.4108 20.8794 56.6801 20.0122 56.7241 19.7864C56.7319 19.7427 56.7241 19.6837 56.6697 19.6478C56.5869 19.5939 56.403 19.6016 56.1259 19.7864C55.116 20.4586 54.4919 21.1001 54.5333 21.4208C54.6032 21.9622 54.3883 24.3844 54.3805 24.4896C54.378 24.5204 54.3624 24.5512 54.3417 24.5718C51.3637 27.3634 46.6248 31.9923 46.5885 32.5234C46.5445 33.0982 46.7724 34.2606 47.9144 34.5736Z" fill="#3F4553"/>
<path d="M55.4501 22.6832C55.4475 22.6832 55.4449 22.6832 55.4449 22.6832C55.3724 22.6806 55.318 22.619 55.3232 22.5498C55.3232 22.5421 55.3569 21.8441 55.3388 21.5029C55.318 21.1334 55.8722 19.7889 55.9369 19.6375C55.9628 19.5708 56.0405 19.54 56.1053 19.5682C56.17 19.5939 56.2037 19.6708 56.1752 19.735C55.9447 20.2892 55.5848 21.254 55.5977 21.4901C55.6158 21.8441 55.5822 22.5344 55.5822 22.5626C55.577 22.6293 55.52 22.6832 55.4501 22.6832Z" fill="#263238"/>
<path d="M55.02 22.5395L54.761 22.5344C54.761 22.5344 54.7792 21.7851 54.7921 21.5054C54.8051 21.2206 55.0925 20.338 55.1236 20.2405C55.1443 20.1737 55.2194 20.1353 55.2867 20.1583C55.3541 20.1789 55.3929 20.2533 55.3696 20.32C55.2841 20.5817 55.0588 21.3053 55.0485 21.5183C55.0381 21.7954 55.02 22.5395 55.02 22.5395Z" fill="#263238"/>
</svg>
