<svg width="25" height="114" viewBox="0 0 25 114" fill="none" xmlns="http://www.w3.org/2000/svg">
<path d="M159.623 44.9058V143.11H74.6218L29.4072 97.5853C28.6076 96.7801 27.8532 95.9408 27.1516 95.0749C24.9186 92.3253 23.1873 89.306 21.9501 86.1349C20.6336 82.751 19.883 79.1925 19.702 75.6149C19.2908 67.5256 21.7728 59.3147 27.1516 52.6951C27.8532 51.8292 28.6076 50.9899 29.4072 50.181L73.592 5.68965C74.1767 5.10099 74.7802 4.53892 75.395 4.00343C77.6016 2.08174 80.0006 0.501847 82.5241 -0.736239C94.9451 -6.84312 110.354 -4.70115 120.674 5.68965L129.511 14.5879L136.52 21.6443L159.623 44.9058Z" fill="#84C6AE"/>
<path d="M159.623 117.14V143.106H74.6219L43.0543 111.326L29.4073 97.5852C28.6077 96.7801 27.8533 95.9408 27.1517 95.0749C24.9187 92.3253 23.1874 89.306 21.9502 86.1348C23.3948 86.0399 25.1488 85.9222 27.1517 85.7968C34.5448 85.3297 45.3778 84.7107 56.9502 84.2587C56.9502 84.2587 56.9502 84.2587 56.954 84.2587C57.2218 84.2473 57.4859 84.2397 57.7537 84.2283C58.3836 84.2056 59.0173 84.179 59.651 84.1562C59.6698 84.1562 59.6887 84.1562 59.7038 84.1562C60.1489 84.141 60.594 84.1258 61.0353 84.1068C61.6048 84.0878 62.1706 84.0688 62.7402 84.0498C63.8416 84.0157 64.943 83.9777 66.0444 83.9473C67.0478 83.9169 68.0511 83.8903 69.0583 83.8638C69.0583 83.8638 69.062 83.8638 69.0658 83.8638C69.7712 83.8448 70.4765 83.8296 71.1819 83.8144C71.412 83.8106 71.642 83.803 71.8759 83.7992C91.1544 83.3814 109.335 83.7878 114.397 86.4577C122.375 90.658 143.038 106.597 159.623 117.14Z" fill="url(#paint0_linear_3_688)"/>
<path d="M51.7145 40.0626C49.2212 42.8958 45.7661 45.6796 41.8131 45.6796C40.259 45.6796 38.92 45.5656 37.7695 45.3719C32.9565 44.582 31.3949 42.5008 30.9611 42.178C30.4255 41.7754 29.4901 42.0375 27.5287 41.5437C25.5672 41.05 23.9264 37.8561 24.6318 37.5598C25.2881 37.2902 26.7441 39.1169 27.1477 39.4056C27.1477 39.4056 27.1477 39.4056 27.1515 39.4094C27.1816 39.4284 27.2043 39.4435 27.2231 39.4473C27.3023 39.4587 27.3287 39.379 27.3514 39.2385C27.3929 38.9422 27.3966 38.384 27.7625 37.9206C28.2981 37.2408 28.8526 37.013 29.128 37.5219C29.1317 37.5333 29.1393 37.5408 29.1431 37.5522C29.3581 38.0536 28.3547 38.6156 28.6829 39.2157C29.0186 39.8347 30.6141 39.6334 30.7348 38.9992C30.8555 38.365 30.3199 37.8713 29.954 37.7345C29.8258 37.6852 29.739 37.5522 29.7051 37.3965C29.641 37.1079 29.773 36.7357 30.2068 36.6787C30.8706 36.5838 31.8174 36.7927 32.0927 38.0232C32.3643 39.2499 33.0093 40.2905 34.5973 40.4538C39.648 40.9703 44.4874 36.7281 46.6412 33.3025C46.9128 34.7267 47.7087 36.6522 49.8172 38.5814C50.3566 39.0752 50.9827 39.5727 51.7145 40.0626Z" fill="url(#paint1_linear_3_688)"/>
<path d="M4.19724 52.3395C4.19724 52.3395 3.03547 69.0878 25.407 80.7775" stroke="url(#paint2_linear_3_688)" stroke-width="1.3679" stroke-miterlimit="10" stroke-linecap="round" stroke-linejoin="round"/>
<path d="M5.40604 59.5513C5.40604 59.5513 6.00201 54.1356 8.10676 54.7204C10.2115 55.3091 9.21572 59.0575 5.40604 59.5513Z" fill="url(#paint3_linear_3_688)"/>
<path d="M5.40111 59.5927C5.40111 59.5927 2.3609 55.0847 0.769134 56.5962C-0.818864 58.1039 1.80265 60.9485 5.40111 59.5927Z" fill="url(#paint4_linear_3_688)"/>
<path d="M9.07479 66.296C9.07479 66.296 8.14688 60.9297 10.3308 60.8993C12.5186 60.869 12.5978 64.7503 9.07479 66.296Z" fill="url(#paint5_linear_3_688)"/>
<path d="M9.08521 66.3295C9.08521 66.3295 4.91719 62.8545 3.80823 64.7496C2.69927 66.6447 6.00352 68.6424 9.08521 66.3295Z" fill="url(#paint6_linear_3_688)"/>
<path d="M14.3071 73.053C14.3071 73.053 12.5456 67.9032 14.6993 67.5234C16.8531 67.1474 17.5434 70.968 14.3071 73.053Z" fill="url(#paint7_linear_3_688)"/>
<path d="M14.3219 73.0866C14.3219 73.0866 9.65975 70.318 8.86387 72.3688C8.06798 74.4196 11.6438 75.8628 14.3219 73.0866Z" fill="url(#paint8_linear_3_688)"/>
<path d="M19.327 76.2173C19.327 76.2173 15.6342 72.2334 17.4485 71.0067C19.2666 69.78 21.4393 72.9816 19.327 76.2173Z" fill="url(#paint9_linear_3_688)"/>
<path d="M19.3571 76.2411C19.3571 76.2411 13.9821 75.6258 14.0802 77.8248C14.182 80.0237 18.0332 79.8756 19.3571 76.2411Z" fill="url(#paint10_linear_3_688)"/>
<path d="M4.13397 52.8931C4.13397 52.8931 7.28356 48.4611 8.83384 50.0106C10.3879 51.5563 7.69848 54.3363 4.13397 52.8931Z" fill="url(#paint11_linear_3_688)"/>
<path d="M4.10968 52.9245C4.10968 52.9245 3.64573 47.4974 1.52589 48.0291C-0.593956 48.5646 0.311316 52.3396 4.10968 52.9245Z" fill="url(#paint12_linear_3_688)"/>
<path d="M21.2949 81.0854C21.2949 81.0854 17.7606 73.5543 15.1919 68.9552C12.6232 64.356 17.6814 58.7277 21.1893 63.8585C24.6972 68.9894 25.4064 80.7778 25.4064 80.7778L21.2949 81.0854Z" fill="url(#paint13_linear_3_688)"/>
<g opacity="0.45">
<path opacity="0.45" d="M16.3148 62.4062C17.2918 63.7697 18.1216 65.2242 18.9137 66.6978C19.7021 68.1751 20.4414 69.6791 21.1392 71.2058C21.8408 72.7287 22.4518 74.2972 22.9724 75.9037C23.4778 77.5101 23.9078 79.1698 23.904 80.913L23.2779 80.9054C23.2817 79.2913 22.8403 77.6697 22.3613 76.0974C21.8709 74.5175 21.2637 72.968 20.6073 71.4412C19.951 69.9145 19.2494 68.403 18.495 66.9181C17.7482 65.4293 16.9787 63.952 16.2545 62.4442L16.3148 62.4062Z" fill="black"/>
</g>
<path opacity="0.45" d="M15.7907 70.0485L20.5358 70.565L22.1502 65.5594" stroke="black" stroke-width="0.7262" stroke-miterlimit="10"/>
<path opacity="0.45" d="M17.9181 74.1501L22.6142 75.8097L24.2889 72.5056" stroke="black" stroke-width="0.7262" stroke-miterlimit="10"/>
<path d="M37.2392 58.3149C37.2392 58.3149 37.2392 58.3187 37.2279 58.3263C34.9722 61.6418 34.5083 76.4571 32.3545 77.0457C30.2007 77.6344 29.3973 76.89 29.7594 77.8433C30.1215 78.7927 31.8038 79.1155 31.7547 80.0004C31.7132 80.7068 28.7485 85.1579 27.4057 88.7202C27.0624 89.6203 26.8285 90.4634 26.7682 91.1698C26.4778 94.7017 21.065 92.0851 21.065 92.0851C21.065 92.0851 19.3902 80.6499 19.9749 79.2257C20.5633 77.8053 21.5176 80.8473 22.4267 80.6651C23.3357 80.4866 20.4803 77.6192 21.1291 75.3519C21.3252 74.6569 21.6195 73.8252 21.9589 73.0049C22.7397 71.1439 23.8034 69.3476 24.754 69.3856C26.1194 69.4349 25.58 70.5743 26.5645 70.0654C27.549 69.5565 25.2141 68.8842 26.225 66.6245C27.2397 64.3687 32.2526 59.3138 37.2392 58.3149Z" fill="url(#paint14_linear_3_688)"/>
<g opacity="0.45">
<path opacity="0.45" d="M37.2399 58.3091C35.3388 60.7966 33.566 63.3526 31.895 65.9731C30.224 68.5897 28.6964 71.3052 27.4215 74.1383C26.1729 76.9791 25.1281 79.9148 24.4756 82.9455C24.1549 84.4646 23.9512 85.9989 23.8192 87.5446C23.7136 89.0941 23.7438 90.6474 23.8645 92.1969L23.5212 92.2387C23.3062 90.6778 23.2233 89.0941 23.2685 87.5142C23.3326 85.9343 23.5099 84.3583 23.8117 82.8087C24.121 81.2592 24.5095 79.7249 24.9923 78.221C25.4789 76.7171 26.0673 75.2511 26.701 73.8079C28.0061 70.9406 29.5111 68.1644 31.2613 65.5515C33.0191 62.9538 34.9729 60.4738 37.2399 58.3091Z" fill="black"/>
</g>
<path opacity="0.45" d="M24.5587 84.1418C25.5621 85.5318 26.7993 87.1269 27.4103 88.7182C27.0671 89.6182 26.8332 90.4613 26.7729 91.1677C26.4824 94.6997 21.0697 92.083 21.0697 92.083C21.0697 92.083 19.3949 80.6478 19.9796 79.2236C20.568 77.8032 21.5223 80.8453 22.4313 80.663C23.3404 80.4845 20.485 77.6171 21.1338 75.3499C21.3299 74.6549 21.6241 73.8231 21.9636 73.0028C22.288 74.3017 22.8651 75.9347 23.876 77.1234C25.645 79.197 22.9594 80.7427 24.0646 83.2835C24.1815 83.5607 24.3437 83.8456 24.5587 84.1418Z" fill="url(#paint15_linear_3_688)"/>
<defs>
<linearGradient id="paint0_linear_3_688" x1="128.627" y1="225.225" x2="70.1166" y2="36.7254" gradientUnits="userSpaceOnUse">
<stop stop-color="#2D4D6D"/>
<stop offset="1" stop-color="#4B7999"/>
</linearGradient>
<linearGradient id="paint1_linear_3_688" x1="16.2544" y1="48.1148" x2="66.6034" y2="29.9418" gradientUnits="userSpaceOnUse">
<stop stop-color="#FFE5C0"/>
<stop offset="1" stop-color="#FFA992"/>
</linearGradient>
<linearGradient id="paint2_linear_3_688" x1="3.73773" y1="66.3999" x2="25.863" y2="66.7097" gradientUnits="userSpaceOnUse">
<stop stop-color="#84DBC7"/>
<stop offset="1" stop-color="#33C2CF"/>
</linearGradient>
<linearGradient id="paint3_linear_3_688" x1="4.96105" y1="52.8388" x2="13.1391" y2="69.5305" gradientUnits="userSpaceOnUse">
<stop stop-color="#84DBC7"/>
<stop offset="1" stop-color="#33C2CF"/>
</linearGradient>
<linearGradient id="paint4_linear_3_688" x1="0.927281" y1="54.8141" x2="9.10552" y2="71.5061" gradientUnits="userSpaceOnUse">
<stop stop-color="#84DBC7"/>
<stop offset="1" stop-color="#33C2CF"/>
</linearGradient>
<linearGradient id="paint5_linear_3_688" x1="6.78995" y1="59.9711" x2="19.2845" y2="73.6881" gradientUnits="userSpaceOnUse">
<stop stop-color="#84DBC7"/>
<stop offset="1" stop-color="#33C2CF"/>
</linearGradient>
<linearGradient id="paint6_linear_3_688" x1="3.46334" y1="62.9995" x2="15.9581" y2="76.7168" gradientUnits="userSpaceOnUse">
<stop stop-color="#84DBC7"/>
<stop offset="1" stop-color="#33C2CF"/>
</linearGradient>
<linearGradient id="paint7_linear_3_688" x1="11.0584" y1="67.1736" x2="25.5491" y2="78.7295" gradientUnits="userSpaceOnUse">
<stop stop-color="#84DBC7"/>
<stop offset="1" stop-color="#33C2CF"/>
</linearGradient>
<linearGradient id="paint8_linear_3_688" x1="8.25012" y1="70.6936" x2="22.7414" y2="82.2501" gradientUnits="userSpaceOnUse">
<stop stop-color="#84DBC7"/>
<stop offset="1" stop-color="#33C2CF"/>
</linearGradient>
<linearGradient id="paint9_linear_3_688" x1="13.9824" y1="72.1783" x2="31.8758" y2="76.8501" gradientUnits="userSpaceOnUse">
<stop stop-color="#84DBC7"/>
<stop offset="1" stop-color="#33C2CF"/>
</linearGradient>
<linearGradient id="paint10_linear_3_688" x1="12.842" y1="76.5462" x2="30.7359" y2="81.2182" gradientUnits="userSpaceOnUse">
<stop stop-color="#84DBC7"/>
<stop offset="1" stop-color="#33C2CF"/>
</linearGradient>
<linearGradient id="paint11_linear_3_688" x1="7.0082" y1="46.8169" x2="5.9216" y2="65.3972" gradientUnits="userSpaceOnUse">
<stop stop-color="#84DBC7"/>
<stop offset="1" stop-color="#33C2CF"/>
</linearGradient>
<linearGradient id="paint12_linear_3_688" x1="2.52564" y1="46.5564" x2="1.43908" y2="65.1359" gradientUnits="userSpaceOnUse">
<stop stop-color="#84DBC7"/>
<stop offset="1" stop-color="#33C2CF"/>
</linearGradient>
<linearGradient id="paint13_linear_3_688" x1="37.3601" y1="98.107" x2="14.5894" y2="62.3708" gradientUnits="userSpaceOnUse">
<stop stop-color="#2D4D6D"/>
<stop offset="1" stop-color="#4B7999"/>
</linearGradient>
<linearGradient id="paint14_linear_3_688" x1="36.4619" y1="54.5984" x2="18.1222" y2="95.99" gradientUnits="userSpaceOnUse">
<stop stop-color="#84DBC7"/>
<stop offset="1" stop-color="#33C2CF"/>
</linearGradient>
<linearGradient id="paint15_linear_3_688" x1="31.2511" y1="74.2203" x2="6.09088" y2="103.817" gradientUnits="userSpaceOnUse">
<stop/>
<stop offset="1" stop-opacity="0"/>
</linearGradient>
</defs>
</svg>
