<svg width="375" height="95" viewBox="0 0 375 95" fill="none" xmlns="http://www.w3.org/2000/svg">
<path d="M58.0542 40.4455C58.0542 23.0704 82.5542 6.58416 98.1023 0H0.102295V95H89.1503C92.9196 79.4802 84.4386 67.7228 75.4869 62.0792C66.5352 56.4356 58.0542 54.5 58.0542 40.4455Z" fill="#444359"/>
<path d="M199.652 32.7186C183.806 16.6279 191.196 2.20173 196.872 -3H374.102V43.4688C333.444 87.1633 306.338 55.2594 303.905 47.2834C301.473 39.3074 299.04 12.2584 260.814 35.4928C222.588 58.7272 219.46 52.8319 199.652 32.7186Z" fill="#9B9DB4" fill-opacity="0.49"/>
<path d="M246.102 97.9998C246.102 115.673 231.775 130 214.102 130C196.429 130 182.102 115.673 182.102 97.9998C178.466 64.0664 190.823 70.278 204.406 77.3438C210.366 80.4442 217.285 79.3984 223.297 76.3997C243.39 66.3768 246.102 82.4416 246.102 97.9998Z" fill="#6C71A1"/>
</svg>
