<svg width="135" height="57" viewBox="0 0 135 57" fill="none" xmlns="http://www.w3.org/2000/svg">
<path d="M72.7568 1.8124C72.239 -0.160388 69.4779 -0.205953 67.4826 0.209193C58.1672 2.14486 47.7504 5.52172 38.6796 8.39906C33.3008 10.1744 28.0688 12.3953 23.0543 15.033C21.5431 15.8278 19.8025 17.4293 20.6509 18.9127C21.2631 19.9843 22.7727 20.008 24.0006 19.8797C36.8799 18.5313 49.5703 15.3857 61.5911 10.5625C64.9779 9.20403 68.3698 7.67508 71.1089 5.26352C72.1159 4.37247 73.0992 3.11353 72.7568 1.8124Z" fill="#D196A8"/>
<path d="M121.149 74.2572C121.299 76.981 120.95 79.8735 119.617 82.523C119.592 82.5736 119.565 82.6243 119.538 82.6749C119.524 82.7036 119.509 82.7306 119.494 82.7593C119.41 82.9213 119.32 83.0833 119.226 83.2419C118.762 84.0385 118.202 84.808 117.533 85.5387C116.703 86.445 115.674 87.2618 114.5 87.9976C114.352 88.0921 114.201 88.1832 114.048 88.2726C113.711 88.4734 113.361 88.6675 113.002 88.8548C105.854 92.5979 94.8048 93.9615 88.6198 94.4509C87.0866 94.4779 85.5552 94.5656 84.0304 94.7108H84.0237H84.022C81.3621 94.9622 78.7191 95.3875 76.1166 95.9866C67.1756 98.0404 58.7778 102.089 49.8081 104.018C41.783 105.744 32.7189 105.462 26.0093 100.99C24.5993 100.05 23.4726 98.739 22.7119 97.2236C21.8467 95.4989 21.1214 93.9632 20.3742 92.5118C20.2578 92.2857 20.1415 92.063 20.0234 91.8402C20.0048 91.8064 19.988 91.7727 19.9694 91.7389C19.0451 90.0092 18.0433 88.3722 16.6703 86.639C16.4645 86.3792 16.2503 86.1159 16.026 85.8509L16.0243 85.8493C15.913 85.7159 15.7983 85.5809 15.6786 85.4442C15.6431 85.402 15.606 85.3598 15.5689 85.3177C15.2248 84.9261 14.8605 84.5279 14.4726 84.1212C13.13 82.7154 11.6829 81.4126 10.2914 80.0541C10.1682 79.9342 10.0451 79.8128 9.92199 79.6912C9.82417 79.5951 9.72803 79.4972 9.6302 79.3993C9.25408 79.0213 8.8847 78.6365 8.52375 78.2433C1.87325 70.9749 -1.15093 60.5354 0.584646 50.8335C2.32022 41.1332 8.77506 32.3915 17.5339 27.8823C19.143 27.0537 20.806 26.3685 22.5078 25.7863C22.7322 25.7087 22.9565 25.6344 23.1825 25.5602C28.8193 23.7308 34.8491 22.9731 40.7153 21.8964C52.6265 19.7144 64.2729 16.0911 75.3205 11.1313C77.159 10.3061 78.9873 9.44204 80.8207 8.58137C81.045 8.47505 81.2711 8.37042 81.4954 8.26579C87.3869 5.50827 93.3256 2.85369 99.7046 1.76351C102.447 1.29605 105.282 1.12898 107.993 1.7517C115.203 3.41229 120.28 10.8427 120.282 18.2462C120.285 26.7044 114.751 34.4605 114.913 42.917C114.971 45.9243 115.748 48.8219 116.92 51.5963C118.022 54.207 119.472 56.708 121 59.0892C121.098 59.2411 121.196 59.3913 121.295 59.5431C122.329 61.1413 123.405 62.7225 124.448 64.319L120.946 72.2068C121.042 72.8751 121.112 73.5602 121.149 74.2572Z" fill="#D196A8"/>
<path d="M81.4954 8.26575V54.509C81.4954 54.6947 81.3436 54.8465 81.1581 54.8465C80.9708 54.8465 80.8207 54.6947 80.8207 54.509V8.58133C81.0451 8.47501 81.2711 8.37038 81.4954 8.26575Z" fill="#D9A5B5"/>
<path d="M23.1825 25.5602V74.4665C23.1825 74.6538 23.0324 74.804 22.8452 74.804C22.6597 74.804 22.5079 74.6538 22.5079 74.4665V25.7863C22.7322 25.7087 22.9565 25.6344 23.1825 25.5602Z" fill="#D9A5B5"/>
<path d="M49.0963 49.2978C48.1602 47.4702 46.3419 46.2888 43.6686 45.7623C43.6669 45.7606 43.6652 45.7606 43.6619 45.7606C42.0224 45.4366 40.0625 45.3573 37.7838 45.5261C27.276 46.3074 19.546 48.3781 14.8099 51.679C11.5765 53.9336 10.2104 58.1374 11.4905 61.9041L17.3517 79.1529L17.5507 79.7402L32.7964 78.6669L36.3451 78.4171L36.4177 78.4121L36.4632 78.3564C36.4649 78.353 36.4784 78.3378 36.502 78.3091C36.9422 77.7792 40.9548 72.892 44.4327 67.1187C49.3796 58.9103 50.9482 52.9143 49.0963 49.2978ZM36.2507 78.0847L24.1675 78.9369L18.615 79.3267H18.6133L17.7868 79.3858L17.7042 79.1411L11.8093 61.7944C10.578 58.1711 11.892 54.1243 15.0038 51.9558C18.5003 49.5172 23.6615 47.757 30.398 46.6989C30.4098 46.6972 30.4233 46.6956 30.4384 46.6922C32.7154 46.3361 35.1746 46.061 37.8091 45.8636C38.5833 45.8062 39.3204 45.7775 40.0204 45.7775C44.5979 45.7775 47.5445 47.0094 48.796 49.4531C52.9806 57.6261 37.2239 76.9084 36.2507 78.0847Z" fill="#FEECD6"/>
<path d="M18.6926 79.563L12.6746 61.8484C11.418 58.1509 12.7302 54.0484 15.9315 51.8174C19.6523 49.2235 26.4394 46.6145 38.8212 45.6948C66.3694 43.6478 37.3588 78.2484 37.3588 78.2484L18.6926 79.563Z" fill="#FEECD6"/>
<path d="M69.0647 16.7223C69.1963 16.2025 69.2266 15.73 69.2165 15.2659C69.2047 14.8035 69.1457 14.3411 69.1119 13.8365C69.0664 13.5209 68.9956 13.207 68.8994 12.8999C68.5199 11.6663 67.7643 10.5204 66.781 9.68335C64.8143 8.01095 62.1427 7.39498 59.5638 7.3106C55.6979 7.18234 51.5083 8.33159 49.2026 11.4384C47.2343 14.0879 46.9981 17.588 46.1059 20.7657C44.6402 25.9922 41.2989 30.5166 37.4668 34.3576C35.2219 36.6088 32.6531 38.9022 32.0628 42.0276C31.4843 45.094 33.09 48.3004 35.5575 50.2074C36.4565 50.9027 37.477 51.4596 38.58 51.733C39.7017 52.0114 40.8823 51.9895 42.0208 51.7954C45.5156 51.1997 48.5161 49.0615 51.4712 47.1039C51.7663 46.9081 52.0649 46.7124 52.3617 46.4964C54.5071 44.8814 54.6758 42.0125 56.3625 39.9874C56.6576 39.5857 56.9612 39.3022 57.2682 39.1132C61.2538 38.9748 67.8318 36.7809 68.8623 42.404C68.9703 42.7145 69.0782 43.0233 69.198 43.3186C69.6786 44.4983 70.3466 45.4653 71.8477 45.5412C72.1074 45.5615 72.3706 45.5699 72.6354 45.5665C73.956 45.548 75.2935 45.2087 76.2094 44.284C77.1826 43.3018 77.5014 41.8386 77.5115 40.4565C77.5267 38.531 77.0207 36.6037 76.0627 34.9347C75.6933 34.2901 75.2632 33.691 74.7943 33.1189C74.5598 32.8337 74.317 32.5535 74.0656 32.2852C70.5304 29.8618 68.1691 25.8116 68.6447 21.4492C68.6498 21.0273 68.6683 20.6071 68.697 20.1835C68.7847 18.9178 68.9703 17.6403 69.1693 16.3814L69.0647 16.7223Z" fill="#3F4553"/>
<path d="M67.4488 17.4143C66.6527 19.782 67.6883 22.2256 69.1995 24.0651C71.0818 26.3568 73.514 28.0495 75.1298 30.5808C76.7457 33.1139 78.0478 36.3271 77.39 39.3799C77.1201 40.6355 76.4302 41.1468 75.2395 41.4708C74.2393 41.7425 73.3082 42.0328 72.4464 42.6319C72.2473 42.7703 72.4362 43.0994 72.6386 42.9593C73.6388 42.264 74.7183 42.0666 75.845 41.6902C76.55 41.454 77.1285 41.0692 77.4642 40.3857C78.601 38.067 77.7087 34.8808 76.7119 32.6886C75.4587 29.9311 73.5444 27.8621 71.3821 25.7965C69.1709 23.6854 66.71 20.8046 67.8165 17.5155C67.8941 17.2826 67.5264 17.1831 67.4488 17.4143Z" fill="#4E5567"/>
<path d="M54.728 36.9936L56.6846 35.5608L59.1876 34.3795L66.877 36.9936L70.1609 71.7765L61.6737 73.9113L55.8227 56.276L54.728 36.9936Z" fill="white"/>
<path d="M70.3533 32.0337C73.5445 32.6716 76.5535 34.4757 78.2418 37.3176C79.9976 40.2725 80.028 44.1371 78.0833 47.006C77.9466 47.2085 78.2739 47.3992 78.4105 47.1984C80.3788 44.2924 80.3906 40.3873 78.6955 37.3479C76.9987 34.3035 73.8143 32.3409 70.4528 31.6692C70.215 31.6186 70.1138 31.9848 70.3533 32.0337Z" fill="#4E5567"/>
<path d="M44.5053 27.5363C42.0107 29.5023 39.6224 31.6 37.1312 33.5711C35.1663 35.1254 32.9635 36.5075 31.5838 38.6592C28.8565 42.9119 30.8366 48.1603 34.5945 51.0224C36.7045 52.6307 39.5668 53.9082 42.2367 53.0897C42.4695 53.0188 42.37 52.6509 42.1356 52.7235C39.6865 53.4745 37.0705 52.3539 35.0921 50.9212C33.1237 49.4968 31.5298 47.4751 30.9243 45.0922C30.3357 42.7735 30.8164 40.3096 32.2315 38.3858C33.6044 36.5193 35.6065 35.2587 37.3994 33.8411C39.8906 31.8717 42.2789 29.7723 44.7735 27.8063C44.9658 27.6544 44.6959 27.3861 44.5053 27.5363Z" fill="#4E5567"/>
<path d="M48.3222 18.2309C48.022 21.1657 47.4097 24.1054 46.1447 26.787C44.8899 29.4483 42.9165 31.5241 40.9009 33.6201C39.0996 35.4933 37.2864 37.4711 36.406 39.9671C35.6706 42.0462 35.8258 44.3008 36.8091 46.2719C37.7924 48.2413 39.5921 49.6808 41.8573 49.6336C42.1018 49.6285 42.1018 49.2488 41.8573 49.2539C39.5617 49.3011 37.8379 47.7215 36.9643 45.7015C35.9185 43.2832 36.2491 40.7147 37.5158 38.4432C38.8044 36.1329 40.7879 34.3238 42.5825 32.4168C44.3012 30.5908 45.7754 28.6383 46.7688 26.3196C47.8685 23.7527 48.42 20.9986 48.7017 18.2309C48.7253 17.9879 48.3458 17.9896 48.3222 18.2309Z" fill="#4E5567"/>
<path d="M67.2263 25.2564C67.2111 28.5388 69.9199 30.6989 71.9337 32.9231C73.1245 34.2394 74.1888 35.7667 74.3035 37.596C74.4165 39.3984 73.6676 41.1501 72.3402 42.3567C72.1597 42.5221 72.4279 42.7887 72.6084 42.625C74.9849 40.4649 75.2716 37.0206 73.5546 34.3711C71.6133 31.3739 67.5872 29.2307 67.6058 25.2564C67.6074 25.0117 67.2279 25.0117 67.2263 25.2564Z" fill="#4E5567"/>
<path d="M65.7858 36.6577C66.5195 38.2221 65.8718 40.0599 66.1197 41.7711C67.5635 51.7498 67.2042 61.9665 67.3594 72.0245C67.383 73.5517 67.4488 75.2056 68.4085 76.3953C68.5907 76.6215 68.8133 76.8324 69.0916 76.9202C69.3109 76.9893 69.547 76.9758 69.7781 76.9623C73.0384 76.7649 76.2987 76.5675 79.559 76.37C78.4998 70.1057 77.4406 63.8397 76.3813 57.5754C78.9248 60.7328 81.4666 63.8903 84.0101 67.0478C85.0862 64.2295 86.1606 61.4112 87.2367 58.5913C87.3649 58.2538 87.4964 57.8994 87.4475 57.5416C87.4036 57.2243 87.2232 56.9459 87.0461 56.6792C84.5616 52.9379 81.9524 49.2809 79.2082 45.7251C77.5435 43.5667 75.8011 41.4201 73.5882 39.8304C71.2961 38.1799 68.4777 37.3074 65.7858 36.6577Z" fill="#FB7C85"/>
<path d="M68.3276 12.1388C66.5904 6.52078 60.0478 5.24328 54.9524 6.54272C52.4899 7.1705 50.1691 8.47838 48.5482 10.463C46.6338 12.807 45.8748 15.8278 45.4329 18.7609C45.1445 20.6729 44.9944 22.6102 44.5491 24.4953C44.2894 25.5956 43.7092 26.5659 43.3162 27.6207C43.2301 27.8502 43.5978 27.9498 43.6822 27.7219C43.9773 26.9288 44.4125 26.193 44.6925 25.3981C45.1158 24.1999 45.2626 22.8752 45.4312 21.6213C45.831 18.6478 46.1363 15.5882 47.4755 12.856C49.8351 8.04299 55.3066 5.94869 60.4391 6.57141C63.885 6.98824 66.894 8.79227 67.9599 12.24C68.0342 12.4729 68.4002 12.3733 68.3276 12.1388Z" fill="#4E5567"/>
<path d="M55.8564 20.8941C54.0989 20.3642 53.2202 21.0763 53.0094 22.3167C52.7968 23.5554 53.9218 24.8414 55.1767 24.7975C55.2982 26.3264 55.5157 27.8706 56.1331 29.2746C56.7487 30.6787 57.8079 31.9427 59.2247 32.5266C60.8034 33.1797 62.7329 32.8776 64.0384 31.7756C64.5613 31.3335 64.9813 30.7833 65.3776 30.2248C66.5886 28.5169 67.6394 26.6521 68.0999 24.6085C68.5603 22.5648 68.3782 20.3169 67.27 18.5399C67.1503 18.3475 67.0103 18.1534 66.8079 18.0505C66.5195 17.9037 66.1737 17.9746 65.8617 18.0556C62.4917 18.9432 59.3394 20.9042 55.8564 20.8941Z" fill="#FFB9A3"/>
<path d="M68.9247 13.4568C69.176 14.3495 69.429 15.2591 69.3936 16.1856C69.3582 17.1121 68.9838 18.074 68.2146 18.5921C67.6007 19.0056 66.8282 19.0849 66.1282 19.3228C64.7098 19.8038 63.6134 20.9142 62.507 21.9251C61.4596 22.882 60.144 23.8354 58.7542 23.557C57.4757 23.3005 56.6307 22.0837 56.1095 20.8872C55.8295 20.246 55.6001 19.5338 55.7637 18.8537C55.8582 18.4622 56.0775 18.1112 56.3203 17.7905C57.7186 15.9544 59.9871 14.9436 62.2658 14.5925C64.5462 14.2415 66.8704 14.4778 69.1642 14.7157L68.9247 13.4568Z" fill="#3F4553"/>
<path d="M56.1414 20.9564C56.6339 23.8506 59.9398 25.2884 62.3686 23.5857C63.5222 22.7773 64.2661 21.5471 65.273 20.5834C66.3423 19.5608 68.2078 19.1186 68.5046 17.48C68.5485 17.2403 68.1825 17.1391 68.1386 17.3787C67.8721 18.8419 66.1669 19.2638 65.1769 20.1531C64.3791 20.8703 63.7634 21.7614 63.0129 22.5259C62.011 23.5469 60.719 24.1915 59.2617 23.8742C57.7775 23.5502 56.7554 22.3183 56.5057 20.8552C56.467 20.6155 56.1009 20.7185 56.1414 20.9564Z" fill="#4E5567"/>
<path d="M101.73 37.252C101.96 36.2816 101.36 35.3084 100.39 35.0782C99.4203 34.8481 98.4476 35.4481 98.2176 36.4184C97.9875 37.3888 98.5872 38.362 99.557 38.5922C100.527 38.8223 101.499 38.2223 101.73 37.252Z" fill="#D9A5B5"/>
<path d="M99.9744 40.6995C97.8459 40.6995 96.1136 38.9664 96.1136 36.8366C96.1136 34.7069 97.8459 32.9738 99.9744 32.9738C102.103 32.9738 103.835 34.7069 103.835 36.8366C103.837 38.9664 102.105 40.6995 99.9744 40.6995ZM99.9744 33.1408C97.9386 33.1408 96.2823 34.798 96.2823 36.835C96.2823 38.8719 97.9386 40.5291 99.9744 40.5291C102.01 40.5291 103.667 38.8719 103.667 36.835C103.668 34.798 102.012 33.1408 99.9744 33.1408Z" fill="#D9A5B5"/>
<path d="M75.8147 17.151C76.1873 17.151 76.4893 16.8487 76.4893 16.4759C76.4893 16.1031 76.1873 15.8009 75.8147 15.8009C75.4421 15.8009 75.14 16.1031 75.14 16.4759C75.14 16.8487 75.4421 17.151 75.8147 17.151Z" fill="#D9A5B5"/>
<path d="M11.4181 44.9877C10.0418 44.9877 8.92181 43.8671 8.92181 42.4901C8.92181 41.113 10.0418 39.9924 11.4181 39.9924C12.7944 39.9924 13.9143 41.113 13.9143 42.4901C13.9143 43.8671 12.7944 44.9877 11.4181 44.9877ZM11.4181 40.3299C10.2273 40.3299 9.25915 41.2986 9.25915 42.4901C9.25915 43.6815 10.2273 44.6502 11.4181 44.6502C12.6089 44.6502 13.577 43.6815 13.577 42.4901C13.577 41.2986 12.6089 40.3299 11.4181 40.3299Z" fill="#D9A5B5"/>
<path d="M32.4693 15.8009C32.4693 16.3645 32.0122 16.8219 31.4488 16.8219C30.8855 16.8219 30.4284 16.3645 30.4284 15.8009C30.4284 15.2372 30.8855 14.7799 31.4488 14.7799C32.0139 14.7816 32.4693 15.2372 32.4693 15.8009Z" fill="#D9A5B5"/>
<path d="M127.745 56.8954L124.448 64.3191L120.946 72.2069L120.005 74.3248L117.345 80.314L77.4356 81.3823L79.5692 76.3533L88.8341 54.5192C89.3384 53.3329 90.4651 52.5296 91.7503 52.4385C96.3599 52.1178 107.689 51.4191 116.92 51.5963C119.973 51.6537 122.798 51.809 125.072 52.1043C125.875 52.2089 126.561 52.5785 127.071 53.1067C128.002 54.0653 128.346 55.5453 127.745 56.8954Z" fill="#FEECD6"/>
<path d="M76.1925 81.443L75.8788 81.3198L78.0124 75.9009L87.2789 53.8475C87.8102 52.5852 88.9825 51.7397 90.3385 51.6435C94.8301 51.328 106.276 50.6141 115.524 50.793C118.821 50.8554 121.569 51.0293 123.694 51.3077C124.505 51.414 125.23 51.7819 125.792 52.3709C126.823 53.4425 127.101 55.017 126.499 56.3823L118.759 73.9838L118.45 73.8471L126.19 56.2456C126.737 55.0069 126.484 53.5775 125.548 52.6038C125.038 52.0705 124.382 51.738 123.648 51.6419C121.537 51.3651 118.799 51.193 115.515 51.1305C106.281 50.9516 94.847 51.6655 90.3605 51.9811C89.1326 52.0688 88.07 52.835 87.5876 53.9792L78.3228 76.0292L76.1925 81.443Z" fill="#FEECD6"/>
<path d="M76.8807 58.156C76.088 56.5866 75.0372 55.1504 74.408 53.5C74.2933 53.1979 73.8042 53.3295 73.9206 53.635C74.5683 55.3293 75.6309 56.8009 76.4455 58.4125C76.5906 58.7028 77.0274 58.4463 76.8807 58.156Z" fill="white"/>
<path d="M61.6738 71.6785C61.3989 67.0731 60.9654 62.4778 60.3734 57.9028C59.8944 54.1968 59.4423 50.474 58.54 46.8406C58.0896 45.0282 57.5263 43.2427 56.8078 41.5163C56.128 39.881 55.0182 38.0972 55.7081 36.2729C53.9 37.5724 52.7092 38.104 50.6363 38.914C48.9665 39.5671 47.2326 40.0498 45.578 40.7417C44.6166 41.1433 43.6738 41.6209 42.8895 42.3061C42.0023 43.0807 41.3512 44.0865 40.7423 45.094C40.0542 46.2331 39.4014 47.3958 38.8415 48.6042C37.9425 50.5432 37.2881 52.5835 36.5409 54.585C35.205 58.1593 33.5673 61.6171 31.7761 64.9872C30.646 67.1136 29.4316 69.272 29.1145 71.66C28.7974 74.0479 29.6087 76.7649 31.7002 77.9564C32.6548 78.4998 33.7731 78.6753 34.8694 78.758C42.876 79.3571 50.4659 78.2568 59.5149 77.0805C59.2838 77.175 59.7628 77.0484 59.5149 77.0805C59.7813 76.9725 59.9348 76.7008 60.0613 76.4426C60.7917 74.9508 61.5675 73.3391 61.6738 71.6785Z" fill="#FB7C85"/>
<path d="M63.2355 41.4184C62.0481 41.8488 60.7325 41.7171 59.4928 41.4691C58.2633 41.2227 56.9342 40.7805 56.3034 39.6954C55.5073 38.3301 56.1499 36.6257 56.5294 35.0916C57.0168 33.1324 57.0354 31.0583 56.5867 29.0906L61.2487 29.9901L62.8307 30.2955C62.7886 32.3291 63.3081 34.371 64.3184 36.1363C64.4145 36.3033 64.514 36.4687 64.6118 36.6358C64.9795 37.2551 65.3337 37.888 65.3708 38.5968C65.4383 39.8591 64.4246 40.9881 63.2355 41.4184Z" fill="#FFB9A3"/>
<path d="M64.612 36.6358C60.2486 36.3152 58.5856 33.2792 58.0357 31.8212C58.3967 32.1097 58.7947 32.3494 59.2248 32.5266C60.4223 33.021 61.8206 32.967 62.9945 32.4338C63.2154 33.7332 63.6641 34.9921 64.3185 36.1363C64.4146 36.3034 64.5142 36.4688 64.612 36.6358Z" fill="#FF9B8D"/>
<mask id="path-30-inside-1_3_3148" fill="white">
<path d="M99.9745 24.578C94.6345 24.578 90.2897 20.2308 90.2897 14.8879C90.2897 9.54498 94.6345 5.19775 99.9745 5.19775C105.314 5.19775 109.659 9.54498 109.659 14.8879C109.659 20.2308 105.316 24.578 99.9745 24.578ZM99.9745 5.36651C94.7273 5.36651 90.4583 9.6378 90.4583 14.8879C90.4583 20.138 94.7273 24.4092 99.9745 24.4092C105.222 24.4092 109.491 20.138 109.491 14.8879C109.491 9.6378 105.222 5.36651 99.9745 5.36651Z"/>
</mask>
<path d="M99.9745 24.578C94.6345 24.578 90.2897 20.2308 90.2897 14.8879C90.2897 9.54498 94.6345 5.19775 99.9745 5.19775C105.314 5.19775 109.659 9.54498 109.659 14.8879C109.659 20.2308 105.316 24.578 99.9745 24.578ZM99.9745 5.36651C94.7273 5.36651 90.4583 9.6378 90.4583 14.8879C90.4583 20.138 94.7273 24.4092 99.9745 24.4092C105.222 24.4092 109.491 20.138 109.491 14.8879C109.491 9.6378 105.222 5.36651 99.9745 5.36651Z" fill="#F9F7F1"/>
<path d="M99.9745 19.578C97.3985 19.578 95.2897 17.472 95.2897 14.8879H85.2897C85.2897 22.9896 91.8705 29.578 99.9745 29.578V19.578ZM95.2897 14.8879C95.2897 12.3038 97.3985 10.1978 99.9745 10.1978V0.197754C91.8705 0.197754 85.2897 6.78615 85.2897 14.8879H95.2897ZM99.9745 10.1978C102.55 10.1978 104.659 12.3038 104.659 14.8879H114.659C114.659 6.78615 108.078 0.197754 99.9745 0.197754V10.1978ZM104.659 14.8879C104.659 17.4725 102.552 19.578 99.9745 19.578V29.578C108.081 29.578 114.659 22.989 114.659 14.8879H104.659ZM99.9745 0.366513C91.9633 0.366513 85.4583 6.87897 85.4583 14.8879H95.4583C95.4583 12.3966 97.4913 10.3665 99.9745 10.3665V0.366513ZM85.4583 14.8879C85.4583 22.8968 91.9633 29.4092 99.9745 29.4092V19.4092C97.4913 19.4092 95.4583 17.3791 95.4583 14.8879H85.4583ZM99.9745 29.4092C107.986 29.4092 114.491 22.8968 114.491 14.8879H104.491C104.491 17.3791 102.458 19.4092 99.9745 19.4092V29.4092ZM114.491 14.8879C114.491 6.87897 107.986 0.366513 99.9745 0.366513V10.3665C102.458 10.3665 104.491 12.3966 104.491 14.8879H114.491Z" fill="#F9F7F1" mask="url(#path-30-inside-1_3_3148)"/>
<mask id="path-32-inside-2_3_3148" fill="white">
<path d="M99.8732 14.9858L101.145 7.50977L101.312 7.53845L100.079 14.79C101.695 14.5858 104.054 14.2686 104.218 14.1892L104.248 14.2534L104.262 14.2551L104.324 14.1926L104.346 14.2837C104.326 14.3445 104.297 14.4289 99.9879 14.9706L99.8732 14.9858Z"/>
</mask>
<path d="M99.8732 14.9858L101.145 7.50977L101.312 7.53845L100.079 14.79C101.695 14.5858 104.054 14.2686 104.218 14.1892L104.248 14.2534L104.262 14.2551L104.324 14.1926L104.346 14.2837C104.326 14.3445 104.297 14.4289 99.9879 14.9706L99.8732 14.9858Z" fill="#F9F7F1"/>
<path d="M99.8732 14.9858L94.944 14.1473L93.8068 20.8328L100.53 19.9425L99.8732 14.9858ZM101.145 7.50977L101.992 2.58197L97.0557 1.73391L96.2158 6.67127L101.145 7.50977ZM101.312 7.53845L106.241 8.37655L107.078 3.45584L102.159 2.61066L101.312 7.53845ZM100.079 14.79L95.1497 13.9519L94.0202 20.5955L100.706 19.7506L100.079 14.79ZM104.218 14.1892L108.737 12.0498L106.578 7.48857L102.037 9.69009L104.218 14.1892ZM104.248 14.2534L99.7292 16.3928L100.904 18.874L103.628 19.2147L104.248 14.2534ZM104.262 14.2551L103.641 19.2164L106.069 19.52L107.798 17.7896L104.262 14.2551ZM104.324 14.1926L109.186 13.0229L107.097 4.34478L100.788 10.6581L104.324 14.1926ZM104.346 14.2837L109.09 15.8641L109.542 14.5059L109.207 13.114L104.346 14.2837ZM99.9879 14.9706L99.3643 10.0096L99.3479 10.0117L99.3315 10.0139L99.9879 14.9706ZM104.802 15.8243L106.074 8.34826L96.2158 6.67127L94.944 14.1473L104.802 15.8243ZM100.298 12.4376L100.465 12.4663L102.159 2.61066L101.992 2.58197L100.298 12.4376ZM96.3827 6.70036L95.1497 13.9519L105.008 15.6281L106.241 8.37655L96.3827 6.70036ZM100.706 19.7506C101.528 19.6467 102.548 19.513 103.392 19.3936C103.811 19.3346 104.214 19.2751 104.537 19.2222C104.693 19.1966 104.872 19.166 105.04 19.1324C105.12 19.1163 105.245 19.0903 105.386 19.0548C105.394 19.0529 105.873 18.9433 106.399 18.6884L102.037 9.69009C102.355 9.53565 102.616 9.45284 102.694 9.42827C102.807 9.39277 102.895 9.36986 102.939 9.35887C102.987 9.34657 103.024 9.33834 103.043 9.33422C103.063 9.3298 103.076 9.32722 103.079 9.32652C103.08 9.32624 103.035 9.33498 102.922 9.35346C102.707 9.38875 102.388 9.43627 101.994 9.49195C101.214 9.6021 100.246 9.72913 99.4521 9.82947L100.706 19.7506ZM99.6989 16.3286L99.7292 16.3928L108.768 12.114L108.737 12.0498L99.6989 16.3286ZM103.628 19.2147L103.641 19.2164L104.882 9.29371L104.869 9.29202L103.628 19.2147ZM107.798 17.7896L107.861 17.7271L100.788 10.6581L100.725 10.7205L107.798 17.7896ZM99.4631 15.3623L99.485 15.4534L109.207 13.114L109.186 13.0229L99.4631 15.3623ZM99.6026 12.7034C99.5928 12.7326 99.7303 12.2792 100.018 11.7845C100.336 11.2364 100.733 10.7936 101.15 10.4501C101.531 10.1357 101.884 9.94175 102.11 9.83124C102.34 9.71864 102.532 9.64819 102.645 9.60949C102.764 9.56883 102.857 9.54285 102.908 9.52918C102.962 9.51482 102.998 9.50661 103.01 9.50408C103.029 9.49975 103.004 9.50574 102.91 9.52232C102.497 9.59487 101.525 9.73799 99.3643 10.0096L100.612 19.9315C102.76 19.6615 103.957 19.4915 104.641 19.3713C104.907 19.3245 105.398 19.2366 105.881 19.0715C106.082 19.0025 106.792 18.7588 107.51 18.1669C107.938 17.8142 108.342 17.3628 108.665 16.8066C108.816 16.5466 108.92 16.3141 108.99 16.1386C109.023 16.0538 109.049 15.9834 109.065 15.9375C109.073 15.9145 109.079 15.8956 109.083 15.8837C109.085 15.8776 109.087 15.8727 109.088 15.8695C109.089 15.8683 109.089 15.8664 109.089 15.8657C109.09 15.865 109.09 15.8643 109.09 15.8641L99.6026 12.7034ZM99.3315 10.0139L99.2168 10.0291L100.53 19.9425L100.644 19.9273L99.3315 10.0139Z" fill="#F9F7F1" mask="url(#path-32-inside-2_3_3148)"/>
<path d="M132.736 28.2418C132.346 27.0841 131.861 25.9095 130.962 25.0826C129.255 23.5115 126.423 23.6853 124.525 25.0219C122.628 26.3584 121.543 28.5894 120.977 30.839C120.457 34.4217 120.589 36.9599 121.668 40.7299C122.194 42.566 123.004 44.3886 124.417 45.6746C125.831 46.9605 127.948 47.6001 129.712 46.8694C131.395 46.1724 132.407 44.4359 133.021 42.7213C134.681 38.0905 134.303 32.9029 132.736 28.2418Z" fill="#D196A8"/>
<path d="M47.02 56.9594C47.3118 57.1923 47.5244 57.5012 47.8026 57.7475C48.0675 57.9821 48.3744 58.1593 48.6814 58.3331C48.9664 58.4935 49.2211 58.0564 48.9361 57.8961C48.6359 57.7273 48.3323 57.5585 48.0826 57.3189C47.8398 57.0843 47.6424 56.8126 47.3776 56.6017C47.1246 56.4008 46.7654 56.7569 47.02 56.9594Z" fill="white"/>
<path d="M74.3911 53.7361C74.7402 53.24 75.0776 52.7354 75.4031 52.2241C75.5785 51.949 75.1417 51.6941 74.9662 51.9692C74.6407 52.4806 74.3034 52.9852 73.9542 53.4813C73.767 53.748 74.2056 54.0011 74.3911 53.7361Z" fill="white"/>
<path d="M55.1413 24.9678C55.3437 27.4452 55.9425 30.9318 58.2752 32.3207C59.3377 32.9535 60.7613 33.4058 62.0027 33.1999C63.2626 32.9906 64.1801 32.0574 64.9459 31.1056C65.0977 30.9166 64.8312 30.6466 64.6777 30.8373C63.9558 31.7351 63.1142 32.6261 61.9251 32.8185C60.7056 33.0159 59.2366 32.5299 58.2296 31.8448C56.236 30.4879 55.7047 27.1921 55.5225 24.9695C55.5006 24.7248 55.1211 24.7231 55.1413 24.9678Z" fill="#FF9B8D"/>
</svg>
