<svg width="177" height="86" viewBox="0 0 177 86" fill="none" xmlns="http://www.w3.org/2000/svg">
<path d="M119.427 33.5822C120.299 38.9182 73.753 37.5303 65.6013 35.4814C60.963 34.5109 66.394 11.9317 63.4795 4.56763C61.8007 -2.32684 114.124 -0.511042 117.987 4.05628C120.96 7.56961 118.198 26.0685 119.427 33.5822Z" fill="#FBF5EB"/>
<path d="M71.974 20.6002C72.1575 19.6784 71.9221 18.6175 72.0536 18.1061C72.3513 16.9582 72.5002 16.3842 72.3236 16.2207C71.6071 15.5529 71.1087 18.5931 70.4337 18.5688C70.1637 18.4192 69.9352 17.5009 69.8452 16.8399C69.7379 16.0503 70.0391 13.7127 69.5683 13.7545C69.1703 13.7892 68.9037 15.4903 68.9141 16.0607C68.9003 15.4659 69.1391 12.857 68.5091 13.0761C68.0488 13.2362 68.0418 16.2173 68.0522 16.6138C68.0384 16.4225 68.1457 13.5631 67.6888 13.7614C67.1626 13.9875 67.2699 16.5616 67.2803 16.9547C67.2595 16.7147 67.4257 14.2623 66.8684 14.5302C66.5223 14.6971 66.3803 17.073 66.3907 17.4695C66.4323 19.2158 68.0626 23.4283 68.3568 23.9153L71.0637 23.9709C71.0637 23.9709 71.4444 22.8474 71.5552 22.2978C71.6971 21.6055 71.9048 20.9446 71.974 20.6002Z" fill="#FDBCA0"/>
<path d="M86.436 41.4298C86.7648 43.9552 83.2445 52.7211 83.9957 57.0728C91.2751 58.6103 108.444 55.8518 109.78 50.067C109.887 46.1502 109.749 41.7672 109.825 39.1583C110.019 32.3404 108.766 20.6559 97.4711 24.2736C96.893 24.1519 96.9138 23.2961 91.2197 23.6857C85.7126 24.0545 85.446 33.8814 86.436 41.4298Z" fill="#8E97FD"/>
<path d="M67.2975 24.0962C65.0095 35.8154 72.095 44.5952 81.9844 44.1256C96.0344 43.4612 104.494 32.3682 100.652 24.6702L96.8686 24.7258C85.657 22.757 82.9743 31.1855 79.5994 30.8793C77.173 30.6602 73.1681 28.5244 72.3443 23.5814C72.1643 22.503 67.4809 23.1605 67.2975 24.0962Z" fill="#8E97FD"/>
<path d="M93.7948 24.837C91.9187 29.3452 84.5562 31.4776 85.7365 24.8196C86.1 22.7638 83.4139 21.1359 83.1716 19.6749C82.6212 16.3494 85.9269 15.2815 86.6538 12.2517C87.7476 7.68782 89.558 0.111557 101.829 7.26344C105.56 9.43405 93.7948 24.837 93.7948 24.837Z" fill="#3F414E"/>
<path d="M99.821 16.5825L99.8418 25.0215C99.4091 27.4495 93.4831 27.8078 93.7946 25.0423L93.7773 21.4177L99.821 16.5825Z" fill="#F0A38B"/>
<path d="M89.9077 16.4573C89.8696 16.9721 89.8039 17.4417 89.8316 17.9461C89.8696 18.6035 90.0116 19.2714 90.2608 19.8976C90.9254 21.5603 92.31 23.9222 94.0441 23.964C97.104 24.0336 101.071 20.562 100.579 16.0781C100.15 12.1648 96.8583 6.16428 95.6675 8.47403C93.8191 12.0604 91.7457 10.6794 90.4235 12.8953C90.1466 13.3579 89.8904 13.9423 89.9112 15.2885C89.9181 15.7268 89.932 16.1025 89.9077 16.4573Z" fill="#FDBCA0"/>
<path d="M96.2076 18.6662C96.173 19.6228 96.9137 20.4263 97.8656 20.4646C98.8175 20.4994 99.6171 19.7549 99.6552 18.7983C99.6898 17.8417 98.949 17.0382 97.9972 16.9999C97.0453 16.9617 96.2457 17.7096 96.2076 18.6662Z" fill="#F4A07B"/>
<path d="M89.8316 17.9462C89.8696 18.6036 90.0185 19.268 90.2608 19.8976C91.0465 19.7585 91.6592 19.0871 91.6904 18.2523C91.725 17.2957 90.9842 16.4921 90.0323 16.4539C89.9908 16.4539 89.9493 16.4539 89.9077 16.4539C89.8696 16.9722 89.8039 17.4418 89.8316 17.9462Z" fill="#F4A07B"/>
<path d="M95.0271 16.4503C95.0271 16.4503 95.7194 17.6052 97.8482 16.2973C98.1147 16.1338 96.9344 16.499 96.204 16.5581C95.4563 16.6138 94.8402 16.1999 95.0271 16.4503Z" fill="#002869"/>
<path d="M90.2746 15.706C90.4476 15.9912 91.9811 17.1774 92.5453 16.1269C92.6941 15.852 92.1022 16.4295 91.4134 16.1756C90.7073 15.9181 90.1638 15.5251 90.2746 15.706Z" fill="#002869"/>
<path d="M94.0616 19.2331C93.6082 19.254 92.909 19.1426 92.7913 18.6069C92.7394 18.3704 92.8605 18.1687 92.9678 17.9669C93.2447 17.4486 93.4905 16.9755 93.4732 16.3668C93.4697 16.2868 93.5943 16.2694 93.5978 16.3494C93.6151 16.9303 93.4143 17.4034 93.1443 17.9078C92.9851 18.2034 92.7947 18.4643 93.037 18.7878C93.2586 19.08 93.7016 19.1287 94.0443 19.1113C94.1239 19.1079 94.1412 19.2296 94.0616 19.2331Z" fill="#F27979"/>
<path d="M95.3631 20.4645C95.4981 20.1932 94.0685 21.1498 92.5109 20.301C91.8428 19.9357 93.4455 21.9046 95.3631 20.4645Z" fill="#F27979"/>
<path fill-rule="evenodd" clip-rule="evenodd" d="M0.102295 74.7718V53.287C0.931273 48.8905 2.27074 45.1851 4.09748 43.4875C4.26671 43.3291 4.44363 43.1809 4.62824 43.0604C12.3125 35.0496 20.053 31 38.0086 37.4981C51.5379 34.5646 60.1402 35.911 69.0755 37.3096C76.887 38.5322 84.9531 39.7947 96.7882 38.2721L96.8099 38.2728C96.9094 38.276 97.0026 38.279 97.0959 38.279C101.3 38.3642 104.126 37.7104 106.711 37.1124C111.339 36.0418 115.193 35.1503 124.794 39.0001C124.982 39.0086 125.387 38.8688 125.99 38.6609C128.552 37.7777 134.675 35.6668 142.75 38.5001C161.028 35.019 167.189 39.0001 171.678 42.0001C173.53 43.4434 174.993 45.9289 176.102 48.9843V81.7475C175.753 82.2038 175.373 82.5226 174.964 82.6824C167.171 85.729 135.487 85.5078 105.804 85.3006C90.747 85.1956 76.2053 85.0941 65.558 85.4245C64.8272 85.4486 64.0965 85.4692 63.3657 85.4899C50.0967 85.8861 37.3123 86.1031 26.8971 85.9515C25.6586 85.9343 24.451 85.9102 23.2818 85.8792C11.8435 85.5967 3.91287 84.7837 2.43597 83.1406C1.85609 82.4948 0.841443 78.7138 0.102295 74.7718Z" fill="#3F414E"/>
<path d="M82.7606 40.0335C84.1209 39.9848 85.4813 39.9396 86.8416 39.8909C87.4093 39.87 87.4127 38.9795 86.8416 39.0004C85.4813 39.0491 84.1209 39.0943 82.7606 39.143C82.1929 39.1638 82.1894 40.0543 82.7606 40.0335Z" fill="#656B7B"/>
<path d="M77.5027 74.6172C76.3881 75.3999 75.27 76.1825 74.1554 76.9652C73.6882 77.2922 74.1693 78.0401 74.6366 77.7131C75.7512 76.9304 76.8692 76.1478 77.9838 75.3651C78.4511 75.0381 77.97 74.2902 77.5027 74.6172Z" fill="#656B7B"/>
<path d="M85.1109 45.3765C84.1243 47.0601 83.1344 48.7402 82.1479 50.4238C81.8606 50.9143 82.5771 51.4396 82.8644 50.9456C83.8509 49.262 84.8409 47.5819 85.8274 45.8983C86.1181 45.4113 85.4016 44.8825 85.1109 45.3765Z" fill="#656B7B"/>
<path d="M86.5716 69.9524C87.4958 71.2395 88.5239 72.4396 89.6592 73.5457C90.0677 73.9458 90.6942 73.3162 90.2857 72.9161C89.2058 71.8621 88.2193 70.7281 87.3366 69.5037C87.0043 69.041 86.2359 69.4863 86.5716 69.9524Z" fill="#656B7B"/>
<path d="M89.4825 55.1895C89.4825 55.1895 89.4825 58.108 89.4825 59.6385C89.4825 60.2125 90.3687 60.2125 90.3687 59.6385C90.3687 58.1045 90.3687 56.6713 90.3687 55.1895C90.3687 54.5981 89.4825 54.5981 89.4825 55.1895C89.4825 55.1895 89.4825 54.5981 89.4825 55.1895Z" fill="#656B7B"/>
<path d="M68.3056 63.7188C67.1668 63.3953 66.0314 63.0718 64.8926 62.7483C64.3457 62.5918 64.0549 63.4336 64.6053 63.5901C65.7441 63.9136 66.8795 64.2371 68.0183 64.5606C68.5652 64.7137 68.8559 63.8754 68.3056 63.7188Z" fill="#656B7B"/>
<path d="M71.8329 43.4355C73.1794 44.253 74.4498 45.1783 75.644 46.2079C76.0766 46.5801 76.5647 45.8357 76.1355 45.467C74.9413 44.4374 73.6709 43.5155 72.3244 42.6946C71.8364 42.3989 71.3414 43.1399 71.8329 43.4355Z" fill="#656B7B"/>
<path d="M14.5807 63.952C13.7638 63.9033 12.9469 63.8581 12.13 63.8129C12.1161 63.5207 12.1092 63.225 12.1023 62.9224C12.9192 62.9711 13.7326 63.0163 14.5495 63.0615C15.1137 63.0963 15.1518 63.9868 14.5807 63.952Z" fill="#656B7B"/>
<path d="M53.1826 73.4275C54.5429 73.4762 55.9033 73.5214 57.2636 73.5701C57.8313 73.591 57.8347 74.4815 57.2636 74.4606C55.9033 74.4119 54.5429 74.3667 53.1826 74.318C52.6114 74.2971 52.6114 73.4066 53.1826 73.4275Z" fill="#656B7B"/>
<path d="M54.2106 51.7144C53.2241 50.0308 52.2342 48.3507 51.2477 46.6671C50.9604 46.1766 51.6769 45.6513 51.9642 46.1453C52.9507 47.8289 53.9407 49.509 54.9272 51.1926C55.2179 51.6831 54.5014 52.2084 54.2106 51.7144Z" fill="#656B7B"/>
<path d="M41.9504 80.2767C41.6215 80.3011 41.2927 80.3219 40.9638 80.3428C40.3823 79.3514 39.8008 78.3635 39.2193 77.3721C38.932 76.8817 39.6485 76.3564 39.9358 76.8504C40.6073 77.9948 41.2788 79.1357 41.9504 80.2767Z" fill="#656B7B"/>
<path d="M63.8681 52.1284C63.8681 52.1284 63.8681 49.2099 63.8681 47.6794C63.8681 47.1054 64.7542 47.1054 64.7542 47.6794C64.7542 49.2134 64.7542 50.6466 64.7542 52.1284C64.7542 52.7232 63.8681 52.7232 63.8681 52.1284C63.8681 52.7232 63.8681 52.1284 63.8681 52.1284Z" fill="#656B7B"/>
<path d="M48.5131 55.8575C47.3743 56.181 46.239 56.5045 45.1002 56.828C44.5533 56.9845 44.2625 56.1427 44.8129 55.9862C45.9517 55.6627 47.087 55.3392 48.2258 55.0156C48.7693 54.8591 49.06 55.7009 48.5131 55.8575Z" fill="#656B7B"/>
<path d="M45.1277 68.0879C46.4742 67.2704 47.7445 66.3451 48.9387 65.3155C49.3714 64.9433 49.8594 65.6877 49.4302 66.0564C48.236 67.086 46.9657 68.0078 45.6192 68.8288C45.1311 69.1245 44.6361 68.387 45.1277 68.0879Z" fill="#656B7B"/>
<path d="M24.553 80.809C23.9957 80.7916 23.4523 80.7672 22.9262 80.7359C22.3204 80.2802 21.7354 79.8002 21.1678 79.2958C20.742 78.9166 21.2958 78.2244 21.7216 78.6036C22.6216 79.3967 23.5631 80.1341 24.553 80.809Z" fill="#656B7B"/>
<path d="M34.4353 65.9068C33.7534 67.7365 33.0715 69.5663 32.3896 71.3925C32.1923 71.9247 31.3339 71.6951 31.5347 71.1594C32.2166 69.3297 32.8985 67.5 33.5804 65.6738C33.7811 65.1415 34.6361 65.3711 34.4353 65.9068Z" fill="#656B7B"/>
<path d="M20.4513 43.6616C19.1533 43.2581 17.8518 42.8511 16.5537 42.4476C16.0103 42.2772 16.2422 41.418 16.7857 41.5884C18.0837 41.9919 19.3852 42.3989 20.6832 42.8024C21.2267 42.9729 20.9948 43.8321 20.4513 43.6616Z" fill="#656B7B"/>
<path d="M29.6897 47.7558C30.202 49.6412 30.7178 51.5231 31.2301 53.4084C31.3789 53.9546 30.5516 54.2746 30.4028 53.7215C29.8905 51.8361 29.3747 49.9542 28.8624 48.0689C28.7101 47.5227 29.5374 47.2027 29.6897 47.7558Z" fill="#656B7B"/>
<path d="M23.1962 67.7296C21.9674 68.728 20.6624 69.615 19.2778 70.3837C18.7794 70.662 18.3363 69.8898 18.8382 69.6115C20.157 68.881 21.4031 68.0462 22.5766 67.0965C23.0127 66.7382 23.6392 67.3679 23.1962 67.7296Z" fill="#656B7B"/>
<path d="M20.8215 52.9737C20.8215 52.9737 20.06 55.7878 19.6584 57.2697C19.5096 57.8228 18.6546 57.5897 18.8035 57.0366C19.205 55.5583 19.5788 54.1738 19.9665 52.7406C20.1223 52.1667 20.9738 52.3998 20.8215 52.9737C20.9738 52.3998 20.8215 52.9737 20.8215 52.9737Z" fill="#656B7B"/>
<path d="M35.8131 61.2214C36.9934 61.2109 38.1773 61.197 39.3576 61.1866C39.9253 61.1796 39.9876 62.0701 39.4164 62.0736C38.2361 62.084 37.0523 62.0979 35.8719 62.1084C35.3043 62.1153 35.2419 61.2283 35.8131 61.2214Z" fill="#656B7B"/>
<path d="M44.768 49.0255C43.2553 49.4604 41.7877 50.0169 40.3685 50.6952C39.8527 50.9422 39.5793 50.0935 40.0881 49.85C41.5073 49.1716 42.9749 48.6151 44.4876 48.1803C45.0345 48.0237 45.3183 48.869 44.768 49.0255Z" fill="#656B7B"/>
<path d="M160.761 40.0335C162.121 39.9848 163.481 39.9396 164.842 39.8909C165.409 39.87 165.413 38.9795 164.842 39.0004C163.481 39.0491 162.121 39.0943 160.761 39.143C160.193 39.1638 160.189 40.0543 160.761 40.0335Z" fill="#656B7B"/>
<path d="M155.503 74.6172C154.388 75.3999 153.27 76.1825 152.155 76.9652C151.688 77.2922 152.169 78.0401 152.637 77.7131C153.751 76.9304 154.869 76.1478 155.984 75.3651C156.451 75.0381 155.97 74.2902 155.503 74.6172Z" fill="#656B7B"/>
<path d="M163.111 45.3765C162.124 47.0601 161.134 48.7402 160.148 50.4238C159.861 50.9143 160.577 51.4396 160.864 50.9456C161.851 49.262 162.841 47.5819 163.827 45.8983C164.118 45.4113 163.402 44.8825 163.111 45.3765Z" fill="#656B7B"/>
<path d="M164.572 69.9524C165.496 71.2395 166.524 72.4396 167.659 73.5457C168.068 73.9458 168.694 73.3162 168.286 72.9161C167.206 71.8621 166.219 70.7281 165.337 69.5037C165.004 69.041 164.236 69.4863 164.572 69.9524Z" fill="#656B7B"/>
<path d="M167.483 55.1895C167.483 55.1895 167.483 58.108 167.483 59.6385C167.483 60.2125 168.369 60.2125 168.369 59.6385C168.369 58.1045 168.369 56.6713 168.369 55.1895C168.369 54.5981 167.483 54.5981 167.483 55.1895C167.483 55.1895 167.483 54.5981 167.483 55.1895Z" fill="#656B7B"/>
<path d="M146.306 63.7188C145.167 63.3953 144.031 63.0718 142.893 62.7483C142.346 62.5918 142.055 63.4336 142.605 63.5901C143.744 63.9136 144.879 64.2371 146.018 64.5606C146.565 64.7137 146.856 63.8754 146.306 63.7188Z" fill="#656B7B"/>
<path d="M149.833 43.4355C151.179 44.253 152.45 45.1783 153.644 46.2079C154.077 46.5801 154.565 45.8357 154.135 45.467C152.941 44.4374 151.671 43.5155 150.324 42.6946C149.836 42.3989 149.341 43.1399 149.833 43.4355Z" fill="#656B7B"/>
<path d="M92.5807 63.952C91.7638 63.9033 90.9469 63.8581 90.13 63.8129C90.1161 63.5207 90.1092 63.225 90.1023 62.9224C90.9192 62.9711 91.7326 63.0163 92.5495 63.0615C93.1137 63.0963 93.1518 63.9868 92.5807 63.952Z" fill="#656B7B"/>
<path d="M131.183 73.4275C132.543 73.4762 133.903 73.5214 135.264 73.5701C135.831 73.591 135.835 74.4815 135.264 74.4606C133.903 74.4119 132.543 74.3667 131.183 74.318C130.611 74.2971 130.611 73.4066 131.183 73.4275Z" fill="#656B7B"/>
<path d="M132.211 51.7144C131.224 50.0308 130.234 48.3507 129.248 46.6671C128.96 46.1766 129.677 45.6513 129.964 46.1453C130.951 47.8289 131.941 49.509 132.927 51.1926C133.218 51.6831 132.501 52.2084 132.211 51.7144Z" fill="#656B7B"/>
<path d="M119.95 80.2767C119.622 80.3011 119.293 80.3219 118.964 80.3428C118.382 79.3514 117.801 78.3635 117.219 77.3721C116.932 76.8817 117.648 76.3564 117.936 76.8504C118.607 77.9948 119.279 79.1357 119.95 80.2767Z" fill="#656B7B"/>
<path d="M141.868 52.1284C141.868 52.1284 141.868 49.2099 141.868 47.6794C141.868 47.1054 142.754 47.1054 142.754 47.6794C142.754 49.2134 142.754 50.6466 142.754 52.1284C142.754 52.7232 141.868 52.7232 141.868 52.1284C141.868 52.7232 141.868 52.1284 141.868 52.1284Z" fill="#656B7B"/>
<path d="M126.513 55.8575C125.374 56.181 124.239 56.5045 123.1 56.828C122.553 56.9845 122.262 56.1427 122.813 55.9862C123.952 55.6627 125.087 55.3392 126.226 55.0156C126.769 54.8591 127.06 55.7009 126.513 55.8575Z" fill="#656B7B"/>
<path d="M123.128 68.0879C124.474 67.2704 125.745 66.3451 126.939 65.3155C127.371 64.9433 127.859 65.6877 127.43 66.0564C126.236 67.086 124.966 68.0078 123.619 68.8288C123.131 69.1245 122.636 68.387 123.128 68.0879Z" fill="#656B7B"/>
<path d="M102.553 80.809C101.996 80.7916 101.452 80.7672 100.926 80.7359C100.32 80.2802 99.7354 79.8002 99.1678 79.2958C98.742 78.9166 99.2958 78.2244 99.7216 78.6036C100.622 79.3967 101.563 80.1341 102.553 80.809Z" fill="#656B7B"/>
<path d="M112.435 65.9068C111.753 67.7365 111.072 69.5663 110.39 71.3925C110.192 71.9247 109.334 71.6951 109.535 71.1594C110.217 69.3297 110.898 67.5 111.58 65.6738C111.781 65.1415 112.636 65.3711 112.435 65.9068Z" fill="#656B7B"/>
<path d="M98.4513 43.6616C97.1533 43.2581 95.8518 42.8511 94.5537 42.4476C94.0103 42.2772 94.2422 41.418 94.7857 41.5884C96.0837 41.9919 97.3852 42.3989 98.6832 42.8024C99.2267 42.9729 98.9948 43.8321 98.4513 43.6616Z" fill="#656B7B"/>
<path d="M107.69 47.7558C108.202 49.6412 108.718 51.5231 109.23 53.4084C109.379 53.9546 108.552 54.2746 108.403 53.7215C107.89 51.8361 107.375 49.9542 106.862 48.0689C106.71 47.5227 107.537 47.2027 107.69 47.7558Z" fill="#656B7B"/>
<path d="M101.196 67.7296C99.9674 68.728 98.6624 69.615 97.2778 70.3837C96.7794 70.662 96.3363 69.8898 96.8382 69.6115C98.157 68.881 99.4031 68.0462 100.577 67.0965C101.013 66.7382 101.639 67.3679 101.196 67.7296Z" fill="#656B7B"/>
<path d="M98.8215 52.9737C98.8215 52.9737 98.06 55.7878 97.6584 57.2697C97.5096 57.8228 96.6546 57.5897 96.8035 57.0366C97.205 55.5583 97.5788 54.1738 97.9665 52.7406C98.1223 52.1667 98.9738 52.3998 98.8215 52.9737C98.9738 52.3998 98.8215 52.9737 98.8215 52.9737Z" fill="#656B7B"/>
<path d="M113.813 61.2214C114.993 61.2109 116.177 61.197 117.358 61.1866C117.925 61.1796 117.988 62.0701 117.416 62.0736C116.236 62.084 115.052 62.0979 113.872 62.1084C113.304 62.1153 113.242 61.2283 113.813 61.2214Z" fill="#656B7B"/>
<path d="M122.768 49.0255C121.255 49.4604 119.788 50.0169 118.368 50.6952C117.853 50.9422 117.579 50.0935 118.088 49.85C119.507 49.1716 120.975 48.6151 122.488 48.1803C123.034 48.0237 123.318 48.869 122.768 49.0255Z" fill="#656B7B"/>
<path d="M114.013 73.4392C112.909 76.0898 106.021 80.2293 104.885 79.6205C103.027 78.6187 96.1453 68.7466 96.7164 66.3951C97.2599 64.1584 103.802 60.1164 103.802 60.1164C103.802 60.1164 110.51 57.4031 114.262 57.337C116.325 57.2987 124.584 69.8632 123.581 72.4652C123.089 73.7279 117.135 74.521 114.013 73.4392Z" fill="white"/>
<path d="M113.843 72.6879C113.518 75.5577 105.526 80.1181 103.958 79.4954C103.037 79.1302 95.2832 68.1936 95.8509 65.8456C96.3944 63.6089 106.602 58.652 106.602 58.652C106.602 58.652 112.154 57.598 115.91 57.5284C117.973 57.4901 124.311 69.4981 123.307 72.1035C122.819 73.3662 115.595 74.7855 113.843 72.6879Z" fill="white"/>
<path d="M113.684 72.2461C112.556 75.8847 104.138 79.6693 103.161 79.0119C101.58 77.9405 95.5948 68.4789 96.1625 66.1274C96.7059 63.8907 106.806 59.0555 106.806 59.0555C109.901 58.8676 112.407 57.838 116.419 57.7267C118.489 57.6675 125.014 68.7571 124.228 71.366C123.764 72.9105 114.972 73.7697 113.684 72.2461Z" fill="white"/>
<path d="M112.026 73.1644C112.026 73.1644 112.712 74.6149 114.332 73.9853C116.087 73.3035 115.896 71.526 115.896 71.526C114.318 71.6756 112.964 72.1347 112.026 73.1644Z" fill="#E8E2E3"/>
<path d="M113.335 71.3939C112.739 71.8391 112.456 72.5313 112.497 73.4879C112.715 74.3993 104.473 78.264 102.369 78.4518C100.957 78.577 94.7987 66.4787 95.0479 65.042C95.2418 63.9324 104.989 59.6051 105.446 58.725C105.446 58.725 106.903 57.6223 107.9 57.8693C108.883 58.1128 117.232 56.0883 118.215 56.0639C119.756 56.0291 125.619 67.7066 125.599 70.0616C125.588 71.0356 115.9 73.1436 115.567 72.3435C115.211 71.4773 113.335 71.3939 113.335 71.3939Z" fill="#8E97FD"/>
<path d="M105.034 58.7842L112.497 73.4845C113.248 72.5453 114.57 71.6826 115.567 72.3436L108.378 57.6989C108.011 56.9684 104.788 58.2972 105.034 58.7842Z" fill="#4E5567"/>
<path d="M103.224 75.175C105.2 74.4028 107.07 73.4322 108.745 72.1208C108.984 71.9365 109.25 72.3191 109.015 72.5069C107.305 73.8427 105.398 74.8306 103.387 75.6168C103.106 75.7281 102.944 75.2863 103.224 75.175Z" fill="#4E5567"/>
<path d="M102.628 73.2966C103.885 72.7087 105.259 72.1661 106.37 71.3173C106.609 71.133 106.879 71.5191 106.64 71.7034C105.501 72.5731 104.079 73.1366 102.791 73.7384C102.518 73.8636 102.358 73.4218 102.628 73.2966Z" fill="#4E5567"/>
<path d="M91.2681 46.4214C90.3785 46.1396 89.2985 46.2614 88.807 46.0735C87.7063 45.6526 87.1525 45.4405 86.969 45.6005C86.2317 46.244 89.1878 47.0684 89.0874 47.7398C88.9109 47.9937 87.9763 48.1259 87.3151 48.1433C86.5225 48.1641 84.2448 47.6145 84.2345 48.0911C84.2275 48.4911 85.8786 48.9399 86.4463 48.992C85.8544 48.9399 83.3033 48.425 83.4522 49.0755C83.5629 49.5521 86.5086 49.8791 86.9032 49.9104C86.7129 49.9034 83.8952 49.4895 84.0406 49.966C84.2068 50.5156 86.7648 50.6861 87.1559 50.7174C86.9136 50.7104 84.5079 50.2826 84.7121 50.867C84.8402 51.2287 87.1767 51.6253 87.5678 51.6601C89.2985 51.8062 93.6427 50.6304 94.1549 50.3869L94.5011 47.6876C94.5011 47.6876 93.4315 47.1867 92.8984 47.0162C92.2373 46.8075 91.6039 46.5258 91.2681 46.4214Z" fill="#FDBCA0"/>
<path d="M94.0752 51.3018C96.9171 51.674 110.022 58.5093 113.972 49.2147C119.496 36.2188 109.378 22.6699 100.887 23.8318L104.141 35.9823C102.847 38.1286 103.591 41.788 103.276 42.7133C102.487 45.03 103.38 46.3205 93.9125 46.1849C92.8291 46.1744 93.1337 51.1801 94.0752 51.3018Z" fill="#8E97FD"/>
<path d="M94.1547 5.58341C93.9297 4.29635 105.283 0.901291 108.662 11.7717C109.866 15.6538 118.817 15.5425 114.678 23.0213C113.369 25.3833 122.66 27.4913 114.598 33.5822C107.056 39.28 95.5324 34.2883 96.5708 30.3193C97.72 25.9259 101.666 28.267 99.0838 22.6735C97.7719 19.828 99.3157 18.134 99.6342 17.1809C99.6965 16.9826 99.7588 16.7843 99.8211 16.5826C100.011 15.9042 100.091 15.2711 99.8211 14.652C99.0111 12.8014 93.4867 13.925 94.667 9.57678C95.7816 5.46862 94.1547 5.58341 94.1547 5.58341Z" fill="#3F414E"/>
<path d="M101.372 45.8197C104.937 44.9605 102.507 37.9477 104.356 35.6693C104.46 35.5406 104.276 35.3527 104.172 35.4849C102.3 37.7912 104.501 44.797 101.303 45.5692C101.14 45.6075 101.209 45.8614 101.372 45.8197Z" fill="#5863E3"/>
<path d="M98.0559 52.6516C101.684 53.8795 106.509 55.0379 110.164 53.4273C110.316 53.3612 110.185 53.1351 110.033 53.2012C106.453 54.7805 101.687 53.6047 98.1252 52.3976C97.9659 52.3455 97.8967 52.5994 98.0559 52.6516Z" fill="#5863E3"/>
<path d="M107.073 8.975C107.689 10.1299 108.447 11.0969 109.496 11.8796C110.59 12.697 111.593 13.2953 112.23 14.572C112.306 14.7216 112.535 14.5998 112.462 14.4502C111.988 13.5006 111.33 12.8536 110.479 12.2448C109.119 11.2778 108.108 10.3595 107.305 8.84977C107.222 8.70368 106.993 8.82542 107.073 8.975Z" fill="#002869"/>
<path d="M85.432 22.2004C85.7747 23.477 84.7571 24.8754 84.7294 26.1694C84.6982 27.5226 85.6674 28.1 86.8858 28.3226C87.0485 28.3539 87.1212 28.1 86.9551 28.0687C83.1752 27.3765 86.2732 24.3258 85.6847 22.1273C85.6397 21.9708 85.387 22.0404 85.432 22.2004Z" fill="#002869"/>
</svg>
