<svg width="415" height="351" viewBox="0 0 415 351" fill="none" xmlns="http://www.w3.org/2000/svg">
<path d="M109.851 103.001C94.8809 43.1804 38.9506 2.18267 -22.6218 5.88784C-29.4364 6.2973 -35.4358 1.44003 -36.4719 -5.30395L-40.7084 -32.8258C-41.885 -40.4609 -36.2912 -47.4458 -28.5851 -48.0319C-8.94442 -49.5252 10.628 -47.8432 29.7707 -43.01C52.7043 -37.2174 74.0396 -27.1617 93.1863 -13.1278C112.333 0.906132 128.34 18.2277 140.76 38.3513C151.129 55.151 158.61 73.3035 163.091 92.4797C164.85 100.002 159.863 107.433 152.225 108.609L124.689 112.844C117.943 113.884 111.506 109.621 109.851 103.001Z" fill="#FAF8F5"/>
<path d="M278.127 58.8936C339.137 49.7932 385.378 -1.88251 387.651 -63.5016C387.904 -70.3218 393.321 -75.8174 400.135 -76.1987L427.948 -77.7482C435.662 -78.1778 442.079 -71.9356 441.915 -64.2161C441.497 -44.5301 437.931 -25.2215 431.261 -6.64345C423.274 15.6117 411.195 35.8677 395.365 53.5586C379.535 71.2495 360.738 85.4962 339.499 95.9052C321.769 104.592 302.968 110.28 283.444 112.882C275.786 113.901 268.867 108.221 268.437 100.51L266.887 72.7067C266.514 65.8945 271.377 59.9012 278.127 58.8936Z" fill="#FAF8F5"/>
<path d="M318.006 179.206C349.447 232.251 414.758 255.56 472.703 234.412C479.115 232.072 486.252 235.009 489.173 241.178L501.097 266.343C504.402 273.322 501.042 281.615 493.826 284.379C475.43 291.422 456.195 295.407 436.469 296.243C412.837 297.245 389.519 293.709 367.158 285.73C344.797 277.751 324.51 265.725 306.86 249.991C292.126 236.854 279.765 221.6 269.993 204.502C266.161 197.797 268.815 189.25 275.796 185.94L300.97 174.013C307.141 171.091 314.529 173.336 318.006 179.206Z" fill="#FAF8F5"/>
<path d="M-58.4822 208.085C-4.35696 237.628 63.6977 224.305 102.711 176.527C107.028 171.24 114.664 170.12 120.326 173.931L143.431 189.474C149.838 193.786 151.185 202.632 146.393 208.694C134.175 224.146 119.675 237.397 103.144 248.191C83.3389 261.124 61.4863 269.995 38.1865 274.557C14.8866 279.119 -8.69656 279.143 -31.9071 274.632C-51.2842 270.864 -69.7029 264.064 -86.8378 254.357C-93.5565 250.549 -95.6407 241.846 -91.3299 235.435L-75.7804 212.323C-71.9677 206.658 -64.4694 204.814 -58.4822 208.085Z" fill="#FAF8F5"/>
</svg>
