<svg width="415" height="550" viewBox="0 0 415 550" fill="none" xmlns="http://www.w3.org/2000/svg">
<circle cx="207.102" cy="269" r="246" fill="#9AA2FD"/>
<circle cx="207.102" cy="269" r="246" fill="#949DFF"/>
<circle cx="207.102" cy="269" r="211" fill="#9AA2FD"/>
<circle cx="207.102" cy="269" r="211" fill="#99A1FF"/>
<circle cx="207.102" cy="269" r="177" fill="#9AA2FD"/>
<circle cx="207.102" cy="269" r="177" fill="#9EA6FF"/>
<path d="M296.502 78C294.931 69.7727 286.248 65.5733 282.102 64.5021C292.051 61.931 296.72 69.8584 297.811 74.1434C308.808 67.973 315.92 72.0009 318.102 74.7862C309.724 72.2152 300.211 75.8575 296.502 78Z" fill="#B4BAFF"/>
<path d="M61.9023 94C60.9423 89.2987 55.6356 86.899 53.1023 86.2869C59.1823 84.8177 62.0356 89.3477 62.7023 91.7963C69.4223 88.2703 73.769 90.572 75.1023 92.1635C69.9823 90.6944 64.169 92.7757 61.9023 94Z" fill="#B4BAFF"/>
<circle cx="207.102" cy="269" r="142" fill="#A3ABFF"/>
<rect x="-1.89771" y="308" width="416" height="266" fill="#8C96FF"/>
<path d="M66.6858 276L-8.89771 309H421.102L347.601 276H66.6858Z" fill="#8C96FF"/>
<path d="M180.582 214.64L166.302 237.84L193.692 270.37H221.312L247.062 237.29L231.122 214.64H180.582Z" fill="#3F4553"/>
<path d="M166.302 237.84C166.302 237.84 104.872 242.59 89.4622 258.68C74.0522 274.77 81.3022 292.24 96.3122 292.24C123.942 292.24 182.402 293.93 210.062 292.24L211.712 254.57L166.302 237.84Z" fill="#3F4553"/>
<path d="M245.472 237.04C245.472 237.04 309.802 242.59 325.212 258.68C340.622 274.77 331.742 285.43 318.362 292.24C299.532 301.83 231.662 300.24 196.462 288.59L202.972 254.57L245.472 237.04Z" fill="#3F4553"/>
<path d="M248.302 268.64L243.952 257.4L249.372 254.99C249.372 254.99 248.622 248.34 255.252 247.06C261.882 245.78 269.782 250.06 277.482 246.61C284.582 243.43 293.272 240.5 301.382 244.9C302.582 245.55 303.142 246.98 302.732 248.28L302.702 248.38C302.292 249.69 301.012 250.5 299.642 250.36C296.782 250.07 291.682 250.13 286.642 253.18C277.952 258.46 248.302 268.64 248.302 268.64Z" fill="#FEBBA0"/>
<path d="M298.912 269.28C298.912 269.28 255.982 261.65 165.552 260.47L156.822 272.31C156.822 272.31 179.322 285.17 200.442 289.82C221.562 294.47 294.472 309.11 327.032 286.56L298.912 269.28Z" fill="#3F4553"/>
<path d="M200.442 289.83C178.792 284.83 156.142 272.01 156.142 272.01L157.492 269.72" stroke="#6E758F" stroke-width="1.5925" stroke-miterlimit="10" stroke-linecap="round"/>
<path d="M165.552 260.47C165.552 260.47 264.902 258.2 291.412 273.58" stroke="#6E758F" stroke-width="1.5925" stroke-miterlimit="10" stroke-linecap="round"/>
<path d="M116.782 266.91C116.782 266.91 134.922 258.41 147.322 263.98" stroke="#6E758F" stroke-width="1.5925" stroke-miterlimit="10" stroke-linecap="round"/>
<path d="M158.912 270.35L165.542 260.25L158.912 256.66C158.912 256.66 156.592 250.85 150.092 249.05C143.582 247.26 138.952 250.15 131.542 246.11C124.712 242.38 116.272 238.79 107.852 242.54C106.612 243.09 105.932 244.47 106.242 245.8L106.262 245.9C106.572 247.24 107.782 248.14 109.152 248.11C112.022 248.04 117.112 248.5 121.892 251.94C130.142 257.88 158.912 270.35 158.912 270.35Z" fill="#FEBBA0"/>
<path d="M215.992 260.83L243.152 258.16" stroke="#6E758F" stroke-width="1.5925" stroke-miterlimit="10" stroke-linecap="round"/>
<path d="M181.452 249.06L196.602 260.03" stroke="#6E758F" stroke-width="1.5925" stroke-miterlimit="10" stroke-linecap="round"/>
<path d="M177.542 99.7702C178.182 106.03 183.632 110.59 189.712 109.97C195.792 109.35 200.202 103.77 199.562 97.5202C198.922 91.2602 193.472 86.7002 187.392 87.3202C181.322 87.9302 176.912 93.5102 177.542 99.7702Z" fill="#3F4553"/>
<path d="M200.252 104.32C200.252 104.32 180.932 101.4 177.892 83.1702C175.212 67.0602 186.022 54.1502 197.872 51.9202C197.882 51.9202 226.352 95.8002 200.252 104.32Z" fill="#3F4553"/>
<path d="M200.692 53.6502C199.272 54.3502 197.922 55.2702 196.692 56.4602C185.682 67.0502 192.652 87.6102 202.512 96.8902C207.972 102.02 215.952 104.41 222.922 101.79C233.112 97.9602 236.302 86.4202 234.232 76.1402C232.692 68.4802 228.442 61.2502 222.172 56.7502C215.902 52.2602 207.432 50.3602 200.692 53.6502Z" fill="#FDBCA0"/>
<path d="M198.862 90.6902C196.932 92.6002 193.572 93.3802 190.992 92.4702C188.412 91.5602 186.292 89.1302 185.622 86.3102C185.022 83.7802 185.672 80.9002 187.532 79.3502C189.392 77.8002 192.742 77.9002 194.332 79.9102L198.862 90.6902Z" fill="#FDBCA0"/>
<path d="M196.042 83.9702L198.072 120.31C198.342 127.03 203.792 132.37 210.512 132.5C218.272 132.66 224.362 125.88 223.372 118.18L219.272 84.4402L196.042 83.9702Z" fill="#FDBCA0"/>
<path d="M222.032 107.22L221.522 102.24C221.522 102.24 211.522 105.31 202.512 96.8802C202.512 96.8902 207.702 106.36 222.032 107.22Z" fill="#DF8370"/>
<path d="M192.072 78.4802C205.092 77.8102 216.972 69.0702 223.532 57.8102C223.532 57.8102 211.552 46.4402 194.042 53.0902C179.532 58.5902 192.072 78.4802 192.072 78.4802Z" fill="#3F4553"/>
<path d="M193.502 86.8402C192.002 86.9902 190.692 86.1802 190.572 85.0302C190.482 84.1602 191.092 83.3502 192.032 82.9302" stroke="#444359" stroke-width="1.1144" stroke-miterlimit="10" stroke-linecap="round"/>
<path d="M224.782 84.0002C225.082 83.0902 225.602 82.3702 226.182 81.6902L226.462 82.5702C225.802 82.3202 225.442 81.9402 225.072 81.5702C224.722 81.1802 224.412 80.7902 224.132 80.3702C223.572 79.5402 223.102 78.6602 222.762 77.7302C223.462 78.4402 224.102 79.1702 224.772 79.8702C225.112 80.2102 225.432 80.5602 225.782 80.8602C226.112 81.1502 226.502 81.4502 226.772 81.5202L227.582 81.7102L227.052 82.4002C226.512 83.1102 225.912 83.7702 225.082 84.2502C224.982 84.3102 224.862 84.2702 224.802 84.1802C224.772 84.1102 224.772 84.0502 224.782 84.0002Z" fill="#444359"/>
<path d="M227.712 87.1802C227.312 88.0002 226.632 88.7102 225.752 89.1402C224.882 89.5902 223.802 89.6802 222.842 89.4002C221.862 89.1302 221.102 88.4902 220.452 87.8302C220.162 87.4702 219.872 87.1002 219.632 86.7202C219.422 86.3102 219.202 85.9102 219.042 85.4902C219.412 85.7702 219.732 86.0702 220.052 86.3702L221.042 87.1902C221.742 87.6502 222.402 88.1502 223.162 88.3302C223.892 88.5602 224.672 88.5502 225.442 88.3402C226.202 88.1202 226.962 87.6902 227.712 87.1802Z" fill="#444359"/>
<path d="M217.242 74.1103C217.632 75.2703 217.852 76.4703 217.772 77.7603C217.722 78.3903 217.572 79.0803 217.102 79.6903C216.622 80.3103 215.812 80.5803 215.102 80.5603C214.372 80.5503 213.652 80.2303 213.162 79.7803C212.652 79.3303 212.252 78.8103 211.952 78.2603C211.352 77.1503 210.972 75.9903 210.782 74.7703C210.752 74.5803 210.882 74.4003 211.072 74.3603C211.252 74.3303 211.412 74.4403 211.462 74.6003L211.472 74.6203C211.812 75.7003 212.262 76.7903 212.842 77.7303C213.422 78.6403 214.212 79.4803 215.142 79.4503C215.602 79.4703 216.032 79.3503 216.292 79.0203C216.582 78.7003 216.722 78.1803 216.802 77.6503C216.952 76.5803 216.852 75.4003 216.672 74.2703V74.2503C216.642 74.0903 216.762 73.9303 216.922 73.9103C217.052 73.8903 217.192 73.9803 217.242 74.1103Z" fill="#444359"/>
<path d="M231.762 71.8402C232.092 72.8202 232.272 73.8202 232.252 74.8902C232.242 75.4202 232.142 76.0002 231.802 76.5502C231.472 77.1302 230.732 77.4902 230.092 77.4602C229.422 77.4502 228.812 77.1002 228.422 76.6902C228.022 76.2702 227.712 75.8202 227.482 75.3402C227.032 74.3802 226.752 73.4002 226.612 72.3702C226.582 72.1802 226.722 72.0002 226.922 71.9702C227.092 71.9502 227.252 72.0502 227.302 72.2102L227.312 72.2302C227.602 73.1302 227.952 74.0502 228.402 74.8502C228.852 75.6302 229.462 76.3802 230.132 76.3402C230.472 76.3502 230.742 76.2502 230.922 75.9702C231.122 75.6902 231.222 75.2602 231.282 74.8102C231.382 73.9102 231.302 72.9202 231.192 71.9802V71.9602C231.172 71.8002 231.292 71.6502 231.452 71.6202C231.582 71.6202 231.722 71.7102 231.762 71.8402Z" fill="#444359"/>
<path d="M242.562 123.61C242.472 117.51 222.692 112.63 222.692 112.63C221.452 114 219.322 116.31 210.352 116.31C201.772 116.31 198.342 114.09 197.002 112.63H188.512C186.622 112.63 184.892 113.71 184.102 115.43C167.092 152.64 176.652 194.2 180.572 214.63C180.932 216.51 216.432 215.24 232.442 216.51C235.902 216.8 242.902 145.78 242.562 123.61Z" fill="#FEE6C6"/>
<path d="M201.252 176.23C203.012 162.01 205.162 153.48 206.812 156.28C208.272 158.76 207.462 171.2 205.272 183.2C205.282 183.2 200.502 182.32 201.252 176.23Z" fill="#FEBBA0"/>
<path d="M212.872 176.23C211.112 162.01 208.962 153.48 207.312 156.28C205.852 158.76 206.662 171.2 208.852 183.2C208.842 183.2 213.622 182.32 212.872 176.23Z" fill="#FEBBA0"/>
<path d="M271.492 172.7H249.142L252.692 195.4L212.132 175.61C211.992 174.09 211.802 172.21 211.572 170.22C210.042 170.22 208.502 170.22 206.972 170.2C206.982 171.93 207.012 173.1 207.012 173.1C207.012 173.1 206.222 183.54 208.032 187.02C211.472 193.64 246.662 214.96 256.432 217.49C257.042 217.65 257.652 217.77 258.262 217.85C267.692 219.18 273.942 213.89 273.872 204.37L271.492 172.7Z" fill="#FEBBA0"/>
<path d="M202.152 170.12C201.802 172.36 201.492 174.52 201.252 176.23L161.862 194.47L163.522 172.71H141.172L138.802 204.4C138.742 213.92 144.992 219.2 154.412 217.88C155.022 217.79 155.632 217.67 156.242 217.52C166.012 214.99 198.742 197.3 205.732 186.98C207.802 183.93 206.822 173.66 206.822 173.66C206.822 173.66 206.822 172.24 206.782 170.22C205.242 170.19 203.702 170.16 202.152 170.12Z" fill="#FEBBA0"/>
<path d="M169.242 185.12C177.982 159.27 177.912 159.25 188.642 112.64C181.462 113.13 180.722 111.96 175.062 114.9C158.082 123.72 142.092 152.69 137.382 185.12H169.242Z" fill="#FEE6C6"/>
<path d="M247.062 182.57C241.922 164.26 222.692 112.64 222.692 112.64C241.922 111.99 268.162 137.06 274.442 179.22L247.062 182.57Z" fill="#FEE6C6"/>
<path d="M242.572 142.14L238.522 175.42" stroke="#EED2AD" stroke-width="1.5925" stroke-miterlimit="10" stroke-linecap="round"/>
<path d="M172.922 147.6L176.142 183.2" stroke="#EED2AD" stroke-width="1.5925" stroke-miterlimit="10" stroke-linecap="round"/>
<path d="M345.351 115.025C297.351 101.525 304.351 142.025 314.351 142.025C318.459 142.025 326.975 143.025 337.351 143.025H368.851C408.851 143.025 420.351 140.358 420.851 139.525C424.351 113.025 403.185 115.525 391.851 118.525C393.685 108.692 391.751 88.8252 369.351 88.0252C346.95 87.2252 344.017 105.692 345.351 115.025Z" fill="#B4BAFF"/>
<path d="M7.85802 39.7874C-13.1694 33.8992 -10.1031 51.5638 -5.7224 51.5638C-3.92261 51.5638 -0.191839 52 4.35374 52H18.1532C35.6761 52 40.714 50.8369 40.9333 50.4734C42.4666 38.9151 33.1939 40.0055 28.229 41.314C29.0322 37.025 28.1851 28.3599 18.3719 28.011C8.55868 27.662 7.27381 35.7165 7.85802 39.7874Z" fill="#A6ADFB"/>
<circle cx="39.1023" cy="17" r="6" fill="#A6ADFB"/>
<circle cx="3" cy="3" r="3" transform="matrix(1 0 0 -1 27.1023 6)" fill="#A6ADFB"/>
</svg>
