<svg width="165" height="130" viewBox="0 0 165 130" fill="none" xmlns="http://www.w3.org/2000/svg">
<g clip-path="url(#clip0_3_2359)">
<path d="M150.489 24.3394H147.102V41.3394H150.489V24.3394Z" fill="#9BA3FF"/>
<path d="M155.796 30.0536H152.409V41.3391H155.796V30.0536Z" fill="#9BA3FF"/>
<path d="M161.109 35.4393H157.723V41.3394H161.109V35.4393Z" fill="#9BA3FF"/>
</g>
<g clip-path="url(#clip1_3_2359)">
<path d="M85.6023 129.339C104.656 129.339 120.102 126.653 120.102 123.339C120.102 120.026 104.656 117.339 85.6023 117.339C66.5485 117.339 51.1023 120.026 51.1023 123.339C51.1023 126.653 66.5485 129.339 85.6023 129.339Z" fill="#808AFF"/>
</g>
<path d="M79.7839 45.4954C79.7839 45.4954 78.4324 60.436 84.0307 60.2109C90.0361 59.9662 88.4208 45.4954 88.4208 45.4954C87.6359 43.163 87.3233 41.7798 87.675 39.3333H80.3832C80.7349 41.7798 80.5655 43.163 79.7839 45.4954Z" fill="#FDBCA0"/>
<path d="M80.5296 42.2233C81.3569 42.4713 82.1906 42.6996 83.0536 42.7714C83.871 42.8399 84.7113 42.7877 85.5255 42.6996C86.2029 42.6246 86.9259 42.5039 87.6033 42.2788C87.4958 41.3915 87.5121 40.4781 87.6782 39.3298H80.3864C80.5459 40.4553 80.5948 41.3556 80.5296 42.2233Z" fill="#F0A38B"/>
<path d="M84.0305 41.3721C86.1116 41.3721 88.1145 40.55 89.58 39.069C91.3256 37.3075 92.6934 35.3437 93.094 33.0373C93.6086 30.0753 92.6088 27.1166 90.4268 24.7352H77.6311C75.4491 27.1133 74.4492 30.0753 74.9638 33.0373C75.3644 35.3437 76.7355 37.3075 78.4778 39.069C79.9466 40.5468 81.9495 41.3721 84.0305 41.3721Z" fill="#FDBCA0"/>
<path d="M84.6658 47.2375C84.402 47.5278 84.1544 47.8443 83.92 48.1607C83.6366 47.965 83.4119 47.7268 83.1644 47.4822C83.1416 47.4593 83.096 47.4822 83.1058 47.5148C83.2458 47.8997 83.5389 48.2129 83.8385 48.4804C83.9037 48.5358 83.9949 48.5424 84.06 48.4804C84.3759 48.1705 84.6853 47.8084 84.9295 47.4365C85.0338 47.2832 84.7928 47.0972 84.6658 47.2375Z" fill="#DF8370"/>
<path d="M91.7068 46.6666C89.7626 46.833 87.8444 47.1494 85.9522 47.6322C85.8382 47.6616 85.8871 47.8345 86.0011 47.8084C87.8834 47.3908 89.7854 47.107 91.7068 46.9765C91.9088 46.9635 91.9055 46.6503 91.7068 46.6666Z" fill="#DF8370"/>
<path d="M76.3513 46.6666C78.2956 46.833 80.2138 47.1494 82.106 47.6322C82.2199 47.6616 82.1711 47.8345 82.0571 47.8084C80.1747 47.3908 78.2728 47.107 76.3513 46.9765C76.1527 46.9635 76.1527 46.6503 76.3513 46.6666Z" fill="#DF8370"/>
<path d="M76.6867 19.8094C73.9673 21.3687 72.0523 23.8251 72.0198 27.1264C71.9872 30.8485 76.5141 36.7758 76.4522 36.629C74.9476 33.008 74.5535 28.0235 78.3085 25.528C78.683 25.28 79.152 25.1365 79.4875 24.8462C79.4777 22.8791 78.3932 20.974 76.6867 19.8094Z" fill="#3F4553"/>
<path d="M91.1071 19.8094C93.8265 21.3687 95.7415 23.8251 95.774 27.1264C95.8066 30.8485 93.5823 34.1595 91.3677 36.9715C91.9311 35.7449 93.237 28.0202 89.482 25.528C89.1075 25.28 88.6385 25.1365 88.3031 24.8462C88.3161 22.8791 89.4039 20.974 91.1071 19.8094Z" fill="#424495"/>
<path d="M130.153 17.8392C128.075 16.8051 125.649 16.5833 123.388 17.0433C122.294 17.2651 121.258 17.6533 120.272 18.1785C119.617 18.5243 118.953 19.0201 118.191 19.0788C117.266 19.1473 116.455 18.5438 115.768 18.0089C113.631 16.3452 111.459 14.887 108.71 14.4858C107.382 14.29 105.897 14.4336 104.867 15.2491C103.812 13.8529 102.239 12.858 100.507 12.4926C98.2139 12.0098 96.0351 12.6981 94.2342 14.0813C93.2181 13.5822 91.4399 12.8645 91.2152 12.8025C84.4412 10.9366 75.1921 15.6699 76.3905 23.6523C77.4197 30.5126 86.0923 33.6834 92.101 32.2741C93.3972 34.7305 96.5041 35.3014 98.8978 34.0226C99.0802 34.1629 99.2626 34.3032 99.4482 34.4402C103.268 37.2456 107.714 39.0692 112.514 38.2406C114.338 37.9241 116.044 37.2652 117.614 36.3192C119.106 37.4414 121.07 37.7969 122.877 36.9292C124.222 36.2866 125.124 35.0991 125.447 33.7551C125.469 33.7551 125.492 33.7551 125.515 33.7551C129.508 33.7062 133.742 31.7196 134.761 27.5277C135.689 23.7176 133.624 19.5649 130.153 17.8392Z" fill="#4E5567"/>
<path d="M111.999 16.5964C113.312 17.6697 114.09 19.1409 113.273 20.7622C112.608 22.0833 111.413 23.0457 110.544 24.2168C109.524 25.5869 109.348 27.3451 111.019 28.3466C112.664 29.3318 114.725 28.1052 116.096 27.1755C117.79 26.024 119.607 22.6933 121.066 21.2645C127.547 14.9197 133.982 21.7017 134.008 21.7245C133.168 20.0739 131.826 18.6744 130.152 17.8393C128.075 16.8052 125.648 16.5834 123.388 17.0433C122.294 17.2652 121.258 17.6534 120.272 18.1786C119.617 18.5243 118.953 19.0202 118.19 19.0789C117.266 19.1474 116.455 18.5439 115.767 18.0089C113.631 16.3452 111.459 14.8871 108.71 14.4858C107.411 14.2966 105.961 14.4336 104.936 15.2035C107.173 14.3325 110.205 15.1252 111.999 16.5964Z" fill="#3F4553"/>
<path d="M129.26 32.6787C127.674 32.8647 126.189 32.7766 124.73 32.1274C124.101 33.7618 122.815 35.4124 120.998 35.6701C119.776 35.843 118.334 35.4613 118.083 34.1663C109.498 41.1668 99.8745 33.3572 98.9463 31.8926C96.2693 33.6411 92.8953 31.5076 91.8955 28.7772C89.8568 29.5699 87.5054 29.3253 85.5253 28.4738C81.8354 26.8917 79.7902 22.5302 81.0799 18.6809C82.1546 15.4808 85.0173 13.2919 88.1893 12.4013C82.0048 12.3655 75.3643 16.815 76.3902 23.6524C77.4193 30.5127 86.0887 33.6835 92.1007 32.2742C93.3968 34.7306 96.5037 35.3015 98.8974 34.0227C99.0798 34.163 99.2622 34.3033 99.4478 34.4403C103.268 37.2457 107.713 39.0692 112.514 38.2407C114.338 37.9242 116.044 37.2653 117.614 36.3193C119.105 37.4414 121.069 37.797 122.877 36.9293C124.222 36.2866 125.124 35.0992 125.446 33.7552C125.469 33.7552 125.492 33.7552 125.515 33.7552C127.42 33.7324 129.377 33.2659 131.019 32.3329C130.442 32.5058 129.843 32.6102 129.26 32.6787Z" fill="#3F4553"/>
<path d="M81.7443 34.786C80.6044 34.9752 78.7514 35.0372 77.6994 33.9085C77.491 33.6834 77.2077 33.9379 77.4682 34.163C77.5105 34.1989 77.5529 34.2315 77.5952 34.2641C77.4715 34.3 77.3412 34.3163 77.2044 34.3065C77.2012 34.3065 77.2012 34.3098 77.2044 34.313C77.3705 34.3685 77.5399 34.3848 77.7059 34.3522C77.7092 34.3554 77.7125 34.3587 77.7157 34.3587C77.5724 34.4533 77.3998 34.4925 77.2305 34.5479C77.2272 34.5479 77.2272 34.5512 77.2305 34.5544C77.4389 34.574 77.6571 34.5479 77.8297 34.437C77.8492 34.45 77.8688 34.4566 77.8883 34.4696C77.7581 34.5707 77.6115 34.6458 77.4454 34.6849C77.4291 34.6882 77.4324 34.7143 77.4487 34.7143C77.6603 34.7241 77.8623 34.6719 78.0316 34.5544C78.0674 34.574 78.1065 34.5903 78.1423 34.6099C78.0218 34.698 77.8981 34.7763 77.7581 34.8415C77.745 34.848 77.7515 34.8709 77.7646 34.8709C77.9502 34.8774 78.113 34.7828 78.2596 34.6719C78.3052 34.6947 78.3508 34.711 78.3996 34.7306C78.3377 34.7926 78.2661 34.8513 78.1977 34.91C78.1879 34.9198 78.1977 34.9328 78.2107 34.9328C78.328 34.9035 78.4355 34.8545 78.5266 34.786C79.572 35.2166 80.7966 35.2297 81.8452 34.8513C81.956 34.8056 81.8713 34.7665 81.7443 34.786Z" fill="#3F4553"/>
<path d="M86.4242 34.786C87.564 34.9752 89.4171 35.0372 90.469 33.9085C90.6775 33.6834 90.9608 33.9379 90.7003 34.163C90.6579 34.1989 90.6156 34.2315 90.5733 34.2641C90.7003 34.3 90.8273 34.3163 90.9641 34.3065C90.9673 34.3065 90.9673 34.3098 90.9641 34.313C90.798 34.3685 90.6286 34.3848 90.4625 34.3522C90.4593 34.3554 90.456 34.3587 90.4528 34.3587C90.5961 34.4533 90.7687 34.4925 90.938 34.5479C90.9413 34.5479 90.9413 34.5512 90.938 34.5544C90.7296 34.574 90.5114 34.5479 90.3388 34.437C90.3192 34.45 90.2997 34.4566 90.2802 34.4696C90.4104 34.5707 90.557 34.6458 90.7231 34.6849C90.7394 34.6882 90.7361 34.7143 90.7198 34.7143C90.5081 34.7241 90.3062 34.6719 90.1369 34.5544C90.101 34.574 90.0619 34.5903 90.0261 34.6099C90.1466 34.698 90.2704 34.7763 90.4104 34.8415C90.4234 34.848 90.4169 34.8709 90.4039 34.8709C90.2183 34.8774 90.0554 34.7828 89.9089 34.6719C89.8633 34.6947 89.8177 34.711 89.7721 34.7306C89.834 34.7926 89.9056 34.8513 89.974 34.91C89.9838 34.9198 89.974 34.9328 89.961 34.9328C89.8437 34.9035 89.7363 34.8545 89.6451 34.786C88.5997 35.2166 87.3751 35.2297 86.3232 34.8513C86.2158 34.8056 86.2972 34.7665 86.4242 34.786Z" fill="#3F4553"/>
<path d="M84.8024 37.1641C84.2683 37.4414 83.7375 37.5523 83.1871 37.2196C83.148 37.1968 83.1024 37.2522 83.1382 37.2848C83.6104 37.7057 84.4507 37.8133 84.9229 37.3207C85.0011 37.2359 84.9034 37.112 84.8024 37.1641Z" fill="#3F4553"/>
<path d="M86.0236 39.0887C85.3559 39.2877 84.6981 39.3627 84.0467 39.3334C83.3954 39.3627 82.7375 39.2877 82.0699 39.0887C82.0536 39.0822 82.0406 39.1115 82.0569 39.1181C82.6984 39.3921 83.3726 39.5389 84.0467 39.5552C84.7209 39.5389 85.395 39.3921 86.0366 39.1181C86.0529 39.1115 86.0398 39.0854 86.0236 39.0887Z" fill="#3F4553"/>
<path d="M80.9853 36.3845C80.93 36.3584 80.8714 36.3356 80.8127 36.3193C80.0669 36.1268 79.1844 35.7615 78.406 35.8952C77.8556 35.9898 77.7286 36.6586 78.0413 37.0533C78.3767 37.4774 79.0346 37.5981 79.5426 37.6372C80.0539 37.6763 80.8551 37.7318 81.2361 37.3306C81.5813 36.9685 81.3468 36.5607 80.9853 36.3845Z" fill="#FBAD8B"/>
<path d="M87.0817 36.3845C87.1371 36.3584 87.1957 36.3356 87.2544 36.3193C88.0001 36.1268 88.8827 35.7615 89.6611 35.8952C90.2115 35.9898 90.3385 36.6586 90.0258 37.0533C89.6904 37.4774 89.0325 37.5981 88.5245 37.6372C88.0132 37.6763 87.212 37.7318 86.831 37.3306C86.4858 36.9685 86.7235 36.5607 87.0817 36.3845Z" fill="#FBAD8B"/>
<path d="M74.1954 31.5009C73.4236 31.3868 72.5963 31.7064 72.7364 32.6231C72.8471 33.3538 73.632 34.0813 74.8305 33.8627C74.5048 33.1059 74.2801 32.3099 74.1954 31.5009Z" fill="#F9CDB9"/>
<path d="M73.4496 32.2187C73.6612 32.0425 73.9902 31.9642 74.2735 32.0099C74.2572 31.9218 74.2475 31.8305 74.2344 31.7424C73.8469 31.7065 73.3909 31.8664 73.1695 32.1469C72.8243 32.5873 73.0848 33.0766 73.4658 33.3767C73.5212 33.4224 73.5994 33.3507 73.5473 33.2952C73.2704 33.0016 73.0783 32.5286 73.4496 32.2187Z" fill="#F8C4AB"/>
<path d="M74.4267 32.7079C74.2248 32.5252 73.961 32.4241 73.6582 32.4372C73.5898 32.4404 73.5637 32.5546 73.6419 32.5644C73.9187 32.6035 74.1564 32.7471 74.303 32.9689C74.1336 33.0602 74.0099 33.2592 74.1825 33.4223C74.3193 33.5528 74.5212 33.5822 74.7133 33.5626C74.6059 33.2821 74.5049 32.9982 74.4267 32.7079Z" fill="#F8C4AB"/>
<path d="M74.1271 33.6506C74.1239 33.6474 74.1174 33.6506 74.1206 33.6539C74.2444 33.9605 74.4203 34.6782 73.9969 34.825C73.7135 34.9229 73.6875 34.5575 73.7298 34.365C73.7689 34.1889 73.8666 34.0062 73.948 33.8496C73.948 33.8496 73.7526 33.8072 73.5735 33.7159C73.3292 33.9247 73.2413 34.2346 73.2836 34.5608C73.3227 34.8576 73.5116 35.1838 73.8471 35.1936C74.1467 35.2034 74.3616 34.9457 74.4072 34.6717C74.4593 34.3161 74.316 33.941 74.1271 33.6506Z" fill="#FDCA27"/>
<path d="M136.448 89.8311C134.617 87.6487 130.657 87.4726 128.058 87.2018C120.245 86.3863 112.234 86.5885 104.418 87.2214C100.526 87.5378 96.6537 88.0108 92.7978 88.6339C90.0068 89.0873 86.8901 89.4037 84.1023 90.2975C81.3146 89.4037 78.1979 89.084 75.4069 88.6339C71.5541 88.0075 67.6786 87.5345 63.7868 87.2214C55.9707 86.5885 47.9559 86.3863 40.1463 87.2018C37.5506 87.4726 33.5872 87.6487 31.7569 89.8311C29.9885 91.9384 32.1705 94.4926 33.851 95.8334C36.173 97.6863 39.1204 98.5997 41.9342 99.3989C45.4677 100.397 49.0827 101.076 52.7172 101.591C68.9846 103.888 77.8168 102.195 86.3202 102.09C86.6458 102.504 86.952 102.935 87.232 103.382C95.8526 103.437 106.925 102.749 115.484 101.591C119.122 101.098 122.734 100.4 126.267 99.3989C129.084 98.6029 132.028 97.6895 134.35 95.8334C136.031 94.4926 138.213 91.9384 136.448 89.8311Z" fill="#93BFA8"/>
<path d="M124.906 91.3416C125.176 90.9958 126.814 90.5684 127.459 90.2814C124.421 90.526 121.369 90.8914 118.337 91.2046C112.569 91.7983 106.795 93.3282 101.33 95.2431C98.7152 96.1597 96.1065 97.122 93.5077 98.0876C91.4494 98.851 89.414 99.6861 87.4827 100.727C87.7791 100.635 88.0755 100.544 88.3718 100.456C91.4527 99.5491 104.007 92.7475 127.254 91.9092C126.717 91.7917 124.802 91.4753 124.906 91.3416Z" fill="#66A986"/>
<path d="M43.6407 90.8618C43.3704 90.516 41.7322 90.0887 41.0874 89.8016C44.1259 90.0463 47.1775 90.4116 50.2095 90.7248C55.9772 91.3185 61.7513 92.8485 67.2161 94.7633C69.8313 95.68 72.4399 96.6423 75.0388 97.6079C77.097 98.3712 79.1325 99.2063 81.0637 100.247C80.7674 100.156 80.471 100.064 80.1747 99.9762C77.0938 99.0693 64.5391 92.2678 41.2926 91.4294C41.8267 91.312 43.7416 90.9956 43.6407 90.8618Z" fill="#66A986"/>
<path d="M91.9609 98.0746C90.6517 97.5494 89.2675 97.5364 87.9942 98.0811C85.8187 99.0174 83.1514 97.582 80.8912 97.8397C78.8102 98.0779 77.5433 100.449 79.1359 101.963C79.5202 102.328 83.3826 103.731 89.502 100.874C90.1729 100.56 90.8275 100.381 91.5863 100.391C91.7622 100.394 91.9283 100.56 92.1139 100.541C92.5112 100.492 92.8369 100.42 93.0584 100.035C93.5795 99.1283 92.7099 98.3747 91.9609 98.0746Z" fill="#FDB597"/>
<path d="M76.6867 102.886C77.7907 102.009 79.1162 101.598 80.4873 101.758C82.8387 102.032 84.9849 99.8916 87.2255 99.4904C89.287 99.1218 91.1792 101.03 90.0849 102.942C89.8211 103.402 86.5188 105.852 79.8392 104.866C79.1065 104.759 78.4291 104.775 77.7061 105C77.54 105.052 77.426 105.261 77.2404 105.294C76.8463 105.362 76.5141 105.385 76.1917 105.082C75.4361 104.361 76.0549 103.389 76.6867 102.886Z" fill="#FDBCA0"/>
<path d="M121.069 49.2958C120.317 49.684 119.525 50.1211 118.786 50.5289C119.177 50.2092 121.346 47.9975 122.189 47.4527C122.281 47.394 122.066 46.4969 119.848 48.2715C119.187 48.8 118.405 49.335 117.783 49.9124C118.574 48.4085 119.235 46.8851 120.271 45.5085C120.313 45.453 120.3 45.3911 120.265 45.3487C120.053 45.1823 119.522 45.3715 119.284 45.6259C118.861 46.0761 117.252 47.8181 116.471 49.6547C116.484 49.0251 116.428 48.004 115.982 47.7952C115.702 47.6615 115.236 47.8377 114.937 47.8605C114.347 47.9029 113.575 47.9877 113.025 47.7528C112.943 47.7202 112.738 47.6941 112.813 47.9649C113.064 48.8522 114.302 48.9631 115.07 49.1588C115.331 49.7917 114.598 50.829 114.135 51.1422C113.383 51.6543 112.286 51.152 112.475 50.1472C112.641 49.2632 113.168 48.862 112.702 47.9942C112.549 47.7072 111.892 47.4462 112.038 47.9094C112.416 49.0936 111.331 50.0885 111.191 51.2335C111.081 52.1404 111.559 52.9461 112.041 53.6736C112.012 53.7486 111.989 53.8237 111.963 53.8954C111.309 55.0306 110.801 56.2278 110.433 57.4805C111.273 57.7578 113.741 57.5816 113.732 57.5621C113.741 57.5816 114.028 55.8266 114.686 55.0861C115.406 54.2738 116.311 53.6475 117.177 53.0081C118.998 51.6609 120.848 50.3528 122.723 49.0805C122.831 49.012 122.743 48.4314 121.069 49.2958Z" fill="#FDBCA0"/>
<path d="M47.3337 49.2958C48.086 49.684 48.8774 50.1211 49.6167 50.5289C49.2259 50.2092 47.0569 47.9975 46.2134 47.4527C46.1222 47.394 46.3372 46.4969 48.555 48.2715C49.2161 48.8 49.9977 49.335 50.6198 49.9124C49.8284 48.4085 49.1672 46.8851 48.1316 45.5085C48.0893 45.453 48.1023 45.3911 48.1381 45.3487C48.3498 45.1823 48.8807 45.3715 49.1184 45.6259C49.5418 46.0761 51.1506 47.8181 51.9322 49.6547C51.9192 49.0251 51.9745 48.004 52.4207 47.7952C52.7008 47.6615 53.1665 47.8377 53.4661 47.8605C54.0556 47.9029 54.8274 47.9877 55.3778 47.7528C55.4592 47.7202 55.6644 47.6941 55.5895 47.9649C55.3388 48.8522 54.1012 48.9631 53.3326 49.1588C53.0721 49.7917 53.8048 50.829 54.2673 51.1422C55.0196 51.6543 56.1171 51.152 55.9282 50.1472C55.7621 49.2632 55.2345 48.862 55.7002 47.9942C55.8533 47.7072 56.5112 47.4462 56.3646 47.9094C55.9868 49.0936 57.0713 50.0885 57.2114 51.2335C57.3221 52.1404 56.8434 52.9461 56.3614 53.6736C56.3907 53.7486 56.4135 53.8237 56.4395 53.8954C57.0941 55.0306 57.6022 56.2278 57.9702 57.4805C57.13 57.7578 54.6614 57.5816 54.6711 57.5621C54.6614 57.5816 54.3748 55.8266 53.7169 55.0861C52.9972 54.2738 52.0918 53.6475 51.2255 53.0081C49.405 51.6609 47.5552 50.3528 45.6793 49.0805C45.5718 49.012 45.6598 48.4314 47.3337 49.2958Z" fill="#FDBCA0"/>
<path d="M109.554 56.3258C108.332 59.4802 104.19 71.126 102.461 76.0649C101.431 73.4226 98.6502 61.9497 96.3086 48.6304C95.5791 44.4908 90.9187 45.0812 88.4241 45.4955C88.245 48.2748 85.5517 55.98 84.1057 55.9963C82.6597 55.98 79.7938 48.8196 79.7873 45.4955C77.2959 45.0812 72.6322 44.4908 71.9027 48.6304C69.5579 61.9497 66.7799 73.4258 65.7508 76.0649C64.0182 71.126 59.8789 59.4802 58.6576 56.3258C57.0911 57.0663 55.3585 57.474 53.6292 57.5751C54.9677 61.1407 59.3871 86.3895 65.9006 86.3895C68.7241 86.3895 70.5121 83.3851 73.391 72.2547C73.5343 74.1141 73.5832 77.6862 73.5115 81.4409C73.4594 84.1452 71.5933 87.2703 69.0954 86.6668C68.5906 86.5461 67.9328 86.9278 68.5581 87.6063C68.7274 87.7922 68.9456 87.9292 69.1703 88.0336C73.1598 89.9257 73.3161 92.7539 75.6707 94.4013C77.0939 95.3963 78.8461 95.7094 80.5168 96.0487C82.3275 96.414 84.1936 96.6881 86.0369 96.4108C89.1015 95.9508 91.4822 93.8989 94.0191 92.294C95.4358 91.3969 96.8753 90.6792 98.5395 90.4346C102.822 89.805 102.539 86.7777 101.643 86.8397C98.6437 87.0452 94.6933 83.2155 94.6705 79.0008C94.6542 76.1954 94.7096 73.7064 94.8203 72.2547C97.6992 83.3851 99.4872 86.3895 102.311 86.3895C108.824 86.3895 113.244 61.1407 114.582 57.5751C112.853 57.474 111.12 57.063 109.554 56.3258Z" fill="#F2EDE4"/>
<path d="M92.3226 67.3517C92.29 67.3745 92.264 67.3973 92.2379 67.4202C91.7071 67.9388 91.2935 68.5619 90.7724 69.0904C90.2513 69.6156 89.5772 70.056 88.8379 70.0527C87.063 70.0429 86.1739 67.9095 85.1057 66.8232C83.4643 65.1595 81.8717 68.9501 80.6505 69.6939C79.3966 70.4572 78.5466 69.9972 77.6217 69.0936C77.055 68.5391 76.573 67.916 76.0487 67.3223C75.9119 67.1657 75.5993 67.3321 75.6839 67.5343C76.2962 69.0088 77.6803 71.4554 79.5073 71.4946C80.6277 71.5174 81.5461 70.8748 82.2821 70.0853C82.6436 69.6971 83.6401 67.6126 84.2882 67.8867C84.4087 67.9388 84.4934 68.0465 84.5748 68.1509C84.8972 68.575 85.1969 69.0219 85.5421 69.4264C85.7212 69.6352 86.239 69.9809 86.239 70.268C86.9718 71.015 87.9781 71.6022 89.017 71.475C90.0787 71.3445 90.9189 70.5127 91.5344 69.6352C91.9708 69.0121 92.3389 68.3401 92.6287 67.6355C92.671 67.5343 92.7069 67.4071 92.632 67.3256C92.5505 67.2407 92.4268 67.2799 92.3226 67.3517Z" fill="#D9C9AC"/>
<g clip-path="url(#clip2_3_2359)">
<path d="M152.092 84.2946L163.238 80.5589L157.651 64.1592L146.505 67.8949C146.068 68.0406 145.832 68.5101 145.983 68.9431L151.035 83.7725C151.182 84.2056 151.655 84.4403 152.092 84.2946Z" fill="#3F4553"/>
<path d="M152.1 83.9708L163.523 80.142L158.14 64.3453L146.717 68.1741C146.436 68.2672 146.285 68.5707 146.378 68.8541L151.415 83.6349C151.512 83.9141 151.819 84.0639 152.1 83.9708Z" fill="#DDDDE3"/>
<path d="M152.341 83.89L163.764 80.0612L158.381 64.2645L146.958 68.0933C146.676 68.1864 146.525 68.4899 146.619 68.7732L151.655 83.5541C151.753 83.8333 152.059 83.9871 152.341 83.89Z" fill="#E2E5FF"/>
<path d="M152.957 84.0032L164.103 80.2675L158.516 63.8718L147.37 67.6075C146.933 67.7532 146.697 68.2227 146.848 68.6558L151.9 83.4852C152.047 83.9182 152.521 84.1489 152.957 84.0032Z" fill="#4E5567"/>
<path d="M157.891 64.0813L157.651 64.1616L163.238 80.5615L163.478 80.4812L157.891 64.0813Z" fill="#3F4553"/>
<path d="M159.483 76.892L159.732 76.3659L160.254 76.633L156.173 64.657C156.1 64.4465 155.916 64.4627 155.704 64.5356C155.492 64.6084 155.332 64.7055 155.406 64.916L159.483 76.892Z" fill="#93BFA8"/>
<path d="M134.441 68.4295L141.942 59.6091L140.426 58.341L132.925 67.1614L134.441 68.4295Z" fill="#3F4553"/>
<path d="M132.923 67.1584L134.437 68.4253L132.249 69.6192C132.176 69.6597 132.078 69.5747 132.103 69.4978L132.923 67.1584Z" fill="#F2EDE4"/>
<path d="M132.254 69.6231L132.846 69.2993L132.331 68.8662L132.111 69.4976C132.082 69.5745 132.18 69.6595 132.254 69.6231Z" fill="#3F4553"/>
<path d="M133.938 68.0094L141.44 59.1891L140.925 58.7586L133.424 67.5789L133.938 68.0094Z" fill="#4E5567"/>
</g>
<g clip-path="url(#clip3_3_2359)">
<path d="M51.6051 -16.6606C41.9358 -16.6606 34.1023 -8.82713 34.1023 0.842112C34.1023 10.5058 41.9358 18.3449 51.6051 18.3449C61.2688 18.3449 69.1078 10.5114 69.1078 0.842112C69.1023 -8.82713 61.2688 -16.6606 51.6051 -16.6606ZM51.6051 15.3846C43.5731 15.3846 37.0626 8.87409 37.0626 0.842112C37.0626 -7.18986 43.5731 -13.7003 51.6051 -13.7003C59.637 -13.7003 66.1475 -7.18986 66.1475 0.842112C66.1475 8.87409 59.637 15.3846 51.6051 15.3846Z" fill="#808AFF"/>
<path d="M65.0232 6.44911C68.1218 -0.960817 64.6267 -9.47965 57.2168 -12.5782C49.8069 -15.6768 41.288 -12.1818 38.1895 -4.77184C35.0909 2.63809 38.5859 11.1569 45.9958 14.2555C53.4058 17.3541 61.9246 13.859 65.0232 6.44911Z" fill="#AEB4FC"/>
<path d="M64.8405 0.869005C64.8405 -0.150842 63.2529 -0.156355 63.2529 0.869005C63.2529 1.89437 64.8405 1.89437 64.8405 0.869005Z" fill="#808AFF"/>
<path d="M51.5713 14.0776C52.5911 14.0776 52.5966 12.49 51.5713 12.49C50.5514 12.49 50.5459 14.0776 51.5713 14.0776Z" fill="#808AFF"/>
<path d="M38.3641 0.809189C38.3641 1.82903 39.9518 1.83455 39.9518 0.809189C39.9518 -0.210656 38.3641 -0.216169 38.3641 0.809189Z" fill="#808AFF"/>
<path d="M57.8567 5.09238C57.763 5.09238 57.6692 5.07033 57.5865 5.0152L51.3297 1.29414C51.1698 1.20043 51.0706 1.02402 51.0706 0.836588V-9.16341C51.0706 -9.45558 51.3076 -9.69263 51.5998 -9.69263C51.8919 -9.69263 52.129 -9.45558 52.129 -9.16341V0.538905L58.1268 4.10561C58.3804 4.25445 58.4631 4.5797 58.3087 4.83328C58.215 4.99866 58.0386 5.09238 57.8567 5.09238Z" fill="#808AFF"/>
</g>
<path d="M16.7229 36.7459L16.3738 34.7649L14.3486 35.11C14.0273 34.1851 13.5036 33.3706 12.8262 32.7079L14.0134 31.0444L12.3513 29.8917L11.1711 31.5483C10.3191 31.1342 9.36936 30.9064 8.3777 30.9133L8.02155 28.9047L6.01729 29.2498L6.36647 31.2515C5.43068 31.569 4.60663 32.0867 3.93622 32.7563L2.2532 31.5828L1.08696 33.2256L2.763 34.3922C2.34399 35.2343 2.11353 36.173 2.12052 37.1532L0.102295 37.4983L0.451468 39.4793L2.47667 39.1342C2.79791 40.0591 3.32167 40.8736 3.99907 41.5363L2.81188 43.1998L4.47395 44.3525L5.65415 42.6959C6.50613 43.11 7.45589 43.3378 8.44754 43.3309L8.8037 45.3395L10.808 44.9944L10.4588 42.9927C11.3946 42.6752 12.2186 42.1575 12.889 41.4879L14.572 42.6614L15.7383 41.0186L14.0622 39.852C14.4813 39.0099 14.7117 38.0712 14.7047 37.091L16.7229 36.7459ZM8.73386 38.9616C7.70729 39.1411 6.72961 38.4577 6.54804 37.4431C6.36646 36.4284 7.05783 35.462 8.0844 35.2826C9.11097 35.1031 10.0887 35.7865 10.2702 36.8011C10.4518 37.8158 9.76741 38.7822 8.73386 38.9616Z" fill="#9BA3FF"/>
<path d="M35.8301 32.7492V30.2574H33.2811C33.0925 29.0564 32.6247 27.952 31.9403 26.9994L33.749 25.2117L31.9682 23.4515L30.1665 25.2324C29.2097 24.549 28.0994 24.0727 26.8842 23.8726V21.3394H24.3632V23.8588C23.1481 24.0451 22.0238 24.5076 21.067 25.1841L19.2583 23.3963L17.4775 25.1564L19.2793 26.9373C18.5879 27.8829 18.106 28.9804 17.9035 30.1815H15.3406V32.6733H17.8895C18.0781 33.8743 18.546 34.9787 19.2304 35.9313L17.4216 37.719L19.2024 39.4792L21.0042 37.6983C21.9609 38.3817 23.0713 38.8579 24.2864 39.0581V41.5913H26.8074V39.0719C28.0226 38.8855 29.1399 38.4231 30.1036 37.7466L31.9123 39.5344L33.6931 37.7742L31.8914 35.9934C32.5828 35.0477 33.0646 33.9502 33.2671 32.7492H35.8301ZM25.5853 33.7846C24.2934 33.7846 23.2389 32.7492 23.2389 31.4653C23.2389 30.1884 24.2864 29.1461 25.5853 29.1461C26.8773 29.1461 27.9318 30.1815 27.9318 31.4653C27.9248 32.7423 26.8773 33.7846 25.5853 33.7846Z" fill="#AEB4FC"/>
<g opacity="0.3">
<path d="M154.097 14.2365L135.368 10.0271C135.185 9.98703 135.068 9.80358 135.111 9.62013L137.47 -0.880106C137.51 -1.06356 137.693 -1.1803 137.876 -1.13694L156.605 3.07583C156.789 3.11585 156.906 3.29931 156.862 3.48276L154.501 13.983C154.461 14.1631 154.281 14.2799 154.097 14.2365Z" fill="#ECECEC"/>
<path d="M135.422 9.78024C135.372 9.77024 135.342 9.7202 135.355 9.67351L137.716 -0.826726C137.726 -0.876759 137.776 -0.906779 137.823 -0.893437L156.552 3.31933C156.602 3.32934 156.632 3.37937 156.619 3.42607L154.257 13.9263C154.247 13.9763 154.197 14.0064 154.151 13.993L135.422 9.78024Z" fill="#F5F4F5"/>
<path d="M153.969 2.47991L140.516 -0.54541L140.462 -0.30135L153.914 2.72397L153.969 2.47991Z" fill="#706F6E"/>
<path d="M139.208 0.964361L138.587 0.824269C138.51 0.807592 138.46 0.730874 138.477 0.650822L138.574 0.213868C138.59 0.137151 138.667 0.0871183 138.747 0.103796L139.368 0.243887C139.444 0.260565 139.494 0.337282 139.478 0.417335L139.381 0.854289C139.361 0.931006 139.284 0.981038 139.208 0.964361Z" fill="#585857"/>
<path d="M138.613 0.700831C138.603 0.697496 138.597 0.687489 138.6 0.677483L138.697 0.240528C138.7 0.230522 138.71 0.22385 138.72 0.227186L139.341 0.367279C139.351 0.370614 139.357 0.380621 139.354 0.390627L139.257 0.82758C139.254 0.837587 139.244 0.844258 139.234 0.840923L138.613 0.700831Z" fill="#5E5E5D"/>
<path d="M140.345 1.2179L139.724 1.07781C139.647 1.06113 139.597 0.984414 139.614 0.904362L139.711 0.467409C139.728 0.390692 139.804 0.340658 139.884 0.357336L140.505 0.497429C140.581 0.514106 140.631 0.590824 140.615 0.670876L140.518 1.10783C140.498 1.18788 140.421 1.23458 140.345 1.2179Z" fill="#585857"/>
<path d="M139.751 0.957545C139.741 0.95421 139.734 0.944202 139.738 0.934195L139.834 0.497242C139.838 0.487236 139.848 0.480564 139.858 0.4839L140.478 0.623993C140.488 0.627328 140.495 0.637335 140.491 0.647341L140.395 1.08429C140.391 1.0943 140.381 1.10097 140.371 1.09764L139.751 0.957545Z" fill="#5E5E5D"/>
<path d="M141.482 1.47462L140.862 1.33452C140.785 1.31785 140.735 1.24113 140.752 1.16108L140.848 0.724123C140.865 0.647406 140.942 0.597372 141.022 0.61405L141.642 0.754143C141.719 0.77082 141.769 0.847537 141.752 0.92759L141.656 1.36454C141.636 1.44126 141.559 1.49129 141.482 1.47462Z" fill="#585857"/>
<path d="M140.888 1.21121C140.878 1.20787 140.872 1.19787 140.875 1.18786L140.972 0.750904C140.975 0.740898 140.985 0.734226 140.995 0.737562L141.616 0.877655C141.626 0.88099 141.632 0.890997 141.629 0.901003L141.532 1.33796C141.529 1.34796 141.519 1.35463 141.509 1.3513L140.888 1.21121Z" fill="#5E5E5D"/>
<path d="M142.62 1.72803L141.999 1.58794C141.922 1.57126 141.872 1.49455 141.889 1.41449L141.986 0.977539C142.003 0.900822 142.079 0.85079 142.159 0.867468L142.78 1.00756C142.856 1.02424 142.906 1.10095 142.89 1.18101L142.793 1.61796C142.773 1.69801 142.696 1.74805 142.62 1.72803Z" fill="#585857"/>
<path d="M142.026 1.46792C142.016 1.46459 142.009 1.45458 142.013 1.44457L142.109 1.00762C142.113 0.997612 142.123 0.99094 142.133 0.994276L142.753 1.13437C142.763 1.1377 142.77 1.14771 142.766 1.15772L142.67 1.59467C142.666 1.60468 142.656 1.61135 142.646 1.60801L142.026 1.46792Z" fill="#5E5E5D"/>
<path d="M143.754 1.98499L143.133 1.8449C143.056 1.82822 143.006 1.7515 143.023 1.67145L143.12 1.2345C143.137 1.15778 143.213 1.10775 143.293 1.12443L143.914 1.26452C143.99 1.28119 144.04 1.35791 144.024 1.43796L143.927 1.87492C143.91 1.95497 143.834 2.00167 143.754 1.98499Z" fill="#585857"/>
<path d="M143.163 1.72488C143.153 1.72154 143.147 1.71154 143.15 1.70153L143.247 1.26458C143.25 1.25457 143.26 1.2479 143.27 1.25123L143.891 1.39133C143.901 1.39466 143.907 1.40467 143.904 1.41468L143.807 1.85163C143.804 1.86163 143.794 1.86831 143.784 1.86497L143.163 1.72488Z" fill="#5E5E5D"/>
<path d="M144.891 2.24171L144.271 2.10161C144.194 2.08494 144.144 2.00822 144.161 1.92817L144.257 1.49121C144.274 1.4145 144.351 1.36446 144.431 1.38114L145.051 1.52123C145.128 1.53791 145.178 1.61463 145.161 1.69468L145.065 2.13163C145.048 2.20835 144.971 2.25838 144.891 2.24171Z" fill="#585857"/>
<path d="M144.301 1.9783C144.291 1.97496 144.284 1.96495 144.287 1.95495L144.384 1.51799C144.387 1.50799 144.397 1.50132 144.407 1.50465L145.028 1.64474C145.038 1.64808 145.044 1.65809 145.041 1.66809L144.944 2.10505C144.941 2.11505 144.931 2.12172 144.921 2.11839L144.301 1.9783Z" fill="#5E5E5D"/>
<path d="M146.029 2.49537L145.408 2.35528C145.331 2.3386 145.281 2.26188 145.298 2.18183L145.395 1.74487C145.412 1.66816 145.488 1.61812 145.568 1.6348L146.189 1.77489C146.265 1.79157 146.315 1.86829 146.299 1.94834L146.202 2.38529C146.185 2.46535 146.105 2.51538 146.029 2.49537Z" fill="#585857"/>
<path d="M145.438 2.23513C145.428 2.2318 145.421 2.22179 145.425 2.21178L145.521 1.77483C145.525 1.76482 145.535 1.75815 145.545 1.76149L146.165 1.90158C146.175 1.90491 146.182 1.91492 146.179 1.92493L146.082 2.36188C146.078 2.37189 146.068 2.37856 146.058 2.37522L145.438 2.23513Z" fill="#5E5E5D"/>
<path d="M147.166 2.7522L146.546 2.61211C146.469 2.59543 146.419 2.51872 146.436 2.43866L146.532 2.00171C146.549 1.92499 146.626 1.87496 146.706 1.89164L147.326 2.03173C147.403 2.04841 147.453 2.12512 147.436 2.20518L147.34 2.64213C147.32 2.72218 147.243 2.76888 147.166 2.7522Z" fill="#585857"/>
<path d="M146.576 2.49197C146.566 2.48863 146.559 2.47863 146.562 2.46862L146.659 2.03167C146.662 2.02166 146.672 2.01499 146.682 2.01832L147.303 2.15842C147.313 2.16175 147.319 2.17176 147.316 2.18176L147.219 2.61872C147.216 2.62873 147.206 2.6354 147.196 2.63206L146.576 2.49197Z" fill="#5E5E5D"/>
<path d="M148.304 3.00904L147.683 2.86895C147.607 2.85227 147.557 2.77555 147.573 2.6955L147.67 2.25855C147.687 2.18183 147.763 2.1318 147.843 2.14847L148.464 2.28857C148.541 2.30524 148.591 2.38196 148.574 2.46201L148.477 2.89897C148.457 2.97568 148.38 3.02572 148.304 3.00904Z" fill="#585857"/>
<path d="M147.71 2.74551C147.7 2.74217 147.693 2.73217 147.696 2.72216L147.793 2.28521C147.796 2.2752 147.806 2.26853 147.816 2.27186L148.437 2.41196C148.447 2.41529 148.453 2.4253 148.45 2.4353L148.353 2.87226C148.35 2.88226 148.34 2.88894 148.33 2.8856L147.71 2.74551Z" fill="#5E5E5D"/>
<path d="M149.441 3.26258L148.82 3.12249C148.744 3.10581 148.694 3.02909 148.71 2.94904L148.807 2.51209C148.824 2.43537 148.9 2.38534 148.98 2.40201L149.601 2.54211C149.678 2.55878 149.728 2.6355 149.711 2.71555L149.614 3.15251C149.594 3.23256 149.517 3.28259 149.441 3.26258Z" fill="#585857"/>
<path d="M148.847 3.00247C148.837 2.99913 148.83 2.98912 148.834 2.97912L148.93 2.54216C148.934 2.53216 148.944 2.52549 148.954 2.52882L149.574 2.66891C149.584 2.67225 149.591 2.68226 149.588 2.69226L149.491 3.12922C149.487 3.13922 149.477 3.14589 149.467 3.14256L148.847 3.00247Z" fill="#5E5E5D"/>
<path d="M150.578 3.51929L149.958 3.3792C149.881 3.36252 149.831 3.28581 149.848 3.20575L149.945 2.7688C149.961 2.69208 150.038 2.64205 150.118 2.65873L150.738 2.79882C150.815 2.8155 150.865 2.89221 150.848 2.97227L150.752 3.40922C150.732 3.48927 150.655 3.53597 150.578 3.51929Z" fill="#585857"/>
<path d="M149.984 3.25918C149.974 3.25584 149.967 3.24584 149.971 3.23583L150.068 2.79888C150.071 2.78887 150.081 2.7822 150.091 2.78554L150.711 2.92563C150.721 2.92896 150.728 2.93897 150.725 2.94898L150.628 3.38593C150.625 3.39594 150.615 3.40261 150.605 3.39927L149.984 3.25918Z" fill="#5E5E5D"/>
<path d="M151.715 3.77625L151.095 3.63616C151.018 3.61948 150.968 3.54276 150.985 3.46271L151.082 3.02576C151.098 2.94904 151.175 2.89901 151.255 2.91569L151.875 3.05578C151.952 3.07245 152.002 3.14917 151.985 3.22922L151.889 3.66618C151.869 3.7429 151.792 3.79293 151.715 3.77625Z" fill="#585857"/>
<path d="M151.122 3.5126C151.112 3.50926 151.105 3.49926 151.108 3.48925L151.205 3.0523C151.208 3.04229 151.218 3.03562 151.228 3.03895L151.849 3.17905C151.859 3.18238 151.865 3.19239 151.862 3.20239L151.765 3.63935C151.762 3.64935 151.752 3.65603 151.742 3.65269L151.122 3.5126Z" fill="#5E5E5D"/>
<path d="M152.853 4.02967L152.232 3.88958C152.156 3.8729 152.106 3.79618 152.122 3.71613L152.219 3.27918C152.236 3.20246 152.313 3.15243 152.393 3.1691L153.013 3.3092C153.09 3.32587 153.14 3.40259 153.123 3.48264L153.026 3.9196C153.006 3.99965 152.93 4.04968 152.853 4.02967Z" fill="#585857"/>
<path d="M152.259 3.76956C152.249 3.76622 152.243 3.75621 152.246 3.74621L152.343 3.30925C152.346 3.29925 152.356 3.29258 152.366 3.29591L152.986 3.436C152.996 3.43934 153.003 3.44935 153 3.45935L152.903 3.89631C152.9 3.90631 152.89 3.91298 152.88 3.90965L152.259 3.76956Z" fill="#5E5E5D"/>
<path d="M153.99 4.28638L153.37 4.14629C153.293 4.12961 153.243 4.0529 153.26 3.97284L153.357 3.53589C153.373 3.45917 153.45 3.40914 153.53 3.42582L154.151 3.56591C154.227 3.58259 154.277 3.6593 154.261 3.73936L154.164 4.17631C154.144 4.25636 154.067 4.30306 153.99 4.28638Z" fill="#585857"/>
<path d="M153.397 4.02639C153.387 4.02306 153.38 4.01305 153.383 4.00304L153.48 3.56609C153.483 3.55608 153.493 3.54941 153.503 3.55275L154.124 3.69284C154.134 3.69617 154.141 3.70618 154.137 3.71619L154.04 4.15314C154.037 4.16315 154.027 4.16982 154.017 4.16648L153.397 4.02639Z" fill="#5E5E5D"/>
<path d="M155.124 4.54334L154.504 4.40325C154.427 4.38657 154.377 4.30985 154.394 4.2298L154.491 3.79285C154.507 3.71613 154.584 3.6661 154.664 3.68278L155.284 3.82287C155.361 3.83954 155.411 3.91626 155.394 3.99631L155.298 4.43327C155.281 4.50999 155.204 4.56002 155.124 4.54334Z" fill="#585857"/>
<path d="M154.534 4.27981C154.524 4.27648 154.518 4.26647 154.521 4.25646L154.618 3.81951C154.621 3.8095 154.631 3.80283 154.641 3.80617L155.261 3.94626C155.271 3.94959 155.278 3.9596 155.275 3.96961L155.178 4.40656C155.175 4.41657 155.165 4.42324 155.155 4.4199L154.534 4.27981Z" fill="#5E5E5D"/>
<path d="M138.574 0.974485L139.341 1.14793C139.427 1.16795 139.484 1.25467 139.464 1.34473L139.294 2.09856C139.274 2.18528 139.187 2.24198 139.097 2.22197L138.33 2.04852C138.243 2.02851 138.187 1.94179 138.207 1.85173L138.377 1.0979C138.397 1.01118 138.483 0.954472 138.574 0.974485Z" fill="#585857"/>
<path d="M138.36 1.92481C138.34 1.92147 138.327 1.89812 138.33 1.87811L138.5 1.12428C138.504 1.10427 138.527 1.09093 138.547 1.09426L139.314 1.26771C139.334 1.27104 139.348 1.29439 139.344 1.31441L139.174 2.06823C139.171 2.08825 139.147 2.10159 139.127 2.09825L138.36 1.92481Z" fill="#5E5E5D"/>
<path d="M139.884 1.27104L140.651 1.44448C140.738 1.4645 140.795 1.55122 140.775 1.64128L140.605 2.39511C140.585 2.48183 140.498 2.53854 140.408 2.51852L139.641 2.34508C139.554 2.32506 139.497 2.23834 139.517 2.14828L139.687 1.39445C139.707 1.30439 139.794 1.25102 139.884 1.27104Z" fill="#585857"/>
<path d="M139.671 2.22168C139.651 2.21835 139.637 2.195 139.641 2.17498L139.811 1.42116C139.814 1.40114 139.838 1.3878 139.858 1.39114L140.625 1.56458C140.645 1.56792 140.658 1.59127 140.655 1.61128L140.485 2.36511C140.481 2.38512 140.458 2.39846 140.438 2.39513L139.671 2.22168Z" fill="#5E5E5D"/>
<path d="M141.196 1.56482L141.963 1.73826C142.05 1.75828 142.106 1.845 142.086 1.93506L141.916 2.68889C141.896 2.77561 141.809 2.83232 141.719 2.8123L140.952 2.63886C140.865 2.61884 140.809 2.53212 140.829 2.44206L140.999 1.68823C141.019 1.60151 141.109 1.5448 141.196 1.56482Z" fill="#585857"/>
<path d="M140.982 2.51526C140.962 2.51193 140.949 2.48858 140.952 2.46856L141.122 1.71473C141.125 1.69472 141.149 1.68138 141.169 1.68471L141.936 1.85816C141.956 1.8615 141.969 1.88485 141.966 1.90486L141.796 2.65869C141.792 2.6787 141.769 2.69204 141.749 2.68871L140.982 2.51526Z" fill="#5E5E5D"/>
<path d="M142.506 1.8584L143.273 2.03184C143.36 2.05186 143.417 2.13858 143.397 2.22864L143.227 2.98247C143.207 3.06919 143.12 3.1259 143.03 3.10588L142.263 2.93244C142.176 2.91242 142.119 2.8257 142.139 2.73564L142.309 1.98181C142.329 1.89509 142.42 1.83838 142.506 1.8584Z" fill="#585857"/>
<path d="M142.293 2.81213C142.273 2.8088 142.26 2.78545 142.263 2.76544L142.433 2.01161C142.436 1.9916 142.46 1.97825 142.48 1.98159L143.247 2.15504C143.267 2.15837 143.28 2.18172 143.277 2.20173L143.107 2.95556C143.104 2.97558 143.08 2.98892 143.06 2.98558L142.293 2.81213Z" fill="#5E5E5D"/>
<path d="M143.817 2.15519L144.584 2.32864C144.671 2.34865 144.727 2.43538 144.707 2.52544L144.537 3.27927C144.517 3.36599 144.431 3.42269 144.341 3.40268L143.573 3.22923C143.487 3.20922 143.43 3.1225 143.45 3.03244L143.62 2.27861C143.643 2.18855 143.73 2.13518 143.817 2.15519Z" fill="#585857"/>
<path d="M143.604 3.10559C143.584 3.10226 143.57 3.07891 143.574 3.0589L143.744 2.30507C143.747 2.28505 143.77 2.27171 143.79 2.27505L144.558 2.44849C144.578 2.45183 144.591 2.47518 144.588 2.49519L144.417 3.24902C144.414 3.26903 144.391 3.28238 144.371 3.27904L143.604 3.10559Z" fill="#5E5E5D"/>
<path d="M145.128 2.44873L145.895 2.62218C145.982 2.64219 146.038 2.72891 146.018 2.81897L145.848 3.5728C145.828 3.65952 145.742 3.71623 145.652 3.69622L144.884 3.52277C144.798 3.50275 144.741 3.41603 144.761 3.32597L144.931 2.57214C144.954 2.48542 145.041 2.42871 145.128 2.44873Z" fill="#585857"/>
<path d="M144.914 3.39942C144.894 3.39608 144.881 3.37273 144.884 3.35272L145.054 2.59889C145.058 2.57888 145.081 2.56553 145.101 2.56887L145.868 2.74232C145.888 2.74565 145.902 2.769 145.898 2.78901L145.728 3.54284C145.725 3.56286 145.701 3.5762 145.681 3.57286L144.914 3.39942Z" fill="#5E5E5D"/>
<path d="M146.439 2.7454L147.206 2.91885C147.293 2.93886 147.35 3.02559 147.33 3.11565L147.159 3.86948C147.139 3.9562 147.053 4.0129 146.963 3.99289L146.195 3.81944C146.109 3.79943 146.052 3.71271 146.072 3.62265L146.242 2.86882C146.265 2.77876 146.352 2.72539 146.439 2.7454Z" fill="#585857"/>
<path d="M146.225 3.69605C146.205 3.69271 146.192 3.66936 146.195 3.64935L146.365 2.89552C146.369 2.87551 146.392 2.86217 146.412 2.8655L147.179 3.03895C147.199 3.04228 147.213 3.06563 147.209 3.08565L147.039 3.83947C147.036 3.85949 147.012 3.87283 146.992 3.86949L146.225 3.69605Z" fill="#5E5E5D"/>
<path d="M147.753 3.03918L148.52 3.21263C148.607 3.23264 148.664 3.31937 148.644 3.40943L148.474 4.16325C148.454 4.24998 148.367 4.30668 148.277 4.28667L147.51 4.11322C147.423 4.09321 147.366 4.00648 147.386 3.91643L147.556 3.1626C147.576 3.07587 147.663 3.01917 147.753 3.03918Z" fill="#585857"/>
<path d="M147.536 3.98975C147.516 3.98641 147.503 3.96306 147.506 3.94305L147.676 3.18922C147.68 3.16921 147.703 3.15587 147.723 3.1592L148.49 3.33265C148.51 3.33599 148.524 3.35933 148.52 3.37935L148.35 4.13317C148.347 4.15319 148.323 4.16653 148.303 4.16319L147.536 3.98975Z" fill="#5E5E5D"/>
<path d="M149.064 3.33252L149.831 3.50596C149.918 3.52598 149.974 3.6127 149.954 3.70276L149.784 4.45659C149.764 4.54331 149.677 4.60002 149.587 4.58L148.82 4.40656C148.733 4.38654 148.677 4.29982 148.697 4.20976L148.867 3.45593C148.887 3.36921 148.974 3.3125 149.064 3.33252Z" fill="#585857"/>
<path d="M148.85 4.28638C148.83 4.28304 148.817 4.25969 148.82 4.23968L148.991 3.48585C148.994 3.46584 149.017 3.4525 149.037 3.45583L149.804 3.62928C149.824 3.63262 149.838 3.65596 149.834 3.67598L149.664 4.42981C149.661 4.44982 149.638 4.46316 149.618 4.45983L148.85 4.28638Z" fill="#5E5E5D"/>
<path d="M150.375 3.62956L151.142 3.80301C151.229 3.82302 151.285 3.90974 151.265 3.9998L151.095 4.75363C151.075 4.84035 150.989 4.89706 150.898 4.87704L150.131 4.7036C150.045 4.68358 149.988 4.59686 150.008 4.5068L150.178 3.75297C150.198 3.66291 150.285 3.60954 150.375 3.62956Z" fill="#585857"/>
<path d="M150.161 4.5802C150.141 4.57687 150.128 4.55352 150.131 4.5335L150.301 3.77968C150.304 3.75966 150.328 3.74632 150.348 3.74966L151.115 3.9231C151.135 3.92644 151.148 3.94979 151.145 3.9698L150.975 4.72363C150.972 4.74364 150.948 4.75698 150.928 4.75365L150.161 4.5802Z" fill="#5E5E5D"/>
<path d="M151.686 3.92285L152.453 4.0963C152.539 4.11631 152.596 4.20303 152.576 4.29309L152.406 5.04692C152.386 5.13364 152.299 5.19035 152.209 5.17033L151.445 4.99689C151.359 4.97687 151.302 4.89015 151.322 4.80009L151.492 4.04626C151.509 3.95954 151.596 3.90284 151.686 3.92285Z" fill="#585857"/>
<path d="M151.472 4.87366C151.452 4.87032 151.439 4.84697 151.442 4.82696L151.612 4.07313C151.616 4.05312 151.639 4.03978 151.659 4.04311L152.426 4.21656C152.446 4.2199 152.459 4.24324 152.456 4.26326L152.283 5.01709C152.279 5.0371 152.256 5.05044 152.236 5.04711L151.472 4.87366Z" fill="#5E5E5D"/>
<path d="M152.996 4.21989L153.764 4.39334C153.85 4.41335 153.907 4.50007 153.887 4.59013L153.717 5.34396C153.697 5.43069 153.61 5.48739 153.52 5.46738L152.753 5.29393C152.666 5.27392 152.61 5.18719 152.63 5.09713L152.8 4.3433C152.82 4.25324 152.91 4.19988 152.996 4.21989Z" fill="#585857"/>
<path d="M152.783 5.17053C152.763 5.1672 152.75 5.14385 152.753 5.12384L152.923 4.37001C152.927 4.34999 152.95 4.33665 152.97 4.33999L153.737 4.51344C153.757 4.51677 153.77 4.54012 153.767 4.56013L153.597 5.31396C153.594 5.33397 153.57 5.34732 153.55 5.34398L152.783 5.17053Z" fill="#5E5E5D"/>
<path d="M154.307 4.5133L155.074 4.68675C155.161 4.70676 155.218 4.79349 155.198 4.88355L155.028 5.63737C155.007 5.7241 154.921 5.7808 154.831 5.76079L154.064 5.58734C153.977 5.56733 153.92 5.4806 153.94 5.39055L154.114 4.63672C154.13 4.54999 154.22 4.49329 154.307 4.5133Z" fill="#585857"/>
<path d="M154.094 5.46411C154.074 5.46078 154.06 5.43743 154.064 5.41742L154.234 4.66359C154.237 4.64357 154.261 4.63023 154.281 4.63357L155.048 4.80701C155.068 4.81035 155.081 4.8337 155.078 4.85371L154.908 5.60754C154.904 5.62755 154.881 5.6409 154.861 5.63756L154.094 5.46411Z" fill="#5E5E5D"/>
<path d="M138.297 2.19519L139.064 2.36864C139.15 2.38865 139.207 2.47537 139.187 2.56543L139.017 3.31926C138.997 3.40598 138.91 3.46269 138.82 3.44267L138.053 3.26923C137.966 3.24921 137.91 3.16249 137.93 3.07243L138.103 2.3186C138.123 2.23188 138.21 2.17517 138.297 2.19519Z" fill="#585857"/>
<path d="M138.083 3.14575C138.063 3.14242 138.05 3.11907 138.053 3.09906L138.223 2.34523C138.227 2.32521 138.25 2.31187 138.27 2.31521L139.037 2.48865C139.057 2.49199 139.071 2.51534 139.067 2.53535L138.897 3.28918C138.894 3.30919 138.87 3.32254 138.85 3.3192L138.083 3.14575Z" fill="#5E5E5D"/>
<path d="M139.611 2.49198L140.378 2.66543C140.465 2.68545 140.522 2.77217 140.502 2.86223L140.332 3.61606C140.312 3.70278 140.225 3.75948 140.135 3.73947L139.368 3.56602C139.281 3.54601 139.224 3.45929 139.244 3.36923L139.414 2.6154C139.434 2.52534 139.521 2.47197 139.611 2.49198Z" fill="#585857"/>
<path d="M139.394 3.44263C139.374 3.43929 139.361 3.41594 139.364 3.39593L139.534 2.6421C139.538 2.62209 139.561 2.60875 139.581 2.61208L140.348 2.78553C140.368 2.78887 140.382 2.81221 140.378 2.83223L140.208 3.58606C140.205 3.60607 140.181 3.61941 140.161 3.61608L139.394 3.44263Z" fill="#5E5E5D"/>
<path d="M140.922 2.78552L141.689 2.95897C141.776 2.97898 141.832 3.0657 141.812 3.15576L141.642 3.90959C141.622 3.99632 141.535 4.05302 141.445 4.03301L140.678 3.85956C140.591 3.83955 140.535 3.75282 140.555 3.66276L140.725 2.90893C140.745 2.82221 140.832 2.76551 140.922 2.78552Z" fill="#585857"/>
<path d="M140.708 3.73621C140.688 3.73287 140.675 3.70952 140.678 3.68951L140.849 2.93568C140.852 2.91567 140.875 2.90233 140.895 2.90566L141.662 3.07911C141.682 3.08245 141.696 3.10579 141.692 3.12581L141.522 3.87964C141.519 3.89965 141.496 3.91299 141.476 3.90966L140.708 3.73621Z" fill="#5E5E5D"/>
<path d="M142.232 3.0791L142.999 3.25255C143.086 3.27256 143.143 3.35928 143.123 3.44934L142.953 4.20317C142.933 4.2899 142.846 4.3466 142.756 4.32659L141.989 4.15314C141.902 4.13313 141.845 4.0464 141.865 3.95634L142.036 3.20251C142.056 3.11579 142.142 3.05909 142.232 3.0791Z" fill="#585857"/>
<path d="M142.019 4.02967C141.999 4.02633 141.986 4.00298 141.989 3.98297L142.159 3.22914C142.162 3.20913 142.186 3.19578 142.206 3.19912L142.973 3.37257C142.993 3.3759 143.006 3.39925 143.003 3.41926L142.833 4.17309C142.83 4.19311 142.806 4.20645 142.786 4.20311L142.019 4.02967Z" fill="#5E5E5D"/>
<path d="M143.544 3.3759L144.311 3.54934C144.398 3.56936 144.454 3.65608 144.434 3.74614L144.264 4.49997C144.244 4.58669 144.158 4.64339 144.068 4.62338L143.3 4.44993C143.214 4.42992 143.157 4.3432 143.177 4.25314L143.347 3.49931C143.367 3.40925 143.457 3.35588 143.544 3.3759Z" fill="#585857"/>
<path d="M143.33 4.32654C143.31 4.3232 143.297 4.29986 143.3 4.27984L143.47 3.52601C143.474 3.506 143.497 3.49266 143.517 3.49599L144.284 3.66944C144.304 3.67278 144.317 3.69613 144.314 3.71614L144.144 4.46997C144.141 4.48998 144.117 4.50332 144.097 4.49999L143.33 4.32654Z" fill="#5E5E5D"/>
<path d="M144.854 3.66931L145.622 3.84276C145.708 3.86277 145.765 3.94949 145.745 4.03955L145.575 4.79338C145.555 4.88011 145.468 4.93681 145.378 4.9168L144.611 4.74335C144.524 4.72334 144.468 4.63661 144.488 4.54655L144.658 3.79272C144.678 3.706 144.768 3.6493 144.854 3.66931Z" fill="#585857"/>
<path d="M144.641 4.62012C144.621 4.61678 144.608 4.59343 144.611 4.57342L144.781 3.81959C144.785 3.79958 144.808 3.78624 144.828 3.78957L145.595 3.96302C145.615 3.96636 145.629 3.9897 145.625 4.00972L145.455 4.76355C145.452 4.78356 145.428 4.7969 145.408 4.79357L144.641 4.62012Z" fill="#5E5E5D"/>
<path d="M146.165 3.96635L146.932 4.1398C147.019 4.15981 147.076 4.24653 147.056 4.33659L146.886 5.09042C146.866 5.17715 146.779 5.23385 146.689 5.21384L145.922 5.04039C145.835 5.02038 145.778 4.93365 145.798 4.84359L145.968 4.08977C145.992 3.99971 146.078 3.94634 146.165 3.96635Z" fill="#585857"/>
<path d="M145.952 4.91699C145.932 4.91366 145.918 4.89031 145.922 4.8703L146.092 4.11647C146.095 4.09645 146.119 4.08311 146.139 4.08645L146.906 4.2599C146.926 4.26323 146.939 4.28658 146.936 4.30659L146.766 5.06042C146.762 5.08044 146.739 5.09378 146.719 5.09044L145.952 4.91699Z" fill="#5E5E5D"/>
<path d="M147.476 4.25964L148.243 4.43309C148.33 4.4531 148.387 4.53983 148.367 4.62988L148.197 5.38371C148.177 5.47044 148.09 5.52714 148 5.50713L147.233 5.33368C147.146 5.31367 147.089 5.22694 147.109 5.13688L147.279 4.38306C147.303 4.29633 147.389 4.23963 147.476 4.25964Z" fill="#585857"/>
<path d="M147.262 5.21045C147.242 5.20712 147.229 5.18377 147.232 5.16375L147.402 4.40993C147.406 4.38991 147.429 4.37657 147.449 4.37991L148.216 4.55335C148.236 4.55669 148.25 4.58004 148.246 4.60005L148.076 5.35388C148.073 5.37389 148.05 5.38723 148.03 5.3839L147.262 5.21045Z" fill="#5E5E5D"/>
<path d="M148.787 4.55346L149.554 4.72691C149.641 4.74693 149.698 4.83365 149.678 4.92371L149.508 5.67754C149.488 5.76426 149.401 5.82096 149.311 5.80095L148.544 5.6275C148.457 5.60749 148.4 5.52077 148.42 5.43071L148.59 4.67688C148.614 4.59015 148.7 4.53345 148.787 4.55346Z" fill="#585857"/>
<path d="M148.573 5.50403C148.553 5.50069 148.54 5.47735 148.543 5.45733L148.714 4.7035C148.717 4.68349 148.74 4.67015 148.76 4.67348L149.527 4.84693C149.547 4.85027 149.561 4.87362 149.557 4.89363L149.387 5.64746C149.384 5.66747 149.361 5.68081 149.341 5.67748L148.573 5.50403Z" fill="#5E5E5D"/>
<path d="M150.098 4.85026L150.865 5.02371C150.952 5.04372 151.008 5.13045 150.988 5.2205L150.818 5.97433C150.798 6.06106 150.711 6.11776 150.621 6.09775L149.854 5.9243C149.768 5.90429 149.711 5.81756 149.731 5.7275L149.901 4.97368C149.924 4.88362 150.011 4.83025 150.098 4.85026Z" fill="#585857"/>
<path d="M149.884 5.8009C149.864 5.79757 149.851 5.77422 149.854 5.75421L150.025 5.00038C150.028 4.98037 150.051 4.96702 150.071 4.97036L150.838 5.14381C150.858 5.14714 150.872 5.17049 150.868 5.1905L150.698 5.94433C150.695 5.96435 150.672 5.97769 150.652 5.97435L149.884 5.8009Z" fill="#5E5E5D"/>
<path d="M151.412 5.1438L152.179 5.31724C152.266 5.33726 152.322 5.42398 152.302 5.51404L152.132 6.26787C152.112 6.35459 152.026 6.4113 151.936 6.39128L151.168 6.21783C151.082 6.19782 151.025 6.1111 151.045 6.02104L151.215 5.26721C151.235 5.18049 151.322 5.12378 151.412 5.1438Z" fill="#585857"/>
<path d="M151.195 6.09436C151.175 6.09103 151.162 6.06768 151.165 6.04766L151.335 5.29384C151.339 5.27382 151.362 5.26048 151.382 5.26382L152.149 5.43726C152.169 5.4406 152.182 5.46395 152.179 5.48396L152.009 6.23779C152.006 6.2578 151.982 6.27114 151.962 6.26781L151.195 6.09436Z" fill="#5E5E5D"/>
<path d="M152.723 5.44059L153.49 5.61404C153.577 5.63405 153.634 5.72078 153.614 5.81084L153.443 6.56466C153.423 6.65139 153.337 6.70809 153.247 6.68808L152.479 6.51463C152.393 6.49462 152.336 6.4079 152.356 6.31784L152.526 5.56401C152.546 5.47395 152.633 5.42058 152.723 5.44059Z" fill="#585857"/>
<path d="M152.51 6.39124C152.49 6.3879 152.476 6.36455 152.48 6.34454L152.65 5.59071C152.653 5.5707 152.676 5.55736 152.697 5.56069L153.464 5.73414C153.484 5.73747 153.497 5.76082 153.494 5.78084L153.324 6.53466C153.32 6.55468 153.297 6.56802 153.277 6.56468L152.51 6.39124Z" fill="#5E5E5D"/>
<path d="M154.034 5.73425L154.801 5.9077C154.888 5.92771 154.945 6.01443 154.925 6.10449L154.754 6.85832C154.734 6.94505 154.648 7.00175 154.558 6.98174L153.791 6.80829C153.704 6.78828 153.647 6.70155 153.667 6.61149L153.837 5.85766C153.857 5.77094 153.944 5.71424 154.034 5.73425Z" fill="#585857"/>
<path d="M153.82 6.68482C153.8 6.68148 153.787 6.65813 153.79 6.63812L153.96 5.88429C153.964 5.86428 153.987 5.85094 154.007 5.85427L154.774 6.02772C154.794 6.03105 154.808 6.0544 154.804 6.07442L154.634 6.82824C154.631 6.84826 154.608 6.8616 154.587 6.85826L153.82 6.68482Z" fill="#5E5E5D"/>
<path d="M138.024 3.41589L138.791 3.58934C138.877 3.60935 138.934 3.69608 138.914 3.78613L138.744 4.53996C138.724 4.62669 138.637 4.68339 138.547 4.66338L137.78 4.48993C137.693 4.46992 137.637 4.38319 137.657 4.29313L137.827 3.53931C137.85 3.45258 137.937 3.39588 138.024 3.41589Z" fill="#585857"/>
<path d="M137.81 4.36646C137.79 4.36312 137.776 4.33977 137.78 4.31976L137.95 3.56593C137.953 3.54592 137.977 3.53258 137.997 3.53591L138.764 3.70936C138.784 3.71269 138.797 3.73604 138.794 3.75606L138.624 4.50988C138.62 4.5299 138.597 4.54324 138.577 4.5399L137.81 4.36646Z" fill="#5E5E5D"/>
<path d="M139.334 3.70934L140.101 3.88279C140.188 3.9028 140.245 3.98952 140.225 4.07958L140.055 4.83341C140.035 4.92014 139.948 4.97684 139.858 4.95683L139.091 4.78338C139.004 4.76337 138.947 4.67664 138.967 4.58658L139.137 3.83276C139.161 3.74603 139.247 3.69266 139.334 3.70934Z" fill="#585857"/>
<path d="M139.121 4.66358C139.101 4.66024 139.088 4.63689 139.091 4.61688L139.261 3.86305C139.264 3.84304 139.288 3.82969 139.308 3.83303L140.075 4.00648C140.095 4.00981 140.108 4.03316 140.105 4.05317L139.935 4.807C139.931 4.82702 139.908 4.84036 139.888 4.83702L139.121 4.66358Z" fill="#5E5E5D"/>
<path d="M140.645 4.00635L141.412 4.17979C141.499 4.19981 141.555 4.28653 141.535 4.37659L141.365 5.13042C141.345 5.21714 141.258 5.27384 141.168 5.25383L140.401 5.08038C140.315 5.06037 140.258 4.97365 140.278 4.88359L140.448 4.12976C140.471 4.04304 140.558 3.98633 140.645 4.00635Z" fill="#585857"/>
<path d="M140.431 4.95691C140.411 4.95357 140.398 4.93023 140.401 4.91021L140.572 4.15638C140.575 4.13637 140.598 4.12303 140.618 4.12637L141.385 4.29981C141.405 4.30315 141.419 4.3265 141.415 4.34651L141.245 5.10034C141.242 5.12035 141.219 5.13369 141.199 5.13036L140.431 4.95691Z" fill="#5E5E5D"/>
<path d="M141.959 4.2998L142.726 4.47325C142.813 4.49326 142.87 4.57999 142.85 4.67005L142.68 5.42388C142.66 5.5106 142.573 5.5673 142.483 5.54729L141.716 5.37384C141.629 5.35383 141.572 5.2671 141.592 5.17705L141.763 4.42322C141.783 4.33649 141.869 4.27979 141.959 4.2998Z" fill="#585857"/>
<path d="M141.743 5.25037C141.722 5.24703 141.709 5.22368 141.712 5.20367L141.883 4.44984C141.886 4.42983 141.909 4.41649 141.929 4.41982L142.696 4.59327C142.716 4.59661 142.73 4.61995 142.726 4.63997L142.556 5.3938C142.553 5.41381 142.53 5.42715 142.51 5.42382L141.743 5.25037Z" fill="#5E5E5D"/>
<path d="M143.27 4.59684L144.037 4.77029C144.124 4.7903 144.181 4.87703 144.161 4.96709L143.99 5.72091C143.97 5.80764 143.884 5.86434 143.794 5.84433L143.026 5.67088C142.94 5.65087 142.883 5.56414 142.903 5.47409L143.073 4.72026C143.093 4.6302 143.18 4.57683 143.27 4.59684Z" fill="#585857"/>
<path d="M143.057 5.54724C143.037 5.54391 143.023 5.52056 143.027 5.50055L143.197 4.74672C143.2 4.7267 143.223 4.71336 143.243 4.7167L144.011 4.89014C144.031 4.89348 144.044 4.91683 144.041 4.93684L143.871 5.69067C143.867 5.71068 143.844 5.72403 143.824 5.72069L143.057 5.54724Z" fill="#5E5E5D"/>
<path d="M144.581 4.89026L145.348 5.0637C145.435 5.08372 145.492 5.17044 145.472 5.2605L145.301 6.01433C145.281 6.10105 145.195 6.15776 145.105 6.13774L144.337 5.9643C144.251 5.94428 144.194 5.85756 144.214 5.7675L144.384 5.01367C144.404 4.92695 144.491 4.87024 144.581 4.89026Z" fill="#585857"/>
<path d="M144.367 5.84082C144.347 5.83749 144.334 5.81414 144.337 5.79413L144.507 5.0403C144.511 5.02028 144.534 5.00694 144.554 5.01028L145.321 5.18372C145.341 5.18706 145.355 5.21041 145.351 5.23042L145.181 5.98425C145.178 6.00426 145.154 6.01761 145.134 6.01427L144.367 5.84082Z" fill="#5E5E5D"/>
<path d="M145.892 5.18359L146.659 5.35703C146.746 5.37705 146.803 5.46377 146.783 5.55383L146.613 6.30766C146.593 6.39438 146.506 6.45109 146.416 6.43107L145.649 6.25762C145.562 6.23761 145.505 6.15089 145.525 6.06083L145.695 5.307C145.715 5.22028 145.802 5.16691 145.892 5.18359Z" fill="#585857"/>
<path d="M145.678 6.1377C145.658 6.13436 145.645 6.11101 145.648 6.091L145.818 5.33717C145.822 5.31716 145.845 5.30382 145.865 5.30715L146.632 5.4806C146.652 5.48393 146.666 5.50728 146.662 5.5273L146.492 6.28113C146.489 6.30114 146.465 6.31448 146.445 6.31115L145.678 6.1377Z" fill="#5E5E5D"/>
<path d="M147.203 5.48051L147.97 5.65396C148.057 5.67397 148.113 5.76069 148.093 5.85075L147.923 6.60458C147.903 6.69131 147.816 6.74801 147.726 6.728L146.959 6.55455C146.872 6.53454 146.816 6.44781 146.836 6.35775L147.006 5.60392C147.026 5.51387 147.116 5.4605 147.203 5.48051Z" fill="#585857"/>
<path d="M146.989 6.43115C146.969 6.42782 146.956 6.40447 146.959 6.38446L147.129 5.63063C147.133 5.61062 147.156 5.59727 147.176 5.60061L147.943 5.77406C147.963 5.77739 147.977 5.80074 147.973 5.82075L147.803 6.57458C147.8 6.59459 147.777 6.60794 147.757 6.6046L146.989 6.43115Z" fill="#5E5E5D"/>
<path d="M148.513 5.77417L149.28 5.94762C149.367 5.96763 149.424 6.05435 149.404 6.14441L149.234 6.89824C149.214 6.98496 149.127 7.04167 149.037 7.02165L148.27 6.84821C148.183 6.82819 148.126 6.74147 148.146 6.65141L148.316 5.89758C148.336 5.81086 148.427 5.75415 148.513 5.77417Z" fill="#585857"/>
<path d="M148.3 6.72473C148.28 6.7214 148.267 6.69805 148.27 6.67804L148.44 5.92421C148.443 5.90419 148.467 5.89085 148.487 5.89419L149.254 6.06764C149.274 6.07097 149.287 6.09432 149.284 6.11433L149.111 6.86816C149.107 6.88817 149.084 6.90152 149.064 6.89818L148.3 6.72473Z" fill="#5E5E5D"/>
<path d="M149.824 6.07096L150.591 6.24441C150.678 6.26442 150.735 6.35115 150.715 6.44121L150.545 7.19504C150.525 7.28176 150.438 7.33846 150.348 7.31845L149.581 7.145C149.494 7.12499 149.437 7.03827 149.457 6.94821L149.628 6.19438C149.651 6.10432 149.738 6.05095 149.824 6.07096Z" fill="#585857"/>
<path d="M149.611 7.02161C149.591 7.01827 149.577 6.99826 149.581 6.97491L149.751 6.22108C149.754 6.20107 149.777 6.18773 149.797 6.19106L150.565 6.36451C150.585 6.36785 150.598 6.39119 150.595 6.41121L150.424 7.16504C150.421 7.18505 150.398 7.19839 150.378 7.19506L149.611 7.02161Z" fill="#5E5E5D"/>
<path d="M151.135 6.3645L151.903 6.53795C151.989 6.55796 152.046 6.64468 152.026 6.73474L151.856 7.48857C151.836 7.57529 151.749 7.632 151.659 7.61199L150.892 7.43854C150.805 7.41852 150.748 7.3318 150.768 7.24174L150.939 6.48791C150.962 6.40119 151.049 6.34449 151.135 6.3645Z" fill="#585857"/>
<path d="M150.922 7.31506C150.902 7.31173 150.888 7.28838 150.892 7.26837L151.062 6.51454C151.065 6.49453 151.088 6.48118 151.108 6.48452L151.876 6.65797C151.896 6.6613 151.909 6.68465 151.906 6.70466L151.736 7.45849C151.732 7.47851 151.709 7.49185 151.689 7.48851L150.922 7.31506Z" fill="#5E5E5D"/>
<path d="M152.446 6.65808L153.213 6.83153C153.3 6.85154 153.357 6.93826 153.337 7.02832L153.166 7.78215C153.146 7.86888 153.06 7.92558 152.97 7.90557L152.202 7.73212C152.116 7.7121 152.059 7.62538 152.079 7.53532L152.249 6.78149C152.272 6.69477 152.359 6.63807 152.446 6.65808Z" fill="#585857"/>
<path d="M152.233 7.61194C152.213 7.6086 152.199 7.58526 152.203 7.56524L152.373 6.81141C152.376 6.7914 152.399 6.77806 152.419 6.78139L153.187 6.95484C153.207 6.95818 153.22 6.98153 153.217 7.00154L153.047 7.75203C153.043 7.77205 153.02 7.78539 153 7.78205L152.233 7.61194Z" fill="#5E5E5D"/>
<path d="M153.76 6.95488L154.527 7.12832C154.614 7.14834 154.671 7.23506 154.651 7.32512L154.481 8.07895C154.461 8.16567 154.374 8.22237 154.284 8.20236L153.517 8.02891C153.43 8.0089 153.373 7.92218 153.393 7.83212L153.563 7.07829C153.583 6.98823 153.67 6.93486 153.76 6.95488Z" fill="#585857"/>
<path d="M153.543 7.90552C153.523 7.90218 153.51 7.87884 153.513 7.85882L153.683 7.10499C153.687 7.08498 153.71 7.07164 153.73 7.07497L154.497 7.24842C154.517 7.25176 154.531 7.27511 154.527 7.29512L154.357 8.04895C154.354 8.06896 154.33 8.0823 154.31 8.07897L153.543 7.90552Z" fill="#5E5E5D"/>
<path d="M137.75 4.63684L138.517 4.81029C138.603 4.8303 138.66 4.91702 138.64 5.00708L138.47 5.76091C138.45 5.84763 138.363 5.90434 138.273 5.88432L137.506 5.71088C137.419 5.69086 137.363 5.60414 137.383 5.51408L137.553 4.76025C137.573 4.67353 137.663 4.61683 137.75 4.63684Z" fill="#585857"/>
<path d="M137.536 5.5874C137.516 5.58407 137.503 5.56072 137.506 5.54071L137.676 4.78688C137.68 4.76687 137.703 4.75352 137.723 4.75686L138.49 4.93031C138.51 4.93364 138.524 4.95699 138.52 4.977L138.35 5.73083C138.347 5.75084 138.324 5.76419 138.303 5.76085L137.536 5.5874Z" fill="#5E5E5D"/>
<path d="M139.061 4.9303L139.828 5.10374C139.915 5.12375 139.971 5.21048 139.951 5.30054L139.781 6.05437C139.761 6.14109 139.674 6.19779 139.584 6.17778L138.817 6.00433C138.73 5.98432 138.674 5.8976 138.694 5.80754L138.864 5.05371C138.884 4.96699 138.974 4.91028 139.061 4.9303Z" fill="#585857"/>
<path d="M138.847 5.88098C138.827 5.87765 138.814 5.8543 138.817 5.83429L138.987 5.08046C138.991 5.06044 139.014 5.0471 139.034 5.05044L139.801 5.22389C139.821 5.22722 139.835 5.25057 139.831 5.27058L139.661 6.02441C139.658 6.04442 139.635 6.05777 139.615 6.05443L138.847 5.88098Z" fill="#5E5E5D"/>
<path d="M140.372 5.22721L141.139 5.40066C141.226 5.42067 141.282 5.5074 141.262 5.59746L141.092 6.35129C141.072 6.43801 140.985 6.49471 140.895 6.4747L140.128 6.30125C140.042 6.28124 139.985 6.19452 140.005 6.10446L140.178 5.35063C140.198 5.26057 140.285 5.2072 140.372 5.22721Z" fill="#585857"/>
<path d="M140.158 6.17761C140.138 6.17428 140.125 6.15093 140.128 6.13092L140.298 5.37709C140.301 5.35708 140.325 5.34373 140.345 5.34707L141.112 5.52051C141.132 5.52385 141.145 5.5472 141.142 5.56721L140.972 6.32104C140.969 6.34105 140.945 6.3544 140.925 6.35106L140.158 6.17761Z" fill="#5E5E5D"/>
<path d="M141.682 5.52075L142.45 5.6942C142.536 5.71421 142.593 5.80093 142.573 5.89099L142.403 6.64482C142.383 6.73155 142.296 6.78825 142.206 6.76824L141.439 6.59479C141.352 6.57478 141.295 6.48805 141.315 6.39799L141.486 5.64416C141.509 5.55744 141.596 5.50074 141.682 5.52075Z" fill="#585857"/>
<path d="M141.469 6.47132C141.449 6.46798 141.436 6.44463 141.439 6.42462L141.609 5.67079C141.612 5.65078 141.636 5.63743 141.656 5.64077L142.423 5.81422C142.443 5.81755 142.456 5.8409 142.453 5.86091L142.283 6.61474C142.28 6.63476 142.256 6.6481 142.236 6.64476L141.469 6.47132Z" fill="#5E5E5D"/>
<path d="M147.693 6.87162L142.986 5.81426C142.9 5.79425 142.816 5.84762 142.796 5.93434L142.613 6.74487C142.599 6.80491 142.636 6.86495 142.696 6.87829L147.446 7.94566C147.533 7.96567 147.623 7.90897 147.643 7.82225L147.813 7.06842C147.836 6.98169 147.783 6.89163 147.693 6.87162Z" fill="#585857"/>
<path d="M142.743 6.75809L142.923 5.9609C142.926 5.94422 142.946 5.93087 142.963 5.93755L147.669 6.99491C147.689 6.99824 147.703 7.02159 147.699 7.0416L147.529 7.79543C147.526 7.81545 147.503 7.82879 147.483 7.82545L142.743 6.75809Z" fill="#5E5E5D"/>
<path d="M148.24 6.99511L149.007 7.16856C149.094 7.18858 149.151 7.2753 149.131 7.36536L148.961 8.11919C148.941 8.20591 148.854 8.26261 148.764 8.2426L147.997 8.06915C147.91 8.04914 147.853 7.96242 147.873 7.87236L148.043 7.11853C148.063 7.03181 148.15 6.9751 148.24 6.99511Z" fill="#585857"/>
<path d="M148.027 7.94568C148.006 7.94234 147.993 7.919 147.996 7.89898L148.167 7.14515C148.17 7.12514 148.193 7.1118 148.213 7.11513L148.98 7.28858C149 7.29192 149.014 7.31527 149.01 7.33528L148.84 8.08911C148.837 8.10912 148.814 8.12246 148.794 8.11913L148.027 7.94568Z" fill="#5E5E5D"/>
<path d="M149.551 7.29191L150.318 7.46536C150.405 7.48537 150.461 7.5721 150.441 7.66215L150.271 8.41598C150.251 8.50271 150.165 8.55941 150.075 8.5394L149.307 8.36595C149.221 8.34594 149.164 8.25921 149.184 8.16915L149.354 7.41533C149.374 7.32527 149.464 7.2719 149.551 7.29191Z" fill="#585857"/>
<path d="M149.338 8.24255C149.318 8.23922 149.304 8.21587 149.308 8.19586L149.478 7.44203C149.481 7.42202 149.504 7.40867 149.524 7.41201L150.292 7.58546C150.312 7.58879 150.325 7.61214 150.322 7.63215L150.151 8.38598C150.148 8.406 150.125 8.41934 150.105 8.416L149.338 8.24255Z" fill="#5E5E5D"/>
<path d="M150.861 7.58545L151.629 7.75889C151.715 7.77891 151.772 7.86563 151.752 7.95569L151.582 8.70952C151.562 8.79624 151.475 8.85295 151.385 8.83293L150.618 8.65949C150.531 8.63947 150.474 8.55275 150.495 8.46269L150.665 7.70886C150.685 7.62214 150.775 7.56543 150.861 7.58545Z" fill="#585857"/>
<path d="M150.648 8.53601C150.628 8.53268 150.615 8.50933 150.618 8.48931L150.788 7.73549C150.792 7.71547 150.815 7.70213 150.835 7.70547L151.602 7.87891C151.622 7.88225 151.635 7.9056 151.632 7.92561L151.462 8.67944C151.459 8.69945 151.439 8.71279 151.415 8.70946L150.648 8.53601Z" fill="#5E5E5D"/>
<path d="M152.173 7.87878L152.94 8.05223C153.026 8.07224 153.083 8.15896 153.063 8.24902L152.893 9.00285C152.873 9.08958 152.786 9.14628 152.696 9.12627L151.929 8.95282C151.842 8.93281 151.786 8.84608 151.806 8.75602L151.976 8.0022C151.999 7.91547 152.086 7.85877 152.173 7.87878Z" fill="#585857"/>
<path d="M151.959 8.82959C151.939 8.82626 151.925 8.80291 151.929 8.7829L152.099 8.02907C152.102 8.00905 152.126 7.99571 152.146 7.99905L152.913 8.17249C152.933 8.17583 152.946 8.19918 152.943 8.21919L152.773 8.97302C152.769 8.99303 152.746 9.00637 152.726 9.00304L151.959 8.82959Z" fill="#5E5E5D"/>
<path d="M153.484 8.17582L154.251 8.34927C154.337 8.36928 154.394 8.45601 154.374 8.54607L154.204 9.29989C154.184 9.38662 154.097 9.44332 154.007 9.42331L153.24 9.24986C153.153 9.22985 153.097 9.14312 153.117 9.05306L153.287 8.29924C153.31 8.20918 153.397 8.15581 153.484 8.17582Z" fill="#585857"/>
<path d="M153.27 9.12647C153.25 9.12313 153.237 9.09978 153.24 9.07977L153.41 8.32594C153.414 8.30593 153.437 8.29259 153.457 8.29592L154.224 8.46937C154.244 8.4727 154.258 8.49605 154.254 8.51607L154.084 9.26989C154.081 9.28991 154.057 9.30325 154.037 9.29991L153.27 9.12647Z" fill="#5E5E5D"/>
<path d="M147.456 8.99957L143.607 8.13567C143.433 8.09564 143.26 8.20571 143.223 8.37916L142.76 10.4372C142.72 10.6106 142.83 10.7841 143.003 10.8208L146.852 11.6847C147.026 11.7247 147.199 11.6146 147.236 11.4412L147.699 9.38315C147.74 9.2097 147.629 9.03959 147.456 8.99957Z" fill="#EDEDED"/>
<path d="M147.486 8.87614L143.637 8.01223C143.397 7.95887 143.156 8.10897 143.103 8.34912L142.639 10.4071C142.586 10.6473 142.736 10.8875 142.976 10.9408L146.826 11.8047C147.066 11.8581 147.306 11.708 147.359 11.4678L147.823 9.40982C147.876 9.16966 147.726 8.93284 147.486 8.87614ZM147.239 11.4412C147.199 11.6146 147.029 11.7247 146.856 11.6846L143.006 10.8207C142.833 10.7807 142.723 10.6106 142.763 10.4372L143.226 8.37914C143.267 8.2057 143.437 8.09562 143.61 8.13565L147.459 8.99955C147.633 9.03958 147.743 9.20969 147.703 9.38313L147.239 11.4412Z" fill="#9D9B9B"/>
<path d="M142.99 9.4231L142.763 10.4371C142.723 10.6105 142.833 10.784 143.007 10.8207L146.856 11.6846C147.029 11.7246 147.203 11.6145 147.239 11.4411L147.466 10.4271L142.99 9.4231Z" fill="#DFDFDE"/>
<path d="M145.211 9.92037L142.99 9.42004L142.763 10.434C142.723 10.6075 142.833 10.7809 143.007 10.8176L144.915 11.2479L145.211 9.92037Z" fill="#D9D9DA"/>
<path d="M156.692 3.0924L137.793 -1.15705C137.683 -1.18374 137.606 -1.28714 137.616 -1.40055L139.594 -12.2143C139.621 -12.5112 139.901 -12.7146 140.191 -12.6479L159.441 -8.31843C159.731 -8.25171 159.898 -7.94818 159.794 -7.668L156.956 2.94898C156.916 3.05571 156.806 3.11909 156.692 3.0924Z" fill="#E3E1E1"/>
<path d="M138.44 -2.19454L140.265 -11.3239C140.292 -11.6041 140.555 -11.7975 140.829 -11.7341L158.47 -7.76821C158.744 -7.70817 158.9 -7.41798 158.804 -7.15447L156.549 1.8748C156.469 2.09494 156.239 2.21835 156.009 2.16832L138.804 -1.70089C138.574 -1.75092 138.42 -1.96439 138.44 -2.19454Z" fill="#C7C7C6"/>
<path d="M138.567 -2.18117L140.391 -11.3172C140.411 -11.5206 140.602 -11.6607 140.802 -11.614L158.45 -7.64476C158.647 -7.6014 158.763 -7.39126 158.693 -7.20113L156.432 1.8348C156.375 1.99491 156.208 2.08497 156.042 2.04827L138.827 -1.82427C138.664 -1.86096 138.55 -2.01439 138.567 -2.18117Z" fill="#C6E6F2"/>
<path d="M153.954 2.47858L140.505 -0.546744L140.512 -0.77356L154.07 2.27511L153.954 2.47858Z" fill="#585857"/>
</g>
<path d="M29.9099 64.9767C29.013 61.1852 25.2216 58.8468 21.4505 59.7473C17.6744 60.6479 15.3455 64.4548 16.2424 68.2412C16.8743 70.902 18.9331 72.8463 21.4098 73.4552C21.5525 73.8339 21.8175 76.1313 22.2914 76.8681C22.5054 77.2007 22.7755 77.257 23.1883 77.17C23.5195 78.352 24.9056 79.4368 26.0471 79.3293C26.8472 79.2526 27.4282 78.7 27.6881 77.958C27.8919 77.3798 28.055 76.7146 28.1569 76.0699C28.7073 76.0546 28.9723 75.9983 28.9468 75.4815C28.9009 74.5861 27.9327 72.1198 27.897 71.7411C29.6551 70.0679 30.5113 67.5198 29.9099 64.9767Z" fill="#FDFFFC"/>
<path d="M26.2561 64.7209C26.1491 64.3372 25.772 64.0813 25.3745 64.1785C25.0025 64.2655 24.7222 64.68 24.8343 65.0638C24.9006 65.2991 25.0739 65.4884 25.2828 65.5754C25.1299 66.5681 24.9363 67.5454 24.8547 68.5483C24.7783 69.4795 24.7018 70.3903 24.498 71.296C23.3922 69.6331 22.2914 67.9752 21.0735 66.3941C21.4098 66.0718 21.155 65.3503 20.5894 65.4833C19.9218 65.6419 20.1664 66.6858 20.8391 66.5272C20.8442 66.5272 20.8493 66.522 20.8544 66.5169C22.1182 68.3129 23.3565 70.1345 24.3859 72.0789C24.498 72.2887 24.8038 72.2426 24.8751 72.0277C25.2114 71.0248 25.3083 70.0015 25.3796 68.9525C25.4612 67.8217 25.6803 66.7114 25.772 65.5857C26.1134 65.4731 26.3581 65.0842 26.2561 64.7209Z" fill="#AEB4FC"/>
<path d="M17.7708 58.5399C16.349 57.8337 14.9221 57.1225 13.5003 56.4113C13.2047 56.268 12.9346 56.6927 13.2302 56.8513C14.6163 57.6188 16.0075 58.3812 17.3937 59.1488C17.8013 59.3739 18.1784 58.7445 17.7708 58.5399Z" fill="#808AFF"/>
<path d="M20.4464 53.116C20.3292 52.8551 19.9929 53.0444 20.0183 53.2798C20.1916 54.7534 20.7369 56.2577 21.1649 57.6802C21.272 58.0282 21.807 57.9105 21.7204 57.5472C21.3688 56.0838 21.063 54.4924 20.4464 53.116Z" fill="#808AFF"/>
<path d="M27.0715 52.6863C26.7045 53.0087 26.4803 53.5204 26.251 53.9502C26.0115 54.4004 25.7975 54.861 25.5936 55.3266C25.4305 55.7052 26.0574 55.9048 26.2153 55.5159C26.4039 55.04 26.6077 54.5795 26.8421 54.1241C27.0409 53.7301 27.3314 53.3464 27.4486 52.9217C27.5148 52.6914 27.2396 52.5328 27.0715 52.6863Z" fill="#808AFF"/>
<defs>
<clipPath id="clip0_3_2359">
<rect width="14" height="17" fill="white" transform="translate(147.102 24.3394)"/>
</clipPath>
<clipPath id="clip1_3_2359">
<rect width="69" height="12" fill="white" transform="translate(51.1023 117.339)"/>
</clipPath>
<clipPath id="clip2_3_2359">
<rect width="32" height="26" fill="white" transform="translate(132.102 58.3394)"/>
</clipPath>
<clipPath id="clip3_3_2359">
<rect width="35" height="35" fill="white" transform="translate(34.1023 -16.6606)"/>
</clipPath>
</defs>
</svg>
