<svg width="415" height="351" viewBox="0 0 415 351" fill="none" xmlns="http://www.w3.org/2000/svg">
<path d="M109.374 103.001C94.4034 43.1804 38.473 2.18267 -23.0994 5.88784C-29.914 6.2973 -35.9134 1.44003 -36.9494 -5.30395L-41.186 -32.8258C-42.3626 -40.4609 -36.7687 -47.4458 -29.0626 -48.0319C-9.42196 -49.5252 10.1505 -47.8432 29.2932 -43.01C52.2267 -37.2174 73.562 -27.1617 92.7088 -13.1278C111.856 0.906132 127.862 18.2277 140.283 38.3513C150.651 55.151 158.132 73.3035 162.614 92.4797C164.373 100.002 159.385 107.433 151.747 108.609L124.212 112.844C117.465 113.884 111.028 109.621 109.374 103.001Z" fill="#FAF8F5"/>
<path d="M277.65 58.8936C338.66 49.7932 384.9 -1.88251 387.173 -63.5016C387.426 -70.3218 392.843 -75.8174 399.658 -76.1987L427.471 -77.7482C435.185 -78.1778 441.602 -71.9356 441.437 -64.2161C441.019 -44.5301 437.453 -25.2215 430.783 -6.64345C422.796 15.6117 410.717 35.8677 394.887 53.5586C379.057 71.2495 360.26 85.4962 339.021 95.9052C321.292 104.592 302.491 110.28 282.966 112.882C275.308 113.901 268.389 108.221 267.96 100.51L266.41 72.7067C266.036 65.8945 270.899 59.9012 277.65 58.8936Z" fill="#FAF8F5"/>
<path d="M317.528 179.206C348.969 232.251 414.281 255.56 472.226 234.412C478.638 232.072 485.774 235.009 488.696 241.178L500.62 266.343C503.925 273.322 500.564 281.615 493.349 284.379C474.952 291.422 455.717 295.407 435.992 296.243C412.36 297.245 389.042 293.709 366.68 285.73C344.319 277.751 324.032 265.725 306.383 249.991C291.649 236.854 279.287 221.6 269.515 204.502C265.684 197.797 268.338 189.25 275.319 185.94L300.492 174.013C306.663 171.091 314.051 173.336 317.528 179.206Z" fill="#FAF8F5"/>
</svg>
