<svg width="119" height="85" viewBox="0 0 119 85" fill="none" xmlns="http://www.w3.org/2000/svg">
<path d="M28.6673 77.72C28.6673 78.1248 26.2957 78.4512 23.3718 78.4512C20.4478 78.4512 18.0762 78.1248 18.0762 77.72C18.0762 77.3152 20.4478 76.9889 23.3718 76.9889C26.2957 76.9889 28.6673 77.3152 28.6673 77.72Z" fill="#FDF9E7"/>
<path d="M40.5256 84.9999C50.8902 84.9999 59.2925 83.8381 59.2925 82.4049C59.2925 80.9717 50.8902 79.8098 40.5256 79.8098C30.1609 79.8098 21.7587 80.9717 21.7587 82.4049C21.7587 83.8381 30.1609 84.9999 40.5256 84.9999Z" fill="#F05D48"/>
<path d="M89.0876 84.112C101.424 84.112 111.424 82.7295 111.424 81.0242C111.424 79.3189 101.424 77.9365 89.0876 77.9365C76.7513 77.9365 66.7508 79.3189 66.7508 81.0242C66.7508 82.7295 76.7513 84.112 89.0876 84.112Z" fill="#F05D48"/>
<path d="M60.4346 78.9091C74.191 78.9091 85.3428 77.368 85.3428 75.4668C85.3428 73.5657 74.191 72.0245 60.4346 72.0245C46.6782 72.0245 35.5265 73.5657 35.5265 75.4668C35.5265 77.368 46.6782 78.9091 60.4346 78.9091Z" fill="#F05D48"/>
<path d="M117.172 74.7076C117.172 75.5862 112.014 76.3017 105.648 76.3017C99.2852 76.3017 94.1238 75.5893 94.1238 74.7076C94.1238 73.829 99.282 73.1135 105.648 73.1135C112.011 73.1135 117.172 73.8258 117.172 74.7076Z" fill="#F05D48"/>
<path d="M17.6802 69.8878C11.748 68.526 6.1841 63.8724 3.25079 58.4376C0.320604 53.0027 -0.815272 46.4476 0.922868 40.5169C2.65789 34.5862 7.50096 29.484 13.5142 28.2006C20.8319 26.6379 28.212 30.6921 33.8009 35.6908C36.0851 37.7336 38.2383 39.9803 40.8814 41.5242C43.5276 43.0649 46.8385 43.8243 49.6594 42.6381C53.0452 41.2135 54.7834 37.5296 56.431 34.2348C60.4877 26.1201 65.8113 18.5201 72.8263 12.7997C79.8413 7.07609 88.6506 3.32941 97.6814 3.36079C103.308 3.37962 109.181 5.01448 113.1 9.07181C118.068 14.2149 118.935 22.2417 117.453 29.2549C115.971 36.2682 112.504 42.6664 109.749 49.278C106.993 55.8896 104.902 63.1664 106.378 70.1797L17.6802 69.8878Z" fill="#F05D48"/>
<path d="M55.3074 26.6315C57.0237 23.798 58.5122 20.7762 59.1706 17.5284C60.0319 13.2797 59.2955 8.79559 56.3684 5.48194C52.2431 0.815856 43.7521 -1.39638 37.9354 0.93196C35.5388 1.89216 33.4574 3.90671 32.9082 6.43901C31.9752 10.7254 35.2268 14.4344 37.2426 17.8548C38.3255 19.6936 39.1337 21.8336 39.2117 23.9894C39.2835 26.0479 38.0009 27.9495 38.313 30.0268C38.4877 31.1941 39.1867 32.239 40.0917 32.9952C42.0701 34.6489 44.8661 35.2514 47.3469 34.6144C51.1821 33.6322 53.3852 29.8071 55.3074 26.6315Z" fill="#F05D48"/>
<path d="M46.5202 13.8069H3.94044C3.8593 13.8069 3.79065 13.8728 3.79065 13.9575V47.5678C3.79065 47.6494 3.85618 47.7184 3.94044 47.7184H46.5202C46.6013 47.7184 46.6699 47.6525 46.6699 47.5678V13.9575C46.6699 13.8759 46.6013 13.8069 46.5202 13.8069ZM33.6105 30.6136H29.6443V26.7383H33.6105V30.6136ZM33.9101 26.7383H37.8763V30.6136H33.9101V26.7383ZM25.0821 30.9148V34.7902H21.1159V30.9148H25.0821ZM21.1159 30.6136V26.7383H25.0821V30.6136H21.1159ZM25.3816 30.9148H29.3478V34.7902H25.3816V30.9148ZM25.3816 30.6136V26.7383H29.3478V30.6136H25.3816ZM29.6443 26.4402V22.5648H33.6105V26.4402H29.6443ZM29.3478 26.4402H25.3816V22.5648H29.3478V26.4402ZM25.0821 26.4402H21.1159V22.5648H25.0821V26.4402ZM20.8163 26.4402H16.8501V22.5648H20.8163V26.4402ZM20.8163 26.7383V30.6136H16.8501V26.7383H20.8163ZM16.5536 30.6136H12.5874V26.7383H16.5536V30.6136ZM12.2879 30.6136H8.32167V26.7383H12.2879V30.6136ZM12.2879 30.9148V34.7902H8.32167V30.9148H12.2879ZM12.5874 30.9148H16.5536V34.7902H12.5874V30.9148ZM16.8501 30.9148H20.8163V34.7902H16.8501V30.9148ZM20.8163 35.0883V38.9636H16.8501V35.0883H20.8163ZM21.1159 35.0883H25.0821V38.9636H21.1159V35.0883ZM25.3816 35.0883H29.3478V38.9636H25.3816V35.0883ZM29.6443 35.0883H33.6105V38.9636H29.6443V35.0883ZM29.6443 34.787V30.9148H33.6105V34.7902H29.6443V34.787ZM33.9101 30.9148H37.8763V34.7902H33.9101V30.9148ZM38.1727 30.9148H42.1389V34.7902H38.1727V30.9148ZM38.1727 30.6136V26.7383H42.1389V30.6136H38.1727ZM38.1727 26.4402V22.5648H42.1389V26.4402H38.1727ZM37.8763 26.4402H33.9101V22.5648H37.8763V26.4402ZM33.9101 22.2636V18.3914H37.8763V22.2667H33.9101V22.2636ZM33.6105 22.2636H29.6443V18.3914H33.6105V22.2636ZM29.3478 22.2636H25.3816V18.3914H29.3478V22.2636ZM25.0821 22.2636H21.1159V18.3914H25.0821V22.2636ZM20.8163 22.2636H16.8501V18.3914H20.8163V22.2636ZM16.5536 22.2636H12.5874V18.3914H16.5536V22.2636ZM16.5536 22.5648V26.4402H12.5874V22.5648H16.5536ZM12.2879 26.4402H8.32167V22.5648H12.2879V26.4402ZM8.0221 26.4402H4.09022V22.5648H8.0221V26.4402ZM8.0221 26.7383V30.6136H4.09022V26.7383H8.0221ZM8.0221 30.9148V34.7902H4.09022V30.9148H8.0221ZM8.0221 35.0883V38.9636H4.09022V35.0883H8.0221ZM8.32167 35.0883H12.2879V38.9636H8.32167V35.0883ZM12.5874 35.0883H16.5536V38.9636H12.5874V35.0883ZM16.5536 39.2617V43.137H12.5874V39.2617H16.5536ZM16.8501 39.2617H20.8163V43.137H16.8501V39.2617ZM21.1159 39.2617H25.0821V43.137H21.1159V39.2617ZM25.3816 39.2617H29.3478V43.137H25.3816V39.2617ZM29.6443 39.2617H33.6105V43.137H29.6443V39.2617ZM33.9101 39.2617H37.8763V43.137H33.9101V39.2617ZM33.9101 38.9636V35.0883H37.8763V38.9636H33.9101ZM38.1727 35.0883H42.1389V38.9636H38.1727V35.0883ZM42.4385 35.0883H46.3704V38.9636H42.4385V35.0883ZM42.4385 34.787V30.9148H46.3704V34.7902H42.4385V34.787ZM42.4385 30.6136V26.7383H46.3704V30.6136H42.4385ZM42.4385 26.4402V22.5648H46.3704V26.4402H42.4385ZM42.4385 22.2636V18.3914H46.3704V22.2667H42.4385V22.2636ZM42.1389 22.2636H38.1727V18.3914H42.1389V22.2636ZM38.1727 18.0901V14.1081H42.1389V18.0901H38.1727ZM37.8763 18.0901H33.9101V14.1081H37.8763V18.0901ZM33.6105 18.0901H29.6443V14.1081H33.6105V18.0901ZM29.3478 18.0901H25.3816V14.1081H29.3478V18.0901ZM25.0821 18.0901H21.1159V14.1081H25.0821V18.0901ZM20.8163 18.0901H16.8501V14.1081H20.8163V18.0901ZM16.5536 18.0901H12.5874V14.1081H16.5536V18.0901ZM12.2879 18.0901H8.32167V14.1081H12.2879V18.0901ZM12.2879 18.3914V22.2667H8.32167V18.3914H12.2879ZM8.0221 22.2636H4.09022V18.3914H8.0221V22.2636ZM4.09022 39.2617H8.0221V43.137H4.09022V39.2617ZM8.32167 39.2617H12.2879V43.137H8.32167V39.2617ZM12.2879 43.4383V47.4203H8.32167V43.4383H12.2879ZM12.5874 43.4383H16.5536V47.4203H12.5874V43.4383ZM16.8501 43.4383H20.8163V47.4203H16.8501V43.4383ZM21.1159 43.4383H25.0821V47.4203H21.1159V43.4383ZM25.3816 43.4383H29.3478V47.4203H25.3816V43.4383ZM29.6443 43.4383H33.6105V47.4203H29.6443V43.4383ZM33.9101 43.4383H37.8763V47.4203H33.9101V43.4383ZM38.1727 43.4383H42.1389V47.4203H38.1727V43.4383ZM38.1727 43.137V39.2617H42.1389V43.137H38.1727ZM42.4385 39.2617H46.3704V43.137H42.4385V39.2617ZM46.3704 18.0901H42.4385V14.1081H46.3704V18.0901ZM8.0221 14.1081V18.0901H4.09022V14.1081H8.0221ZM4.09022 43.4383H8.0221V47.4203H4.09022V43.4383ZM42.4385 47.4203V43.4383H46.3704V47.4203H42.4385Z" fill="#E7DFC2"/>
<path d="M21.3529 23.4183C21.3529 23.4183 22.3047 31.9629 27.026 33.4503L35.7136 30.9996C35.7136 30.9996 30.5273 28.599 29.9968 23.4183H21.3529Z" fill="#FEDEA6"/>
<path d="M16.8503 31.3167C16.8503 31.3167 16.1263 41.0442 12.5314 42.7355L5.91589 39.9459C5.91589 39.9459 9.86649 37.2159 10.269 31.3167H16.8503Z" fill="#F7F4E3"/>
<path d="M39.1908 16.6177L33.4048 18.3094L35.407 25.2334L41.1929 23.5416L39.1908 16.6177Z" fill="#F7F4E3"/>
<path d="M38.89 17.3037L34.0269 18.7256L35.3199 23.1969L40.1829 21.775L38.89 17.3037Z" fill="#FDFDFD"/>
<path d="M22.7492 37.6213L18.2982 36.3947L16.8475 41.7178L21.2984 42.9444L22.7492 37.6213Z" fill="#D2CDB8"/>
<path d="M22.2812 37.9474L18.5405 36.9165L17.6027 40.3573L21.3435 41.3882L22.2812 37.9474Z" fill="#E7DFC2"/>
<path d="M92.6137 34.9344C91.9802 34.9344 91.3436 34.9313 90.7101 34.9313C90.3981 34.9313 90.0985 35.2074 90.1141 35.5306C90.1297 35.857 90.3762 36.13 90.7101 36.13C91.3436 36.13 91.9802 36.1331 92.6137 36.1331C92.9257 36.1331 93.2253 35.857 93.2097 35.5338C93.1941 35.2105 92.9476 34.9376 92.6137 34.9344Z" fill="#CCC6AD"/>
<path d="M111.246 50.8595C105.405 45.638 99.5629 40.4196 93.7213 35.1981C92.8631 34.4325 91.5931 35.7002 92.4575 36.469L109.982 52.1304C110.837 52.8991 112.107 51.6314 111.246 50.8595Z" fill="#CCC6AD"/>
<path d="M113.874 73.0163H112.189C110.644 72.5707 108.179 72.2852 105.399 72.2852C102.618 72.2852 100.156 72.5738 98.6083 73.0163H96.9232C96.8451 73.4713 96.9232 74.1083 96.9232 74.1083C96.9232 75.1156 100.718 75.9314 105.395 75.9314C110.076 75.9314 113.868 75.1156 113.868 74.1083C114.027 73.4336 113.874 73.0163 113.874 73.0163Z" fill="#CCC6AD"/>
<path d="M113.874 73.0165C113.874 74.0238 110.083 74.8427 105.405 74.8427C100.724 74.8427 96.9327 74.0238 96.9327 73.0165C96.9327 72.0124 100.727 71.1934 105.405 71.1934C105.745 71.1934 106.079 71.1965 106.407 71.2059C106.709 71.2153 107.006 71.2247 107.299 71.2404C111.066 71.4224 113.874 72.1536 113.874 73.0165Z" fill="#E7DFC2"/>
<path d="M107.299 71.2372L106.422 72.7559L106.406 72.781V71.2058C106.706 71.2152 107.006 71.2215 107.299 71.2372Z" fill="#E7DFC2"/>
<path d="M109.973 51.2612L104.681 72.3009C104.397 73.4243 106.123 73.9044 106.407 72.7779C108.17 65.7647 109.936 58.7514 111.699 51.7382C111.983 50.6148 110.257 50.1378 109.973 51.2612Z" fill="#E7DFC2"/>
<path d="M111.639 50.4641C105.798 45.2426 99.9561 40.0242 94.1145 34.8027C93.2563 34.0371 91.9863 35.3048 92.8506 36.0767L110.376 51.7381C111.231 52.5037 112.501 51.236 111.639 50.4641Z" fill="#E7DFC2"/>
<path d="M76.0193 34.9314C76.0193 34.9314 81.1308 26.5626 87.7463 30.5509C94.3619 34.5392 89.4314 43.0147 89.4314 43.0147L76.0193 34.9314Z" fill="#E7DFC2"/>
<path d="M89.4307 43.018C89.0625 43.6361 86.7189 42.9301 83.8387 41.4176C83.2177 41.0913 82.5717 40.7273 81.9164 40.3319C81.2611 39.9365 80.637 39.5349 80.0597 39.1395C77.376 37.2975 75.6535 35.5528 76.0217 34.9347C76.365 34.3604 78.4214 34.9315 81.0333 36.2369C81.8259 36.6323 82.6747 37.0967 83.5391 37.6207C84.4035 38.1416 85.2086 38.6719 85.9326 39.1928C88.2979 40.8873 89.7708 42.4406 89.4307 43.018Z" fill="#C1B894"/>
<path d="M85.9261 39.1865C85.6858 40.2565 84.8807 41.1132 83.8385 41.4144C83.5732 41.4929 83.2893 41.5337 82.9959 41.5337C81.548 41.5337 80.3403 40.5044 80.0564 39.1332C80.0158 38.9323 79.994 38.7221 79.994 38.5087C79.994 37.5956 80.3934 36.7829 81.03 36.2306C81.8226 36.626 82.6714 37.0904 83.5358 37.6144C84.397 38.1384 85.2021 38.6688 85.9261 39.1865Z" fill="#FAC978"/>
<path d="M93.1253 33.9836C91.2061 33.9836 91.203 36.9835 93.1253 36.9835C95.0444 36.9835 95.0475 33.9836 93.1253 33.9836Z" fill="#E7DFC2"/>
<path d="M93.1253 34.8654C92.3358 34.8654 92.3327 36.1017 93.1253 36.1017C93.9179 36.1017 93.9179 34.8654 93.1253 34.8654Z" fill="#E7DFC2"/>
<path d="M110.673 49.4725C108.204 49.4725 108.201 53.329 110.673 53.329C113.141 53.329 113.144 49.4725 110.673 49.4725Z" fill="#E7DFC2"/>
<path d="M110.672 50.621C109.673 50.621 109.67 52.1837 110.672 52.1837C111.671 52.1837 111.674 50.621 110.672 50.621Z" fill="#E7DFC2"/>
<path d="M28.6614 68.9309H18.0828C18.0828 68.9309 17.7957 75.2883 20.9693 77.5414C21.2314 77.7265 21.5591 77.8238 21.893 77.8238H23.3721H24.8512C25.1851 77.8238 25.5128 77.7265 25.7749 77.5414C28.9485 75.2915 28.6614 68.9309 28.6614 68.9309Z" fill="#536969"/>
<path d="M28.6676 68.9338C28.6676 69.1221 26.9388 69.2853 24.6109 69.3261C24.2146 69.3355 23.7964 69.3386 23.3689 69.3386C23.0038 69.3386 22.6512 69.3355 22.3048 69.3292C19.8926 69.2947 18.0765 69.1284 18.0765 68.9338C18.0765 68.755 19.6149 68.6012 21.74 68.5479C22.2518 68.5353 22.801 68.5291 23.372 68.5291C23.8214 68.5291 24.2583 68.5322 24.6733 68.5416C26.9669 68.5855 28.6676 68.7456 28.6676 68.9338Z" fill="#405050"/>
<path d="M30.178 70.7947C29.6163 70.1138 28.7052 69.9914 27.8782 70.0197C27.1137 70.0448 27.1106 71.2435 27.8782 71.2184C28.4805 71.1995 29.1264 71.2152 29.4354 71.8177C29.7224 72.37 29.6725 73.0886 29.3917 73.6346C28.7208 74.9525 27.1886 75.3165 25.828 75.1313C25.5097 75.0874 25.232 75.4389 25.232 75.7307C25.232 76.0916 25.5066 76.2861 25.828 76.33C27.2947 76.5277 28.908 76.1229 29.9128 74.9713C30.9051 73.8323 31.1891 72.0217 30.178 70.7947Z" fill="#536969"/>
<path opacity="0.5" d="M26.3553 65.3473C25.5533 66.1569 24.6889 67.0826 24.664 68.2279C24.6608 68.3566 24.6702 68.4852 24.6765 68.617C24.6921 68.89 24.7077 69.163 24.6172 69.4015C24.2209 69.4109 23.8027 69.414 23.3752 69.414C23.0101 69.414 22.6575 69.4109 22.3111 69.4046C22.0833 69.1944 21.8898 68.9182 21.7431 68.6233C21.5902 68.3409 21.4779 68.0428 21.4092 67.776C21.2782 67.2708 21.2688 66.7311 21.3999 66.2259C21.74 64.9048 22.9258 63.8254 22.9009 62.4635C22.8853 61.5818 22.3548 60.7973 21.765 60.1478C21.1721 59.5013 20.4887 58.9208 20.0456 58.1615C19.2873 56.8686 19.3747 55.1145 20.2952 53.9347C21.2127 52.7548 22.9258 52.2559 24.3113 52.8019C25.7 53.351 26.6237 54.9263 26.3803 56.4042C26.2211 57.3676 25.6313 58.3529 26.0058 59.2566C26.2118 59.7492 26.6611 60.085 27.0387 60.4647C27.563 60.9981 27.9686 61.6979 27.9842 62.4478C28.0092 63.5901 27.1573 64.5377 26.3553 65.3473Z" fill="#54C1BB"/>
<path d="M33.9444 70.3208C33.9444 70.3208 27.2134 43.4978 30.2309 40.2564C33.2485 37.0149 58.3376 35.515 61.0868 38.0253C63.836 40.5356 63.6144 70.2863 63.6144 70.2863L33.9444 70.3208Z" fill="#54C1BB"/>
<path d="M61.0898 38.0253C61.0055 37.95 60.8994 37.8747 60.7746 37.8056C52.449 37.2879 37.5703 38.7407 35.2892 41.1915C32.6118 44.0721 37.6171 65.5417 38.7717 70.3145L63.6143 70.2863C63.6143 70.2863 63.8389 40.5356 61.0898 38.0253Z" fill="#8DD1CD"/>
<path d="M68.6884 47.9944C68.6884 47.9944 73.8653 63.6338 75.2571 64.0229C76.6489 64.412 90.9097 67.1137 90.9097 67.1137L90.2138 70.6125C90.2138 70.6125 72.8387 71.1585 68.6884 68.2026C64.5349 65.2467 68.6884 47.9944 68.6884 47.9944Z" fill="#DDBB8F"/>
<path d="M68.6884 47.9944C68.6884 47.9944 64.5349 65.2467 68.6884 68.2026C70.2799 69.3354 73.8092 69.9536 77.5601 70.2862L78.5649 65.2467L78.4213 65.1588L78.3152 64.6724C76.7706 64.3618 75.6097 64.117 75.2602 64.0197C73.8654 63.6338 68.6884 47.9944 68.6884 47.9944Z" fill="#405050"/>
<path d="M80.0409 65.0177C79.37 65.73 78.9175 66.6149 78.6648 67.5406C78.412 68.4663 78.3496 69.4296 78.3964 70.3836C78.4027 70.4871 78.2966 70.6001 78.1905 70.6252C78.0844 70.6503 77.972 70.6283 77.8628 70.6126C77.7536 70.5969 77.635 70.5907 77.5414 70.6472C77.4478 70.7036 77.3947 70.8135 77.2949 70.8543C77.1669 70.9045 77.0296 70.8323 76.9017 70.7852C76.624 70.6817 76.315 70.7036 76.0186 70.6817C75.7221 70.6628 75.3976 70.5844 75.226 70.3522C75.1011 70.1859 75.0824 69.9694 75.0668 69.7654C74.995 68.8177 74.9326 67.8136 75.3789 66.9632C75.6628 66.4235 76.1309 65.9811 76.3743 65.4257C76.4929 65.1558 76.5522 64.864 76.7145 64.6161C76.8736 64.3682 77.1763 64.1673 77.4759 64.2332C77.7255 64.2897 77.9003 64.5125 78.1437 64.5816C78.3652 64.6412 78.5961 64.5659 78.8239 64.5408C79.3045 64.4874 79.7351 64.6537 80.0409 65.0177Z" fill="#536969"/>
<path d="M42.8781 70.3205H69.203C68.4665 65.1806 67.7831 59.4916 67.8611 56.5419C67.9267 54.1257 68.685 48.0319 68.685 48.0319C68.3947 47.6867 61.8947 42.6252 56.6022 42.7821C47.6244 43.052 43.0622 49.4283 43.0622 49.4283C43.0622 49.4283 43.3649 54.1571 43.5865 56.6141C43.8517 59.5386 43.3618 65.1994 42.8781 70.3205Z" fill="#F7F4E3"/>
<path d="M67.858 57.0973C67.858 56.8902 67.858 56.6926 67.8643 56.5043C67.9267 54.1822 68.6288 48.4743 68.685 48.0256C68.4104 47.7118 63.7327 44.0624 59.1049 43.0426L59.1455 47.5079C59.1455 47.5079 60.868 58.1329 61.6294 70.2829H69.1998C68.5102 65.4599 67.8674 60.16 67.858 57.0973Z" fill="#405050"/>
<path d="M59.7105 42.4025L63.867 47.3761L60.7839 46.4441L59.1425 47.5079L57.2733 42.8135L59.7105 42.4025Z" fill="#536969"/>
<path d="M42.8781 70.2862H54.9359C53.7001 59.4165 53.2976 49.1084 53.2976 49.1084L51.9433 43.4852C46.0517 45.2236 43.0622 49.3939 43.0622 49.3939C43.0622 49.3939 43.3649 54.1228 43.5865 56.5798C43.8517 59.5043 43.3618 65.162 42.8781 70.2862Z" fill="#405050"/>
<path d="M67.6492 31.1688C69.6994 29.7316 71.2066 27.3907 71.7558 24.7831C71.9305 23.9579 72.0117 23.0949 71.8494 22.2634C71.6903 21.4318 71.2627 20.6348 70.6012 20.1923C69.9396 19.7499 69.0284 19.7279 68.4262 20.2488C68.0143 19.524 67.1343 19.1976 66.3729 19.3357C65.6114 19.4738 64.9374 19.9413 64.3039 20.4214C61.8106 19.32 58.8056 19.957 56.8615 21.9559C55.2107 22.2414 53.7253 23.5217 53.0606 25.2005C52.396 26.8793 52.3866 28.8122 52.7611 30.6071C53.0294 31.8874 53.5162 33.1708 54.4212 34.0337C55.5103 35.0692 57.0362 35.3422 58.4685 35.3203C61.8075 35.2669 64.8469 33.1331 67.6492 31.1688Z" fill="#405050"/>
<path d="M54.5805 29.1072C53.972 34.9845 52.4554 45.3867 52.4554 45.3867C53.7785 47.7402 58.7682 47.4421 58.6528 46.6545C58.5872 46.2089 58.6933 45.4338 58.9523 44.7372C59.1521 44.1975 59.4454 43.7017 59.8199 43.4381C59.9759 43.3283 60.2536 43.2938 60.6125 43.2906C60.6718 43.2938 60.703 43.2906 60.703 43.2906C62.3537 43.3032 65.5523 43.937 66.9472 41.9288C68.6822 39.431 68.8725 32.4773 68.6853 29.126C68.5761 27.2088 66.9378 24.5196 63.6394 23.9359C59.6077 23.2205 55.1921 23.1922 54.5805 29.1072Z" fill="#FDBCA0"/>
<path d="M55.1544 41.6526C55.1544 41.6526 56.4026 43.4632 58.952 44.734C59.1518 44.1943 59.4451 43.6985 59.8196 43.4349C59.9756 43.3251 60.2533 43.2906 60.6122 43.2874C60.1191 43.2749 57.6664 43.1243 55.1544 41.6526Z" fill="#F0A38B"/>
<path d="M64.6096 35.6844C64.8343 35.6812 65.0684 35.6875 65.2556 35.8287C65.4023 35.9385 65.4709 36.1205 65.4584 36.3025C65.4241 36.7167 65.0528 36.949 64.6845 37.0368C64.566 37.0651 64.5098 36.8831 64.6284 36.8548C64.9092 36.7889 65.2244 36.6352 65.2681 36.3151C65.2868 36.1864 65.2431 36.0546 65.137 35.9762C64.9904 35.8695 64.7938 35.8758 64.619 35.8758C64.4942 35.8789 64.4879 35.6875 64.6096 35.6844Z" fill="#3F4553"/>
<path d="M62.2632 33.4C62.2507 33.7515 62.4723 34.0433 62.7594 34.0527C63.0465 34.0621 63.2867 33.786 63.2992 33.4345C63.3117 33.0831 63.0901 32.7913 62.8031 32.7818C62.516 32.7724 62.2757 33.0486 62.2632 33.4Z" fill="#3F4553"/>
<path d="M65.7207 33.7357C65.7082 34.0872 65.9297 34.379 66.2168 34.3884C66.5039 34.3978 66.7442 34.1217 66.7567 33.7702C66.7692 33.4188 66.5476 33.127 66.2605 33.1175C65.9765 33.1081 65.7331 33.3843 65.7207 33.7357Z" fill="#3F4553"/>
<path d="M61.3797 30.4252C61.9976 30.0392 62.7809 29.9639 63.4549 30.262C63.5485 30.3028 63.6047 30.4095 63.5672 30.5099C63.5329 30.6041 63.4174 30.6637 63.3207 30.6229C62.7809 30.3844 62.1255 30.4095 61.62 30.7264C61.5326 30.7798 61.4234 30.7861 61.3516 30.6982C61.2924 30.6229 61.2924 30.4817 61.3797 30.4252Z" fill="#3F4553"/>
<path d="M67.9612 31.0433C67.4681 30.5036 66.7348 30.2212 66.0077 30.3247C65.9047 30.3404 65.8267 30.4252 65.8361 30.5318C65.8455 30.6323 65.9391 30.7201 66.042 30.7044C66.6256 30.6197 67.2497 30.8237 67.6523 31.263C67.7209 31.3383 67.827 31.3728 67.9175 31.3069C67.9924 31.2567 68.0298 31.1218 67.9612 31.0433Z" fill="#3F4553"/>
<path d="M60.6405 34.787C60.6186 35.0569 61.0118 35.3111 61.5173 35.355C62.026 35.3989 62.4566 35.2169 62.4784 34.9471C62.5003 34.6772 62.1071 34.423 61.6016 34.3791C61.0929 34.3352 60.6623 34.5172 60.6405 34.787Z" fill="#FBAD8B"/>
<path d="M66.2417 35.2858C66.2198 35.5557 66.613 35.8098 67.1185 35.8538C67.6272 35.8977 68.0578 35.7157 68.0797 35.4458C68.1015 35.176 67.7083 34.9218 67.2028 34.8779C66.6941 34.8339 66.2635 35.0159 66.2417 35.2858Z" fill="#FBAD8B"/>
<path d="M65.5613 38.9226C65.5021 39.2552 65.3179 39.5565 65.0652 39.7793C65.0184 39.8232 64.9747 39.8577 64.9248 39.8922C64.6033 40.1244 64.2039 40.2374 63.8076 40.25C63.2272 40.2719 62.6343 40.0711 62.2161 39.6663C62.0539 39.5094 61.9197 39.3243 61.8261 39.1203C61.67 38.7971 61.6076 38.43 61.67 38.0785C61.7044 37.8808 61.8011 37.6706 61.9883 37.6204C62.11 37.589 62.2286 37.6298 62.3409 37.6957C62.4002 37.7302 62.4564 37.771 62.5095 37.8087C62.9432 38.1319 63.4113 38.4268 63.9355 38.5524C64.3038 38.6402 64.7063 38.6339 65.0621 38.499C65.1806 38.4519 65.3585 38.295 65.4896 38.3766C65.4927 38.3798 65.4927 38.3798 65.4958 38.3798C65.6331 38.4865 65.5894 38.7814 65.5613 38.9226Z" fill="#4E5567"/>
<path d="M65.4862 38.3828C65.4612 38.4738 65.4144 38.5648 65.3551 38.6401C65.2241 38.8033 65.0275 38.91 64.8278 38.9759C64.1537 39.1987 63.3892 39.023 62.8057 38.6182C62.6184 38.4864 62.4406 38.3263 62.3563 38.1098C62.3064 37.9812 62.297 37.8337 62.3376 37.7019C62.3969 37.7364 62.453 37.7772 62.5061 37.8149C62.9398 38.1381 63.4079 38.433 63.9322 38.5586C64.3004 38.6464 64.703 38.6401 65.0587 38.5052C65.1773 38.4581 65.3551 38.3012 65.4862 38.3828Z" fill="white"/>
<path d="M65.0655 39.7826C65.0187 39.8265 64.975 39.861 64.925 39.8955C64.6036 40.1278 64.2042 40.2407 63.8079 40.2533C63.2275 40.2752 62.6346 40.0744 62.2164 39.6696C62.0542 39.5127 61.92 39.3276 61.8264 39.1236C62.2757 39.0765 62.7344 39.0703 63.1869 39.1048C63.7268 39.1456 64.276 39.2491 64.7378 39.5284C64.8502 39.6037 64.9625 39.6853 65.0655 39.7826Z" fill="#3F4553"/>
<path d="M65.4303 27.8268C64.0136 28.1186 62.4502 27.4942 61.6201 26.3017C61.5171 26.6626 61.2176 26.9607 60.8556 27.0643C60.4967 27.1678 60.0848 27.0705 59.8071 26.8164C59.7509 27.9774 59.4482 29.1478 58.7835 30.0955C58.1189 31.0463 57.0641 31.7523 55.9127 31.8433C55.2698 31.8935 54.5864 31.7398 54.1059 31.3036C53.6596 30.8957 53.4381 30.2963 53.3039 29.7064C52.9825 28.2849 53.0792 26.7536 53.6627 25.4169C54.2432 24.0801 55.3198 22.9504 56.6585 22.3856C57.9379 21.8428 59.3733 21.8302 60.762 21.8773C62.1912 21.9275 63.6329 22.0404 64.9903 22.4954C66.0918 22.8626 67.1372 23.4713 67.908 24.3531C68.0578 24.5257 68.3199 24.7673 68.3168 25.0089C68.3137 25.2443 68.1483 25.5518 68.0453 25.7589C67.805 26.2453 67.4618 26.6752 67.0498 27.0235C66.588 27.422 66.0263 27.7044 65.4303 27.8268Z" fill="#405050"/>
<path d="M55.1795 31.9186C54.6958 31.3475 53.9937 30.9145 53.2261 30.9772C52.4678 31.04 51.8718 31.5578 51.6783 32.2952C51.5503 32.791 51.5909 33.315 51.6845 33.8202C51.7813 34.3505 51.931 34.8745 52.1838 35.3484C52.6613 36.2427 53.6567 37.0585 54.727 36.7039C56.1531 36.2301 56.2499 34.4635 55.8941 33.2303C55.7568 32.7721 55.5072 32.3077 55.1795 31.9186Z" fill="#FDBCA0"/>
<path d="M53.2947 32.2543C53.1636 32.1852 53.0513 32.3829 53.1792 32.452C54.0904 32.9258 54.5991 33.9456 54.415 34.9654C54.39 35.1098 54.6085 35.1694 54.6334 35.0251C54.8363 33.9111 54.3026 32.7783 53.2947 32.2543Z" fill="#F0A38B"/>
<path d="M54.3369 33.4374C53.9499 33.2774 53.5224 33.2429 53.1167 33.3276C53.0575 33.3401 53.0231 33.4123 53.0387 33.4688C53.0575 33.5316 53.1167 33.5598 53.1792 33.5472C53.5474 33.4719 53.9312 33.5127 54.2807 33.6571C54.3369 33.679 54.4055 33.632 54.4211 33.5786C54.4336 33.5127 54.3931 33.4625 54.3369 33.4374Z" fill="#F0A38B"/>
<path d="M52.939 42.4025L50.3989 43.4819L48.1365 49.9335L51.9935 47.8468L53.301 49.1082L52.939 42.4025Z" fill="#536969"/>
<path d="M43.0656 49.3953C43.0656 49.3953 33.0549 67.1151 35.2206 70.1495C37.3862 73.1838 56.7242 76.1398 56.7242 76.1398L57.5199 72.2048C57.5199 72.2048 43.4401 68.3389 43.1499 67.2312L43.5056 62.791C43.5025 62.791 44.6633 50.9799 43.0656 49.3953Z" fill="#FDBCA0"/>
<path d="M43.1467 67.2297L43.5025 62.7896C43.5025 62.7896 44.6633 50.9784 43.0656 49.3906C43.0656 49.3906 33.0549 67.1105 35.2206 70.1448C35.9196 71.1239 38.416 72.0966 41.471 72.9658L42.4165 72.6363L44.2764 67.964C43.6117 67.6659 43.1936 67.4117 43.1467 67.2297Z" fill="#405050"/>
<path d="M46.5387 68.4816C44.9878 69.8654 43.958 71.8298 43.6959 73.8976C43.2871 73.9039 42.9095 73.7345 42.5725 73.5023C42.1762 73.7721 41.6519 73.7125 41.1807 73.6403C40.9935 73.6121 40.7844 73.5713 40.6752 73.4175C40.6034 73.3171 40.591 73.1885 40.5785 73.0661C40.5317 72.5829 40.4849 72.0902 40.6003 71.6195C40.7127 71.1614 40.9717 70.7535 41.2275 70.3549C41.6707 69.6677 42.1138 68.9774 42.5569 68.2902C42.7098 68.0549 42.8627 67.8132 43.0843 67.6438C43.3058 67.4712 43.6054 67.3771 43.8675 67.4712C44.0298 67.5308 44.1608 67.6532 44.3138 67.7348C44.5696 67.8697 44.8692 67.8791 45.1563 67.8697C45.4434 67.8603 45.7367 67.8321 46.0144 67.9074C46.2922 67.9827 46.4794 68.1961 46.5387 68.4816Z" fill="#536969"/>
<path d="M43.5368 52.3247C43.4963 56.1624 43.3496 60.0001 43.0937 63.8315C43.0219 64.9203 42.9377 66.0092 42.8472 67.098C42.8222 67.3899 43.2778 67.3804 43.3028 67.0886C43.6211 63.2635 43.8302 59.429 43.9331 55.5913C43.9612 54.4993 43.9799 53.4073 43.9924 52.3184C43.9955 52.0203 43.5399 52.0297 43.5368 52.3247Z" fill="#A1B8B8"/>
<path d="M56.7211 76.1354C56.7211 76.1354 64.4164 79.2859 64.7659 78.6426C65.1154 78.0025 61.4675 76.7849 61.4675 76.7849C61.4675 76.7849 66.582 77.8267 66.7162 77.2996C66.8504 76.7755 61.9293 75.4639 61.9293 75.4639C61.9293 75.4639 67.8053 76.5433 67.8771 75.9283C67.9488 75.3133 62.6938 74.1585 62.6938 74.1585C62.6938 74.1585 67.6305 74.4409 67.6649 73.9922C67.7241 73.1857 57.5169 72.2004 57.5169 72.2004L56.7211 76.1354Z" fill="#FDBCA0"/>
<path d="M58.25 72.2788C58.25 72.2788 62.1756 70.8479 62.5719 71.1585C62.9683 71.4692 60.84 73.035 60.84 73.035L58.25 72.2788Z" fill="#FDBCA0"/>
<path d="M46.6698 68.0709H26.3489C26.1336 68.0709 26.0056 68.2466 26.0649 68.4632L29.6005 81.382C29.6598 81.5985 29.8813 81.7742 30.0967 81.7742H50.4176C50.6329 81.7742 50.7608 81.5985 50.7016 81.382L47.166 68.4632C47.1098 68.2466 46.8851 68.0709 46.6698 68.0709Z" fill="#E7DFC2"/>
<path d="M49.1754 81.6174L46.1735 70.6535C46.1235 70.4684 45.9332 70.3209 45.7522 70.3209H28.5081C28.324 70.3209 28.2179 70.4684 28.2678 70.6535L31.2698 81.6174C31.2667 81.6112 31.2885 81.6896 31.3135 81.7712H49.2222L49.1754 81.6174Z" fill="#F7F4E3"/>
<path d="M27.8247 69.0405C27.8247 69.3073 27.6094 69.5206 27.3473 69.5206C27.082 69.5206 26.8698 69.3041 26.8698 69.0405C26.8698 68.7769 27.0851 68.5604 27.3473 68.5604C27.6094 68.5604 27.8247 68.7769 27.8247 69.0405Z" fill="#405050"/>
<path d="M27.5691 69.0405C27.5691 69.1629 27.4692 69.2633 27.3475 69.2633C27.2258 69.2633 27.126 69.1629 27.126 69.0405C27.126 68.9182 27.2258 68.8177 27.3475 68.8177C27.4692 68.8177 27.5691 68.9182 27.5691 69.0405Z" fill="#576E6E"/>
<path d="M45.3718 70.4716H28.1277C27.9436 70.4716 27.8375 70.619 27.8874 70.8042L30.8894 81.7681C30.8863 81.7555 30.983 82.1007 30.983 82.1007H48.8887L48.7982 81.7681L45.7962 70.8042C45.7432 70.619 45.5559 70.4716 45.3718 70.4716Z" fill="#EBB254"/>
<path d="M48.7949 81.7681L46.8633 74.7078H28.9545L30.8861 81.7681C30.883 81.7555 30.9798 82.1007 30.9798 82.1007H48.8854L48.7949 81.7681Z" fill="#FEDEA6"/>
<path d="M45.4059 83.7983H27.5096L30.989 82.1007H48.8853L45.4059 83.7983Z" fill="#EBB254"/>
<path d="M68.2265 49.5947L104.709 43.4977C105.305 43.3973 105.848 43.868 105.845 44.483L105.689 67.7601C105.685 68.2308 105.361 68.6324 104.908 68.7266L69.3187 76.132C68.4449 76.3391 67.4058 75.7806 67.4058 74.4909V50.5737C67.4089 50.0904 67.7553 49.6762 68.2265 49.5947Z" fill="#FEDEA6"/>
<path d="M69.8773 49.5287L104.709 43.7204C105.305 43.62 105.848 44.0875 105.845 44.6963L105.695 67.7977C105.692 68.2621 105.367 68.6606 104.915 68.7547L70.233 75.9186C69.6276 76.0441 69.0597 75.5797 69.0597 74.9553V50.5015C69.0628 50.0151 69.4061 49.6071 69.8773 49.5287Z" fill="#FAC978"/>
<path d="M85.6202 61.6411L83.6012 73.151L94.573 70.8854L85.6202 61.6411Z" fill="#EBB254"/>
<path d="M85.1645 82.706L80.3495 81.0617C79.5787 80.7981 79.6255 79.6873 80.415 79.4896L88.5783 77.4343C88.7219 77.3997 88.8685 77.4029 89.009 77.4437L93.749 78.8683C94.5323 79.1036 94.5229 80.2207 93.7366 80.4435L85.6481 82.7185C85.489 82.7624 85.3205 82.7593 85.1645 82.706Z" fill="#EBB254"/>
<path d="M92.367 60.5428C92.2733 60.1098 91.8583 59.8305 91.4246 59.9089L86.2881 60.844C85.9043 60.9131 85.6235 61.2488 85.6172 61.6411L85.4019 82.7875L96.4486 79.6778L92.367 60.5428ZM91.0532 76.9855C89.5054 77.1455 88.0669 75.4605 87.8391 73.22C87.6113 70.9827 88.6816 69.0372 90.2294 68.8803C91.7772 68.7202 93.2157 70.4053 93.4435 72.6458C93.6713 74.8831 92.601 76.8255 91.0532 76.9855Z" fill="#FEDEA6"/>
<path d="M89.4776 22.5742C84.2507 22.5742 79.9974 18.2972 79.9974 13.0412C79.9974 7.78517 84.2507 3.50818 89.4776 3.50818C94.7045 3.50818 98.9578 7.78517 98.9578 13.0412C98.9578 18.2972 94.7045 22.5742 89.4776 22.5742ZM89.4776 6.20993C85.7298 6.20993 82.681 9.27568 82.681 13.0443C82.681 16.813 85.7298 19.8787 89.4776 19.8787C93.2253 19.8787 96.2741 16.813 96.2741 13.0443C96.2741 9.27568 93.2253 6.20993 89.4776 6.20993Z" fill="#F5E2D5"/>
<path d="M85.9262 15.4479L85.5049 14.654L89.0967 12.7367L90.6133 7.02881L91.4776 7.26101L89.8612 13.3486L85.9262 15.4479Z" fill="#F5E2D5"/>
</svg>
