<svg width="415" height="755" viewBox="0 0 415 755" fill="none" xmlns="http://www.w3.org/2000/svg">
<path fill-rule="evenodd" clip-rule="evenodd" d="M414.102 149.339C439.632 136.247 457.102 109.664 457.102 79C457.102 35.3695 421.733 0 378.102 0C351.587 0 328.122 13.0631 313.794 33.1047C308.966 31.7338 303.87 31 298.602 31C279.322 31 262.337 40.8316 252.389 55.755C245.086 47.9081 234.667 43 223.102 43C207.468 43 193.929 51.9696 187.35 65.0435C176.409 58.6584 163.683 55 150.102 55C125.327 55 103.396 67.175 89.9651 85.8683C85.5517 84.6505 80.903 84 76.1023 84C67.942 84 60.2207 85.8797 53.3478 89.2297C45.7732 75.9515 31.4831 67 15.1023 67C-9.19823 67 -28.8977 86.6995 -28.8977 111C-28.8977 130.033 -16.8128 146.244 0.102295 152.377V755H414.102V149.339ZM249.561 113H249.826C249.797 112.947 249.768 112.894 249.739 112.841C249.68 112.894 249.62 112.947 249.561 113Z" fill="url(#paint0_linear_3_1639)"/>
<defs>
<linearGradient id="paint0_linear_3_1639" x1="207.102" y1="32" x2="207.102" y2="545.5" gradientUnits="userSpaceOnUse">
<stop stop-color="#FAF8F5"/>
<stop offset="1" stop-color="white" stop-opacity="0"/>
</linearGradient>
</defs>
</svg>
