<svg width="415" height="71" viewBox="0 0 415 71" fill="none" xmlns="http://www.w3.org/2000/svg">
<path d="M402.251 71C349.458 71 318.174 46.6618 317.84 46.3815C255.287 -2.76224 216.941 6.60991 163.88 19.6001C149.807 23.0445 135.241 26.6092 118.631 29.5997C37.4516 44.232 -2.49715 1.67016 -2.89771 1.22959L-1.90967 0.335083C-1.52246 0.762303 37.999 42.7768 118.377 28.2913C134.96 25.3008 149.487 21.7495 163.546 18.3051C216.981 5.2348 255.581 -4.2041 318.655 45.3401C319.042 45.6472 357.001 75.152 419.955 68.7571L420.089 70.0788C413.907 70.7197 407.952 71 402.251 71Z" fill="#F9F0E3"/>
</svg>
